<svg width="56" height="56" viewBox="0 0 56 56" fill="none" xmlns="http://www.w3.org/2000/svg">
<path d="M28.0022 55.9173C43.4647 55.9173 55.9996 43.4014 55.9996 27.9622C55.9996 12.523 43.4647 0.00708008 28.0022 0.00708008C12.5397 0.00708008 0.00488281 12.523 0.00488281 27.9622C0.00488281 43.4014 12.5397 55.9173 28.0022 55.9173Z" fill="#3D3D3D"/>
<path d="M47.5141 7.9048C45.1041 5.5664 42.2298 3.62389 38.9512 2.23303C24.7199 -3.80412 8.28164 2.82116 2.23536 17.0311C-0.343549 23.0921 -0.61368 29.5535 1.02701 35.4401C3.43715 37.7785 6.31131 39.721 9.58976 41.1119C23.8212 47.149 40.2595 40.5236 46.3057 26.3138C48.8847 20.2528 49.1549 13.7914 47.5141 7.9048Z" fill="#3D3D3D"/>
<path d="M13.8465 17.1476C13.8465 17.1476 13.026 24.1398 14.049 27.9908L25.8378 30.9668C25.8378 30.9668 31.7551 22.7197 32.3909 20.3318C32.3909 20.3318 25.0894 12.1721 24.3834 11.7461C24.3834 11.7461 16.5327 14.1108 13.8465 17.1476Z" fill="#D1D1D1"/>
<path d="M1.21875 20.0172C1.21875 20.0172 5.06166 14.5602 6.72826 13.622C6.72826 13.622 8.88558 7.9562 10.3052 6.40698C10.3052 6.40698 3.52063 11.6285 1.21875 20.0172Z" fill="#D1D1D1"/>
<path d="M0.566406 32.2698C0.566406 32.2698 5.66111 35.1903 7.36278 35.6592C7.36278 35.6592 11.5724 44.5321 13.0166 45.9041C13.0166 45.9041 11.4307 48.1421 9.5331 48.7292C9.5331 48.7292 1.64127 42.8503 0.566406 32.2698Z" fill="#D1D1D1"/>
<path d="M30.5424 41.062L24.3486 49.0653C24.3486 49.0653 27.5942 53.3529 31.4243 53.5855C35.2544 53.8182 42.439 49.1461 42.439 49.1461C42.439 49.1461 43.1283 44.2497 41.5417 41.4252C41.5417 41.4252 32.1529 41.7452 30.5424 41.062Z" fill="#D1D1D1"/>
<path d="M43.374 20.4351C43.374 20.4351 47.4441 28.7425 47.9114 31.2188C47.9114 31.2188 54.1114 30.0523 54.5998 29.5002C55.0883 28.9481 54.6954 20.9349 53.4604 17.8798C52.2253 14.8248 46.9643 12.593 46.9643 12.593L43.374 20.4351Z" fill="#D1D1D1"/>
<path d="M21.3789 1.23252C21.3789 1.23252 27.021 2.86668 28.2799 3.78033C28.2799 3.78033 36.842 3.61576 39.4027 4.44899C39.4027 4.44899 39.8265 2.85708 38.9514 2.23269C38.0765 1.60842 26.9025 -0.72715 21.3789 1.23252Z" fill="#D1D1D1"/>
<path d="M25.9429 30.924L25.7314 31.0222L30.4349 41.1174L30.6464 41.0192L25.9429 30.924Z" fill="#D1D1D1"/>
<path d="M32.3967 20.2087L32.3945 20.4417L43.3782 20.5447L43.3804 20.3118L32.3967 20.2087Z" fill="#D1D1D1"/>
<path d="M41.6089 41.5192L41.4717 41.3309C45.7904 38.1959 47.7791 31.2572 47.7987 31.1875L48.0233 31.2504C48.0035 31.3209 45.9924 38.3372 41.6089 41.5192Z" fill="#D1D1D1"/>
<path d="M42.4417 49.2623L42.4346 49.0295C42.4676 49.0285 45.7619 48.9114 47.7114 47.5203L47.847 47.7099C45.8393 49.1426 42.5795 49.2581 42.4417 49.2623Z" fill="#D1D1D1"/>
<path d="M24.332 49.1807C19.2123 48.5143 13.0354 46.0371 12.9736 46.0121L13.0611 45.7961C13.1226 45.821 19.2725 48.2871 24.3621 48.9496L24.332 49.1807Z" fill="#D1D1D1"/>
<path d="M29.1227 55.6148L29.0469 55.3945C30.4746 54.9046 31.3142 53.5389 31.3225 53.5251L31.5222 53.6457C31.4864 53.7046 30.6296 55.0976 29.1227 55.6148Z" fill="#D1D1D1"/>
<path d="M7.46022 35.7249L7.26758 35.5936C7.30457 35.5395 11.0025 30.1565 13.9783 27.8982L14.1195 28.0837C11.1735 30.3194 7.49699 35.6712 7.46022 35.7249Z" fill="#D1D1D1"/>
<path d="M13.7891 17.2485C12.0788 16.2734 6.73244 13.7522 6.67871 13.7268L6.77826 13.5161C6.8321 13.5415 12.1868 16.0666 13.9048 17.0464L13.7891 17.2485Z" fill="#D1D1D1"/>
<path d="M24.4995 11.7686L24.2705 11.7236C24.7066 9.50993 28.0396 3.95609 28.1813 3.7207L28.3813 3.84077C28.3467 3.89792 24.9276 9.59475 24.4995 11.7686Z" fill="#D1D1D1"/>
<path d="M46.8548 12.6339C45.6297 9.38802 39.3939 4.5897 39.3311 4.54158L39.473 4.35669C39.7317 4.55469 45.8246 9.24356 47.0732 12.5517L46.8548 12.6339Z" fill="#D1D1D1"/>
</svg>
