<svg width="24" height="25" viewBox="0 0 24 25" fill="none" xmlns="http://www.w3.org/2000/svg">
<path d="M12.7471 23.5313C12.7322 23.5391 12.7173 23.5467 12.7021 23.5535C12.6596 23.5706 12.6177 23.5825 12.5728 23.5897C12.4893 23.5985 12.405 23.5989 12.3214 23.6074C12.2535 23.6144 12.1856 23.6212 12.118 23.6305C12.0212 23.644 11.9259 23.6641 11.8329 23.6943C11.6665 23.7483 11.5097 23.8233 11.3493 23.8921C11.2963 23.9135 11.2447 23.9301 11.1878 23.9382C11.1745 23.9398 11.1622 23.941 11.1487 23.941C11.1485 23.941 11.1484 23.9412 11.1485 23.9414C11.1993 24.0122 11.2779 24.0513 11.358 24.0793C11.4687 24.118 11.5948 24.126 11.7111 24.1274C11.8416 24.1291 11.9775 24.1066 12.1008 24.0644C12.1514 24.0471 12.2009 24.0229 12.2494 23.9998C12.3233 23.9647 12.3905 23.9244 12.457 23.877C12.5096 23.8394 12.5615 23.8002 12.6094 23.7568C12.6763 23.6961 12.7218 23.6177 12.7475 23.5317C12.7475 23.5314 12.7473 23.5313 12.7471 23.5313C12.7472 23.5312 12.7472 23.5312 12.7471 23.5313Z" fill="#D1D1D1"/>
<path d="M11.7516 23.5163C11.8895 23.4658 12.0163 23.3884 12.1097 23.2738C12.1618 23.2099 12.2031 23.1335 12.2269 23.0546C12.227 23.0544 12.2268 23.0542 12.2266 23.0542H12.2265C12.2034 23.068 12.18 23.0805 12.1557 23.092C12.1385 23.0992 12.1213 23.1065 12.1043 23.1139C11.9163 23.1879 11.7167 23.202 11.5198 23.2396C11.4138 23.2598 11.3093 23.2917 11.2067 23.3246C11.1582 23.3402 11.1099 23.3561 11.0612 23.3709C11.0135 23.3854 10.9647 23.3944 10.9163 23.4058C10.9125 23.4065 10.9088 23.4074 10.905 23.4085C10.8738 23.4173 10.8613 23.4683 10.8953 23.4834C10.9566 23.5106 11.0161 23.537 11.0818 23.5522C11.1552 23.5693 11.2319 23.5758 11.307 23.5793C11.458 23.5863 11.6094 23.5683 11.7516 23.5163Z" fill="#D1D1D1"/>
<path d="M11.3188 22.8797C11.4396 22.8779 11.5629 22.858 11.6744 22.811C11.7295 22.7878 11.781 22.7633 11.8306 22.73C11.8755 22.6999 11.9175 22.6648 11.958 22.6288C12.0125 22.5802 12.059 22.5229 12.104 22.4656C12.1543 22.4013 12.2025 22.3361 12.2383 22.2624C12.2384 22.2623 12.2383 22.262 12.2381 22.262H12.2381C12.1843 22.2831 12.1286 22.2993 12.0729 22.3144C11.968 22.343 11.8649 22.3773 11.7602 22.4065C11.6845 22.4276 11.608 22.4445 11.531 22.4604C11.443 22.4786 11.3569 22.502 11.2712 22.5288C11.1961 22.5521 11.1211 22.5755 11.0455 22.597C10.9825 22.6148 10.9222 22.641 10.8578 22.6533C10.8447 22.6545 10.8318 22.6549 10.8185 22.6541C10.8159 22.6536 10.8132 22.6531 10.8106 22.6526C10.8115 22.6529 10.8124 22.6534 10.8133 22.6537C10.8091 22.6519 10.8052 22.6496 10.8015 22.6469C10.7949 22.641 10.789 22.6344 10.7837 22.6273C10.7816 22.6242 10.7795 22.621 10.7775 22.6179C10.7765 22.6142 10.7756 22.6105 10.7747 22.6067C10.7747 22.6065 10.7743 22.6065 10.7741 22.6066C10.7397 22.654 10.7649 22.7103 10.802 22.7464C10.8569 22.7998 10.9415 22.8219 11.0134 22.8405C11.1137 22.8665 11.215 22.8813 11.3188 22.8797ZM10.8134 22.6537C10.8154 22.6546 10.8174 22.6554 10.8194 22.6563C10.8173 22.6557 10.8154 22.6546 10.8134 22.6537Z" fill="#D1D1D1"/>
<path d="M11.2144 22.2751C11.348 22.2852 11.4894 22.2682 11.6148 22.2212C11.6827 22.1958 11.7504 22.1656 11.8131 22.1289C11.8692 22.0962 11.9202 22.0548 11.9712 22.0149C12.1005 21.9131 12.2158 21.7824 12.3133 21.6504C12.3135 21.6502 12.3133 21.6499 12.313 21.6499C12.1664 21.6627 12.0194 21.6656 11.8728 21.6796C11.7565 21.6907 11.6399 21.7052 11.5245 21.7235C11.4127 21.7412 11.3036 21.7706 11.1959 21.8056C11.0902 21.8401 10.9862 21.88 10.8807 21.9154C10.7855 21.9473 10.6873 21.9729 10.59 21.9977C10.5898 21.9978 10.5898 21.9981 10.5899 21.9982C10.657 22.072 10.7386 22.134 10.8273 22.1799C10.947 22.242 11.0813 22.265 11.2144 22.2751Z" fill="#D1D1D1"/>
<path d="M10.8768 21.453C11.0175 21.5398 11.1822 21.5706 11.3431 21.5921C11.5084 21.6142 11.6721 21.6 11.8335 21.5588C11.9234 21.5358 12.0062 21.5023 12.0909 21.4653C12.2715 21.386 12.4426 21.2778 12.5979 21.1561C12.598 21.1559 12.5979 21.1556 12.5977 21.1556C12.5084 21.1548 12.4196 21.1447 12.3309 21.1371C12.2573 21.131 12.1835 21.1265 12.1101 21.1184C11.9749 21.1032 11.8387 21.0953 11.7026 21.094C11.698 21.094 11.6934 21.094 11.6888 21.094C11.5516 21.094 11.4162 21.1098 11.2808 21.1316C11.1734 21.1489 11.0668 21.1711 10.9592 21.1869C10.8423 21.2006 10.7233 21.2076 10.6058 21.2056C10.6055 21.2056 10.6054 21.2059 10.6055 21.2061C10.6775 21.3061 10.7719 21.3885 10.8768 21.453Z" fill="#D1D1D1"/>
<path d="M11.5811 20.3254C11.5112 20.3324 11.4415 20.3389 11.3719 20.3494C11.2997 20.3604 11.2277 20.3749 11.1559 20.3887C11.0225 20.4144 10.8893 20.4386 10.758 20.4744C10.7578 20.4744 10.7578 20.4748 10.7579 20.475C10.8976 20.5578 11.0507 20.6224 11.2128 20.6425C11.3015 20.6535 11.3857 20.6487 11.474 20.6366C11.5551 20.6256 11.6326 20.5913 11.7058 20.5563C11.7996 20.5112 11.8822 20.448 11.9633 20.3837C12.0047 20.351 12.0431 20.314 12.0774 20.274C12.0776 20.2737 12.0774 20.2734 12.0771 20.2734C12.0518 20.2791 12.0264 20.2831 12.0008 20.287C11.861 20.3008 11.7208 20.3115 11.5811 20.3254Z" fill="#D1D1D1"/>
<path d="M12.1037 19.5115C11.8806 19.4798 11.6603 19.4259 11.4351 19.409C11.3281 19.4008 11.2203 19.3973 11.113 19.3961C11.007 19.3949 10.9004 19.3976 10.7948 19.3858C10.7515 19.3798 10.706 19.3729 10.666 19.3563C10.6629 19.3547 10.6598 19.3532 10.6566 19.3516L10.6565 19.3516C10.6563 19.3516 10.6562 19.3517 10.6563 19.3519C10.6682 19.417 10.7131 19.475 10.7541 19.5247C10.8118 19.5945 10.8922 19.6491 10.9697 19.6945C11.1487 19.7994 11.359 19.8573 11.5666 19.8536C11.6634 19.8519 11.7618 19.8319 11.8551 19.8073C11.9489 19.7827 12.0407 19.7451 12.1264 19.7001C12.2126 19.6548 12.2951 19.5884 12.359 19.514C12.3591 19.5138 12.359 19.5135 12.3586 19.5135C12.353 19.5142 12.3474 19.515 12.3418 19.5158C12.3423 19.5157 12.3429 19.5156 12.3435 19.5155C12.2648 19.5247 12.1822 19.5207 12.1037 19.5115Z" fill="#D1D1D1"/>
<path d="M12.0798 18.483C11.961 18.4476 11.8386 18.4197 11.7175 18.3943C11.5266 18.3541 11.3226 18.3518 11.139 18.2806C11.1054 18.2653 11.073 18.248 11.0427 18.2269C11.0121 18.2012 10.9833 18.173 10.9538 18.146L10.9536 18.146C10.9535 18.146 10.9532 18.1461 10.9532 18.1463C10.9527 18.1919 10.9537 18.237 10.9598 18.2822C10.967 18.3354 10.9965 18.3902 11.0252 18.4346C11.0899 18.5349 11.1944 18.6103 11.2977 18.6667C11.4926 18.7733 11.7224 18.8077 11.9414 18.7821C12.0481 18.7697 12.1483 18.7517 12.2508 18.7205C12.3388 18.6938 12.4288 18.6561 12.5022 18.6001C12.5025 18.6 12.5025 18.5997 12.5022 18.5997C12.422 18.5875 12.3455 18.5602 12.2676 18.5385C12.2049 18.521 12.1423 18.5017 12.0798 18.483Z" fill="#D1D1D1"/>
<path d="M13.2441 17.3775C13.2443 17.3775 13.2446 17.3775 13.2449 17.3774C13.1927 17.3837 13.1395 17.383 13.087 17.3819C12.9846 17.3796 12.8831 17.3818 12.7812 17.3717C12.713 17.3593 12.6487 17.3375 12.5838 17.3124C12.5018 17.2808 12.4193 17.2519 12.3337 17.231C12.1703 17.1913 12.0047 17.1685 11.8383 17.1463C11.7342 17.1314 11.6353 17.1108 11.5376 17.0706C11.5088 17.0582 11.481 17.0454 11.4536 17.0298H11.4535C11.4533 17.0298 11.4532 17.0299 11.4532 17.0301C11.4506 17.2301 11.5714 17.4029 11.7223 17.5235C11.7741 17.5651 11.8276 17.6036 11.8837 17.6389C11.9463 17.6782 12.0121 17.7074 12.0801 17.7359C12.2053 17.7885 12.3374 17.8105 12.4728 17.817C12.5445 17.8204 12.614 17.8117 12.6849 17.8012C12.7494 17.7917 12.8124 17.7617 12.8699 17.7324C12.9542 17.6895 13.0271 17.6264 13.0952 17.5615C13.1554 17.5042 13.2151 17.4453 13.2611 17.3756C13.2613 17.3753 13.261 17.3751 13.2608 17.3751C13.2552 17.376 13.2497 17.3767 13.2441 17.3775Z" fill="#D1D1D1"/>
<path d="M12.5251 16.0056C12.3832 15.9429 12.2413 15.878 12.1162 15.7853C12.0617 15.741 12.0167 15.6921 11.9724 15.6373C11.9646 15.6269 11.9572 15.6163 11.95 15.6056C11.9499 15.6055 11.9497 15.6055 11.9497 15.6055C11.9496 15.6055 11.9495 15.6055 11.9494 15.6057C11.9293 15.6881 11.9282 15.7715 11.9469 15.8543C11.9687 15.9508 12.0204 16.0411 12.0827 16.1168C12.1483 16.1967 12.2308 16.2642 12.3202 16.3159C12.4243 16.376 12.542 16.4057 12.6603 16.4202C12.8598 16.4446 13.0731 16.4209 13.2541 16.3289C13.2544 16.3288 13.2542 16.3284 13.254 16.3284C13.2095 16.3136 13.1661 16.2963 13.1223 16.2796C13.1004 16.2703 13.0784 16.2612 13.0563 16.2523C13.0236 16.2369 12.9905 16.2224 12.9571 16.2083C12.9608 16.2098 12.9644 16.2114 12.9681 16.2129C12.8201 16.1446 12.674 16.0715 12.5251 16.0056Z" fill="#D1D1D1"/>
<path d="M13.8558 15.2749C13.8565 15.275 13.857 15.275 13.8576 15.2751C13.8312 15.2708 13.8064 15.2617 13.7818 15.2516C13.6786 15.2049 13.5818 15.147 13.4901 15.0806C13.3841 15.0037 13.283 14.9193 13.1698 14.8529C13.05 14.7826 12.9198 14.7258 12.7901 14.6771C12.6758 14.6341 12.5545 14.6044 12.434 14.5862H12.4339C12.4337 14.5862 12.4336 14.5863 12.4336 14.5866C12.4776 14.7214 12.5381 14.8467 12.6195 14.9631C12.7185 15.1045 12.8444 15.2379 13.0004 15.3161C13.1542 15.393 13.3285 15.434 13.5004 15.4183C13.5748 15.4115 13.6442 15.3915 13.7141 15.3658C13.7706 15.3452 13.8263 15.3193 13.8698 15.2771C13.87 15.2769 13.8699 15.2766 13.8697 15.2766C13.8651 15.276 13.8604 15.2754 13.8558 15.2749Z" fill="#D1D1D1"/>
<path d="M14.3476 14.1174C14.2382 14.015 14.141 13.9013 14.0335 13.7972C13.9051 13.6728 13.7528 13.5756 13.6105 13.4681C13.5169 13.393 13.432 13.3093 13.3424 13.2296L13.3422 13.2295C13.342 13.2295 13.3419 13.2295 13.3419 13.2297C13.3195 13.3216 13.3059 13.4137 13.3158 13.5082C13.3281 13.6263 13.3674 13.7345 13.4245 13.8385C13.4817 13.9427 13.5607 14.0411 13.649 14.1205C13.754 14.2149 13.8779 14.2808 14.0091 14.3304C14.1206 14.3726 14.2498 14.3826 14.3686 14.3875C14.4476 14.3908 14.5264 14.3904 14.6052 14.3841C14.6055 14.3841 14.6057 14.3838 14.6055 14.3836C14.5203 14.2939 14.438 14.2019 14.3476 14.1174Z" fill="#D1D1D1"/>
<path d="M15.4544 13.1925C15.4546 13.1929 15.455 13.1932 15.4552 13.1936C15.4174 13.1365 15.3768 13.0814 15.3349 13.0273C15.2451 12.904 15.1473 12.7878 15.0332 12.6862C14.9064 12.5735 14.7682 12.4717 14.6293 12.3744C14.5136 12.2933 14.3966 12.213 14.2726 12.1451L14.2724 12.145C14.2723 12.145 14.2722 12.1452 14.2722 12.1453C14.2629 12.3012 14.2771 12.4581 14.3273 12.6066C14.3896 12.7909 14.4927 12.9531 14.6223 13.0972C14.6908 13.1734 14.7746 13.2347 14.8598 13.291C14.9068 13.322 14.9557 13.3529 15.0064 13.3778C15.1268 13.4368 15.2478 13.4852 15.3774 13.5185C15.4342 13.533 15.495 13.5388 15.5532 13.546C15.6092 13.5528 15.6656 13.5572 15.7222 13.5566C15.7224 13.5566 15.7226 13.5563 15.7224 13.5561C15.6597 13.4718 15.6 13.3856 15.5354 13.3027C15.5093 13.2653 15.4821 13.2287 15.4544 13.1925Z" fill="#D1D1D1"/>
<path d="M15.7377 11.8382C15.6906 11.7366 15.6187 11.6455 15.5455 11.5618C15.4433 11.4452 15.3198 11.3446 15.188 11.2637H15.1879C15.1877 11.2637 15.1875 11.2638 15.1875 11.264C15.1891 11.4171 15.2124 11.5706 15.257 11.7171C15.2896 11.8242 15.333 11.9324 15.3944 12.0266C15.5225 12.2235 15.7025 12.3955 15.9042 12.516C15.9044 12.5161 15.9047 12.516 15.9046 12.5158C15.8939 12.4127 15.882 12.31 15.8613 12.2084C15.8353 12.08 15.7928 11.9571 15.7377 11.8382Z" fill="#D1D1D1"/>
<path d="M16.468 10.8659C16.3609 10.7616 16.235 10.6782 16.0982 10.6187L16.098 10.6187C16.0978 10.6187 16.0977 10.6188 16.0977 10.619C16.0961 10.7581 16.1185 10.8989 16.1632 11.0308C16.197 11.1305 16.2411 11.2302 16.3053 11.3144C16.3856 11.4195 16.4751 11.5066 16.5798 11.5866C16.6472 11.6384 16.7196 11.682 16.791 11.728C16.7912 11.7282 16.7914 11.728 16.7914 11.7278C16.8049 11.5186 16.75 11.3058 16.6607 11.1182C16.6153 11.0227 16.5432 10.9392 16.468 10.8659Z" fill="#D1D1D1"/>
<path d="M17.5301 10.4453C17.4533 10.3289 17.3552 10.2348 17.2426 10.1537C17.1565 10.0918 17.0538 10.0492 16.9534 10.0161H16.9534C16.9532 10.0161 16.9531 10.0163 16.9531 10.0165C16.992 10.2384 17.0721 10.4544 17.1654 10.6586C17.2195 10.7771 17.2972 10.8844 17.3803 10.9841C17.4794 11.1029 17.5896 11.2067 17.706 11.3083C17.7062 11.3084 17.7065 11.3083 17.7065 11.308C17.7236 11.1441 17.713 10.9722 17.6768 10.8115C17.6476 10.6829 17.6031 10.5558 17.5301 10.4453Z" fill="#D1D1D1"/>
<path d="M18.641 10.1516C18.6056 10.0621 18.5661 9.97446 18.5189 9.89052C18.4364 9.74405 18.3321 9.61247 18.2102 9.49669L18.21 9.49658C18.2099 9.49658 18.2098 9.49663 18.2098 9.49679C18.1309 9.76477 18.1104 10.0459 18.1454 10.322C18.1602 10.4601 18.1908 10.5898 18.2426 10.719C18.2662 10.7778 18.2906 10.8363 18.3175 10.8935C18.3475 10.9572 18.3829 11.0182 18.4125 11.082C18.4206 11.1119 18.4413 11.1392 18.4667 11.1541C18.5219 11.1864 18.5903 11.1658 18.6234 11.113C18.6767 11.028 18.6882 10.9291 18.7008 10.8319C18.7081 10.7763 18.7143 10.7203 18.7163 10.6642C18.721 10.5227 18.709 10.3783 18.6735 10.2411C18.6655 10.2106 18.6526 10.1808 18.641 10.1516Z" fill="#D1D1D1"/>
<path d="M19.3791 9.62895C19.3108 9.5067 19.2244 9.39536 19.1183 9.30406C19.1182 9.30395 19.1182 9.30396 19.1181 9.30396C19.118 9.30396 19.1179 9.30401 19.1178 9.30417C19.1113 9.34137 19.1066 9.37878 19.102 9.41624C19.0869 9.52101 19.0815 9.62667 19.0899 9.73234C19.0986 9.84171 19.1078 9.95156 19.1425 10.0562C19.1744 10.152 19.2162 10.246 19.2651 10.3342C19.3119 10.4182 19.3677 10.496 19.4187 10.5774C19.4188 10.5777 19.4192 10.5776 19.4192 10.5774C19.4979 10.3767 19.516 10.152 19.4864 9.93985C19.4713 9.83085 19.4327 9.72481 19.3791 9.62895Z" fill="#D1D1D1"/>
<path d="M20.1453 9.03258C20.1878 8.92983 20.2047 8.81473 20.2078 8.70588C20.2108 8.59937 20.2015 8.49339 20.1674 8.39212C20.1323 8.2881 20.0855 8.19934 20.0202 8.11158C19.9651 8.03782 19.9013 7.97254 19.8293 7.91509L19.8291 7.91504C19.8289 7.91504 19.8288 7.91509 19.8288 7.9153C19.8036 8.09325 19.8092 8.27077 19.8348 8.44835C19.8666 8.66937 19.9844 8.86131 20.0764 9.06093C20.0779 9.06474 20.0792 9.06861 20.0807 9.07243C19.9769 9.32726 19.94 9.60849 19.983 9.8806C20.0045 10.0176 20.0565 10.1492 20.1133 10.2749C20.1608 10.38 20.223 10.477 20.2752 10.5796C20.2753 10.5797 20.2756 10.5797 20.2757 10.5796C20.4022 10.3565 20.4664 10.0806 20.4645 9.82544C20.4634 9.6972 20.4302 9.56949 20.3846 9.45047C20.3258 9.29674 20.2494 9.15886 20.1453 9.03258Z" fill="#D1D1D1"/>
<path d="M20.9829 9.05401L20.9827 9.05396C20.9826 9.05396 20.9826 9.05401 20.9825 9.05412C20.9624 9.09185 20.9453 9.13079 20.9288 9.17027C20.8785 9.29199 20.8483 9.41679 20.8363 9.54842C20.8366 9.54614 20.8368 9.54391 20.8372 9.54164C20.8308 9.59065 20.8262 9.63978 20.8289 9.68943C20.8322 9.75344 20.8442 9.81687 20.8572 9.87946C20.8771 9.97468 20.9105 10.0679 20.9488 10.1575C20.9591 10.1836 20.97 10.2095 20.9814 10.2352C20.9905 10.2573 20.999 10.2795 21.0066 10.3023C21.0066 10.3025 21.0068 10.3025 21.007 10.3025C21.0775 10.229 21.1243 10.1319 21.1592 10.0373C21.1982 9.93202 21.2196 9.82503 21.2263 9.7129C21.2326 9.6084 21.2118 9.50168 21.1775 9.40328C21.1327 9.27467 21.0707 9.15792 20.9829 9.05401Z" fill="#D1D1D1"/>
<path d="M20.9258 9.17952C20.9271 9.17645 20.9284 9.17343 20.9297 9.17035C20.93 9.16956 20.9303 9.16876 20.9307 9.16797C20.9291 9.17178 20.9274 9.17565 20.9258 9.17952Z" fill="#D1D1D1"/>
<path d="M21.7902 9.02555C21.79 9.02544 21.7899 9.02539 21.7899 9.02539C21.7898 9.02539 21.7897 9.02544 21.7896 9.02555C21.7453 9.14118 21.7129 9.25839 21.6867 9.37916C21.6683 9.46395 21.6569 9.55096 21.6516 9.63749C21.6481 9.69531 21.6421 9.75201 21.6455 9.81019C21.6592 10.0472 21.7122 10.2768 21.765 10.5072C21.765 10.5075 21.7654 10.5075 21.7656 10.5072C21.8342 10.4163 21.8932 10.3179 21.9402 10.214C21.9698 10.1487 21.9941 10.0837 22.0137 10.0147C22.0328 9.94734 22.0425 9.88004 22.0489 9.81014C22.0623 9.66404 22.0307 9.51683 21.9842 9.37911C21.9411 9.25166 21.8719 9.13201 21.7902 9.02555Z" fill="#D1D1D1"/>
<path d="M22.8242 9.46591C22.8111 9.4107 22.7922 9.35929 22.7704 9.30673C22.7447 9.24494 22.7184 9.185 22.6833 9.12814C22.6516 9.07658 22.6171 9.02698 22.5788 8.98003L22.5787 8.97998C22.5786 8.97998 22.5785 8.98014 22.5784 8.98025C22.5351 9.10896 22.4965 9.24107 22.473 9.37503C22.4609 9.44419 22.4483 9.51286 22.4388 9.58265C22.4316 9.63761 22.428 9.69293 22.4225 9.74809C22.4147 9.82498 22.4177 9.90182 22.4258 9.97845C22.4341 10.0571 22.4404 10.1354 22.4525 10.2138C22.4696 10.3244 22.4928 10.4334 22.5233 10.5412C22.5342 10.5796 22.5459 10.6179 22.5578 10.6562C22.5579 10.6564 22.5583 10.6564 22.5583 10.6562C22.6205 10.5579 22.677 10.4561 22.7247 10.35C22.7769 10.2335 22.8238 10.1116 22.8444 9.98507C22.8592 9.89456 22.8687 9.80469 22.8653 9.71312C22.8622 9.63135 22.8431 9.54545 22.8242 9.46591Z" fill="#D1D1D1"/>
<path d="M23.1853 9.68248C23.1853 9.68248 23.1851 9.68237 23.185 9.68237C23.1848 9.68237 23.1847 9.68243 23.1847 9.68259C23.1097 9.97409 23.0335 10.2717 23.0188 10.5734C23.0155 10.6416 23.0132 10.7097 23.0149 10.7779C23.0177 10.8875 23.0234 10.997 23.0123 11.1063C23.01 11.1217 23.0072 11.1368 23.0039 11.1522C23.0039 11.1525 23.0041 11.1527 23.0044 11.1525C23.1135 11.0893 23.1949 10.9748 23.251 10.8641C23.2844 10.7981 23.3139 10.7297 23.3405 10.6606C23.4646 10.3401 23.3883 9.95305 23.1853 9.68248Z" fill="#D1D1D1"/>
<path d="M10.1285 23.7315C10.0486 23.7368 9.96946 23.7466 9.89029 23.7586C9.82331 23.7688 9.75972 23.7931 9.69385 23.8065C9.67456 23.8073 9.65549 23.8067 9.63625 23.8051C9.58109 23.7949 9.52767 23.7747 9.47362 23.7596C9.44421 23.7515 9.41575 23.7407 9.3874 23.7297C9.37945 23.726 9.37156 23.7223 9.36377 23.7185H9.36361C9.3634 23.7185 9.36324 23.7187 9.36329 23.7188C9.37601 23.7702 9.39747 23.8182 9.42211 23.8649C9.44193 23.9024 9.46207 23.9401 9.48692 23.9744C9.53848 24.0455 9.60594 24.0913 9.68696 24.123C9.72565 24.1382 9.77302 24.1395 9.81367 24.1436C9.86682 24.149 9.91928 24.1445 9.9719 24.136C10.0573 24.122 10.1385 24.0874 10.2132 24.0442C10.3408 23.9704 10.4406 23.8529 10.5023 23.7202C10.5024 23.72 10.5023 23.7197 10.502 23.7197C10.3774 23.7176 10.2529 23.7233 10.1285 23.7315Z" fill="#D1D1D1"/>
<path d="M9.67323 23.3653C9.75717 23.3697 9.84577 23.3507 9.9252 23.3248C10.0737 23.2764 10.2006 23.1749 10.3131 23.0692C10.3133 23.0691 10.3132 23.0688 10.313 23.0688C10.2574 23.0594 10.2013 23.0523 10.1451 23.0482C10.073 23.0428 10.0007 23.0452 9.92859 23.0413C9.78552 23.0336 9.64255 23.0253 9.49995 23.0117C9.35523 22.9979 9.20876 22.9962 9.06436 22.9791C9.04268 22.976 9.02159 22.9718 9.00034 22.9666C9.00013 22.9666 8.99987 22.9667 9.00008 22.967C9.03643 23.0175 9.08084 23.0617 9.12816 23.102C9.21321 23.1743 9.3016 23.2413 9.40249 23.2903C9.48903 23.3322 9.57678 23.3602 9.67323 23.3653Z" fill="#D1D1D1"/>
<path d="M9.81125 22.1931C9.70675 22.1981 9.6039 22.2118 9.50147 22.2329C9.41954 22.2496 9.33815 22.2692 9.25548 22.2819C9.17149 22.2924 9.08474 22.304 9.00027 22.2986C9.00001 22.2986 8.9999 22.2989 9.00011 22.2991C9.03291 22.3389 9.07144 22.3718 9.11309 22.4023C9.21097 22.474 9.31727 22.5259 9.43697 22.5494C9.6155 22.5847 9.79122 22.5602 9.95624 22.4854C10.0943 22.4228 10.2141 22.3187 10.3147 22.2068C10.3148 22.2067 10.3148 22.2063 10.3146 22.2063C10.2174 22.1919 10.12 22.187 10.0224 22.187C9.9521 22.187 9.88173 22.1896 9.81125 22.1931Z" fill="#D1D1D1"/>
<path d="M9.47891 21.5812C9.65993 21.5886 9.83549 21.5343 9.99595 21.4545C10.1308 21.3873 10.2551 21.2864 10.3474 21.1674C10.3477 21.1673 10.3475 21.1669 10.3473 21.1669C10.2114 21.1628 10.0761 21.1565 9.94041 21.1565C9.88111 21.1565 9.82182 21.1577 9.76236 21.1608C9.65002 21.1666 9.53784 21.1804 9.42772 21.2033C9.33641 21.2224 9.2459 21.2477 9.1537 21.2624C9.08974 21.2686 9.02731 21.2667 8.96346 21.2595C8.94428 21.2568 8.92509 21.2541 8.90591 21.2516C8.87836 21.2466 8.85149 21.2402 8.82457 21.2323C8.8243 21.2322 8.82409 21.2325 8.82431 21.2327C8.86749 21.3099 8.93018 21.3824 9.00013 21.4362C9.13706 21.5416 9.3095 21.5744 9.47891 21.5812Z" fill="#D1D1D1"/>
<path d="M9.04813 20.7155C9.14362 20.7337 9.24155 20.7438 9.33858 20.7501C9.51673 20.7616 9.69929 20.7284 9.86732 20.6703C10.0625 20.6029 10.254 20.5 10.4028 20.3557C10.403 20.3555 10.4028 20.3552 10.4025 20.3552C10.2383 20.3439 10.0748 20.3261 9.9102 20.3211C9.87729 20.3201 9.84438 20.3196 9.81147 20.3196C9.65234 20.3196 9.49363 20.3321 9.33746 20.3645C9.27016 20.3785 9.2034 20.3948 9.13742 20.4139C9.04082 20.4419 8.94618 20.4815 8.84735 20.5006C8.84263 20.5009 8.83791 20.5009 8.83314 20.5007C8.82111 20.4982 8.80967 20.4952 8.7979 20.4914C8.77077 20.478 8.7456 20.4611 8.72133 20.4429C8.7127 20.4357 8.70416 20.4285 8.69584 20.421C8.69558 20.4208 8.69531 20.421 8.69531 20.4212C8.70644 20.4973 8.7288 20.573 8.78895 20.6248C8.8244 20.6553 8.87098 20.669 8.91464 20.6832C8.95831 20.6976 9.00314 20.7069 9.04813 20.7155Z" fill="#D1D1D1"/>
<path d="M10.1465 19.182C10.0785 19.1778 10.0107 19.17 9.94252 19.1656C9.90495 19.1631 9.86743 19.1614 9.82996 19.1614C9.79404 19.1614 9.75811 19.163 9.72218 19.1671C9.63543 19.177 9.5499 19.1932 9.46485 19.2126C9.36586 19.2351 9.26968 19.2665 9.17207 19.2942C9.17186 19.2942 9.17181 19.2945 9.17197 19.2947C9.26597 19.3709 9.37259 19.4271 9.48536 19.4699C9.65207 19.5332 9.83934 19.5305 10.0045 19.4646C10.0811 19.434 10.1495 19.393 10.2112 19.338C10.2589 19.2954 10.2885 19.2373 10.3123 19.179C10.3125 19.1788 10.3122 19.1786 10.3121 19.1786C10.2568 19.1812 10.2021 19.1854 10.1465 19.182Z" fill="#D1D1D1"/>
<path d="M10.477 18.1266C10.3209 18.0193 10.1457 17.947 9.9608 17.9075C9.85328 17.8847 9.74656 17.8765 9.63692 17.8789C9.55033 17.8808 9.46491 17.8802 9.3788 17.8709C9.3178 17.8613 9.25623 17.8497 9.19831 17.8283C9.18824 17.8239 9.17833 17.8191 9.16847 17.8143C9.16847 17.8143 9.16837 17.8142 9.16826 17.8142C9.1681 17.8142 9.16789 17.8144 9.168 17.8146C9.19534 17.9116 9.25268 18.0016 9.32019 18.0758C9.41843 18.1836 9.55393 18.2456 9.69426 18.2777C9.83935 18.3109 9.99201 18.2926 10.1353 18.2594C10.2545 18.2319 10.3699 18.1859 10.477 18.1271C10.4773 18.127 10.4772 18.1268 10.477 18.1266Z" fill="#D1D1D1"/>
<path d="M11.0049 16.9437C11.0051 16.9435 11.0051 16.9432 11.0049 16.9432C10.7859 16.7753 10.5287 16.6641 10.2562 16.6242C10.2651 16.6254 10.274 16.6266 10.2829 16.6279C10.2054 16.6142 10.1274 16.6077 10.0491 16.6077C10.022 16.6077 9.99489 16.6085 9.96771 16.61C9.8153 16.6187 9.66433 16.6518 9.51118 16.6362C9.49152 16.6332 9.47261 16.6292 9.45342 16.6237C9.45321 16.6236 9.45305 16.6239 9.45316 16.6241C9.51124 16.8026 9.69003 16.9264 9.85483 16.9979C9.97433 17.0497 10.0959 17.0964 10.2267 17.1079C10.3563 17.1193 10.4889 17.1039 10.6163 17.0807C10.7522 17.0558 10.8823 17.0074 11.0049 16.9437Z" fill="#D1D1D1"/>
<path d="M10.0566 15.1153C10.0495 15.1096 10.0425 15.1039 10.0356 15.0977L10.0354 15.0977C10.0353 15.0977 10.0351 15.0978 10.0352 15.098C10.0521 15.2048 10.1197 15.2965 10.1933 15.3724C10.2916 15.4735 10.4137 15.5488 10.5441 15.6004C10.6757 15.6523 10.8214 15.6628 10.9617 15.6574C11.0867 15.6525 11.211 15.6323 11.3318 15.6002C11.3321 15.6001 11.3321 15.5998 11.3319 15.5997C11.2485 15.536 11.1605 15.4786 11.0674 15.4301C10.9633 15.3757 10.8521 15.333 10.7412 15.2948C10.6382 15.2592 10.5285 15.2426 10.4216 15.2232C10.32 15.2049 10.2172 15.1895 10.1212 15.1508C10.0986 15.1404 10.0775 15.129 10.0566 15.1153Z" fill="#D1D1D1"/>
<path d="M10.6552 14.0005C10.6555 14.0007 10.6557 14.0009 10.656 14.0011C10.6556 14.0008 10.6553 14.0006 10.655 14.0003C10.6547 14.0002 10.6545 14 10.6543 13.9998C10.6544 13.9999 10.6546 14 10.6547 14.0001C10.6502 13.9965 10.6457 13.9929 10.6411 13.9893C10.6411 13.9893 10.641 13.9893 10.6409 13.9893C10.6407 13.9893 10.6406 13.9893 10.6406 13.9895C10.6482 14.0917 10.684 14.196 10.7348 14.2848C10.8032 14.4045 10.9092 14.497 11.0237 14.5711C11.1489 14.6521 11.2987 14.6861 11.4445 14.7053C11.5683 14.7214 11.6908 14.7203 11.8145 14.705C11.8241 14.7038 11.829 14.694 11.8222 14.6864C11.6995 14.545 11.5539 14.4272 11.3935 14.3312C11.2279 14.2321 11.0424 14.1883 10.8656 14.1165C10.7932 14.0846 10.7183 14.0479 10.6552 14.0005Z" fill="#D1D1D1"/>
<path d="M12.2016 13.2566C12.4078 13.3401 12.6509 13.3076 12.8491 13.2173C12.8493 13.2172 12.8493 13.217 12.8491 13.2168C12.7358 13.1296 12.6122 13.0571 12.481 13.0003C12.4044 12.9671 12.3286 12.9388 12.2466 12.9217C12.1686 12.9053 12.088 12.898 12.0087 12.8885C11.9703 12.8829 11.9322 12.876 11.8959 12.8624C11.876 12.8526 11.8571 12.8421 11.8386 12.8298C11.8312 12.8241 11.824 12.8182 11.8169 12.8121L11.8167 12.812C11.8166 12.812 11.8165 12.8121 11.8165 12.8123C11.8126 13.0316 12.0174 13.182 12.2016 13.2566Z" fill="#D1D1D1"/>
<path d="M12.5803 11.7583C12.6698 11.8859 12.7945 11.9923 12.9318 12.0655C13.0768 12.1427 13.2422 12.1783 13.4056 12.1802C13.4793 12.1811 13.5544 12.1712 13.6255 12.152C13.6883 12.1351 13.7451 12.0991 13.796 12.0595C13.7962 12.0594 13.7961 12.0591 13.7959 12.059C13.7386 12.0485 13.6818 12.0355 13.6276 12.0139C13.4906 11.9545 13.3606 11.8791 13.2281 11.8104C13.0828 11.735 12.9276 11.6811 12.7766 11.6183C12.7148 11.5919 12.6529 11.5655 12.5976 11.5271C12.5773 11.5097 12.56 11.4905 12.543 11.4697C12.5309 11.4536 12.5202 11.437 12.51 11.4195C12.5099 11.4194 12.5098 11.4194 12.5097 11.4194C12.5096 11.4194 12.5094 11.4195 12.5094 11.4196C12.4948 11.4688 12.4867 11.5234 12.4964 11.5743C12.5094 11.6422 12.541 11.7021 12.5803 11.7583Z" fill="#D1D1D1"/>
<path d="M14.4642 11.0856C14.55 11.1032 14.6387 11.1149 14.726 11.1229C14.8061 11.1302 14.8868 11.1296 14.9668 11.1376C14.9855 11.1405 15.0035 11.1442 15.0217 11.1499C15.029 11.1531 15.0361 11.1565 15.0431 11.1604C15.0434 11.1605 15.0437 11.1603 15.0436 11.16C15.0245 11.0624 14.9395 10.9805 14.8679 10.9168C14.8115 10.8666 14.752 10.8181 14.6888 10.7768C14.6126 10.7272 14.5294 10.6879 14.4436 10.6585C14.3573 10.6289 14.259 10.6227 14.1684 10.6221C14.1661 10.6221 14.1637 10.6221 14.1613 10.6221C13.9972 10.6221 13.8351 10.6602 13.6838 10.7215C13.6836 10.7216 13.6835 10.7219 13.6837 10.7221C13.7874 10.8025 13.9001 10.8718 14.0182 10.9289C14.1606 10.9977 14.3093 11.054 14.4642 11.0856Z" fill="#D1D1D1"/>
<path d="M15.5372 9.68236C15.3798 9.5875 15.1972 9.53308 15.0159 9.50907C15.0022 9.50669 14.9807 9.50049 14.962 9.50049C14.9452 9.50049 14.9307 9.50552 14.9262 9.52301C14.9244 9.53016 14.9285 9.53875 14.9362 9.5405C14.9446 9.54235 14.9529 9.54421 14.9612 9.5459C14.9636 9.5476 14.9659 9.5494 14.968 9.55136C14.9663 9.54998 14.9645 9.54871 14.9628 9.54733C15.0139 9.58941 15.0703 9.62555 15.1231 9.66566C15.2351 9.75267 15.3419 9.8443 15.4464 9.9401C15.5539 10.0387 15.6644 10.1345 15.7705 10.2346C15.8492 10.3088 15.9336 10.378 16.0193 10.4439C16.0172 10.4423 16.0151 10.4408 16.0131 10.4392C16.0358 10.4577 16.0587 10.4758 16.0813 10.4945C16.0815 10.4947 16.0818 10.4945 16.0818 10.4941C16.0592 10.3569 16.0013 10.2273 15.9365 10.1052C15.8443 9.93163 15.7051 9.78362 15.5372 9.68236ZM14.9804 9.54166L14.9802 9.5415C14.9804 9.54161 14.9805 9.54172 14.9807 9.54187C14.9807 9.54187 14.9805 9.54172 14.9804 9.54166Z" fill="#D1D1D1"/>
<path d="M17.1173 9.94529C17.1325 9.95737 17.147 9.96988 17.1615 9.98286C17.1616 9.98307 17.1619 9.98297 17.162 9.9827C17.1711 9.88334 17.154 9.78271 17.1332 9.68568C17.1162 9.60689 17.0918 9.53074 17.0624 9.4556C16.9947 9.28332 16.8991 9.12387 16.7537 9.00549C16.6521 8.92271 16.5411 8.86352 16.4188 8.8171C16.3225 8.78054 16.2238 8.7639 16.1214 8.75854C16.1212 8.75854 16.121 8.75881 16.1211 8.75902C16.2481 9.01084 16.3941 9.26159 16.5724 9.48082C16.6657 9.59565 16.7804 9.69395 16.8975 9.78372C16.8873 9.77598 16.8773 9.76814 16.8671 9.7604C16.9482 9.82542 17.0344 9.88292 17.1173 9.94529Z" fill="#D1D1D1"/>
<path d="M18.124 9.25874C18.1309 9.26764 18.1375 9.27665 18.144 9.28572C18.1442 9.28587 18.1446 9.28598 18.1446 9.28572C18.1627 9.19568 18.1523 9.10528 18.1395 9.0153C18.1287 8.93915 18.1105 8.86523 18.0883 8.79157C18.0706 8.73301 18.0478 8.67642 18.0233 8.6203C17.9782 8.51744 17.918 8.42852 17.8457 8.34273C17.7196 8.1933 17.5522 8.07677 17.3754 7.9959L17.3752 7.99585C17.3751 7.99585 17.375 7.99601 17.375 7.99622C17.4157 8.1518 17.4696 8.30272 17.5322 8.45067C17.5636 8.5246 17.5985 8.59714 17.6364 8.66805C17.6811 8.75183 17.7396 8.8276 17.7983 8.902C17.7917 8.89347 17.7851 8.88489 17.7785 8.87636C17.8289 8.94122 17.8828 9.00179 17.9379 9.06294C17.9982 9.12981 18.0657 9.19017 18.124 9.25874Z" fill="#D1D1D1"/>
<path d="M19.1522 9.03513C19.1903 8.90879 19.1937 8.77027 19.181 8.6397C19.1656 8.48173 19.1261 8.32954 19.039 8.19468C18.9344 8.03263 18.7813 7.90264 18.61 7.81622L18.6099 7.81616C18.6098 7.81616 18.6097 7.81627 18.6097 7.81648C18.6038 8.13374 18.69 8.46425 18.8782 8.72173C18.9229 8.78289 18.9713 8.84171 19.0228 8.89729C19.0655 8.9435 19.111 8.98733 19.1518 9.03523C19.1519 9.03539 19.1522 9.03534 19.1522 9.03513Z" fill="#D1D1D1"/>
<path d="M20.9466 9.03923C20.9862 8.93573 21.0127 8.82784 21.0307 8.71868C21.0497 8.60332 21.0585 8.48658 21.0457 8.37021C21.0387 8.30678 21.0297 8.2416 21.009 8.18082C20.9816 8.10075 20.9475 8.02227 20.9083 7.94723C20.851 7.8377 20.772 7.73611 20.6875 7.64629L20.6873 7.64624C20.6872 7.64624 20.6871 7.64629 20.6871 7.64645C20.6424 7.84793 20.6331 8.05321 20.6583 8.25734C20.6577 8.2531 20.6572 8.24891 20.6566 8.24467C20.6652 8.33296 20.6806 8.41822 20.708 8.50253C20.7317 8.57555 20.7581 8.64698 20.7881 8.71757C20.835 8.82784 20.8932 8.93187 20.946 9.03923C20.9461 9.03955 20.9464 9.03944 20.9466 9.03923Z" fill="#D1D1D1"/>
<path d="M21.8187 8.93691C21.8728 8.72813 21.868 8.49851 21.8143 8.29015C21.7876 8.18692 21.7349 8.08852 21.6759 8.0005C21.5928 7.87655 21.4931 7.77062 21.3736 7.68096L21.3735 7.68091C21.3733 7.68091 21.3732 7.68101 21.3732 7.68112C21.3245 7.93198 21.344 8.19879 21.4449 8.4345C21.5283 8.6293 21.6702 8.78869 21.8181 8.93707C21.8183 8.93718 21.8186 8.93718 21.8187 8.93691Z" fill="#D1D1D1"/>
<path d="M22.5525 8.74071C22.5507 8.73849 22.5491 8.73621 22.5474 8.73404C22.5472 8.73382 22.547 8.73361 22.5469 8.7334C22.5487 8.73584 22.5506 8.73827 22.5525 8.74071Z" fill="#D1D1D1"/>
<path d="M22.688 8.90124C22.692 8.90712 22.6958 8.91305 22.6996 8.91909C22.6997 8.9192 22.7 8.91931 22.7001 8.91909C22.7468 8.83531 22.7489 8.71884 22.7455 8.62414C22.7422 8.52876 22.7286 8.43046 22.6977 8.33974C22.6315 8.14473 22.4857 7.9715 22.3066 7.87066L22.3064 7.87061C22.3063 7.87061 22.3061 7.87076 22.3061 7.87087C22.3007 7.94951 22.2981 8.02958 22.3047 8.10811C22.3102 8.17366 22.3223 8.23884 22.334 8.30355C22.3633 8.46517 22.4457 8.60698 22.5463 8.73415C22.5918 8.79165 22.6423 8.84411 22.688 8.90124Z" fill="#D1D1D1"/>
<path d="M0.643653 13.3456C0.543764 13.1846 0.415419 13.0358 0.275097 12.9088L0.274885 12.9087C0.274726 12.9087 0.27462 12.9088 0.27462 12.909C0.217548 13.0918 0.221152 13.2931 0.28559 13.4737C0.332752 13.6061 0.409961 13.7138 0.507465 13.8131C0.604758 13.9123 0.725313 13.9933 0.84979 14.0545C0.850055 14.0546 0.850267 14.0544 0.850267 14.0542C0.828911 13.9236 0.811954 13.7932 0.778199 13.665C0.748894 13.5541 0.704222 13.4431 0.643653 13.3456Z" fill="#D1D1D1"/>
<path d="M1.44553 13.5563C1.38947 13.4093 1.33494 13.262 1.27522 13.1163C1.24236 13.036 1.2094 12.9556 1.16632 12.8802C1.12636 12.8104 1.07952 12.7447 1.0305 12.6812C0.937026 12.5599 0.834753 12.4474 0.718489 12.3475L0.718331 12.3474C0.718172 12.3474 0.718066 12.3475 0.718066 12.3476C0.694219 12.5024 0.699571 12.6545 0.729459 12.8081C0.765917 12.9957 0.860454 13.1673 0.995052 13.3018C1.08249 13.3892 1.18794 13.4548 1.2962 13.513C1.34755 13.5406 1.40134 13.565 1.45677 13.5833C1.45703 13.5834 1.45724 13.583 1.45714 13.5828C1.45306 13.5736 1.44898 13.5644 1.445 13.5552C1.44516 13.5556 1.44532 13.5559 1.44553 13.5563Z" fill="#D1D1D1"/>
<path d="M2.11549 12.4638C2.07267 12.3965 2.02757 12.3316 1.97861 12.2686C1.92864 12.2044 1.87008 12.1489 1.8084 12.096C1.68827 11.9931 1.55494 11.9118 1.40662 11.8565L1.40657 11.8564C1.40646 11.8564 1.40625 11.8566 1.40625 11.8568C1.42125 12.0151 1.46571 12.1644 1.53311 12.3084C1.609 12.4703 1.74036 12.5988 1.89822 12.6812C2.02111 12.7452 2.16519 12.7937 2.30387 12.8091C2.30414 12.8091 2.30424 12.8089 2.30414 12.8087C2.27838 12.7632 2.25517 12.7162 2.23223 12.6693C2.19741 12.5984 2.15793 12.5306 2.11549 12.4638Z" fill="#D1D1D1"/>
<path d="M2.59353 11.4313C2.45194 11.3057 2.28677 11.2103 2.10575 11.1543C2.10559 11.1543 2.10543 11.1545 2.10548 11.1547C2.13595 11.3535 2.21321 11.5422 2.33684 11.7011C2.41824 11.8057 2.52963 11.8927 2.64896 11.9495C2.75987 12.0023 2.88122 12.0301 3.00268 12.0459C3.00284 12.046 3.00305 12.0456 3.00295 12.0454C2.94465 11.9451 2.88509 11.8455 2.82728 11.745C2.76125 11.6301 2.69379 11.5202 2.59353 11.4313Z" fill="#D1D1D1"/>
<path d="M3.99919 10.8703C3.94838 10.8242 3.89358 10.7816 3.8381 10.7415C3.76306 10.687 3.68066 10.649 3.59429 10.6161C3.60504 10.6206 3.61575 10.6251 3.62645 10.6296C3.44416 10.5539 3.25297 10.5116 3.05499 10.5071C3.05473 10.5071 3.05462 10.5073 3.05473 10.5076C3.1224 10.6382 3.21142 10.7544 3.31741 10.8564C3.40108 10.9371 3.49641 11.0081 3.6033 11.0544C3.71792 11.1041 3.83068 11.1376 3.95436 11.1561C4.05786 11.1715 4.16591 11.1795 4.26972 11.1621C4.26998 11.1619 4.26998 11.1617 4.26982 11.1615C4.17799 11.0653 4.09818 10.9598 3.99919 10.8703Z" fill="#D1D1D1"/>
<path d="M3.9995 9.75244C3.92706 9.75244 3.85499 9.75933 3.78536 9.77226C3.7852 9.77237 3.78509 9.77263 3.7852 9.77274C3.9154 9.95439 4.10405 10.1098 4.32243 10.1696C4.48776 10.215 4.67238 10.2132 4.83893 10.1747C4.8392 10.1746 4.83931 10.1743 4.83915 10.1741C4.71568 10.0613 4.60206 9.94056 4.4531 9.85964C4.31596 9.78514 4.15704 9.75244 3.9995 9.75244Z" fill="#D1D1D1"/>
<path d="M5.97839 8.68442C5.89026 8.64998 5.80272 8.63244 5.70951 8.61998C5.64549 8.61246 5.58122 8.60864 5.51715 8.60864C5.35696 8.60864 5.1975 8.63244 5.04319 8.68145C5.04293 8.68156 5.04293 8.68182 5.04304 8.68198C5.15638 8.79862 5.28764 8.89411 5.43369 8.96565C5.50146 8.99887 5.57215 9.02817 5.64406 9.05133C5.70484 9.07094 5.77119 9.07719 5.83409 9.08355C5.96445 9.0968 6.09327 9.08355 6.22215 9.06304C6.32193 9.04704 6.4232 9.02044 6.51667 8.98154C6.51683 8.98144 6.51694 8.98117 6.51678 8.98101C6.39967 8.91557 6.29279 8.83391 6.17355 8.77127C6.11039 8.73826 6.04468 8.71028 5.97839 8.68442Z" fill="#D1D1D1"/>
<path d="M6.34113 7.57007C6.16954 7.57007 5.99737 7.61495 5.84778 7.69762C5.84762 7.69772 5.84762 7.69799 5.84778 7.6981C6.03044 7.80577 6.23149 7.88637 6.44213 7.91478C6.55346 7.92718 6.66326 7.92092 6.77486 7.90556C6.87199 7.8922 6.96727 7.86963 7.05852 7.83354C7.05874 7.83344 7.05879 7.83317 7.05852 7.83301C6.88609 7.72502 6.6994 7.61601 6.49554 7.58257C6.44457 7.5742 6.39285 7.57012 6.34113 7.57007Z" fill="#D1D1D1"/>
<path d="M6.44353 7.91492C6.44322 7.91487 6.4429 7.91482 6.44263 7.91476C6.42795 7.91312 6.41322 7.91121 6.39844 7.90894C6.41343 7.9109 6.42854 7.91291 6.44353 7.91492Z" fill="#D1D1D1"/>
<path d="M8.24719 6.88698C8.24215 6.8855 8.23717 6.88396 8.23208 6.88259C8.16086 6.85116 8.09616 6.80612 8.02727 6.76977C7.96363 6.73628 7.89792 6.70745 7.83147 6.68021C7.79941 6.66707 7.76714 6.65478 7.73433 6.64359C7.65082 6.61477 7.5673 6.59903 7.47987 6.58769C7.40605 6.57804 7.33176 6.57349 7.25746 6.57349C7.11068 6.57349 6.96379 6.59129 6.8205 6.62293C6.82034 6.62293 6.82023 6.62319 6.82039 6.6234C6.92362 6.71519 7.03564 6.79086 7.1589 6.85302C7.25142 6.8997 7.34755 6.93955 7.44829 6.96425C7.56354 6.99249 7.68675 7.00134 7.8054 6.99684C7.87821 6.99408 7.95059 6.98608 8.02277 6.97633C8.05583 6.97182 8.08879 6.96631 8.12154 6.96006C8.17936 6.94909 8.24014 6.93436 8.27797 6.88693C8.27813 6.88677 8.27808 6.88645 8.27782 6.88645C8.26764 6.88757 8.25741 6.88773 8.24719 6.88698Z" fill="#D1D1D1"/>
<path d="M8.9538 5.72093C8.95396 5.72093 8.95407 5.72067 8.95396 5.72045C8.8511 5.54405 8.66839 5.44299 8.48615 5.36647C8.38955 5.32599 8.28791 5.30908 8.18564 5.30908C8.11261 5.30908 8.03922 5.31772 7.96705 5.3325C7.82031 5.36271 7.6483 5.44262 7.57035 5.57775C7.57025 5.57791 7.57035 5.57812 7.57062 5.57823C7.57464 5.57865 7.57862 5.57913 7.58265 5.57944C7.72053 5.59958 7.85343 5.65496 7.98729 5.69173C8.13466 5.73222 8.28743 5.75453 8.44037 5.75167C8.61121 5.74854 8.78301 5.69947 8.9538 5.72093Z" fill="#D1D1D1"/>
<path d="M8.3634 4.39043C8.36319 4.39064 8.36329 4.39091 8.3635 4.39096C8.69247 4.4705 9.02722 4.55391 9.36811 4.54305C9.50287 4.53881 9.63779 4.53467 9.77255 4.53022C9.84075 4.528 9.91016 4.52238 9.97805 4.53139C9.98287 4.53213 9.98769 4.53287 9.99246 4.53372C9.99272 4.53372 9.99294 4.53346 9.99272 4.53319C9.94705 4.47527 9.89109 4.42843 9.83354 4.38285C9.79035 4.34862 9.74605 4.31577 9.70042 4.28471C9.61516 4.2269 9.51797 4.18498 9.42121 4.15086C9.32742 4.11779 9.22292 4.10491 9.12404 4.10338C9.11958 4.10332 9.11519 4.10327 9.11074 4.10327C9.01731 4.10327 8.92145 4.1179 8.83126 4.14063C8.65941 4.18398 8.49365 4.27057 8.3634 4.39043Z" fill="#D1D1D1"/>
<path d="M9.00397 3.33243C9.00387 3.33254 9.00387 3.3328 9.00413 3.33291C9.13052 3.36216 9.25907 3.38182 9.3871 3.4027C9.46876 3.41595 9.55063 3.42707 9.63346 3.42527C9.70637 3.42379 9.77919 3.417 9.8512 3.40566C9.95782 3.38871 10.0607 3.35432 10.1672 3.33762C10.1675 3.33762 10.1675 3.33736 10.1673 3.33715C10.0812 3.26736 9.98384 3.21378 9.88193 3.17049C9.81548 3.1423 9.74781 3.11819 9.67702 3.10367C9.63621 3.09529 9.59578 3.0918 9.5554 3.0918C9.49939 3.0918 9.44348 3.09858 9.3871 3.10844C9.23883 3.1343 9.10487 3.22353 9.00397 3.33243Z" fill="#D1D1D1"/>
<path d="M9.30881 2.63361C9.4469 2.67616 9.58839 2.70753 9.7321 2.72216C9.82977 2.73212 9.93178 2.73949 10.0293 2.72936C10.1436 2.71749 10.2556 2.69391 10.3655 2.66079C10.4593 2.63255 10.5508 2.59646 10.645 2.57018C10.6452 2.57007 10.6453 2.5697 10.6451 2.56965C10.4601 2.47336 10.248 2.41931 10.0406 2.40495C10.0201 2.40352 9.9995 2.40283 9.97894 2.40283C9.88604 2.40283 9.79326 2.41725 9.7045 2.4439C9.56227 2.48672 9.42995 2.54755 9.3087 2.63308C9.30854 2.63324 9.30854 2.6335 9.30881 2.63361Z" fill="#D1D1D1"/>
<path d="M10.3585 1.98203C10.4955 1.97466 10.6281 1.94351 10.7634 1.92438C10.8 1.92008 10.8366 1.91738 10.8735 1.9203C10.8828 1.92188 10.8922 1.92385 10.9014 1.92618C10.9017 1.92628 10.9019 1.92591 10.9017 1.9257C10.8394 1.85252 10.7416 1.8106 10.6519 1.78199C10.5961 1.76402 10.5395 1.74818 10.4823 1.73504C10.4049 1.71718 10.3234 1.70685 10.2441 1.70398C10.2371 1.70372 10.2301 1.70361 10.2231 1.70361C10.151 1.70361 10.078 1.71601 10.008 1.73021C9.86509 1.75894 9.72874 1.81601 9.60167 1.88617C9.60151 1.88627 9.60151 1.88665 9.60178 1.8867C9.71391 1.91807 9.82853 1.94149 9.94378 1.9575C10.0813 1.97657 10.2197 1.9894 10.3585 1.98203Z" fill="#D1D1D1"/>
<path d="M0.838381 11.8417C0.83854 11.8418 0.838858 11.8417 0.838752 11.8414C0.833612 11.7936 0.833877 11.7455 0.834036 11.6973C0.834407 11.5668 0.83144 11.434 0.808442 11.3053C0.781575 11.1547 0.716554 11.0102 0.624402 10.8886C0.624349 10.8885 0.62419 10.8884 0.62419 10.8884C0.624084 10.8884 0.624031 10.8885 0.623978 10.8886C0.539987 11.0297 0.488849 11.2038 0.507873 11.3685C0.530236 11.5625 0.668172 11.746 0.838381 11.8417Z" fill="#D1D1D1"/>
<path d="M1.0944 11.3987C1.0945 11.3989 1.09487 11.3988 1.09487 11.3986C1.10748 11.3108 1.12884 11.2241 1.14733 11.1373C1.17282 11.017 1.20652 10.8985 1.21098 10.7749C1.21649 10.619 1.18835 10.4606 1.1343 10.3147C1.1343 10.3146 1.13419 10.3145 1.13403 10.3145C1.13403 10.3145 1.13387 10.3145 1.13382 10.3146C1.02959 10.4355 0.949781 10.5791 0.90972 10.7342C0.875116 10.8679 0.878137 11.0076 0.928479 11.1374C0.96605 11.234 1.02275 11.3236 1.0944 11.3987Z" fill="#D1D1D1"/>
<path d="M1.93836 11.1417C1.93852 11.1419 1.93884 11.1416 1.93873 11.1414C1.92623 11.0748 1.91727 11.0076 1.90588 10.9407C1.88701 10.8304 1.86825 10.7204 1.85209 10.6097C1.83874 10.5178 1.82215 10.4274 1.80117 10.3369C1.78341 10.2603 1.76407 10.1842 1.746 10.1078C1.72613 10.0233 1.70191 9.94102 1.67044 9.8601C1.6653 9.84685 1.6547 9.84033 1.64405 9.84033C1.63318 9.84033 1.62227 9.84701 1.61686 9.8601C1.61405 9.86688 1.61241 9.87324 1.61156 9.87944C1.59063 9.95612 1.56922 10.0327 1.55258 10.1104C1.51178 10.3009 1.51851 10.4997 1.58703 10.6827C1.6547 10.8639 1.78378 11.0255 1.93836 11.1417Z" fill="#D1D1D1"/>
<path d="M2.32666 9.86388C2.35813 9.91607 2.39804 9.96451 2.4355 10.0124C2.49634 10.09 2.56613 10.1626 2.641 10.2268C2.64116 10.2269 2.64148 10.2269 2.64148 10.2266C2.64646 10.1258 2.66119 10.0258 2.6666 9.92514C2.6738 9.79366 2.66538 9.66368 2.64265 9.53374C2.62315 9.42214 2.57773 9.31149 2.53014 9.20986C2.46534 9.07176 2.37022 8.93939 2.26508 8.8297L2.26487 8.82959C2.26476 8.82959 2.26466 8.8297 2.2646 8.8298C2.20255 8.98077 2.17261 9.13371 2.16848 9.2966C2.16535 9.4162 2.17584 9.53856 2.22142 9.64985C2.25183 9.72387 2.28532 9.79547 2.32666 9.86388Z" fill="#D1D1D1"/>
<path d="M2.92156 8.89834C2.93051 8.94862 2.94217 8.99584 2.96114 9.04316C2.99585 9.12996 3.03766 9.2121 3.08853 9.29047C3.13061 9.35539 3.18604 9.41622 3.23839 9.47324C3.31592 9.55776 3.40918 9.63057 3.50012 9.69988C3.52031 9.71525 3.54108 9.72982 3.56191 9.74418C3.56212 9.74429 3.56238 9.74408 3.56238 9.74392C3.55422 9.6071 3.54686 9.47149 3.52773 9.33573C3.51798 9.26021 3.5042 9.18597 3.49111 9.11104C3.47511 9.01958 3.44909 8.934 3.41464 8.849C3.41639 8.85308 3.41809 8.85716 3.41984 8.86129C3.39297 8.79087 3.36266 8.72134 3.32752 8.65468C3.30341 8.60884 3.27422 8.5665 3.24798 8.52199C3.17268 8.39412 3.07921 8.27574 2.97317 8.17198L2.97301 8.17188C2.97291 8.17188 2.97275 8.17193 2.97275 8.17209C2.94556 8.25152 2.92516 8.33127 2.91223 8.4142C2.90174 8.48235 2.88865 8.55617 2.89087 8.62559C2.89368 8.717 2.90545 8.80841 2.92156 8.89834Z" fill="#D1D1D1"/>
<path d="M3.97826 8.04446C4.10989 8.24784 4.29579 8.40682 4.51252 8.51381C4.51268 8.51397 4.513 8.51381 4.513 8.51354C4.4608 8.29967 4.44183 8.07769 4.35694 7.87266C4.24857 7.61046 4.05505 7.38758 3.82326 7.22564L3.8231 7.22559C3.823 7.22559 3.82284 7.22575 3.82279 7.22596C3.80281 7.39129 3.81245 7.54984 3.84716 7.71263C3.87207 7.82937 3.91314 7.94383 3.97826 8.04446Z" fill="#D1D1D1"/>
<path d="M5.45041 7.64348C5.47674 7.65594 5.50372 7.66722 5.53069 7.67819C5.5309 7.6783 5.53116 7.67803 5.53106 7.67782C5.43541 7.43713 5.37187 7.18574 5.25746 6.95226C5.19652 6.82778 5.11179 6.71491 5.02176 6.60994C4.91238 6.48233 4.78282 6.37333 4.64642 6.27583C4.60185 6.24398 4.55543 6.21478 4.50822 6.18706L4.50806 6.18701C4.5079 6.18701 4.50774 6.18712 4.50785 6.18733C4.51574 6.37873 4.55019 6.5668 4.61351 6.74756C4.65871 6.87632 4.71213 7.00642 4.79532 7.11574C4.85303 7.19152 4.91371 7.26369 4.98159 7.33051C5.03517 7.38324 5.09748 7.42876 5.15699 7.47449C5.24692 7.54359 5.34829 7.59515 5.45041 7.64348Z" fill="#D1D1D1"/>
<path d="M5.48432 6.09818C5.52427 6.15811 5.56772 6.21778 5.61732 6.27008C5.71859 6.37707 5.84005 6.46721 5.96331 6.54739C6.05832 6.60907 6.15736 6.66402 6.25232 6.72581C6.25995 6.73116 6.26758 6.73657 6.27516 6.74208C6.27532 6.74218 6.27564 6.74197 6.27564 6.74181C6.25179 6.55899 6.17972 6.37585 6.09345 6.21407C6.04141 6.11667 5.9801 6.02357 5.90856 5.93936C5.82849 5.84488 5.73067 5.76534 5.6311 5.69242C5.64308 5.7017 5.65505 5.71092 5.66698 5.72024C5.53503 5.6177 5.3955 5.5326 5.24257 5.46514L5.24246 5.46509C5.2423 5.46509 5.24214 5.46525 5.2422 5.46546C5.26816 5.62941 5.31898 5.78362 5.3884 5.93443C5.41458 5.99166 5.4495 6.04609 5.48432 6.09818Z" fill="#D1D1D1"/>
<path d="M6.61761 5.39007C6.72248 5.42075 6.83137 5.43554 6.93927 5.45101C7.0666 5.46935 7.19214 5.49208 7.318 5.51778C7.38869 5.53214 7.45969 5.54873 7.52811 5.57194C7.52827 5.57205 7.52848 5.57173 7.52837 5.57157C7.4943 5.50914 7.45572 5.44836 7.41428 5.39055C7.39271 5.36045 7.37099 5.33046 7.34899 5.30062C7.27947 5.20635 7.19744 5.1293 7.10492 5.05813C7.00482 4.98119 6.89767 4.92852 6.78103 4.88072C6.66466 4.83292 6.52985 4.81888 6.40522 4.81792C6.40193 4.81787 6.39865 4.81787 6.39541 4.81787C6.16967 4.81787 5.9461 4.87717 5.74235 4.97128C5.74213 4.97139 5.74213 4.97165 5.74235 4.97176C5.92125 5.10175 6.11641 5.1984 6.31979 5.28314C6.4173 5.32362 6.51634 5.36056 6.61761 5.39007Z" fill="#D1D1D1"/>
<path d="M6.6704 4.1121C6.75804 4.12805 6.84559 4.14416 6.9335 4.15852C7.02862 4.17415 7.12427 4.18311 7.22018 4.19137C7.32654 4.20059 7.43268 4.2122 7.53909 4.21999C7.60109 4.22455 7.6634 4.22879 7.72509 4.23663C7.76017 4.24203 7.79382 4.24913 7.82757 4.26C7.82778 4.26 7.82805 4.25973 7.82794 4.25952C7.77002 4.18189 7.68958 4.12916 7.60919 4.07734C7.52552 4.02328 7.43305 3.98147 7.341 3.94449C7.19035 3.88408 7.03307 3.85742 6.87547 3.85742C6.64024 3.85742 6.40417 3.91677 6.18759 4.01205C6.18743 4.01221 6.18749 4.01258 6.1877 4.01258C6.34757 4.05042 6.50883 4.08274 6.6704 4.1121Z" fill="#D1D1D1"/>
<path d="M7.48782 3.39879C7.58294 3.41427 7.67848 3.42725 7.77403 3.43965C7.86491 3.45141 7.95621 3.45528 8.04762 3.45947C8.14502 3.46397 8.24268 3.46721 8.34019 3.46535C8.4157 3.46397 8.49264 3.46164 8.56768 3.47123C8.57934 3.47325 8.59089 3.47563 8.60239 3.47807C8.60265 3.47817 8.60287 3.47791 8.60265 3.47759C8.54569 3.40807 8.46858 3.35296 8.39042 3.30865C8.30579 3.26059 8.21974 3.21942 8.12933 3.18301C8.04471 3.14878 7.95552 3.12573 7.86512 3.11359C7.81504 3.10681 7.76602 3.10278 7.71568 3.10278C7.71203 3.10278 7.70832 3.10278 7.70461 3.10284C7.64621 3.10347 7.58834 3.11206 7.53069 3.11995C7.43642 3.13283 7.34427 3.15943 7.2554 3.19303C7.17263 3.22424 7.09234 3.26308 7.01964 3.31353C7.01948 3.31369 7.01948 3.31406 7.01975 3.31406C7.17649 3.33711 7.33139 3.37341 7.48782 3.39879Z" fill="#D1D1D1"/>
<path d="M8.72352 2.78005C8.81986 2.76717 8.91445 2.74502 9.01058 2.73056C9.04369 2.72637 9.0766 2.72308 9.1102 2.72494C9.12239 2.72685 9.13341 2.72976 9.14539 2.73363C9.14565 2.73374 9.14576 2.73347 9.14565 2.73326C9.10919 2.6516 9.02128 2.5949 8.94651 2.55187C8.83777 2.48934 8.7125 2.44684 8.58845 2.4293C8.54849 2.42368 8.50981 2.41891 8.46943 2.4187C8.46916 2.4187 8.4689 2.4187 8.46863 2.4187C8.42984 2.4187 8.38941 2.42554 8.35131 2.43115C8.28375 2.44101 8.21872 2.45802 8.15429 2.4806C8.03665 2.52177 7.92918 2.58011 7.82828 2.65276C7.82807 2.65287 7.82807 2.65324 7.82828 2.65329C8.01047 2.73379 8.20251 2.77491 8.40027 2.79303C8.50827 2.80294 8.61627 2.7943 8.72352 2.78005Z" fill="#D1D1D1"/>
<path d="M8.80607 1.90544C8.91296 1.8993 9.01984 1.87969 9.12508 1.86013C9.21082 1.84413 9.29555 1.8223 9.38183 1.80921C9.40286 1.80677 9.42353 1.80545 9.44483 1.80508C9.4451 1.80508 9.4452 1.80471 9.44504 1.80455C9.36248 1.74748 9.26201 1.71351 9.16536 1.68844C9.05333 1.65946 8.94051 1.6434 8.82473 1.63953C8.81789 1.63932 8.81105 1.63921 8.80422 1.63916C8.71376 1.63916 8.62293 1.65887 8.5356 1.68028C8.39385 1.71489 8.25883 1.7683 8.12905 1.83486C8.12884 1.83496 8.12884 1.83533 8.12916 1.83539C8.35008 1.89331 8.578 1.91853 8.80607 1.90544Z" fill="#D1D1D1"/>
<path d="M8.85494 1.35709C9.01603 1.3369 9.17548 1.38603 9.33689 1.38767C9.43382 1.38873 9.53355 1.37734 9.62994 1.36388C9.67392 1.359 9.71764 1.35513 9.76183 1.35481C9.75155 1.37193 9.74318 1.39042 9.73571 1.40818C9.73555 1.40844 9.73592 1.40865 9.73608 1.40855C9.74133 1.40595 9.74652 1.40351 9.75176 1.40092C9.77354 1.39175 9.79458 1.38354 9.81774 1.37824C9.87825 1.37135 9.93888 1.37442 9.99966 1.37739C10.071 1.38099 10.1425 1.38274 10.2138 1.38539C10.289 1.38815 10.3642 1.38979 10.4394 1.38899C10.5097 1.38825 10.5795 1.38089 10.6496 1.3776C10.758 1.37246 10.8672 1.35948 10.9745 1.34321C11.0302 1.336 11.0862 1.32885 11.1424 1.33272C11.1512 1.33404 11.1599 1.33568 11.1686 1.33754C11.169 1.33765 11.1691 1.33727 11.169 1.33706C11.0974 1.24867 10.9787 1.20909 10.8747 1.17115C10.8139 1.14894 10.7505 1.13241 10.6874 1.11747C10.6128 1.09982 10.5371 1.09155 10.4614 1.09155C10.3443 1.09155 10.2273 1.11132 10.1149 1.14666C10.0306 1.17316 9.94571 1.21062 9.87009 1.25657C9.83978 1.27501 9.81191 1.29774 9.78647 1.32233C9.78075 1.32784 9.77566 1.33394 9.77095 1.3404C9.6789 1.25175 9.55321 1.196 9.43016 1.16765C9.38215 1.15663 9.33387 1.15138 9.28581 1.15138C9.21464 1.15138 9.14379 1.16283 9.07443 1.18392C8.97666 1.21365 8.88488 1.26807 8.83597 1.36048C8.83586 1.3607 8.83607 1.36096 8.83634 1.36096C8.84259 1.35974 8.84874 1.35836 8.85494 1.35709Z" fill="#D1D1D1"/>
<path d="M23.9331 11.2106C23.8543 10.4559 23.7051 9.71008 23.4862 8.98362C23.2732 8.27714 22.9884 7.59132 22.6493 6.93619C21.961 5.60647 21.0184 4.41019 19.8938 3.42248C19.6174 3.17978 19.3283 2.9515 19.0316 2.73412C18.7282 2.51172 18.4128 2.30563 18.0896 2.11322C17.4553 1.73576 16.7835 1.42248 16.0914 1.16727C15.3832 0.906077 14.648 0.717163 13.9026 0.600052C13.5246 0.540648 13.1438 0.499527 12.762 0.475098C12.5325 0.460525 12.3024 0.45459 12.0723 0.45459C11.9165 0.45459 11.7607 0.457292 11.605 0.46185C10.8443 0.483947 10.0855 0.58532 9.34311 0.752508C8.61691 0.916093 7.91059 1.15646 7.22801 1.45237C6.7478 1.66041 6.28248 1.90232 5.83385 2.17178C5.37749 2.44596 4.94249 2.75389 4.52587 3.08514C4.12069 3.40738 3.73889 3.7585 3.37945 4.13093C3.00983 4.51384 2.66905 4.92363 2.35253 5.35127C2.33377 5.37649 2.32836 5.41396 2.33181 5.44681C2.06023 5.81505 1.80947 6.19865 1.58103 6.59492C1.21772 7.22483 0.91418 7.88908 0.671162 8.57421C0.421943 9.27714 0.244421 10.0046 0.13404 10.7419C0.078081 11.116 0.0404036 11.4927 0.019313 11.8703C0.00929765 12.05 0.00648982 12.2297 0.00182657 12.4095C-0.00326061 12.6029 0.00309827 12.7969 0.010835 12.9901C0.0415171 13.7518 0.146811 14.5112 0.319828 15.2535C0.491149 15.9888 0.739574 16.7045 1.04613 17.3941C1.35205 18.0823 1.72845 18.7391 2.15948 19.3565C2.57801 19.956 3.05212 20.5166 3.57149 21.0309C4.10575 21.56 4.69459 22.0353 5.31788 22.4554C6.56408 23.2952 7.97461 23.8901 9.44178 24.2114C9.85649 24.3022 10.2763 24.3701 10.6985 24.4161C10.7014 24.4286 10.7042 24.4411 10.7072 24.4535C10.7432 24.4497 10.7792 24.4472 10.8155 24.4453C10.8237 24.4449 10.8321 24.4446 10.8405 24.4446C10.881 24.4446 10.922 24.4494 10.9622 24.4559C10.961 24.4511 10.9599 24.4464 10.9588 24.4416C11.2025 24.4629 11.4467 24.4771 11.6911 24.4841C12.4561 24.5059 13.2209 24.4493 13.9759 24.3266C15.4746 24.0831 16.9214 23.5351 18.2181 22.7475C18.8541 22.3612 19.4527 21.9114 20.0074 21.4157C20.2895 21.1637 20.558 20.8967 20.8147 20.6189C21.073 20.3395 21.3152 20.0462 21.547 19.7445C22.4635 18.5518 23.1395 17.178 23.5491 15.7318C23.7559 15.0016 23.8883 14.2515 23.9554 13.496C24.023 12.7358 24.0124 11.9692 23.9331 11.2106ZM0.406469 10.8805C0.477 10.3697 0.579486 9.86439 0.713661 9.36643C0.848842 8.86428 1.02016 8.37199 1.22026 7.8921C1.41341 7.43712 1.63359 6.99485 1.88133 6.56721C2.07718 6.22902 2.29122 5.90169 2.52025 5.58512C2.52369 5.58443 2.52708 5.58358 2.53047 5.58268C2.54298 5.57743 2.55554 5.57208 2.56804 5.56684C2.59173 5.55285 2.6106 5.53398 2.62459 5.51029C2.65066 5.4758 2.67684 5.44146 2.70317 5.40717C3.01264 5.00958 3.34612 4.63196 3.70217 4.27549C4.05578 3.92172 4.43329 3.59227 4.82824 3.28561C5.61844 2.68076 6.48067 2.17506 7.39615 1.78452C7.86629 1.58829 8.34793 1.42221 8.83927 1.28687C9.11503 1.21088 9.39377 1.14602 9.67441 1.09086C9.65931 1.12891 9.64415 1.16695 9.6291 1.205C9.62455 1.21343 9.62089 1.22238 9.61808 1.23182C9.6158 1.23537 9.61379 1.23902 9.61215 1.24278C9.6024 1.2652 9.59291 1.28772 9.58348 1.3103C9.58194 1.31263 9.58046 1.31501 9.57903 1.31745C9.57336 1.32524 9.57012 1.33563 9.5662 1.34442C9.55608 1.367 9.54692 1.39005 9.53764 1.41299C9.52959 1.42492 9.52339 1.43785 9.51899 1.45184C9.51014 1.47224 9.50145 1.4928 9.49292 1.51331C9.48555 1.52502 9.47983 1.53768 9.4758 1.55135C9.41131 1.70015 9.34443 1.84811 9.27782 1.99595C9.21959 2.1252 9.1596 2.2537 9.09893 2.38184C9.09829 2.38306 9.09765 2.38433 9.09702 2.3856C9.05711 2.46948 9.01684 2.55311 8.97598 2.63646C8.9745 2.6389 8.97318 2.64139 8.9719 2.64393C8.65687 3.28481 8.31391 3.91239 7.93831 4.51983C7.54235 5.16007 7.11402 5.78076 6.65628 6.37845C6.64081 6.3987 6.62523 6.41889 6.60965 6.43908C6.16007 7.01886 5.68426 7.57818 5.17994 8.11111C4.66873 8.65115 4.12976 9.16443 3.56556 9.64898C3.27945 9.89465 2.98662 10.1326 2.68839 10.3636C2.27823 10.6795 1.85605 10.9799 1.42401 11.2652C1.21072 11.4061 0.993137 11.5411 0.773223 11.6716C0.660616 11.7383 0.547109 11.8038 0.433071 11.8681C0.393169 11.8906 0.353636 11.9136 0.313999 11.9366C0.317814 11.854 0.322425 11.7714 0.327512 11.6889C0.343992 11.4186 0.371335 11.1491 0.406469 10.8805ZM8.86173 23.7072C8.37405 23.5744 7.89597 23.4068 7.42985 23.2115C6.97593 23.0176 6.53509 22.7963 6.10814 22.5485C5.67022 22.2945 5.25063 22.0095 4.84885 21.7017C4.05567 21.0846 3.34077 20.3706 2.72394 19.5771C2.42422 19.1857 2.14867 18.7771 1.89834 18.3526C1.64228 17.9185 1.41733 17.4662 1.21931 17.0029C1.02318 16.5349 0.85695 16.0555 0.721397 15.5665C0.581553 15.0615 0.478167 14.5468 0.406575 14.0278C0.373403 13.7742 0.347807 13.5197 0.330532 13.2645C0.321311 13.1273 0.315164 12.9898 0.31066 12.8523C0.306262 12.7169 0.306633 12.5815 0.304407 12.4462C0.302977 12.361 0.303454 12.2758 0.305202 12.1906C0.433124 12.1226 0.560833 12.0543 0.6869 11.9829C0.850061 11.8907 1.01174 11.7957 1.17235 11.6991C1.49889 11.5027 1.82012 11.2964 2.13463 11.0813C2.7613 10.6524 3.35995 10.1824 3.9331 9.68454C4.49073 9.20009 5.02059 8.68353 5.5264 8.1453C6.03708 7.60192 6.51946 7.03237 6.97503 6.44215C7.42312 5.86157 7.84282 5.25959 8.23029 4.63689C8.59937 4.04354 8.94196 3.43377 9.24825 2.8055C9.2509 2.8002 9.2534 2.7949 9.25562 2.78955C9.29484 2.70874 9.33362 2.62766 9.37183 2.54627C9.37263 2.54441 9.37337 2.54261 9.37416 2.54076C9.4341 2.41278 9.49223 2.28407 9.54935 2.15472C9.62524 1.98244 9.6963 1.80847 9.76625 1.6337C9.76746 1.63063 9.76852 1.62745 9.76937 1.62422C9.7814 1.59481 9.79306 1.56524 9.80408 1.53546C9.80599 1.53032 9.80742 1.52496 9.80843 1.51951C9.81675 1.49879 9.82501 1.47796 9.83328 1.45714C9.83688 1.44829 9.84149 1.4379 9.84277 1.42852C9.84308 1.42635 9.84335 1.42417 9.84367 1.422C9.85273 1.39863 9.86163 1.37516 9.87011 1.35158C9.86984 1.35147 9.86953 1.35142 9.86926 1.35131C9.86969 1.34983 9.87011 1.3484 9.87048 1.34691C9.87514 1.33388 9.88002 1.32089 9.88468 1.30791C9.88527 1.30627 9.8858 1.30463 9.88627 1.30298C9.91044 1.24104 9.93402 1.17888 9.95691 1.11635C9.96009 1.10956 9.96258 1.10262 9.96449 1.09552C9.96968 1.07623 9.97 1.05625 9.96661 1.03686C10.0978 1.01439 10.2292 0.99399 10.361 0.975761C10.8802 0.907985 11.4031 0.872269 11.9267 0.869407C12.1899 0.868029 12.4537 0.882231 12.7163 0.899135C12.9745 0.915775 13.232 0.942217 13.4885 0.975867C14.0081 1.04825 14.522 1.15243 15.0281 1.29042C15.5236 1.42539 16.0094 1.59391 16.4833 1.79172C16.9328 1.98376 17.3697 2.20257 17.7928 2.44723C18.2363 2.70371 18.6614 2.99124 19.0681 3.30283C19.4518 3.60191 19.8171 3.92309 20.1627 4.26563C20.5257 4.62539 20.8632 5.01016 21.1772 5.41327C21.4771 5.80493 21.7529 6.21376 22.0034 6.6388C22.254 7.0639 22.4744 7.50653 22.6685 7.96009C22.7819 8.2313 22.8851 8.50643 22.9787 8.78485C22.8668 8.76572 22.7546 8.74881 22.6426 8.7309C22.5873 8.72205 22.5311 8.71675 22.4755 8.71018C22.4062 8.70218 22.3368 8.69455 22.2674 8.68809C22.018 8.66488 21.7673 8.65348 21.5168 8.64999C21.4775 8.64946 21.438 8.64914 21.3987 8.64914C20.9411 8.64914 20.4842 8.68512 20.0311 8.74765C19.5256 8.81733 19.0262 8.92671 18.5377 9.07423C18.0428 9.22367 17.5609 9.41471 17.0947 9.63759C16.1697 10.0799 15.3147 10.665 14.5494 11.3459C13.79 12.0214 13.1271 12.8023 12.5609 13.6452C11.9878 14.4981 11.5263 15.4247 11.1707 16.3882C10.8171 17.346 10.5798 18.3437 10.4439 19.355C10.3158 20.3078 10.294 21.2746 10.3638 22.2331C10.3987 22.7124 10.4605 23.1897 10.5437 23.6631C10.5662 23.7907 10.5909 23.9179 10.6171 24.0448C10.5359 24.0358 10.4547 24.0263 10.3736 24.0158C9.86333 23.9452 9.3588 23.8425 8.86173 23.7072ZM23.4835 14.0641C23.4124 14.5766 23.3097 15.0835 23.1731 15.5825C23.0409 16.0652 22.875 16.5382 22.6818 16.9997C22.4861 17.4574 22.2627 17.902 22.0125 18.3323C21.7572 18.7716 21.4715 19.1929 21.1624 19.5958C20.8605 19.9831 20.536 20.3515 20.1896 20.6997C19.8382 21.053 19.4628 21.3822 19.07 21.6887C18.6847 21.9846 18.2824 22.2566 17.8644 22.5042C17.4219 22.7664 16.9609 22.9973 16.488 23.1994C16.0244 23.3931 15.55 23.558 15.0661 23.6931C14.5559 23.8354 14.0356 23.9405 13.5111 24.0132C13.0007 24.0797 12.4874 24.1147 11.9728 24.1177C11.6063 24.1199 11.2397 24.1031 10.8745 24.0704C10.8707 24.0527 10.8667 24.035 10.863 24.0174C10.7971 23.7022 10.7435 23.3846 10.6999 23.0656C10.6176 22.4413 10.5759 21.8125 10.5753 21.1827C10.5748 20.541 10.6203 19.8989 10.7045 19.2628C10.7838 18.6826 10.9002 18.1083 11.053 17.543C11.208 16.9696 11.4026 16.4071 11.6322 15.8594C11.8468 15.3539 12.0919 14.8623 12.3673 14.3872C12.6402 13.9169 12.9444 13.4652 13.2757 13.0342C13.877 12.2595 14.5717 11.5568 15.3467 10.9554C15.6994 10.6847 16.0676 10.4349 16.4501 10.2086C16.8456 9.97467 17.2572 9.76848 17.6802 9.58894C18.485 9.25234 19.3309 9.01594 20.1955 8.89677C20.644 8.83757 21.0955 8.81071 21.5478 8.8115C21.7781 8.81198 22.0079 8.82178 22.2375 8.83784C22.3466 8.84542 22.4556 8.85453 22.5644 8.86555C22.6234 8.87154 22.6826 8.87605 22.7415 8.88278C22.7964 8.88903 22.8512 8.89592 22.9059 8.90313C22.9041 8.90286 22.9024 8.90265 22.9006 8.90238C22.9033 8.9027 22.9059 8.90312 22.9086 8.90344C22.9077 8.90334 22.9068 8.90323 22.9059 8.90313C22.9078 8.90339 22.9097 8.9036 22.9116 8.90387C22.9109 8.90376 22.9103 8.90371 22.9097 8.9036C22.9124 8.90397 22.9152 8.90434 22.9179 8.90472C22.9159 8.90445 22.9137 8.90418 22.9116 8.90387C22.9276 8.90609 22.9436 8.90821 22.9595 8.91039C22.9717 8.91203 22.9827 8.91288 22.9936 8.91017C23.0028 8.91134 23.012 8.91256 23.0213 8.91378C23.0735 9.07503 23.1226 9.23729 23.1681 9.40077C23.3098 9.91076 23.4144 10.4308 23.4867 10.9551C23.5518 11.4619 23.585 11.9719 23.586 12.4829C23.587 13.0117 23.5517 13.5398 23.4835 14.0641Z" fill="#3D3D3D"/>
<path d="M6.97654 6.43848C6.97564 6.4397 6.97469 6.44086 6.97378 6.44203C6.97209 6.4442 6.97045 6.44643 6.96875 6.4486C6.97135 6.44526 6.97394 6.44187 6.97654 6.43848Z" fill="#3D3D3D"/>
</svg>
