<svg width="24" height="24" viewBox="0 0 24 24" fill="none" xmlns="http://www.w3.org/2000/svg">
<path d="M11.6906 24.001C11.7039 24.0013 11.7172 24.0016 11.7305 24.0019C11.7407 24.0021 11.7509 24.0023 11.761 24.0025C11.7723 24.0027 11.7835 24.0029 11.7948 24.0031C11.8075 24.0033 11.8203 24.0035 11.8332 24.0037C11.8429 24.0038 11.8526 24.004 11.8624 24.0041C11.877 24.0042 11.8917 24.0044 11.9064 24.0045C11.9147 24.0045 11.9229 24.0046 11.9312 24.0047C11.9541 24.0048 11.9771 24.0049 12 24.0049H12C12.0222 24.0049 12.0445 24.0048 12.0667 24.0047C12.0764 24.0046 12.0862 24.0045 12.096 24.0045C12.1083 24.0044 12.1206 24.0042 12.1329 24.0041C12.1451 24.004 12.1573 24.0038 12.1695 24.0036C12.1773 24.0035 12.1852 24.0034 12.193 24.0033C15.0915 23.9579 17.8232 22.8905 19.9746 20.9724C20.5523 20.4593 21.0818 19.8894 21.5539 19.2693C23.1408 17.1912 24 14.6641 24 12.0049C24 8.79955 22.7518 5.78607 20.4853 3.51958C19.6812 2.71556 18.7832 2.03972 17.816 1.50224C16.1729 0.589272 14.3302 0.0756682 12.4092 0.0117261L12.3983 0.0113638C12.3833 0.0108808 12.3683 0.0104113 12.3533 0.009982C12.3449 0.00974051 12.3364 0.0095124 12.328 0.00928432C12.3154 0.00894892 12.3028 0.00861354 12.2902 0.00830496C12.2701 0.00783539 12.25 0.00740606 12.2299 0.00701699C12.222 0.00686941 12.2142 0.00676208 12.2063 0.00662792C12.1911 0.00637301 12.1759 0.00613149 12.1607 0.00593025C12.1523 0.00582292 12.1439 0.00574247 12.1356 0.00564856C12.1207 0.00548756 12.1058 0.00535332 12.0908 0.00523257C12.0828 0.00517891 12.0748 0.0050984 12.0668 0.00505815C12.0445 0.00493741 12.0223 0.00485692 12 0.00485692H12C11.9894 0.00485692 11.9788 0.00491064 11.9683 0.00493747C11.9356 -0.00193168 11.9022 -0.00155607 11.8702 0.00558141L11.8636 0.00566197C11.8555 0.00575588 11.8474 0.00584974 11.8394 0.00594366C11.8236 0.00615832 11.8078 0.00639982 11.7921 0.00666815C11.7848 0.00678889 11.7775 0.00688281 11.7703 0.00703039C11.7498 0.00741947 11.7292 0.0078622 11.7087 0.00834519C11.6962 0.00864035 11.6836 0.00897573 11.6711 0.00932455C11.6624 0.00955263 11.6537 0.00979413 11.6449 0.010049C11.6309 0.0104515 11.6169 0.0108943 11.6028 0.011337C11.5964 0.0115517 11.59 0.0117664 11.5836 0.0119811C8.5344 0.11526 5.68281 1.35152 3.51474 3.51961C1.24821 5.78608 0 8.79956 0 12.0049C0 15.2102 1.24821 18.2237 3.51472 20.4901C5.09099 22.0664 7.02852 23.1501 9.14063 23.6641C9.96714 23.8652 10.8204 23.979 11.6892 24.0009L11.6906 24.001Z" fill="white"/>
<path d="M11.9441 23.5417L11.9341 23.5416H11.9318L11.9257 23.5415C11.9129 23.5415 11.9 23.5414 11.8872 23.5412C11.8804 23.5412 11.8735 23.5411 11.8666 23.541C11.8545 23.5409 11.8424 23.5407 11.8303 23.5405C11.8233 23.5404 11.8163 23.5403 11.8093 23.5402C11.796 23.54 11.7826 23.5397 11.7693 23.5395L11.7675 23.5395L11.7665 23.5394L11.753 23.5392C11.7148 23.5384 11.6766 23.5374 11.6384 23.5362L11.6343 23.5361L11.633 23.536L11.6282 23.5359C11.6131 23.5354 11.5979 23.5349 11.5827 23.5343L11.5658 23.5337L11.5655 23.5337H11.5651C11.5516 23.5332 11.538 23.5327 11.5245 23.5321L11.5084 23.5315C11.4935 23.5308 11.4786 23.5302 11.4636 23.5295L11.4517 23.529C11.3939 23.5262 11.3362 23.5231 11.2786 23.5196L11.2705 23.519L11.2695 23.519L11.268 23.5189C11.252 23.5179 11.2359 23.5168 11.2199 23.5158L11.2108 23.5152C11.1935 23.514 11.1761 23.5128 11.1588 23.5115L11.1533 23.5111C10.1568 23.4388 9.19544 23.2397 8.28516 22.9303C9.18589 22.0884 10.1186 20.8937 10.8148 19.22C10.8533 19.1272 10.8912 19.0331 10.9283 18.9373C12.7428 14.2535 14.7695 11.9874 16.6532 11.2959C16.7217 12.0597 16.7572 12.8414 16.7572 13.6343C16.7572 14.3973 16.7244 15.1533 16.6602 15.8959C16.4308 18.5475 15.8004 21.0282 14.8291 23.0448C14.8054 23.094 14.8007 23.1474 14.8121 23.1968C14.7743 23.2062 14.7365 23.2155 14.6986 23.2246L14.6979 23.2247L14.6924 23.2261L14.6922 23.2261C14.6775 23.2296 14.6627 23.2331 14.6479 23.2366L14.6477 23.2367L14.6304 23.2407L14.6302 23.2407C14.6159 23.2441 14.6016 23.2474 14.5873 23.2507L14.5726 23.254C14.5256 23.2647 14.4785 23.2751 14.4313 23.2852L14.4309 23.2853C14.4245 23.2867 14.4181 23.2881 14.4117 23.2894H14.4117C14.3987 23.2922 14.3857 23.2949 14.3727 23.2976C14.3648 23.2993 14.3568 23.301 14.3488 23.3026C14.336 23.3053 14.3232 23.3079 14.3104 23.3105L14.3103 23.3105C14.3032 23.312 14.2959 23.3134 14.2887 23.3149L14.2883 23.3149C14.2437 23.3239 14.1991 23.3326 14.1543 23.3411L14.154 23.3411C14.1462 23.3426 14.1383 23.3441 14.1305 23.3456L14.1303 23.3456C14.1177 23.3479 14.1051 23.3503 14.0925 23.3526L14.0923 23.3526C14.0836 23.3542 14.075 23.3558 14.0663 23.3574L14.0662 23.3574C14.0543 23.3595 14.0425 23.3617 14.0307 23.3638L14.0306 23.3638C14.0201 23.3656 14.0096 23.3675 13.9991 23.3693L13.9986 23.3694C13.9815 23.3724 13.9643 23.3753 13.9472 23.3783L13.9449 23.3786C13.933 23.3806 13.9212 23.3827 13.9094 23.3846L13.9093 23.3847C13.8982 23.3865 13.8872 23.3883 13.8762 23.3901L13.8758 23.3902C13.8655 23.3918 13.8552 23.3935 13.8449 23.3952L13.8446 23.3952C13.8337 23.397 13.8227 23.3987 13.8117 23.4004L13.8115 23.4005C13.8009 23.4021 13.7902 23.4038 13.7796 23.4055L13.7795 23.4055C13.7688 23.4071 13.7581 23.4088 13.7474 23.4104H13.7474C13.7342 23.4124 13.7209 23.4144 13.7076 23.4164L13.7069 23.4165C13.694 23.4184 13.6811 23.4203 13.6682 23.4222L13.6673 23.4223C13.6526 23.4244 13.6378 23.4265 13.623 23.4286H13.623C13.6131 23.43 13.6032 23.4314 13.5932 23.4327L13.5931 23.4328C13.5814 23.4344 13.5696 23.436 13.5578 23.4376L13.5576 23.4376C13.5474 23.439 13.5372 23.4403 13.527 23.4417L13.5268 23.4417C13.515 23.4433 13.5032 23.4448 13.4914 23.4463L13.491 23.4464C13.4813 23.4476 13.4714 23.4489 13.4617 23.4501L13.4615 23.4502C13.4429 23.4525 13.4241 23.4548 13.4054 23.4571L13.4053 23.4571C13.3978 23.458 13.3902 23.4589 13.3827 23.4598L13.3826 23.4599C13.3665 23.4618 13.3505 23.4636 13.3345 23.4655H13.3344C13.3257 23.4665 13.3169 23.4675 13.3082 23.4685L13.3079 23.4685C13.2943 23.47 13.2807 23.4716 13.2671 23.473L13.2669 23.4731C13.2583 23.474 13.2497 23.4749 13.2411 23.4758L13.241 23.4759C13.2269 23.4774 13.2128 23.4788 13.1987 23.4803L13.1984 23.4803C13.1902 23.4812 13.182 23.482 13.1737 23.4829H13.1736C13.1527 23.485 13.1318 23.487 13.1108 23.489L13.1107 23.4891C13.1044 23.4896 13.0981 23.4902 13.0918 23.4908L13.0915 23.4908C13.0755 23.4923 13.0596 23.4938 13.0437 23.4952C13.0355 23.496 13.0273 23.4967 13.0191 23.4974C13.0048 23.4987 12.9906 23.4999 12.9763 23.5011C12.9677 23.5018 12.9591 23.5025 12.9505 23.5032H12.9505C12.935 23.5045 12.9194 23.5057 12.9039 23.5069L12.9037 23.5069C12.8972 23.5074 12.8907 23.5079 12.8843 23.5084L12.8842 23.5084C12.8625 23.5101 12.8407 23.5117 12.8189 23.5132H12.8189C12.8126 23.5136 12.8064 23.514 12.8001 23.5145L12.7999 23.5145C12.7837 23.5156 12.7674 23.5167 12.7512 23.5177H12.7511C12.7433 23.5182 12.7356 23.5187 12.7278 23.5192H12.7277C12.713 23.5201 12.6982 23.521 12.6835 23.5219H12.6834C12.6749 23.5224 12.6665 23.5229 12.6581 23.5233H12.658C12.6409 23.5243 12.6237 23.5252 12.6066 23.5261H12.6063L12.592 23.5269H12.592C12.5699 23.528 12.5478 23.529 12.5257 23.53H12.5257C12.5186 23.5303 12.5115 23.5306 12.5044 23.5309H12.5042C12.4887 23.5316 12.4732 23.5322 12.4576 23.5328H12.4576C12.4495 23.5331 12.4414 23.5334 12.4333 23.5337H12.4333C12.4177 23.5343 12.4021 23.5349 12.3865 23.5354L12.3864 23.5354C12.3794 23.5356 12.3724 23.5358 12.3654 23.5361H12.3653C12.3448 23.5367 12.3243 23.5373 12.3038 23.5378H12.3037L12.2976 23.538H12.2976C12.275 23.5385 12.2525 23.539 12.23 23.5395C12.223 23.5396 12.2159 23.5397 12.209 23.5399H12.2089C12.1931 23.5401 12.1773 23.5404 12.1615 23.5406H12.1614C12.1533 23.5407 12.1453 23.5408 12.1372 23.5409H12.1371C12.1217 23.5411 12.1063 23.5412 12.0909 23.5413C12.0833 23.5414 12.0757 23.5415 12.0681 23.5415C12.0456 23.5416 12.0232 23.5417 12.0007 23.5417H12.0007C11.9818 23.5418 11.9629 23.5417 11.9441 23.5417Z" fill="#3D3D3D"/>
<path d="M15.3359 23.0517C16.3518 20.8651 16.9849 18.1755 17.1649 15.3246C17.2001 14.7665 17.2181 14.2023 17.2181 13.6344C17.2181 12.7949 17.1786 11.9674 17.1026 11.1592C17.3885 11.091 17.6704 11.0583 17.9469 11.0583C18.4225 11.0583 18.8823 11.1548 19.3197 11.3321C20.9248 11.9826 22.228 13.7217 22.904 15.7768C21.7002 19.2577 18.8774 21.983 15.3359 23.0517Z" fill="#3D3D3D"/>
<path d="M23.1335 15.0435C22.6751 13.8843 22.036 12.8784 21.2655 12.1091C20.7022 11.5468 20.0892 11.135 19.4489 10.8841C18.9615 10.693 18.4583 10.5952 17.9494 10.5952C17.65 10.5952 17.3524 10.6281 17.057 10.6935C16.947 9.71557 16.7831 8.7685 16.5703 7.86564C17.669 7.63984 18.7572 7.5022 19.8116 7.45597C20.7888 7.41312 21.737 7.44875 22.6374 7.56549L22.6533 7.56694L22.6535 7.56695C22.8944 8.14456 23.0897 8.74598 23.2349 9.36666L23.235 9.36735C23.2451 9.41069 23.255 9.45413 23.2647 9.49767L23.2654 9.50074C23.2749 9.54378 23.2842 9.58694 23.2932 9.63017L23.2943 9.6354C23.2996 9.66061 23.3048 9.68584 23.3099 9.71111L23.3127 9.72519C23.3208 9.76546 23.3286 9.80578 23.3363 9.84619L23.3393 9.86204C23.3432 9.88312 23.3471 9.90423 23.351 9.92536C23.3522 9.93218 23.3535 9.93898 23.3547 9.9458C23.3568 9.95742 23.3588 9.96902 23.3609 9.98064C23.3623 9.98881 23.3638 9.99698 23.3652 10.0052C23.3683 10.023 23.3714 10.0408 23.3744 10.0586C23.376 10.0678 23.3775 10.0769 23.3791 10.086C23.3809 10.0968 23.3827 10.1076 23.3844 10.1184C23.387 10.1342 23.3896 10.1501 23.3921 10.1659C23.3938 10.176 23.3954 10.1862 23.397 10.1963C23.3986 10.2065 23.4001 10.2166 23.4017 10.2268C23.4037 10.2399 23.4057 10.253 23.4077 10.266C23.4098 10.2795 23.4118 10.2929 23.4138 10.3063C23.4152 10.316 23.4166 10.3257 23.418 10.3353C23.4198 10.3478 23.4216 10.3604 23.4234 10.3729C23.4251 10.3849 23.4267 10.3969 23.4284 10.4089C23.4302 10.4221 23.432 10.4353 23.4338 10.4486C23.435 10.4574 23.4362 10.4663 23.4374 10.4752C23.4398 10.4929 23.4421 10.5107 23.4443 10.5285C23.4453 10.536 23.4462 10.5435 23.4472 10.551C23.449 10.5652 23.4507 10.5794 23.4525 10.5936C23.4533 10.6004 23.4541 10.6073 23.455 10.6141C23.4572 10.6331 23.4595 10.6521 23.4617 10.6711C23.4625 10.6781 23.4633 10.6852 23.4641 10.6923C23.4659 10.7088 23.4678 10.7254 23.4696 10.742L23.4715 10.7597C23.4734 10.7775 23.4753 10.7954 23.4771 10.8132C23.4779 10.8207 23.4787 10.8282 23.4794 10.8356C23.4813 10.8548 23.4832 10.874 23.4851 10.8933L23.4867 10.9105C23.4882 10.9265 23.4897 10.9425 23.4911 10.9586C23.4917 10.9649 23.4923 10.9713 23.4928 10.9777C23.4946 10.9973 23.4963 11.0169 23.4979 11.0365C23.4984 11.0428 23.4989 11.0491 23.4994 11.0554C23.5009 11.0735 23.5023 11.0915 23.5037 11.1095L23.5045 11.1194C23.506 11.14 23.5075 11.1605 23.509 11.1811C23.5094 11.1873 23.5098 11.1935 23.5103 11.1997C23.5117 11.2204 23.5131 11.2411 23.5144 11.2618L23.515 11.2706C23.5161 11.2895 23.5173 11.3084 23.5184 11.3274L23.5193 11.3436C23.5205 11.3645 23.5216 11.3854 23.5227 11.4062L23.5234 11.42C23.5243 11.4385 23.5252 11.457 23.526 11.4755L23.5266 11.4886C23.5275 11.5094 23.5284 11.5303 23.5292 11.5511L23.5298 11.5671C23.5306 11.5886 23.5313 11.6102 23.532 11.6318L23.5322 11.6365C23.5328 11.6572 23.5334 11.6779 23.5339 11.6986L23.5343 11.7132C23.5348 11.7343 23.5353 11.7554 23.5357 11.7764L23.536 11.7911C23.5363 11.8099 23.5366 11.8287 23.5369 11.8475L23.537 11.859C23.5373 11.8806 23.5375 11.9022 23.5376 11.9238L23.5377 11.9384C23.5379 11.9606 23.5379 11.9827 23.5379 12.0048C23.5379 13.0565 23.3972 14.0753 23.1335 15.0435Z" fill="#3D3D3D"/>
<path d="M22.4326 7.0745C21.5824 6.97964 20.6937 6.95348 19.7809 6.99404C18.6991 7.04208 17.5834 7.18385 16.4578 7.416C16.342 6.96697 16.2139 6.52981 16.0742 6.10627C17.6384 5.60033 18.3888 4.3752 18.8153 3.24477C18.8709 3.09737 18.921 2.95156 18.9667 2.80917L18.9669 2.80859C20.4388 3.92552 21.6343 5.38771 22.4328 7.07451L22.4326 7.0745Z" fill="#3D3D3D"/>
<path d="M10.6386 0.547517L10.6396 0.547396C10.7114 0.538958 10.7835 0.531176 10.8557 0.524052L10.8681 0.522831C10.8839 0.521288 10.8997 0.519786 10.9156 0.51831L10.9288 0.517089C10.9762 0.512715 11.0237 0.508637 11.0713 0.50484C11.0796 0.504183 11.0879 0.503512 11.0962 0.502868C11.1084 0.501929 11.1206 0.501003 11.1328 0.50009C11.1426 0.499353 11.1525 0.498642 11.1623 0.497931C11.174 0.497099 11.1857 0.49624 11.1975 0.495435C11.2101 0.494576 11.2227 0.493745 11.2353 0.492926C11.2513 0.491866 11.2673 0.49086 11.2833 0.489867C11.2962 0.489076 11.3091 0.488284 11.322 0.487533C11.3323 0.486943 11.3426 0.486379 11.3529 0.485802C11.3651 0.485118 11.3773 0.484461 11.3894 0.48383C11.3992 0.48332 11.409 0.48281 11.4187 0.482327C11.4333 0.481603 11.4479 0.480905 11.4625 0.480248C11.4699 0.479899 11.4773 0.479537 11.4847 0.479215C11.5057 0.478289 11.5268 0.477417 11.5479 0.476612C11.556 0.476303 11.564 0.476022 11.5721 0.475727C11.5867 0.47519 11.6014 0.47468 11.6161 0.474197C11.6243 0.473929 11.6324 0.47366 11.6406 0.473419C11.6568 0.472922 11.673 0.472453 11.6892 0.472024C11.6954 0.471863 11.7016 0.471675 11.7078 0.471527C11.7298 0.470977 11.7518 0.470481 11.7738 0.470065L11.791 0.46977C11.8081 0.469475 11.8251 0.469193 11.8422 0.468951L11.8597 0.46875C13.3681 1.49158 14.6205 3.38363 15.4813 5.78343C15.1647 5.84764 14.816 5.88249 14.4311 5.88249C14.2427 5.88249 14.0455 5.87409 13.8392 5.85673C12.1195 5.71197 9.76617 4.94157 6.51558 3.17485C6.15316 2.97786 5.77963 2.76856 5.39453 2.54629C6.91489 1.48239 8.70336 0.77534 10.6386 0.547517Z" fill="#3D3D3D"/>
<path d="M12.6484 0.48584C12.6586 0.486403 12.6688 0.486967 12.679 0.487557C12.6928 0.488349 12.7066 0.489194 12.7203 0.490039C12.7364 0.491032 12.7525 0.492052 12.7685 0.493112C12.7796 0.493836 12.7906 0.494547 12.8016 0.495312C12.8139 0.496157 12.8262 0.497029 12.8385 0.497901C12.8474 0.498532 12.8563 0.499189 12.8652 0.499847C12.8781 0.500799 12.891 0.501778 12.9039 0.502758C12.9106 0.503268 12.9172 0.503818 12.9238 0.504341C12.9725 0.508191 13.021 0.512337 13.0695 0.516791L13.0806 0.517811C13.0976 0.519394 13.1146 0.520991 13.1316 0.522654L13.1331 0.522802C15.0676 0.711355 16.8618 1.37801 18.3968 2.40255C18.4559 2.44199 18.5147 2.48197 18.573 2.52246C18.5596 2.56639 18.5458 2.61049 18.5317 2.65471C18.146 3.86377 17.4894 5.1658 15.9254 5.66811C15.1295 3.4386 14.0031 1.62136 12.6484 0.48584Z" fill="#3D3D3D"/>
<path d="M5.02108 2.81885C5.05864 2.87046 5.10697 2.91455 5.16396 2.94744C5.48016 3.12993 5.79038 3.30491 6.0948 3.47246C9.23819 5.2026 11.7593 6.13815 13.755 6.31472C13.9877 6.33532 14.2134 6.34565 14.432 6.34565C14.8739 6.34565 15.273 6.30285 15.6342 6.22494C15.7717 6.64109 15.8977 7.07113 16.0117 7.51334C14.9961 7.74394 13.9751 8.04748 12.9662 8.42157C12.9359 8.4328 12.9056 8.44407 12.8754 8.45542C9.33976 9.78224 6.33712 11.8411 4.38552 14.144C3.38458 15.3251 2.66013 16.5703 2.28204 17.8139C2.25351 17.9077 2.22694 18.0016 2.20238 18.0954L2.20218 18.0962C1.101 16.3284 0.464844 14.2409 0.464844 12.0049C0.464857 8.25681 2.25223 4.9262 5.02108 2.81885Z" fill="#3D3D3D"/>
<path d="M2.55485 18.6287C2.59189 18.4374 2.638 18.2456 2.69288 18.0536C3.06809 16.7413 3.85356 15.422 4.95927 14.1799C6.7764 12.1387 9.45837 10.3061 12.6056 9.05573C12.7486 8.99891 12.8926 8.94326 13.0375 8.88887C14.0593 8.5054 15.0937 8.19578 16.1218 7.96265C16.3355 8.87246 16.4989 9.82951 16.6065 10.8194C15.7515 11.1074 14.917 11.6724 14.1133 12.5091C12.7892 13.8875 11.5725 15.994 10.4971 18.7701C10.4234 18.9601 10.3457 19.1465 10.2639 19.3292C9.6923 20.606 8.92223 21.7015 7.96955 22.592C7.91526 22.6427 7.87498 22.7048 7.85047 22.7724L7.85043 22.7725C5.69974 21.9429 3.86008 20.4876 2.55469 18.6296L2.55485 18.6287Z" fill="#3D3D3D"/>
<path d="M4.54843 4.83901C1.69775 7.82032 0.842995 11.6295 2.63929 13.3471C3.10528 13.7927 3.70392 14.0537 4.38477 14.1439C6.33637 11.8411 9.33901 9.78218 12.8746 8.45536C12.9049 8.444 12.9352 8.43273 12.9655 8.42152C13.3377 7.70914 13.603 6.99627 13.7542 6.31467C11.7585 6.1381 9.23742 5.20255 6.09403 3.47241C5.56141 3.86677 5.04121 4.32365 4.54843 4.83901Z" fill="#3D3D3D"/>
<path d="M11.0513 11.0589C11.6626 10.4196 12.1821 9.7423 12.6034 9.05566C9.45615 10.306 6.77416 12.1386 4.95703 14.1798C6.82115 14.1749 9.14183 13.0559 11.0513 11.0589Z" fill="#3D3D3D"/>
<path d="M12.9624 2.55084C11.5582 1.20808 8.94938 1.54115 6.51562 3.17489C9.76622 4.94161 12.1196 5.71202 13.8392 5.85677C14.0399 4.50994 13.7673 3.32044 12.9624 2.55084Z" fill="#3D3D3D"/>
<path d="M7.85029 22.7726C7.87481 22.7049 7.91507 22.6428 7.96938 22.5921C8.92206 21.7016 9.69213 20.6061 10.2637 19.3293C9.62101 19.4404 8.96005 19.4983 8.28557 19.4983C6.25615 19.4983 4.34937 18.9739 2.69271 18.0537C2.63784 18.2457 2.59173 18.4375 2.55469 18.6288C3.86003 20.4871 5.69958 21.9428 7.85029 22.7726Z" fill="#3D3D3D"/>
<path d="M23.5379 11.9238C23.5378 11.9022 23.5376 11.8806 23.5373 11.859L23.5372 11.8475C23.5369 11.8287 23.5366 11.8099 23.5363 11.7911L23.536 11.7764C23.5356 11.7554 23.5351 11.7343 23.5346 11.7132L23.5342 11.6986C23.5337 11.6779 23.5331 11.6572 23.5325 11.6365L23.5323 11.6318C23.5316 11.6102 23.5309 11.5886 23.5301 11.5671L23.5295 11.5511C23.5287 11.5303 23.5278 11.5094 23.5269 11.4886L23.5263 11.4755C23.5255 11.457 23.5246 11.4385 23.5237 11.42L23.523 11.4062C23.5219 11.3854 23.5208 11.3645 23.5196 11.3436L23.5187 11.3274C23.5176 11.3084 23.5164 11.2895 23.5152 11.2706L23.5147 11.2618C23.5134 11.2411 23.512 11.2204 23.5106 11.1997C23.5101 11.1935 23.5097 11.1873 23.5093 11.1811C23.5078 11.1605 23.5063 11.14 23.5048 11.1194L23.504 11.1095C23.5026 11.0915 23.5012 11.0735 23.4997 11.0554C23.4992 11.0491 23.4987 11.0428 23.4982 11.0365C23.4965 11.0169 23.4949 10.9973 23.4931 10.9777C23.4926 10.9713 23.492 10.9649 23.4914 10.9586C23.49 10.9425 23.4885 10.9265 23.487 10.9105L23.4854 10.8933C23.4835 10.874 23.4816 10.8548 23.4797 10.8356C23.4789 10.8282 23.4782 10.8207 23.4774 10.8132C23.4756 10.7954 23.4737 10.7775 23.4718 10.7597L23.4699 10.742C23.4681 10.7254 23.4662 10.7088 23.4644 10.6923C23.4636 10.6852 23.4627 10.6781 23.4619 10.6711C23.4598 10.6521 23.4575 10.6331 23.4552 10.6141C23.4544 10.6073 23.4536 10.6004 23.4527 10.5936C23.451 10.5794 23.4493 10.5652 23.4475 10.551C23.4465 10.5435 23.4456 10.536 23.4446 10.5285C23.4424 10.5107 23.44 10.4929 23.4377 10.4752C23.4365 10.4663 23.4353 10.4574 23.4341 10.4486C23.4323 10.4353 23.4305 10.4221 23.4287 10.4089C23.427 10.3969 23.4254 10.3849 23.4237 10.3729C23.4219 10.3604 23.4201 10.3478 23.4183 10.3353C23.4169 10.3257 23.4155 10.316 23.414 10.3063C23.4121 10.2929 23.41 10.2795 23.408 10.266C23.4061 10.253 23.404 10.2399 23.402 10.2268C23.4004 10.2166 23.3988 10.2065 23.3973 10.1963C23.3957 10.1862 23.3941 10.176 23.3924 10.1659C23.3899 10.15 23.3873 10.1342 23.3847 10.1184C23.3829 10.1076 23.3811 10.0968 23.3793 10.086C23.3778 10.0769 23.3763 10.0678 23.3747 10.0586C23.3717 10.0408 23.3686 10.023 23.3655 10.0052C23.3641 9.99699 23.3626 9.98882 23.3612 9.98064C23.3591 9.96902 23.3571 9.95742 23.355 9.9458C23.3538 9.93898 23.3525 9.93218 23.3513 9.92536C23.3474 9.90423 23.3435 9.88312 23.3395 9.86204L23.3366 9.84619C23.3289 9.80578 23.3211 9.76544 23.313 9.72519L23.3102 9.71111C23.3051 9.68584 23.2999 9.66061 23.2946 9.6354L23.2935 9.63017C23.2845 9.58692 23.2752 9.54379 23.2657 9.50074L23.265 9.49766C23.2553 9.45413 23.2454 9.41069 23.2353 9.36735L23.2351 9.36666C23.0899 8.74596 22.8945 8.14456 22.6536 7.56694L22.6377 7.56549C21.7372 7.44875 20.7891 7.41312 19.8119 7.45597C19.8191 7.62347 19.8228 7.7919 19.8228 7.96118C19.8228 8.97105 19.693 9.95059 19.4492 10.8841C20.0895 11.135 20.7026 11.5468 21.2658 12.1091C22.0363 12.8784 22.6754 13.8842 23.1338 15.0435C23.3975 14.0753 23.5382 13.0565 23.5382 12.0048C23.5382 11.9827 23.5381 11.9606 23.538 11.9385L23.5379 11.9238Z" fill="#3D3D3D"/>
<path d="M18.9678 2.80933C18.9221 2.95171 18.872 3.09752 18.8164 3.24493C19.3372 4.40569 19.6718 5.66806 19.782 6.9942C20.6948 6.95364 21.5835 6.9798 22.4337 7.07465C21.6351 5.3881 20.4396 3.92617 18.9678 2.80933Z" fill="#3D3D3D"/>
<path d="M12.0681 23.5416C12.0757 23.5416 12.0833 23.5415 12.0909 23.5415C12.1063 23.5414 12.1217 23.5412 12.1371 23.541C12.1452 23.5409 12.1533 23.5408 12.1614 23.5407C12.1772 23.5405 12.1931 23.5403 12.2089 23.54C12.2159 23.5399 12.2229 23.5398 12.2299 23.5396C12.2525 23.5392 12.275 23.5387 12.2976 23.5381L12.3036 23.5379C12.3242 23.5374 12.3448 23.5368 12.3653 23.5362C12.3724 23.536 12.3794 23.5357 12.3864 23.5355C12.402 23.535 12.4176 23.5345 12.4333 23.5339C12.4414 23.5336 12.4495 23.5333 12.4575 23.533C12.4732 23.5323 12.4887 23.5317 12.5043 23.531C12.5114 23.5307 12.5185 23.5304 12.5257 23.5301C12.5478 23.5291 12.5699 23.5281 12.592 23.527L12.6063 23.5262C12.6235 23.5253 12.6408 23.5244 12.658 23.5234C12.6665 23.523 12.6749 23.5225 12.6833 23.522C12.6982 23.5211 12.713 23.5202 12.7278 23.5193C12.7356 23.5188 12.7433 23.5183 12.7511 23.5178C12.7675 23.5168 12.7838 23.5157 12.8001 23.5146C12.8064 23.5141 12.8126 23.5137 12.8188 23.5133C12.8407 23.5118 12.8625 23.5102 12.8843 23.5085C12.8907 23.508 12.8972 23.5075 12.9036 23.507C12.9193 23.5058 12.9349 23.5046 12.9505 23.5033C12.9591 23.5026 12.9677 23.5019 12.9763 23.5012C12.9906 23.5 13.0048 23.4988 13.0191 23.4975C13.0273 23.4968 13.0355 23.4961 13.0436 23.4953C13.0597 23.4939 13.0757 23.4924 13.0918 23.4909C13.0981 23.4903 13.1044 23.4897 13.1107 23.4892C13.1317 23.4871 13.1527 23.4851 13.1737 23.483C13.182 23.4821 13.1902 23.4813 13.1984 23.4804C13.2127 23.4789 13.2269 23.4775 13.2411 23.4759C13.2497 23.475 13.2583 23.4741 13.2669 23.4731C13.2807 23.4716 13.2944 23.4701 13.3082 23.4686C13.3169 23.4676 13.3257 23.4666 13.3344 23.4656C13.3505 23.4637 13.3666 23.4618 13.3827 23.4599C13.3902 23.459 13.3978 23.4581 13.4053 23.4572C13.4241 23.4549 13.4429 23.4526 13.4617 23.4502C13.4714 23.449 13.4813 23.4477 13.491 23.4464C13.503 23.4449 13.515 23.4433 13.527 23.4417C13.5372 23.4404 13.5474 23.439 13.5576 23.4377C13.5695 23.4361 13.5814 23.4344 13.5932 23.4328C13.6031 23.4314 13.6131 23.4301 13.623 23.4287C13.6381 23.4265 13.6531 23.4244 13.6682 23.4222C13.6811 23.4203 13.694 23.4184 13.7069 23.4165C13.7204 23.4145 13.7339 23.4125 13.7474 23.4105C13.7581 23.4088 13.7688 23.4072 13.7795 23.4055C13.7902 23.4039 13.801 23.4022 13.8117 23.4005C13.8227 23.3988 13.8337 23.397 13.8446 23.3952C13.8552 23.3936 13.8657 23.3918 13.8762 23.3901C13.8872 23.3883 13.8983 23.3865 13.9093 23.3847C13.9219 23.3826 13.9345 23.3804 13.9472 23.3783C13.9643 23.3754 13.9815 23.3724 13.9986 23.3694C14.0093 23.3676 14.02 23.3657 14.0307 23.3638C14.0425 23.3617 14.0543 23.3596 14.0662 23.3574C14.075 23.3558 14.0837 23.3543 14.0925 23.3526C14.1051 23.3503 14.1177 23.348 14.1303 23.3457C14.1383 23.3442 14.1463 23.3426 14.1543 23.3411C14.1991 23.3327 14.2438 23.324 14.2884 23.315C14.2957 23.3135 14.3031 23.3121 14.3104 23.3105C14.3232 23.3079 14.336 23.3053 14.3488 23.3027C14.3568 23.301 14.3648 23.2993 14.3728 23.2977C14.3857 23.295 14.3987 23.2923 14.4117 23.2895C14.4182 23.2881 14.4248 23.2867 14.4313 23.2853C14.4785 23.2752 14.5256 23.2647 14.5726 23.2541L14.5873 23.2507C14.6016 23.2474 14.6159 23.2441 14.6303 23.2408L14.6479 23.2366C14.6627 23.2332 14.6775 23.2297 14.6922 23.2262L14.6986 23.2246C14.7365 23.2155 14.7743 23.2063 14.8121 23.1968C14.8008 23.1474 14.8054 23.094 14.8292 23.0449C15.8004 21.0283 16.4308 18.5475 16.6602 15.896C15.1116 17.5299 13.0901 18.711 10.8148 19.22C10.1186 20.8938 9.18589 22.0884 8.28516 22.9303C9.19545 23.2398 10.1568 23.4388 11.1533 23.5112L11.1588 23.5116C11.1761 23.5128 11.1934 23.514 11.2108 23.5152L11.2199 23.5158C11.2359 23.5169 11.252 23.5179 11.268 23.5189L11.2705 23.5191L11.2786 23.5196C11.3362 23.5231 11.3939 23.5263 11.4517 23.529L11.4636 23.5295C11.4785 23.5302 11.4935 23.5309 11.5084 23.5315L11.5245 23.5322C11.538 23.5327 11.5516 23.5332 11.5651 23.5337L11.5658 23.5338L11.5827 23.5344C11.5979 23.5349 11.6131 23.5354 11.6282 23.5359L11.6343 23.5361L11.6385 23.5362C11.6766 23.5374 11.7148 23.5384 11.753 23.5392L11.7665 23.5394L11.7693 23.5395C11.7826 23.5398 11.796 23.54 11.8093 23.5402C11.8163 23.5404 11.8233 23.5404 11.8303 23.5405C11.8424 23.5407 11.8545 23.5409 11.8666 23.541C11.8735 23.5411 11.8804 23.5412 11.8873 23.5412C11.9001 23.5414 11.9129 23.5415 11.9257 23.5416L11.9341 23.5416L11.9441 23.5417C11.9629 23.5418 11.9818 23.5418 12.0006 23.5418C12.0231 23.5418 12.0456 23.5418 12.0681 23.5416Z" fill="#3D3D3D"/>
<path d="M19.3197 11.332C18.8686 12.8109 18.1284 14.1637 17.1649 15.3246C16.9849 18.1755 16.3518 20.865 15.3359 23.0516C18.8774 21.983 21.7002 19.2576 22.904 15.7768C22.228 13.7216 20.9248 11.9826 19.3197 11.332Z" fill="#3D3D3D"/>
</svg>
