<svg width="24" height="24" viewBox="0 0 24 24" fill="none" xmlns="http://www.w3.org/2000/svg">
    <g clip-path="url(#clip0_1242_953)">
        <path d="M3 20H21V12C21 11.2044 20.6839 10.4413 20.1213 9.87868C19.5587 9.31607 18.7956 9 18 9H6C5.20435 9 4.44129 9.31607 3.87868 9.87868C3.31607 10.4413 3 11.2044 3 12V20Z" stroke="#121212" stroke-width="2" stroke-linecap="round" stroke-linejoin="round"/>
        <path d="M3 14.803C3.312 14.938 3.654 15.007 4 15C4.3895 15.0082 4.77512 14.9214 5.12358 14.7472C5.47203 14.573 5.77283 14.3165 6 14C6.22717 13.6835 6.52797 13.4271 6.87642 13.2529C7.22488 13.0787 7.6105 12.9919 8 13C8.3895 12.9919 8.77512 13.0787 9.12358 13.2529C9.47203 13.4271 9.77283 13.6835 10 14C10.2272 14.3165 10.528 14.573 10.8764 14.7472C11.2249 14.9214 11.6105 15.0082 12 15C12.3895 15.0082 12.7751 14.9214 13.1236 14.7472C13.472 14.573 13.7728 14.3165 14 14C14.2272 13.6835 14.528 13.4271 14.8764 13.2529C15.2249 13.0787 15.6105 12.9919 16 13C16.3895 12.9919 16.7751 13.0787 17.1236 13.2529C17.472 13.4271 17.7728 13.6835 18 14C18.2272 14.3165 18.528 14.573 18.8764 14.7472C19.2249 14.9214 19.6105 15.0082 20 15C20.35 15.007 20.692 14.938 21 14.803" stroke="#121212" stroke-width="2" stroke-linecap="round" stroke-linejoin="round"/>
        <path d="M11.9994 4L13.4644 5.638C13.7258 5.91903 13.9008 6.26935 13.9686 6.64715C14.0363 7.02495 13.994 7.41426 13.8465 7.76862C13.699 8.12298 13.4527 8.42742 13.1369 8.64561C12.8211 8.86379 12.4493 8.98651 12.0656 8.99911C11.682 9.0117 11.3029 8.91365 10.9735 8.71665C10.6441 8.51964 10.3783 8.23202 10.2079 7.88809C10.0375 7.54417 9.96967 7.15848 10.0125 6.77705C10.0553 6.39563 10.207 6.03458 10.4494 5.737L11.9994 4Z" stroke="#121212" stroke-width="2" stroke-linecap="round" stroke-linejoin="round"/>
    </g>
    <defs>
        <clipPath id="clip0_1242_953">
            <rect width="24" height="24" fill="white"/>
        </clipPath>
    </defs>
</svg>
