<svg width="36" height="28" viewBox="0 0 36 28" fill="none" xmlns="http://www.w3.org/2000/svg">
<path d="M0.681133 17.9735V9.17169H35.3752V17.9735C35.4249 18.2401 35.4531 18.51 35.4531 18.7827C35.4531 23.5727 27.6512 27.4562 18.0282 27.4562C8.40511 27.4562 0.603241 23.5727 0.603241 18.7827C0.603241 18.5094 0.632111 18.2401 0.681133 17.9735Z" fill="#3D3D3D"/>
<path d="M18.0282 17.8452C8.40465 17.8452 0.603241 13.962 0.603241 9.1717C0.603241 4.38145 8.40465 0.498169 18.0282 0.498169C27.6517 0.498169 35.4531 4.38145 35.4531 9.1717C35.4531 13.962 27.6517 17.8452 18.0282 17.8452Z" fill="#3D3D3D"/>
<g style="mix-blend-mode:soft-light">
<path d="M18.0282 17.1414C27.3356 17.1414 34.9381 13.5091 35.4269 8.93665C35.4437 9.09177 35.4531 9.24824 35.4531 9.40537C35.4531 14.1954 27.6512 18.0789 18.0282 18.0789C8.40511 18.0789 0.603241 14.1954 0.603241 9.40537C0.603241 9.24824 0.612652 9.09177 0.62944 8.93665C1.11899 13.5091 8.72073 17.1414 18.0282 17.1414Z" fill="white"/>
</g>
<g style="mix-blend-mode:soft-light">
<path d="M18.0844 22.9187L18.7868 22.9274C19.0205 22.9321 19.2542 22.9388 19.4879 22.9167L20.1883 22.8737C20.4213 22.8583 20.6523 22.8153 20.884 22.7871C21.1157 22.7555 21.3481 22.73 21.5764 22.6763L22.2634 22.5359C22.4903 22.4802 22.7153 22.4137 22.9416 22.356C23.1693 22.3016 23.3915 22.2284 23.6131 22.1538C23.8341 22.078 24.0604 22.0155 24.2766 21.9248L24.93 21.669L25.5713 21.3829L26.1999 21.0706C26.2442 21.0478 26.2879 21.023 26.3315 20.9995C26.1435 21.0512 25.9528 21.0948 25.7627 21.1398C25.5498 21.1929 25.3336 21.2358 25.118 21.2775C24.9025 21.3225 24.6856 21.3574 24.4667 21.3883C24.2491 21.4239 24.0308 21.4521 23.8106 21.4729L23.4815 21.5085L23.1505 21.5293L22.8194 21.5495L22.4877 21.5541C22.2667 21.5609 22.0451 21.5555 21.8235 21.5441C21.6019 21.54 21.381 21.5186 21.1594 21.4957C20.9378 21.4803 20.7182 21.44 20.4986 21.4057C20.2776 21.3782 20.0621 21.3144 19.8445 21.2687C19.6269 21.2211 19.4161 21.1438 19.2018 21.0827C18.9903 21.0115 18.7835 20.9249 18.5746 20.847L17.38 20.3991L18.6646 20.3252L20.0654 20.2447L20.7631 20.1735C20.9955 20.1473 21.2299 20.1352 21.4609 20.0989L22.1553 19.9996C22.3876 19.97 22.6179 19.929 22.8469 19.8827L23.5366 19.7504L24.2189 19.5879C24.4479 19.5389 24.6728 19.4751 24.8978 19.4099C25.1221 19.3435 25.3504 19.2884 25.5707 19.2092C25.7916 19.1333 26.0159 19.0634 26.2355 18.9815L26.8896 18.7243C27.1024 18.6276 27.32 18.5376 27.5309 18.4342C27.7397 18.3281 27.9526 18.2274 28.1554 18.1098C28.3636 18.0004 28.5637 17.8775 28.7631 17.7526C28.9585 17.6223 29.1553 17.4914 29.3346 17.3383C29.1667 17.5048 28.98 17.6505 28.7927 17.7956C28.602 17.9353 28.4092 18.0736 28.2084 18.1998C28.011 18.3321 27.8015 18.4429 27.5967 18.5631C27.3898 18.6793 27.1756 18.7814 26.9654 18.8915L26.3181 19.1883C26.1005 19.283 25.8776 19.3663 25.6573 19.4556C25.4377 19.5489 25.2107 19.6168 24.9864 19.6967C24.7621 19.7753 24.5365 19.8525 24.3075 19.9149L23.6212 20.111L22.9262 20.2729C22.6952 20.3293 22.4628 20.3803 22.2278 20.4199L21.526 20.5495C21.2923 20.5959 21.0553 20.618 20.8202 20.653L20.15 20.7409C20.2971 20.7711 20.4442 20.8027 20.5939 20.8188C20.8014 20.847 21.0076 20.8813 21.2171 20.8927C21.426 20.9102 21.6348 20.9276 21.845 20.9276C22.0552 20.935 22.2647 20.937 22.4756 20.9263L22.7912 20.9169L23.1068 20.892L23.4218 20.8672L23.736 20.8276C23.9455 20.8041 24.1551 20.7738 24.3632 20.7355C24.5721 20.7026 24.7803 20.665 24.9871 20.6187C25.1946 20.5777 25.4021 20.5354 25.6083 20.4824C25.8144 20.4327 26.0213 20.385 26.2254 20.3252C26.4295 20.2668 26.6357 20.2151 26.8378 20.1486C27.04 20.0835 27.2448 20.0257 27.4456 19.9546C27.8492 19.8196 28.2481 19.6705 28.6463 19.5181L30.6797 18.7377L28.9975 20.1077C28.7947 20.2729 28.6033 20.4166 28.4005 20.5583C28.2011 20.7013 27.9962 20.8336 27.7908 20.9666C27.5832 21.0948 27.3737 21.2197 27.1629 21.3419C26.948 21.4574 26.7371 21.579 26.5195 21.6891C26.3006 21.7959 26.0837 21.9074 25.8634 22.0108L25.1946 22.3049L24.513 22.5675C24.2874 22.6602 24.0516 22.7246 23.8206 22.8019C23.589 22.8784 23.3573 22.9523 23.1196 23.0087C22.8832 23.0691 22.6475 23.1309 22.4104 23.186L21.6912 23.3203C21.4528 23.372 21.2097 23.3941 20.9673 23.4237C20.7249 23.4485 20.4838 23.4882 20.24 23.5009L19.5094 23.5338C19.4167 23.5405 19.3234 23.5405 19.2307 23.5412L19.5651 23.6513C19.8069 23.7333 20.0627 23.7823 20.3126 23.8454C20.5684 23.8857 20.8223 23.9441 21.0808 23.971C21.34 23.9932 21.5972 24.0395 21.8591 24.0455C22.1196 24.0536 22.3809 24.0845 22.6428 24.0737C22.904 24.067 23.1666 24.0764 23.4285 24.0563L24.2135 23.9952L24.9945 23.8877C25.255 23.8515 25.5109 23.7883 25.7701 23.7407C26.0307 23.6957 26.2838 23.6245 26.5383 23.554C26.7915 23.4808 27.0514 23.4257 27.2985 23.3303L28.0479 23.0691C28.2944 22.9724 28.5348 22.8616 28.7792 22.7589L29.1459 22.6038L29.5011 22.4238L30.213 22.0618L29.5294 22.4755L29.1862 22.6823L28.8289 22.863C28.5892 22.9805 28.3522 23.1054 28.1091 23.2162L27.3663 23.5217C27.1212 23.6319 26.862 23.7017 26.6088 23.7904C26.3543 23.8763 26.1005 23.9629 25.8379 24.0234C25.5774 24.0872 25.3188 24.1657 25.0549 24.2175L24.2605 24.3632L23.4573 24.4579C23.1894 24.4894 22.9188 24.4908 22.6488 24.5082C22.3789 24.5297 22.1082 24.5089 21.8369 24.5116C21.5656 24.5169 21.2957 24.4773 21.0244 24.4612C20.7538 24.4404 20.4851 24.388 20.2145 24.3524C19.9472 24.2933 19.6773 24.249 19.412 24.1684L19.0138 24.0496L18.6216 23.8931C18.4907 23.8434 18.3638 23.7615 18.2355 23.6957C18.1066 23.6305 17.9837 23.5144 17.8601 23.4224L17.1745 22.9113L18.0851 22.9227L18.0844 22.9187Z" fill="white"/>
</g>
</svg>
