<svg width="24" height="24" viewBox="0 0 24 24" fill="none" xmlns="http://www.w3.org/2000/svg">
<path d="M12.0028 23.982C18.6296 23.982 24.0016 18.6181 24.0016 12.0013C24.0016 5.38448 18.6296 0.0205078 12.0028 0.0205078C5.37598 0.0205078 0.00390625 5.38448 0.00390625 12.0013C0.00390625 18.6181 5.37598 23.982 12.0028 23.982Z" fill="#3D3D3D"/>
<path d="M20.3632 3.40535C19.3303 2.40318 18.0985 1.57068 16.6934 0.974593C10.5943 -1.61276 3.54927 1.22665 0.958014 7.31663C-0.147235 9.9142 -0.263006 12.6834 0.440149 15.2062C1.47307 16.2084 2.70485 17.0409 4.1099 17.6369C10.2091 20.2243 17.2541 17.3848 19.8453 11.2949C20.9506 8.69734 21.0664 5.92817 20.3632 3.40535Z" fill="#3D3D3D"/>
<path d="M5.93419 7.36668C5.93419 7.36668 5.58257 10.3634 6.02102 12.0138L11.0733 13.2892C11.0733 13.2892 13.6093 9.75473 13.8818 8.73136C13.8818 8.73136 10.7526 5.23435 10.45 5.05176C10.45 5.05176 7.08545 6.06521 5.93419 7.36668Z" fill="#D1D1D1"/>
<path d="M0.523438 8.59612C0.523438 8.59612 2.1704 6.25744 2.88466 5.85532C2.88466 5.85532 3.80922 3.42713 4.41765 2.76318C4.41765 2.76318 1.50996 5.00099 0.523438 8.59612Z" fill="#D1D1D1"/>
<path d="M0.242188 13.8477C0.242188 13.8477 2.42563 15.0993 3.15492 15.3003C3.15492 15.3003 4.95906 19.103 5.578 19.691C5.578 19.691 4.89831 20.6501 4.08506 20.9017C4.08506 20.9017 0.702845 18.3822 0.242188 13.8477Z" fill="#D1D1D1"/>
<path d="M13.0881 17.6157L10.4336 21.0457C10.4336 21.0457 11.8245 22.8832 13.466 22.9829C15.1075 23.0827 18.1866 21.0804 18.1866 21.0804C18.1866 21.0804 18.482 18.9819 17.802 17.7714C17.802 17.7714 13.7783 17.9085 13.0881 17.6157Z" fill="#D1D1D1"/>
<path d="M18.5898 8.77544C18.5898 8.77544 20.3342 12.3358 20.5344 13.3971C20.5344 13.3971 23.1916 12.8971 23.4009 12.6605C23.6102 12.4239 23.4419 8.98965 22.9126 7.68034C22.3833 6.37102 20.1286 5.41455 20.1286 5.41455L18.5898 8.77544Z" fill="#D1D1D1"/>
<path d="M9.16406 0.545908C9.16406 0.545908 11.5821 1.24626 12.1216 1.63782C12.1216 1.63782 15.7911 1.56729 16.8885 1.92439C16.8885 1.92439 17.0702 1.24214 16.6952 0.97455C16.3202 0.707005 11.5313 -0.293953 9.16406 0.545908Z" fill="#D1D1D1"/>
<path d="M11.118 13.2704L11.0273 13.3125L13.0431 17.639L13.1337 17.5969L11.118 13.2704Z" fill="#D1D1D1"/>
<path d="M13.8838 8.6785L13.8828 8.77832L18.5901 8.8225L18.591 8.72269L13.8838 8.6785Z" fill="#D1D1D1"/>
<path d="M17.8322 17.8114L17.7734 17.7307C19.6243 16.3872 20.4766 13.4134 20.485 13.3835L20.5813 13.4105C20.5728 13.4407 19.7109 16.4477 17.8322 17.8114Z" fill="#D1D1D1"/>
<path d="M18.1906 21.1301L18.1875 21.0304C18.2017 21.0299 19.6135 20.9797 20.449 20.3835L20.5071 20.4648C19.6467 21.0788 18.2496 21.1283 18.1906 21.1301Z" fill="#D1D1D1"/>
<path d="M10.4265 21.0948C8.23232 20.8092 5.58506 19.7475 5.55859 19.7368L5.59607 19.6443C5.62244 19.6549 8.25811 20.7119 10.4394 20.9958L10.4265 21.0948Z" fill="#D1D1D1"/>
<path d="M12.4817 23.8526L12.4492 23.7582C13.0611 23.5482 13.421 22.9629 13.4245 22.957L13.5101 23.0087C13.4947 23.034 13.1275 23.631 12.4817 23.8526Z" fill="#D1D1D1"/>
<path d="M3.19584 15.3284L3.11328 15.2721C3.12913 15.249 4.71395 12.942 5.98931 11.9741L6.04982 12.0536C4.78725 13.0118 3.2116 15.3054 3.19584 15.3284Z" fill="#D1D1D1"/>
<path d="M5.91059 7.40991C5.17762 6.99201 2.88631 5.91147 2.86328 5.90058L2.90594 5.8103C2.92902 5.82119 5.22387 6.90338 5.96019 7.32326L5.91059 7.40991Z" fill="#D1D1D1"/>
<path d="M10.5005 5.06139L10.4023 5.04213C10.5892 4.0934 12.0177 1.71318 12.0784 1.6123L12.1641 1.66376C12.1493 1.68825 10.684 4.12975 10.5005 5.06139Z" fill="#D1D1D1"/>
<path d="M20.0799 5.43212C19.5549 4.04105 16.8824 1.98463 16.8555 1.96401L16.9163 1.88477C17.0272 1.96962 19.6384 3.97914 20.1735 5.39693L20.0799 5.43212Z" fill="#D1D1D1"/>
</svg>
