<svg width="24" height="25" viewBox="0 0 24 25" fill="none" xmlns="http://www.w3.org/2000/svg">
<path d="M0.490043 15.4566C-3.68132 2.11109 20.0486 -6.4882 23.6063 9.35858C27.1651 25.2046 5.55909 31.674 0.490043 15.4566Z" fill="#3D3D3D"/>
<path d="M20.1887 20.0544C16.4354 19.637 13.3075 17.7601 10.1799 15.2579C6.89921 12.6608 4.24616 9.16809 2.9839 5.24902C0.503386 7.86707 -0.763627 11.4466 0.489883 15.4564C4.14189 27.1411 16.3779 27.0478 21.6023 20.1561C21.1309 20.1181 20.6598 20.0839 20.1887 20.0544Z" fill="#D1D1D1"/>
<path d="M9.1092 3.077C9.1092 3.077 9.3475 2.99673 9.76459 2.8562C9.97313 2.78644 10.2249 2.69866 10.53 2.6319C10.6808 2.59464 10.8411 2.55464 11.0106 2.51289C11.0954 2.49288 11.1826 2.47238 11.2717 2.45162C11.3617 2.43762 11.4542 2.42361 11.5482 2.40911C11.9258 2.35209 12.3336 2.27757 12.773 2.26532C12.9918 2.25732 13.2168 2.22482 13.4474 2.23632C13.6779 2.24508 13.9137 2.25433 14.1533 2.26358C14.3933 2.26983 14.6336 2.32309 14.8787 2.3516C15.0012 2.36885 15.1242 2.38661 15.2485 2.40411C15.3698 2.43412 15.492 2.46412 15.6148 2.49413C16.1109 2.59565 16.5915 2.78044 17.0719 2.96173C17.3022 3.07575 17.5322 3.18977 17.7612 3.30304C17.992 3.41407 18.1968 3.5681 18.4136 3.69712C18.5192 3.76614 18.6289 3.82791 18.7297 3.90192C18.8285 3.97894 18.9265 4.0552 19.0238 4.13122C19.1213 4.20748 19.2181 4.28275 19.3141 4.35777L19.4574 4.47003L19.5886 4.59381C19.7619 4.75909 19.9327 4.92163 20.0997 5.08066C20.2643 5.24195 20.4023 5.42123 20.5488 5.58402C20.8471 5.90584 21.0787 6.24991 21.3052 6.55672C21.3612 6.63374 21.416 6.709 21.4698 6.78277C21.5175 6.86053 21.564 6.93629 21.6095 7.01031C21.6993 7.15884 21.7843 7.29938 21.8646 7.4319C22.0314 7.69246 22.1499 7.9345 22.2499 8.13229C22.449 8.52762 22.5625 8.75342 22.5625 8.75342C22.5852 8.79818 22.5672 8.8527 22.5225 8.87495C22.4795 8.89671 22.4272 8.8807 22.4032 8.83944L22.4002 8.83368C22.4002 8.83368 22.2752 8.61714 22.0564 8.23781C21.9489 8.04752 21.8218 7.81473 21.6465 7.56618C21.562 7.4399 21.4723 7.30562 21.3777 7.16409C21.3307 7.09307 21.2827 7.02031 21.2335 6.9458C21.179 6.87528 21.1232 6.80303 21.0659 6.72926C20.8364 6.43545 20.6021 6.10588 20.3025 5.80132C20.1555 5.64729 20.0175 5.47625 19.8537 5.32472C19.6899 5.17369 19.5226 5.01866 19.3521 4.86162L19.2243 4.7426L19.0848 4.63582C18.9915 4.56431 18.8977 4.49254 18.803 4.42028C18.7087 4.34776 18.6134 4.27499 18.5182 4.20173C18.4206 4.13146 18.3144 4.07296 18.2123 4.00795C18.0028 3.88617 17.805 3.73913 17.5827 3.63536C17.3622 3.52833 17.1406 3.42107 16.9196 3.31405C16.689 3.22778 16.459 3.14152 16.2294 3.056L16.0574 2.99173L15.8801 2.94572C15.7618 2.91546 15.6441 2.8852 15.5265 2.8552C15.4093 2.82494 15.2922 2.79494 15.176 2.76494C15.0572 2.74718 14.9392 2.72918 14.8214 2.71167C14.5856 2.68242 14.3553 2.62816 14.1237 2.62041C13.8924 2.6084 13.6651 2.59639 13.4426 2.58489C13.2198 2.56739 13.0013 2.5934 12.7887 2.59515C12.3624 2.59465 11.963 2.65667 11.5932 2.70168C11.501 2.71318 11.4104 2.72442 11.3217 2.73542C11.2346 2.75292 11.1496 2.77018 11.0666 2.78669C10.9003 2.81994 10.7428 2.85119 10.5943 2.8807C10.297 2.93096 10.0396 3.00749 9.8281 3.06775C9.40376 3.18402 9.16096 3.25004 9.16096 3.25004C9.1127 3.26354 9.0627 3.23503 9.04969 3.18652C9.03794 3.14026 9.06394 3.092 9.1092 3.077Z" fill="#3D3D3D"/>
<path d="M1.72315 10.055C1.72315 10.055 1.70364 10.289 1.66939 10.6978C1.65088 10.9024 1.62338 11.1512 1.62288 11.4332C1.61937 11.5743 1.61562 11.7248 1.61137 11.8831C1.60437 12.0411 1.60037 12.2074 1.61037 12.3817C1.62613 12.7295 1.61938 13.1074 1.67414 13.5022C1.69639 13.7 1.71365 13.9038 1.74115 14.1106C1.77766 14.3156 1.81492 14.5254 1.85267 14.7387C1.88243 14.9535 1.94269 15.165 1.99995 15.3801C2.06147 15.5936 2.10098 15.8169 2.18674 16.0272C2.26326 16.2402 2.34028 16.4553 2.41804 16.6708C2.51456 16.8784 2.61133 17.0867 2.7086 17.295L2.77962 17.4518L2.86538 17.601L3.03692 17.8986L3.2082 18.1954L3.40599 18.472C3.47176 18.564 3.53677 18.6557 3.60203 18.747L3.69956 18.8836L3.80933 19.0091C3.95511 19.1761 4.09939 19.3409 4.24117 19.5034C4.39295 19.6557 4.55173 19.7967 4.70001 19.9425C4.77603 20.013 4.84679 20.0883 4.92431 20.1533C5.00408 20.2163 5.08309 20.2786 5.16061 20.3398C5.31639 20.4624 5.46817 20.5816 5.6147 20.6969C5.77149 20.7987 5.92277 20.8972 6.06805 20.9917C6.35336 21.1908 6.63892 21.3321 6.88647 21.4688C7.01099 21.5356 7.12602 21.6016 7.23554 21.6564C7.34731 21.7059 7.45033 21.7511 7.5436 21.7921C7.91518 21.9589 8.12773 22.0542 8.12773 22.0542L8.13448 22.0572C8.17998 22.0777 8.20049 22.1315 8.17999 22.177C8.16048 22.2207 8.10972 22.2412 8.06521 22.2245C8.06521 22.2245 7.84392 22.141 7.45709 21.9949C7.36031 21.9579 7.25329 21.9167 7.13677 21.8717C7.02249 21.8214 6.90197 21.7599 6.77144 21.6979C6.51189 21.5706 6.21108 21.4403 5.91277 21.2428C5.76048 21.1498 5.6017 21.0527 5.43767 20.9527C5.28238 20.8382 5.1221 20.7197 4.95732 20.5982C4.87505 20.5369 4.79178 20.4749 4.70751 20.4119C4.62475 20.3469 4.54873 20.2713 4.46797 20.2003C4.30843 20.0553 4.1434 19.9085 3.98387 19.7517C3.83433 19.5842 3.6828 19.4139 3.52927 19.2416L3.41375 19.1121L3.31098 18.9708C3.24221 18.8763 3.1727 18.7815 3.10343 18.6863L2.89464 18.3994L2.7131 18.0921L2.53106 17.7833L2.44029 17.6285L2.36428 17.466C2.26501 17.2482 2.16574 17.0307 2.06697 16.8136C1.98845 16.5891 1.91069 16.365 1.83317 16.1427C1.74665 15.9232 1.70714 15.6921 1.64613 15.4703C1.58937 15.247 1.52936 15.0275 1.5006 14.8057C1.46484 14.5854 1.42933 14.3689 1.39483 14.1568C1.37307 13.9433 1.36107 13.7335 1.34457 13.5299C1.30106 13.1233 1.31881 12.737 1.31406 12.3817C1.30331 12.0266 1.35107 11.6998 1.36632 11.4117C1.38158 11.1219 1.42058 10.8761 1.44934 10.6731C1.50835 10.2668 1.54261 10.0345 1.54261 10.0345C1.54961 9.98495 1.59587 9.95044 1.64513 9.95745C1.69339 9.9647 1.7269 10.0077 1.72315 10.055Z" fill="#3D3D3D"/>
</svg>
