<svg width="25" height="25" viewBox="0 0 25 25" fill="none" xmlns="http://www.w3.org/2000/svg">
<path d="M24.9986 12.6451C24.9986 14.3877 24.6324 16.044 23.9726 17.5423C23.7125 18.133 23.4058 18.6983 23.0594 19.2352C22.6383 19.8858 22.1578 20.4948 21.6225 21.0515C21.1684 21.5264 20.6763 21.9637 20.1501 22.3598C19.8585 22.5803 19.5594 22.785 19.25 22.9764C18.0692 23.7099 16.7527 24.2482 15.3488 24.5408H15.3473C14.7606 24.6652 14.1608 24.7455 13.5457 24.781H13.5442C13.4705 24.7851 13.3974 24.7892 13.3222 24.7902C13.1633 24.7978 13.0048 24.8008 12.8433 24.8008C12.6269 24.8008 12.41 24.7958 12.1962 24.7836C5.78437 24.4478 0.6875 19.1422 0.6875 12.6451C0.6875 9.65297 1.76884 6.91179 3.56277 4.79381C3.67045 4.66632 3.78219 4.54036 3.89494 4.41694C3.97367 4.33161 4.05392 4.2478 4.13366 4.16501C4.50748 3.78053 4.9067 3.42347 5.32775 3.0918H5.32928C6.22675 2.38429 7.2253 1.80171 8.30004 1.36745C9.01263 1.07998 9.75672 0.858527 10.5282 0.708693C10.5282 0.708693 10.5282 0.708693 10.5298 0.708693C10.5902 0.697012 10.6517 0.686346 10.7121 0.67568H10.7136C10.9473 0.633524 11.1834 0.598478 11.4222 0.570543C11.6756 0.541592 11.9311 0.519244 12.1896 0.506039C12.406 0.494357 12.6239 0.48877 12.8433 0.48877C12.9967 0.48877 13.1475 0.49131 13.2974 0.497913C19.8006 0.73663 24.9986 6.08542 24.9986 12.6451Z" fill="#3D3D3D"/>
<path d="M23.0608 19.2359C22.6398 19.8866 22.1593 20.4955 21.624 21.0522C23.8771 7.21169 13.1439 1.80906 10.5312 0.709442C10.5917 0.69776 10.6531 0.687093 10.7136 0.676427H10.7151C10.9488 0.63427 11.1849 0.599224 11.4236 0.571289C22.334 3.88082 23.2396 14.4301 23.0608 19.2359Z" fill="#D1D1D1"/>
<path d="M13.5475 24.6749L13.322 24.7902C13.163 24.7978 13.0045 24.8009 12.843 24.8009C12.6266 24.8009 12.4098 24.7958 12.1959 24.7836C14.4764 13.1124 7.66844 7.2176 3.5625 4.79386C3.67018 4.66638 3.78191 4.54041 3.89467 4.41699C16.2531 9.56008 13.5475 24.6749 13.5475 24.6749Z" fill="#D1D1D1"/>
<path opacity="0.2" d="M23.9731 17.5425C23.1284 19.4584 21.8033 21.1157 20.1501 22.3605C19.8595 22.58 19.5599 22.7857 19.25 22.9777C18.0692 23.7111 16.7537 24.249 15.3488 24.542H15.3473C14.7612 24.6654 14.1608 24.7462 13.5452 24.7807H13.5437C13.3116 24.7944 13.0795 24.8016 12.8433 24.8016C6.13025 24.8016 0.6875 19.3583 0.6875 12.6458C0.6875 9.34792 2.00197 6.35532 4.13417 4.16573C4.50799 3.78073 4.9067 3.42367 5.32724 3.09201H5.32877C6.22625 2.385 7.22479 1.80293 8.30055 1.36816C8.30055 1.36816 4.4384 11.8819 11.1067 18.2724C16.2224 23.1737 21.9821 19.8693 23.9731 17.5425Z" fill="#2C2A40"/>
</svg>
