<svg width="24" height="24" viewBox="0 0 24 24" fill="none" xmlns="http://www.w3.org/2000/svg">
<path d="M23.3871 21.3782C23.7286 21.4257 24.1425 22.6191 23.9513 22.8784C23.76 23.1378 21.9622 23.1378 20.8624 23.1761C19.7626 23.2143 18.9131 23.0445 18.3186 22.8559C18.1083 22.789 17.4915 22.4674 17.1328 22.0812C13.6424 18.3231 0.0056669 1.33748 0.0056669 1.33748C0.0056669 1.33748 -0.00708362 1.15262 0.0056669 1.13347C0.0184174 1.11432 0.432781 0.770051 0.477436 0.776455C0.522034 0.78286 16.3709 19.4348 17.0392 20.193C17.3128 20.5035 18.0796 21.5107 19.1985 21.5982C20.3598 21.689 23.0428 21.3304 23.3871 21.3782Z" fill="#D1D1D1"/>
<path opacity="0.2" d="M23.3871 21.3782C23.7286 21.4257 24.1425 22.6191 23.9513 22.8784C23.76 23.1378 21.9622 23.1378 20.8624 23.1761C19.7626 23.2143 18.9131 23.0445 18.3186 22.8559C18.1083 22.789 17.4915 22.4674 17.1328 22.0812C13.6424 18.3231 0.0056669 1.33748 0.0056669 1.33748C0.0056669 1.33748 -0.00708362 1.15262 0.0056669 1.13347C0.0184174 1.11432 0.432781 0.770051 0.477436 0.776455C0.522034 0.78286 16.3709 19.4348 17.0392 20.193C17.3128 20.5035 18.0796 21.5107 19.1985 21.5982C20.3598 21.689 23.0428 21.3304 23.3871 21.3782Z" fill="#121212"/>
<path opacity="0.2" d="M23.3871 21.3782C23.7286 21.4257 24.1425 22.6191 23.9513 22.8784C23.76 23.1378 21.9622 23.1378 20.8624 23.1761C19.7626 23.2143 18.9131 23.0445 18.3186 22.8559C18.1083 22.789 17.4915 22.4674 17.1328 22.0812C13.6424 18.3231 0.0056669 1.33748 0.0056669 1.33748C0.0056669 1.33748 -0.00708362 1.15262 0.0056669 1.13347C0.0184174 1.11432 0.432781 0.770051 0.477436 0.776455C0.522034 0.78286 16.3709 19.4348 17.0392 20.193C17.3128 20.5035 18.0796 21.5107 19.1985 21.5982C20.3598 21.689 23.0428 21.3304 23.3871 21.3782Z" fill="#D1D1D1"/>
<g opacity="0.2">
<path d="M23.6684 23.0044C23.6649 23.0055 23.6609 23.0061 23.6568 23.0073C23.1168 22.4955 22.5779 21.9815 22.0391 21.4668C22.0443 21.4662 22.0489 21.4657 22.0535 21.4651C22.5912 21.9797 23.1295 22.4926 23.6684 23.0044Z" fill="#121212"/>
<path d="M23.9961 22.7115V22.7121C23.9955 22.7196 23.9949 22.7259 23.9944 22.7323C23.6292 22.2638 23.2484 21.8201 22.8555 21.3972C22.863 21.3967 22.8699 21.3961 22.8768 21.3955C23.2634 21.8132 23.6378 22.2505 23.9961 22.7115Z" fill="#121212"/>
<path d="M22.9733 21.859C22.8371 21.7113 22.6998 21.5653 22.5625 21.4205C22.5642 21.4205 22.5665 21.4205 22.5683 21.4199C22.7829 21.6484 22.9958 21.8803 23.2075 22.1134C23.1296 22.028 23.0512 21.9432 22.9733 21.859Z" fill="#121212"/>
<path d="M23.8965 22.9016C23.6738 22.6305 23.4413 22.3697 23.207 22.1135C23.4413 22.3697 23.6749 22.6264 23.9109 22.8797C23.9271 22.8964 23.9115 22.9201 23.8965 22.9016Z" fill="#121212"/>
<path d="M23.4944 22.6252C23.6064 22.7348 23.7171 22.8473 23.8296 22.9558C23.8268 22.9569 23.8245 22.9581 23.8216 22.9587C23.5631 22.7071 23.3046 22.4538 23.0467 22.1994C22.7923 21.9484 22.539 21.6969 22.2852 21.4448C22.2898 21.4442 22.2938 21.4442 22.2984 21.4436H22.299C22.4144 21.5584 22.5298 21.6732 22.6452 21.7875C22.9279 22.0679 23.2112 22.3465 23.4944 22.6252Z" fill="#121212"/>
<path d="M23.8838 22.9305C23.8815 22.9317 23.8792 22.9334 23.8769 22.9345C23.8613 22.9074 23.844 22.882 23.8261 22.8572C23.7633 22.7707 23.6906 22.7003 23.6121 22.6443C23.6075 22.6409 23.6092 22.6322 23.6138 22.6351C23.7194 22.7089 23.8106 22.8093 23.8838 22.9305Z" fill="#121212"/>
<path d="M19.0376 23.0395C19.0307 23.0384 19.0243 23.0367 19.0168 23.0355H19.0163C18.8138 22.8405 18.6107 22.6466 18.4082 22.4522C16.761 20.876 15.0815 19.3471 13.5768 17.5107C12.8308 16.5997 12.0987 15.6708 11.2592 14.9156C11.0105 14.6923 10.759 14.4765 10.5063 14.2642C10.4988 14.2544 10.4919 14.2463 10.4844 14.2371C10.5559 14.2965 10.6269 14.3559 10.6984 14.4153C11.1121 14.7604 11.5211 15.1209 11.9083 15.5254C12.3046 15.9391 12.6797 16.3879 13.0501 16.8414C13.788 17.7437 14.527 18.6265 15.3209 19.4394C16.1373 20.2748 16.9773 21.0646 17.811 21.8643C18.2195 22.256 18.6286 22.6478 19.0376 23.0395Z" fill="#121212"/>
<path d="M1.70336 2.19986C1.71663 2.21486 1.72932 2.22986 1.74259 2.24486C1.59662 2.10639 1.45066 1.96677 1.30469 1.82715C1.43739 1.95062 1.57008 2.07408 1.7022 2.19813C1.70278 2.1987 1.70336 2.19986 1.70336 2.19986Z" fill="#121212"/>
<path d="M23.0728 23.087C23.0687 23.0876 23.0653 23.0876 23.0612 23.0876C22.5414 22.562 22.021 22.037 21.5 21.5131C21.504 21.5125 21.5087 21.5125 21.5133 21.512C22.0337 22.0358 22.5535 22.5609 23.0728 23.087Z" fill="#121212"/>
<path d="M1.30294 1.82659C0.968309 1.51561 0.633679 1.20464 0.300781 0.889625C0.302512 0.887895 0.30482 0.886741 0.307128 0.88501C0.640603 1.19541 0.97177 1.51042 1.30294 1.82659Z" fill="#121212"/>
<path d="M6.514 7.84394C5.80667 7.18218 5.13683 6.45926 4.4745 5.70635C3.04482 4.07878 1.57534 2.52968 0.0429688 1.0977C0.0441226 1.09712 0.0452765 1.09597 0.0470074 1.09424C1.36475 2.32083 2.645 3.6305 3.87851 5.01805C4.70354 5.94578 5.51185 6.90121 6.39457 7.72624C6.424 7.75393 6.45342 7.78105 6.48342 7.80817C6.49381 7.8197 6.50362 7.83182 6.514 7.84394Z" fill="#121212"/>
<path d="M22.1605 23.1375C22.1576 23.1381 22.1553 23.1381 22.153 23.1381H22.1524C21.5253 22.5698 20.8474 22.0811 20.1914 21.6005C20.1983 21.5999 20.2053 21.5994 20.2122 21.5994C20.8728 22.0846 21.5392 22.5698 22.1605 23.1375Z" fill="#121212"/>
<path d="M17.0924 20.2541C16.7405 19.9385 16.392 19.6131 16.0505 19.2733C15.2277 18.4569 14.4362 17.5817 13.6486 16.7035C12.8594 15.8249 12.0724 14.9404 11.2583 14.1056C10.4379 13.2638 9.58865 12.4803 8.74342 11.691C8.20051 11.1845 7.6628 10.6687 7.13143 10.1419C7.13086 10.1408 7.13028 10.1402 7.1297 10.1396C7.1222 10.1298 7.11355 10.12 7.10547 10.1096C7.42394 10.4269 7.74588 10.7396 8.07012 11.0472C8.92054 11.8537 9.78308 12.6338 10.6254 13.4594C11.4614 14.2792 12.2668 15.155 13.0659 16.0429C13.8632 16.9291 14.6548 17.8251 15.4735 18.675C15.9876 19.2098 16.5126 19.7169 17.048 20.2027C17.0618 20.2183 17.0763 20.235 17.0924 20.2541Z" fill="#121212"/>
<path d="M20.5638 23.1814H20.5488C19.8934 22.6068 19.2236 22.0616 18.5618 21.5129C18.5006 21.4621 18.4395 21.4114 18.3789 21.3606C18.3876 21.3652 18.3968 21.3704 18.406 21.3744H18.4066C19.1255 21.9722 19.853 22.5589 20.5638 23.1814Z" fill="#121212"/>
<path d="M19.2011 22.8602C18.9137 22.5815 18.6282 22.3005 18.3431 22.0138C16.73 20.3914 15.159 18.69 13.5781 17.0088C11.9898 15.3201 10.3888 13.6475 8.72833 12.0972C8.71564 12.0822 8.70352 12.0672 8.69141 12.0522C11.7988 14.9641 14.698 18.2763 17.7149 21.3671C18.2053 21.869 18.7009 22.3692 19.2011 22.8602Z" fill="#121212"/>
<path d="M19.456 23.1092H19.4537C19.4531 23.1092 19.4531 23.1092 19.4531 23.1092C19.3683 23.0267 19.2835 22.9442 19.1992 22.8611C19.2846 22.9442 19.37 23.0267 19.456 23.1092Z" fill="#121212"/>
<path d="M11.4384 13.6255C10.7143 12.9141 9.98855 12.2062 9.2691 11.4838C7.64961 9.85569 6.04973 8.18889 4.4614 6.50305C3.7506 5.74898 3.04269 4.99029 2.33593 4.22988C2.33535 4.2293 2.33477 4.22873 2.33477 4.22815C2.31747 4.20738 2.30131 4.18719 2.28516 4.16699C2.81768 4.74048 3.35193 5.31281 3.88676 5.88283C5.47279 7.57386 7.06862 9.24701 8.68407 10.8838C9.49987 11.7094 10.3203 12.5264 11.1459 13.3318C11.2301 13.4143 11.3144 13.4968 11.3986 13.5787L11.3992 13.5799C11.4125 13.5955 11.4251 13.6105 11.4384 13.6255Z" fill="#121212"/>
<path d="M21.3265 23.1625C21.3219 23.1625 21.3172 23.1631 21.3132 23.1631C20.7016 22.6259 20.0768 22.1171 19.4531 21.6111C19.4583 21.6111 19.4629 21.6111 19.4681 21.6117C20.0924 22.1171 20.7161 22.6254 21.3265 23.1625Z" fill="#121212"/>
<path d="M9.68465 11.5658C9.46541 11.3587 9.24906 11.1458 9.03616 10.9243C8.58787 10.4569 8.1592 9.95095 7.77438 9.39246C7.77207 9.389 7.77438 9.38439 7.77726 9.38612C7.81304 9.40689 7.84823 9.42881 7.88342 9.45074C7.88861 9.45651 7.89323 9.46285 7.89842 9.46862C7.8915 9.46401 7.88458 9.45997 7.87765 9.45535C7.87015 9.45074 7.8038 9.40516 7.8015 9.4092C7.79284 9.42131 7.83784 9.47266 7.8465 9.48478C7.88804 9.5442 7.93073 9.60363 7.97343 9.6619C8.06862 9.79113 8.16613 9.91806 8.26594 10.0421C8.45172 10.2729 8.64384 10.4939 8.84058 10.7073C9.10309 10.9906 9.37195 11.26 9.64542 11.5202C9.65811 11.5358 9.67138 11.5508 9.68465 11.5658Z" fill="#121212"/>
<path d="M21.0353 21.8151C21.0347 21.818 21.033 21.8203 21.0301 21.8203C21.0157 21.8185 21.0007 21.8156 20.9856 21.8116C20.9822 21.8133 20.9781 21.8139 20.9724 21.8093C20.9712 21.8081 20.9695 21.8064 20.9678 21.8053C20.958 21.8012 20.9481 21.7978 20.9383 21.7949C20.9297 21.7926 20.9239 21.7805 20.9256 21.7712C20.9262 21.7706 20.9262 21.7701 20.9262 21.7701C20.8489 21.7026 20.7704 21.6374 20.6914 21.5733C20.6931 21.5728 20.6937 21.5728 20.6954 21.5728C20.7906 21.6454 20.8858 21.7164 20.9822 21.7822C20.9851 21.7839 20.9856 21.7862 20.9868 21.7885C20.9989 21.7931 21.0105 21.7966 21.0226 21.7995C21.0307 21.7695 21.0266 21.7326 21.0122 21.7003C21.011 21.7008 21.0099 21.7008 21.0081 21.6991C20.9637 21.6529 20.9199 21.6068 20.8755 21.5606C20.8795 21.5606 20.883 21.5601 20.887 21.5601C20.9239 21.5981 20.9608 21.6362 20.9978 21.6749C20.9955 21.6714 20.9937 21.6674 20.9908 21.6645C20.9891 21.6622 20.9908 21.6587 20.9931 21.661C21.0301 21.7003 21.048 21.766 21.0353 21.8151Z" fill="#121212"/>
<path d="M21.6665 23.0149C21.5015 22.8655 21.3083 22.6497 21.1167 22.6664C21.1127 22.667 21.1121 22.6728 21.1156 22.6774C21.2754 22.8811 21.4773 23.0115 21.6677 23.154C21.674 23.1534 21.6804 23.1534 21.6867 23.1534C21.6504 23.1245 21.614 23.0963 21.5771 23.0692C21.4785 22.9953 21.3763 22.9261 21.2811 22.8401C21.2442 22.8072 21.2038 22.772 21.1715 22.7299C21.1571 22.7161 21.1461 22.6982 21.1386 22.6774C21.1444 22.6768 21.1507 22.6768 21.1571 22.6768C21.175 22.6716 21.2125 22.6866 21.2333 22.6936C21.4011 22.7541 21.5627 22.9359 21.7098 23.0697C21.7392 23.0968 21.7692 23.1234 21.7987 23.1499C21.8039 23.1499 21.8085 23.1493 21.8137 23.1493C21.7646 23.1043 21.7156 23.0599 21.6665 23.0149Z" fill="#121212"/>
<path d="M21.3671 22.0939C21.4496 22.2099 21.5535 22.2999 21.6504 22.3928C21.9008 22.6328 22.1483 22.878 22.3929 23.1284C22.3878 23.129 22.382 23.129 22.3768 23.129C22.2291 22.9784 22.0802 22.829 21.9308 22.6818C21.812 22.5647 21.6931 22.4487 21.5731 22.3339C21.4733 22.237 21.3758 22.1407 21.3019 22.008C21.2991 22.0022 21.3019 21.9964 21.3066 21.9993C21.4006 22.0501 21.486 22.1257 21.5719 22.203C21.6781 22.2982 21.7843 22.3934 21.891 22.488C22.0947 22.6709 22.2995 22.8538 22.5037 23.0361C22.5343 23.0638 22.5649 23.0909 22.596 23.1186C22.592 23.1192 22.588 23.1192 22.5839 23.1192C22.4287 22.9813 22.2735 22.844 22.1189 22.7055C21.9233 22.5301 21.7289 22.3541 21.5333 22.181C21.4814 22.1349 21.43 22.0893 21.3752 22.053C21.3083 22.0074 21.3256 22.0362 21.3671 22.0939Z" fill="#121212"/>
<path d="M20.0858 22.9945C19.7425 22.7539 19.405 22.4983 19.075 22.2173C18.9181 22.0829 18.764 21.9415 18.6088 21.8013C18.4831 21.6877 18.3538 21.5832 18.2119 21.5359C18.2084 21.5354 18.2056 21.54 18.2079 21.5446C18.3071 21.7436 18.4473 21.8942 18.5961 22.0269C18.7652 22.1781 18.94 22.3154 19.1096 22.4648C19.3537 22.6806 19.5902 22.9091 19.8216 23.1497C19.8273 23.1502 19.8331 23.1508 19.8389 23.1514C19.551 22.8491 19.2504 22.5692 18.9435 22.3079C18.801 22.1862 18.6533 22.0742 18.5165 21.9404C18.4386 21.8642 18.3636 21.7811 18.2984 21.6842C18.2863 21.6658 18.2246 21.5844 18.235 21.5561C18.2407 21.5446 18.3521 21.6132 18.3688 21.6236C18.5223 21.7206 18.6631 21.8677 18.805 21.9963C18.9602 22.1354 19.1171 22.2704 19.2758 22.4008C19.581 22.6512 19.8925 22.8716 20.2047 23.0972C20.241 23.1231 20.2774 23.1502 20.3126 23.1779C20.3206 23.1785 20.3287 23.1785 20.3374 23.1785C20.2543 23.1145 20.1701 23.0539 20.0858 22.9945Z" fill="#121212"/>
<path d="M18.0392 22.7344C18.0322 22.7304 18.0253 22.7269 18.0178 22.7229C17.7628 22.4696 17.5078 22.2169 17.2528 21.9648C16.6712 21.3901 16.0891 20.8166 15.507 20.2437C15.4758 20.2079 15.4452 20.1716 15.4141 20.1353C16.2916 20.9972 17.168 21.8615 18.0392 22.7344Z" fill="#121212"/>
<path d="M17.3809 22.3119C17.3497 22.2865 17.3185 22.2605 17.2885 22.234C17.288 22.2328 17.2868 22.2322 17.2851 22.2311C17.206 22.1509 17.1264 22.0707 17.0462 21.9905C17.0462 21.9899 17.0456 21.9894 17.0451 21.9888C16.9914 21.9311 16.936 21.8705 16.8789 21.8076C17.0468 21.9749 17.2141 22.1434 17.3809 22.3119Z" fill="#121212"/>
</g>
<path d="M0.00592249 1.33631L0.00592249 1.33689L0.00649934 1.33804C0.0111149 1.34381 0.039847 1.38004 0.0915991 1.44328V1.44385C0.130716 1.49272 0.183622 1.55832 0.248067 1.63938C0.276857 1.67446 0.307896 1.713 0.340667 1.75385C0.38838 1.8131 0.440767 1.87806 0.497654 1.9488C0.736914 2.24615 1.05672 2.64356 1.44263 3.12207C1.49381 3.18537 1.5462 3.25033 1.59968 3.31645C1.63014 3.35441 1.66124 3.39295 1.69228 3.43149C1.74403 3.49536 1.79636 3.56032 1.84927 3.62586C1.8694 3.65119 1.88954 3.67589 1.90967 3.70121C3.10078 5.17762 4.74456 7.20957 6.5275 9.40029C6.57354 9.45608 6.61894 9.51187 6.66441 9.56824C6.67133 9.57626 6.67819 9.58492 6.68512 9.59357C6.71616 9.63153 6.74726 9.6695 6.7783 9.70746C6.83062 9.7719 6.88295 9.83629 6.93592 9.90074C9.57868 13.1451 12.4722 16.6667 14.6285 19.2106C14.6819 19.2744 14.7354 19.3371 14.7889 19.3992C14.82 19.4366 14.8516 19.474 14.8827 19.5108C14.9068 19.5384 14.9304 19.566 14.9534 19.5936L15.1006 19.3152L15.8368 18.789L15.781 18.7229L15.6861 18.6102L15.5377 18.4336L15.536 18.4353C13.7341 16.3228 10.6088 12.6505 7.67147 9.20027C7.62144 9.14159 7.57137 9.08291 7.52192 9.02487C7.48973 8.98749 7.45811 8.9501 7.42644 8.91272C7.38617 8.86558 7.34532 8.81781 7.30511 8.77067C7.29587 8.75919 7.28612 8.74823 7.27637 8.73675C5.44053 6.58052 3.7053 4.54338 2.44687 3.06986C2.43077 3.05088 2.41467 3.0319 2.39852 3.01292C2.36402 2.97322 2.33067 2.93353 2.29727 2.89447C2.26507 2.85651 2.23288 2.81912 2.20178 2.78231C2.15061 2.72248 2.10053 2.66438 2.05166 2.60692C1.65939 2.14796 1.32811 1.76031 1.07218 1.4618C1.01812 1.39966 0.968096 1.34104 0.921479 1.28692C0.887555 1.24723 0.855938 1.21042 0.825417 1.17534C0.76905 1.10922 0.718452 1.05055 0.674719 1.00053C0.548772 0.854444 0.480346 0.776787 0.477461 0.77621C0.432575 0.769863 0.0185 1.11442 0.00586483 1.1334C-0.00677031 1.15111 0.0047686 1.31964 0.00592249 1.33631Z" fill="#D1D1D1"/>
<path d="M1.84766 3.62582C3.03876 5.10222 4.74295 7.20952 6.52589 9.40025C6.57193 9.45604 6.61733 9.51183 6.6628 9.56819L6.71109 9.18054L7.30349 8.77045C7.29426 8.75897 7.28451 8.74801 7.27476 8.73653C5.43892 6.5803 3.70369 4.54316 2.44526 3.06964C2.42916 3.05066 2.41306 3.03168 2.39691 3.0127L1.93564 3.3854L1.84766 3.62582Z" fill="#37474F"/>
<path d="M14.8828 19.5111C14.907 19.5387 14.9305 19.5663 14.9535 19.5939C14.984 19.6295 15.014 19.6646 15.0438 19.6997L15.1853 19.4323L15.9313 18.8985C15.9003 18.8629 15.8692 18.8261 15.837 18.7893L15.7812 18.7231L15.007 19.277L14.8828 19.5111Z" fill="#D1D1D1"/>
<path d="M14.6289 19.2106C14.6824 19.2744 14.7359 19.3371 14.7894 19.3992L14.9147 19.1629L15.686 18.6107L15.6866 18.6101L15.5382 18.4336L15.5364 18.4353L14.737 19.007L14.6289 19.2106Z" fill="#D1D1D1"/>
<path d="M6.77734 9.70779C6.82967 9.77223 6.882 9.83662 6.93497 9.90107L7.06876 9.649L7.67057 9.20054C7.62055 9.14186 7.57047 9.08319 7.52103 9.02515L6.91443 9.46311L6.77734 9.70779Z" fill="#D1D1D1"/>
<path d="M6.52734 9.40072C6.57338 9.45651 6.61879 9.5123 6.66425 9.56867C6.67118 9.57669 6.67804 9.58535 6.68497 9.594L6.82424 9.35353L7.42634 8.91303C7.38607 8.86589 7.34522 8.81812 7.30501 8.77098C7.29578 8.7595 7.28603 8.74854 7.27628 8.73706L6.67187 9.16989L6.52734 9.40072Z" fill="#D1D1D1"/>
<path d="M1.69531 3.43167C1.74706 3.49554 1.79939 3.5605 1.8523 3.62604L1.9314 3.45169L2.4499 3.06992C2.4338 3.05094 2.41771 3.03196 2.40155 3.01298C2.36705 2.97328 2.3337 2.93359 2.3003 2.89453L1.77926 3.26834L1.69531 3.43167Z" fill="#D1D1D1"/>
<path d="M1.46484 3.14736C1.51602 3.21065 1.54804 3.25046 1.60152 3.31664L1.68345 3.15411L2.20374 2.78233C2.15256 2.7225 2.10248 2.6644 2.05362 2.60693L1.53644 2.97681L1.46484 3.14736Z" fill="#D1D1D1"/>
<path d="M0.382812 1.80357C0.430526 1.86282 0.472701 1.91515 0.529646 1.98588L0.577128 1.81741L1.07423 1.46149C1.02017 1.39936 0.970144 1.34074 0.923527 1.28662L0.427411 1.64023L0.382812 1.80357Z" fill="#D1D1D1"/>
<path d="M0.144531 1.50836C0.183648 1.55723 0.219592 1.6016 0.284037 1.68271L0.329385 1.52186L0.826713 1.17506C0.770345 1.10894 0.719747 1.05027 0.676014 1.00024L0.186879 1.35005L0.144531 1.50836Z" fill="#D1D1D1"/>
<path d="M6.72663 8.08899L5.30469 7.57886L6.41987 7.72858C6.52158 7.84818 6.62382 7.9683 6.72663 8.08899Z" fill="#D1D1D1"/>
<path d="M6.28349 7.57051L4.89062 7.07104L5.9829 7.21799C6.08231 7.33477 6.18287 7.45206 6.28349 7.57051Z" fill="#D1D1D1"/>
<path d="M5.84035 7.05241L4.47656 6.56299L5.54593 6.70659C5.64315 6.82054 5.74146 6.93622 5.84035 7.05241Z" fill="#D1D1D1"/>
<path d="M5.40117 6.53456L4.06641 6.05518L5.1123 6.19595C5.20841 6.30776 5.30453 6.42061 5.40117 6.53456Z" fill="#D1D1D1"/>
<path opacity="0.2" d="M0.00589768 1.33715C0.00589768 1.33715 0.00647468 1.3383 0.00820552 1.34003C0.00993636 1.34234 0.012244 1.34523 0.0157057 1.34927C0.0220521 1.35728 0.0318025 1.3694 0.0444953 1.3855C0.0444953 1.38607 0.0450724 1.38607 0.0450724 1.38607C0.848528 2.38569 13.7519 18.4403 17.1332 22.0815C17.4806 22.4554 18.0701 22.7688 18.2979 22.8487C18.3054 22.851 18.3122 22.8533 18.3186 22.8556C18.9133 23.0443 19.7627 23.2145 20.8625 23.176C21.9621 23.1381 23.7601 23.1381 23.9515 22.8787C23.7025 23.092 20.419 23.0771 19.8203 23.0023C18.1276 22.7918 17.5053 22.1545 16.7726 21.3131C16.0392 20.471 0.00589768 1.13354 0.00589768 1.13354C-0.0073721 1.15253 0.00589768 1.33715 0.00589768 1.33715Z" fill="#121212"/>
<path d="M22.8977 21.3623L23.175 23.1076L22.7925 23.141C22.7925 23.141 20.201 23.4184 18.7617 23.0119L19.0582 21.5536C19.0582 21.5536 20.8608 21.611 22.8977 21.3623Z" fill="#D1D1D1"/>
<path d="M22.4427 21.4133L22.6671 22.9977L22.375 21.4202L22.4427 21.4133Z" fill="#D1D1D1"/>
<path d="M21.9704 21.4573L22.2038 23.1892L21.8984 21.4633L21.9704 21.4573Z" fill="#D1D1D1"/>
<path d="M21.7464 23.2145L21.5742 21.7974L21.6594 23.2182L21.7464 23.2145Z" fill="#D1D1D1"/>
<path d="M21.2141 21.5107L21.2677 22.9068L21.1445 21.5146L21.2141 21.5107Z" fill="#D1D1D1"/>
<path d="M20.8428 21.5298L20.867 23.1123L20.7617 21.5333L20.8428 21.5298Z" fill="#D1D1D1"/>
<path d="M20.4125 23.2248L20.3933 21.5464L20.3359 23.2248H20.4125Z" fill="#D1D1D1"/>
<path d="M20.0465 21.5547L19.9414 23.0789L19.9653 21.5547H20.0465Z" fill="#D1D1D1"/>
<path d="M19.5589 23.1628L19.6346 21.9983L19.4766 23.1525L19.5589 23.1628Z" fill="#D1D1D1"/>
<path d="M19.3917 21.5589L19.2148 22.639L19.3033 21.5581L19.3917 21.5589Z" fill="#D1D1D1"/>
<path d="M0.612634 21.378C0.271139 21.4254 -0.14282 22.6188 0.048438 22.8782C0.239696 23.1376 2.03752 23.1376 3.1373 23.1758C4.23707 23.2141 5.08662 23.0443 5.68105 22.8556C5.89141 22.7888 6.50822 22.4672 6.86685 22.081C10.3573 18.3228 23.9941 1.33723 23.9941 1.33723C23.9941 1.33723 24.0068 1.15238 23.9941 1.13323C23.9813 1.11407 23.5669 0.769807 23.5223 0.776211C23.4777 0.782615 7.62882 19.4346 6.96061 20.1928C6.68696 20.5033 5.92014 21.5105 4.80127 21.5979C3.63987 21.6888 0.956898 21.3302 0.612634 21.378Z" fill="#D1D1D1"/>
<path opacity="0.2" d="M0.612634 21.378C0.271139 21.4254 -0.14282 22.6188 0.048438 22.8782C0.239696 23.1376 2.03752 23.1376 3.1373 23.1758C4.23707 23.2141 5.08662 23.0443 5.68105 22.8556C5.89141 22.7888 6.50822 22.4672 6.86685 22.081C10.3573 18.3228 23.9941 1.33723 23.9941 1.33723C23.9941 1.33723 24.0068 1.15238 23.9941 1.13323C23.9813 1.11407 23.5669 0.769807 23.5223 0.776211C23.4777 0.782615 7.62882 19.4346 6.96061 20.1928C6.68696 20.5033 5.92014 21.5105 4.80127 21.5979C3.63987 21.6888 0.956898 21.3302 0.612634 21.378Z" fill="#121212"/>
<path opacity="0.2" d="M0.612634 21.378C0.271139 21.4254 -0.14282 22.6188 0.048438 22.8782C0.239696 23.1376 2.03752 23.1376 3.1373 23.1758C4.23707 23.2141 5.08662 23.0443 5.68105 22.8556C5.89141 22.7888 6.50822 22.4672 6.86685 22.081C10.3573 18.3228 23.9941 1.33723 23.9941 1.33723C23.9941 1.33723 24.0068 1.15238 23.9941 1.13323C23.9813 1.11407 23.5669 0.769807 23.5223 0.776211C23.4777 0.782615 7.62882 19.4346 6.96061 20.1928C6.68696 20.5033 5.92014 21.5105 4.80127 21.5979C3.63987 21.6888 0.956898 21.3302 0.612634 21.378Z" fill="#D1D1D1"/>
<g opacity="0.2">
<path d="M0.332031 23.0044C0.335493 23.0055 0.339532 23.0061 0.34357 23.0073C0.883592 22.4955 1.42246 21.9815 1.96133 21.4668C1.95614 21.4662 1.95152 21.4657 1.94691 21.4651C1.40919 21.9797 0.870899 22.4926 0.332031 23.0044Z" fill="#121212"/>
<path d="M0 22.711L0 22.7116C0.000576947 22.7191 0.00115382 22.7255 0.00173077 22.7318C0.366938 22.2633 0.747723 21.8197 1.14062 21.3968C1.13312 21.3962 1.1262 21.3956 1.11928 21.395C0.732722 21.8127 0.358284 22.2501 0 22.711Z" fill="#121212"/>
<path d="M1.0233 21.859C1.15946 21.7113 1.29678 21.5653 1.43409 21.4205C1.43236 21.4205 1.43005 21.4205 1.42832 21.4199C1.2137 21.6484 1.0008 21.8803 0.789062 22.1134C0.86695 22.028 0.945415 21.9432 1.0233 21.859Z" fill="#121212"/>
<path d="M0.0993924 22.9016C0.322094 22.6305 0.554603 22.3697 0.788844 22.1135C0.554603 22.3697 0.32094 22.6264 0.0849688 22.8797C0.0688143 22.8964 0.0843918 22.9201 0.0993924 22.9016Z" fill="#121212"/>
<path d="M0.503175 22.6254C0.391247 22.7351 0.280473 22.8476 0.167969 22.956C0.170853 22.9572 0.173161 22.9583 0.176046 22.9589C0.434518 22.7074 0.69299 22.4541 0.950886 22.1996C1.20532 21.9487 1.4586 21.6971 1.71246 21.445C1.70784 21.4444 1.7038 21.4444 1.69919 21.4438H1.69861C1.58322 21.5587 1.46783 21.6735 1.35244 21.7877C1.06974 22.0681 0.786456 22.3468 0.503175 22.6254Z" fill="#121212"/>
<path d="M0.113281 22.9303C0.115589 22.9314 0.117897 22.9331 0.120205 22.9343C0.135782 22.9072 0.153091 22.8818 0.170976 22.857C0.233863 22.7704 0.306558 22.7001 0.385023 22.6441C0.389639 22.6406 0.387908 22.632 0.383292 22.6349C0.277711 22.7087 0.186553 22.8091 0.113281 22.9303Z" fill="#121212"/>
<path d="M4.96094 23.0395C4.96786 23.0384 4.97421 23.0367 4.98171 23.0355H4.98228C5.18479 22.8405 5.38788 22.6466 5.59039 22.4522C7.23757 20.876 8.91706 19.3471 10.4217 17.5107C11.1677 16.5997 11.8999 15.6708 12.7393 14.9156C12.988 14.6923 13.2395 14.4765 13.4922 14.2642C13.4997 14.2544 13.5067 14.2463 13.5142 14.2371C13.4426 14.2965 13.3717 14.3559 13.3001 14.4153C12.8865 14.7604 12.4774 15.1209 12.0903 15.5254C11.6939 15.9391 11.3189 16.3879 10.9485 16.8414C10.2106 17.7437 9.47151 18.6265 8.67763 19.4394C7.86125 20.2748 7.02121 21.0646 6.18753 21.8643C5.77905 22.256 5.36999 22.6478 4.96094 23.0395Z" fill="#121212"/>
<path d="M22.297 2.19961C22.2838 2.21461 22.2711 2.22961 22.2578 2.24461C22.4038 2.10615 22.5497 1.96653 22.6957 1.8269C22.563 1.95037 22.4303 2.07384 22.2982 2.19788C22.2976 2.19846 22.297 2.19961 22.297 2.19961Z" fill="#121212"/>
<path d="M0.925781 23.0868C0.92982 23.0874 0.933282 23.0874 0.93732 23.0874C1.45715 22.5618 1.97755 22.0367 2.49854 21.5129C2.4945 21.5123 2.48988 21.5123 2.48527 21.5117C1.96486 22.0356 1.44503 22.5606 0.925781 23.0868Z" fill="#121212"/>
<path d="M22.6953 1.82634C23.0299 1.51537 23.3646 1.20439 23.6975 0.889381C23.6957 0.88765 23.6934 0.886496 23.6911 0.884766C23.3576 1.19516 23.0265 1.51018 22.6953 1.82634Z" fill="#121212"/>
<path d="M17.4844 7.84369C18.1917 7.18193 18.8615 6.45902 19.5239 5.70611C20.9536 4.07854 22.423 2.52944 23.9554 1.09746C23.9543 1.09688 23.9531 1.09572 23.9514 1.09399C22.6336 2.32058 21.3534 3.63025 20.1199 5.01781C19.2948 5.94554 18.4865 6.90096 17.6038 7.726C17.5744 7.75369 17.545 7.7808 17.515 7.80792C17.5046 7.81946 17.4948 7.83158 17.4844 7.84369Z" fill="#121212"/>
<path d="M1.83594 23.1373C1.83882 23.1378 1.84113 23.1378 1.84344 23.1378H1.84401C2.47116 22.5695 3.14907 22.0809 3.80506 21.6003C3.79813 21.5997 3.79121 21.5991 3.78429 21.5991C3.12368 22.0843 2.45731 22.5695 1.83594 23.1373Z" fill="#121212"/>
<path d="M6.91016 20.2538C7.26209 19.9382 7.61057 19.6128 7.95212 19.273C8.77485 18.4566 9.56642 17.5814 10.354 16.7033C11.1432 15.8246 11.9302 14.9401 12.7442 14.1053C13.5647 13.2635 14.4139 12.48 15.2592 11.6908C15.8021 11.1842 16.3398 10.6684 16.8711 10.1417C16.8717 10.1405 16.8723 10.14 16.8729 10.1394C16.8804 10.1296 16.889 10.1198 16.8971 10.1094C16.5786 10.4267 16.2567 10.7394 15.9324 11.0469C15.082 11.8535 14.2195 12.6335 13.3772 13.4591C12.5412 14.279 11.7357 15.1548 10.9367 16.0427C10.1393 16.9289 9.34776 17.8249 8.52907 18.6747C8.01501 19.2096 7.48999 19.7167 6.95458 20.2025C6.94073 20.2181 6.92631 20.2348 6.91016 20.2538Z" fill="#121212"/>
<path d="M3.4375 23.1812H3.4525C4.10791 22.6066 4.77775 22.0613 5.43951 21.5127C5.50066 21.4619 5.56182 21.4111 5.6224 21.3604C5.61374 21.365 5.60451 21.3702 5.59528 21.3742H5.5947C4.87583 21.9719 4.1483 22.5587 3.4375 23.1812Z" fill="#121212"/>
<path d="M4.80078 22.8597C5.0881 22.581 5.37369 22.3001 5.6587 22.0133C7.27184 20.3909 8.84287 18.6895 10.4237 17.0083C12.012 15.3196 13.6131 13.647 15.2735 12.0968C15.2862 12.0818 15.2983 12.0668 15.3104 12.0518C12.203 14.9636 9.30385 18.2759 6.287 21.3666C5.79659 21.8685 5.30099 22.3687 4.80078 22.8597Z" fill="#121212"/>
<path d="M4.54297 23.1084H4.54528C4.54585 23.1084 4.54585 23.1084 4.54585 23.1084C4.63066 23.0259 4.71548 22.9434 4.79971 22.8604C4.71432 22.9434 4.62893 23.0259 4.54297 23.1084Z" fill="#121212"/>
<path d="M12.5625 13.6255C13.2866 12.9141 14.0124 12.2062 14.7318 11.4838C16.3513 9.85569 17.9512 8.18889 19.5395 6.50305C20.2503 5.74898 20.9582 4.99029 21.665 4.22988C21.6656 4.2293 21.6661 4.22873 21.6661 4.22815C21.6835 4.20738 21.6996 4.18719 21.7158 4.16699C21.1832 4.74048 20.649 5.31281 20.1142 5.88283C18.5281 7.57386 16.9323 9.24701 15.3168 10.8838C14.501 11.7094 13.6806 12.5264 12.855 13.3318C12.7708 13.4143 12.6865 13.4968 12.6023 13.5787L12.6017 13.5799C12.5885 13.5955 12.5758 13.6105 12.5625 13.6255Z" fill="#121212"/>
<path d="M2.67578 23.1625C2.6804 23.1625 2.68501 23.1631 2.68905 23.1631C3.30061 22.6259 3.92545 22.1171 4.54913 21.6111C4.54393 21.6111 4.53932 21.6111 4.53413 21.6117C3.90987 22.1171 3.28619 22.6254 2.67578 23.1625Z" fill="#121212"/>
<path d="M14.3125 11.5656C14.5317 11.3585 14.7481 11.1456 14.961 10.924C15.4093 10.4567 15.8379 9.9507 16.2228 9.39222C16.2251 9.38876 16.2228 9.38414 16.2199 9.38587C16.1841 9.40664 16.1489 9.42857 16.1137 9.45049C16.1085 9.45626 16.1039 9.46261 16.0987 9.46838C16.1056 9.46376 16.1126 9.45972 16.1195 9.45511C16.127 9.45049 16.1933 9.40491 16.1957 9.40895C16.2043 9.42107 16.1593 9.47242 16.1507 9.48453C16.1091 9.54396 16.0664 9.60338 16.0237 9.66165C15.9285 9.79089 15.831 9.91782 15.7312 10.0419C15.5454 10.2726 15.3533 10.4936 15.1566 10.7071C14.8941 10.9904 14.6252 11.2598 14.3517 11.52C14.339 11.5356 14.3258 11.5506 14.3125 11.5656Z" fill="#121212"/>
<path d="M2.96109 21.8153C2.96167 21.8182 2.9634 21.8205 2.96628 21.8205C2.98071 21.8188 2.99571 21.8159 3.01071 21.8119C3.01417 21.8136 3.01821 21.8142 3.02398 21.8095C3.02513 21.8084 3.02686 21.8067 3.0286 21.8055C3.0384 21.8015 3.04821 21.798 3.05802 21.7951C3.06667 21.7928 3.07244 21.7807 3.07071 21.7715C3.07014 21.7709 3.07014 21.7703 3.07014 21.7703C3.14745 21.7028 3.22591 21.6376 3.30495 21.5736C3.30322 21.573 3.30264 21.573 3.30091 21.573C3.20572 21.6457 3.11052 21.7167 3.01417 21.7824C3.01129 21.7842 3.01071 21.7865 3.00956 21.7888C2.99744 21.7934 2.9859 21.7969 2.97379 21.7997C2.96571 21.7697 2.96975 21.7328 2.98417 21.7005C2.98532 21.7011 2.98648 21.7011 2.98821 21.6993C3.03263 21.6532 3.07648 21.607 3.12091 21.5609C3.11687 21.5609 3.11341 21.5603 3.10937 21.5603C3.07244 21.5984 3.03552 21.6365 2.99859 21.6751C3.0009 21.6717 3.00263 21.6676 3.00552 21.6647C3.00725 21.6624 3.00552 21.659 3.00321 21.6613C2.96628 21.7005 2.9484 21.7663 2.96109 21.8153Z" fill="#121212"/>
<path d="M2.1875 23.1491C2.19269 23.1491 2.19731 23.1497 2.2025 23.1497C2.23193 23.1231 2.26193 23.0966 2.29135 23.0695C2.43847 22.9356 2.60002 22.7539 2.76791 22.6933C2.78868 22.6864 2.82618 22.6714 2.84407 22.6766C2.85041 22.6766 2.85676 22.6766 2.86253 22.6772C2.85503 22.6979 2.84407 22.7158 2.82964 22.7297C2.79733 22.7718 2.75695 22.807 2.72002 22.8399C2.62483 22.9258 2.52271 22.9951 2.42405 23.0689C2.38712 23.096 2.35078 23.1243 2.31443 23.1531C2.32077 23.1531 2.32712 23.1531 2.33347 23.1537C2.52386 23.0112 2.72579 22.8808 2.88561 22.6772C2.88907 22.6725 2.88849 22.6668 2.88445 22.6662C2.69291 22.6495 2.49963 22.8652 2.33462 23.0147C2.28558 23.0597 2.23654 23.1041 2.1875 23.1491Z" fill="#121212"/>
<path d="M2.63124 22.0937C2.54874 22.2096 2.44489 22.2996 2.34796 22.3925C2.09756 22.6325 1.85005 22.8777 1.60543 23.1281C1.61062 23.1287 1.61639 23.1287 1.62158 23.1287C1.76928 22.9781 1.91813 22.8287 2.06756 22.6816C2.18641 22.5645 2.30527 22.4485 2.42527 22.3337C2.52508 22.2368 2.62259 22.1404 2.69644 22.0077C2.69932 22.0019 2.69644 21.9962 2.69182 21.9991C2.59778 22.0498 2.51239 22.1254 2.42642 22.2027C2.32027 22.2979 2.21411 22.3931 2.10737 22.4877C1.90371 22.6706 1.69889 22.8535 1.49466 23.0358C1.46408 23.0635 1.4335 23.0906 1.40234 23.1183C1.40638 23.1189 1.41042 23.1189 1.41446 23.1189C1.56966 22.981 1.72486 22.8437 1.87948 22.7052C2.07506 22.5298 2.26949 22.3539 2.46508 22.1808C2.517 22.1346 2.56835 22.0891 2.62316 22.0527C2.69009 22.0071 2.67278 22.036 2.63124 22.0937Z" fill="#121212"/>
<path d="M3.66016 23.1785C3.66881 23.1785 3.67689 23.1785 3.68496 23.1779C3.72016 23.1502 3.75651 23.1231 3.79285 23.0972C4.10498 22.8716 4.41653 22.6512 4.72174 22.4008C4.8804 22.2704 5.03733 22.1354 5.19253 21.9963C5.33446 21.8677 5.47523 21.7206 5.6287 21.6236C5.64543 21.6132 5.75678 21.5446 5.76255 21.5561C5.77294 21.5844 5.7112 21.6658 5.69909 21.6842C5.63389 21.7811 5.55889 21.8642 5.481 21.9404C5.34426 22.0742 5.19657 22.1862 5.05406 22.3079C4.74712 22.5692 4.44653 22.8491 4.15864 23.1514C4.16441 23.1508 4.17018 23.1502 4.17595 23.1497C4.4073 22.9091 4.64385 22.6806 4.8879 22.4648C5.05752 22.3154 5.23234 22.1781 5.40138 22.0269C5.55023 21.8942 5.69043 21.7436 5.78967 21.5446C5.79197 21.54 5.78909 21.5354 5.78563 21.5359C5.6437 21.5832 5.51446 21.6877 5.38869 21.8013C5.23349 21.9415 5.07944 22.0829 4.92252 22.2173C4.5925 22.4983 4.25499 22.7539 3.91171 22.9945C3.82747 23.0539 3.74324 23.1145 3.66016 23.1785Z" fill="#121212"/>
<path d="M5.95703 22.7342C5.96395 22.7301 5.97088 22.7267 5.97838 22.7226C6.23339 22.4693 6.4884 22.2166 6.74341 21.9645C7.32497 21.3899 7.90711 20.8164 8.48925 20.2435C8.52041 20.2077 8.55098 20.1714 8.58214 20.135C7.7046 20.997 6.82822 21.8612 5.95703 22.7342Z" fill="#121212"/>
<path d="M6.61328 22.3119C6.64444 22.2865 6.67559 22.2605 6.70559 22.234C6.70617 22.2328 6.70732 22.2322 6.70905 22.2311C6.7881 22.1509 6.86771 22.0707 6.94791 21.9905C6.94791 21.9899 6.94849 21.9894 6.94906 21.9888C7.00272 21.9311 7.05811 21.8705 7.11522 21.8076C6.94733 21.9749 6.78002 22.1434 6.61328 22.3119Z" fill="#121212"/>
</g>
<path d="M23.995 1.33631V1.33689L23.9944 1.33804C23.9898 1.34381 23.961 1.38004 23.9093 1.44328V1.44385C23.8702 1.49272 23.8173 1.55832 23.7528 1.63938C23.724 1.67446 23.693 1.713 23.6602 1.75385C23.6125 1.8131 23.5602 1.87806 23.5032 1.9488C23.264 2.24615 22.9442 2.64356 22.5582 3.12207C22.5071 3.18537 22.4547 3.25033 22.4012 3.31645C22.3707 3.35441 22.3396 3.39295 22.3086 3.43149C22.2569 3.49536 22.2045 3.56032 22.1516 3.62586C22.1315 3.65119 22.1113 3.67589 22.0912 3.70121C20.9001 5.17762 19.2563 7.20957 17.4734 9.40029C17.4274 9.45608 17.3819 9.51187 17.3365 9.56824C17.3296 9.57626 17.3227 9.58492 17.3158 9.59357C17.2847 9.63153 17.2536 9.6695 17.2226 9.70746C17.1703 9.7719 17.1179 9.83629 17.065 9.90074C14.4222 13.1451 11.5286 16.6667 9.37242 19.2106C9.31894 19.2744 9.26545 19.3371 9.21197 19.3992C9.18093 19.4366 9.14926 19.474 9.11822 19.5108C9.09404 19.5384 9.0705 19.566 9.04748 19.5936L8.90025 19.3152L8.16406 18.789L8.21985 18.7229L8.31476 18.6102L8.46315 18.4336L8.46488 18.4353C10.2668 16.3228 13.3921 12.6505 16.3294 9.20027C16.3794 9.14159 16.4295 9.08291 16.479 9.02487C16.5112 8.98749 16.5428 8.9501 16.5744 8.91272C16.6147 8.86558 16.6556 8.81781 16.6958 8.77067C16.705 8.75919 16.7148 8.74823 16.7245 8.73675C18.5604 6.58052 20.2956 4.54338 21.554 3.06986C21.5701 3.05088 21.5862 3.0319 21.6024 3.01292C21.6369 2.97322 21.6702 2.93353 21.7036 2.89447C21.7358 2.85651 21.7679 2.81912 21.799 2.78231C21.8502 2.72248 21.9003 2.66438 21.9492 2.60692C22.3414 2.14796 22.6727 1.76031 22.9286 1.4618C22.9827 1.39966 23.0327 1.34104 23.0793 1.28692C23.1133 1.24723 23.1449 1.21042 23.1754 1.17534C23.2318 1.10922 23.2824 1.05055 23.3261 1.00053C23.4521 0.854444 23.5205 0.776787 23.5234 0.77621C23.5682 0.769863 23.9823 1.11442 23.995 1.1334C24.0076 1.15111 23.9961 1.31964 23.995 1.33631Z" fill="#455A64"/>
<path d="M22.1512 3.62606C20.96 5.10247 19.2559 7.20976 17.4729 9.40049C17.4269 9.45628 17.3815 9.51207 17.336 9.56844L17.2877 9.18079L16.6953 8.77069C16.7045 8.75921 16.7143 8.74825 16.724 8.73677C18.5599 6.58055 20.2951 4.54341 21.5535 3.06988C21.5696 3.0509 21.5857 3.03192 21.6019 3.01294L22.0632 3.38565L22.1512 3.62606Z" fill="#D1D1D1"/>
<path d="M9.1188 19.5106C9.09462 19.5382 9.07108 19.5658 9.04806 19.5934C9.0176 19.629 8.98766 19.6641 8.95777 19.6992L8.8163 19.4318L8.07031 18.898C8.10135 18.8624 8.13245 18.8256 8.16464 18.7888L8.22043 18.7227L8.99458 19.2765L9.1188 19.5106Z" fill="#D1D1D1"/>
<path d="M9.37406 19.2106C9.32058 19.2744 9.2671 19.3371 9.21362 19.3992L9.08825 19.1629L8.31698 18.6107L8.31641 18.6101L8.4648 18.4336L8.46653 18.4353L9.266 19.007L9.37406 19.2106Z" fill="#D1D1D1"/>
<path d="M17.2214 9.7073C17.169 9.77175 17.1167 9.83613 17.0637 9.90058L16.9299 9.64851L16.3281 9.20005C16.3781 9.14138 16.4282 9.0827 16.4777 9.02466L17.0843 9.46262L17.2214 9.7073Z" fill="#D1D1D1"/>
<path d="M17.4732 9.40023C17.4272 9.45602 17.3818 9.51181 17.3363 9.56818C17.3294 9.5762 17.3225 9.58486 17.3156 9.59351L17.1763 9.35304L16.5742 8.91254C16.6145 8.8654 16.6553 8.81763 16.6956 8.7705C16.7048 8.75902 16.7145 8.74805 16.7243 8.73657L17.3287 9.1694L17.4732 9.40023Z" fill="#D1D1D1"/>
<path d="M22.3093 3.43167C22.2575 3.49554 22.2052 3.5605 22.1523 3.62604L22.0732 3.45169L21.5547 3.06992C21.5708 3.05094 21.5869 3.03196 21.603 3.01298C21.6375 2.97328 21.6709 2.93359 21.7042 2.89453L22.2253 3.26834L22.3093 3.43167Z" fill="#D1D1D1"/>
<path d="M22.5397 3.14736C22.4885 3.21065 22.4565 3.25046 22.4029 3.31664L22.3211 3.15411L21.8008 2.78233C21.852 2.7225 21.902 2.6644 21.9509 2.60693L22.4681 2.97681L22.5397 3.14736Z" fill="#D1D1D1"/>
<path d="M23.6212 1.80357C23.5734 1.86282 23.5313 1.91515 23.4743 1.98588L23.4268 1.81741L22.9297 1.46149C22.9837 1.39936 23.0338 1.34074 23.0804 1.28662L23.5765 1.64023L23.6212 1.80357Z" fill="#D1D1D1"/>
<path d="M23.858 1.50836C23.8188 1.55723 23.7829 1.6016 23.7185 1.68271L23.6731 1.52186L23.1758 1.17506C23.2321 1.10894 23.2827 1.05027 23.3265 1.00024L23.8156 1.35005L23.858 1.50836Z" fill="#D1D1D1"/>
<path opacity="0.2" d="M17.2773 8.08899L18.6993 7.57886L17.5841 7.72858C17.4824 7.84818 17.3802 7.9683 17.2773 8.08899Z" fill="#121212"/>
<path opacity="0.2" d="M17.7188 7.57051L19.1116 7.07104L18.0193 7.21799C17.9199 7.33477 17.8193 7.45206 17.7188 7.57051Z" fill="#121212"/>
<path opacity="0.2" d="M18.1602 7.05241L19.5239 6.56299L18.4546 6.70659C18.3574 6.82054 18.259 6.93622 18.1602 7.05241Z" fill="#121212"/>
<path opacity="0.2" d="M18.6016 6.53456L19.9363 6.05518L18.8904 6.19595C18.7943 6.30776 18.6982 6.42061 18.6016 6.53456Z" fill="#121212"/>
<path opacity="0.2" d="M23.9925 1.33709C23.9925 1.33709 23.9919 1.33825 23.9902 1.33998C23.9884 1.34228 23.9861 1.34517 23.9827 1.34921C23.9763 1.35723 23.9666 1.36934 23.9539 1.38544C23.9539 1.38602 23.9534 1.38602 23.9534 1.38602C23.1499 2.38563 10.2465 18.4402 6.86523 22.0814C6.51785 22.4553 5.92833 22.7688 5.70055 22.8487C5.69305 22.851 5.68618 22.8533 5.67984 22.8556C5.08512 23.0443 4.23562 23.2144 3.13596 23.176C2.0363 23.138 0.238364 23.138 0.046875 22.8786C0.295943 23.092 3.5794 23.077 4.17816 23.0022C5.87081 22.7918 6.4931 22.1545 7.22582 21.3131C7.95912 20.4711 23.9924 1.13354 23.9924 1.13354C24.0057 1.15247 23.9925 1.33709 23.9925 1.33709Z" fill="#121212"/>
<path d="M1.10156 21.3623L0.824219 23.1076L1.20673 23.141C1.20673 23.141 3.79826 23.4184 5.23751 23.0119L4.94108 21.5536C4.94108 21.5536 3.13847 21.611 1.10156 21.3623Z" fill="#D1D1D1"/>
<path d="M1.55641 21.4133L1.33203 22.9977L1.62414 21.4202L1.55641 21.4133Z" fill="#D1D1D1"/>
<path d="M2.03019 21.4575L1.79687 23.1894L2.10225 21.4635L2.03019 21.4575Z" fill="#D1D1D1"/>
<path d="M2.25391 23.2145L2.42612 21.7974L2.34097 23.2182L2.25391 23.2145Z" fill="#D1D1D1"/>
<path d="M2.78412 21.5107L2.73047 22.9068L2.85365 21.5146L2.78412 21.5107Z" fill="#D1D1D1"/>
<path d="M3.15693 21.5298L3.13281 23.1123L3.23805 21.5333L3.15693 21.5298Z" fill="#D1D1D1"/>
<path d="M3.58984 23.2248L3.60894 21.5464L3.6664 23.2248H3.58984Z" fill="#D1D1D1"/>
<path d="M3.95312 21.5547L4.05824 23.0789L4.03436 21.5547H3.95312Z" fill="#D1D1D1"/>
<path d="M4.43892 23.1628L4.36328 21.9983L4.52131 23.1525L4.43892 23.1628Z" fill="#D1D1D1"/>
<path d="M4.60547 21.5589L4.78236 22.639L4.69391 21.5581L4.60547 21.5589Z" fill="#D1D1D1"/>
<path d="M13.3438 22.28C13.3438 22.5207 12.743 22.7158 12.002 22.7158C11.2609 22.7158 10.6602 22.5207 10.6602 22.28C10.6602 22.0394 11.2609 21.8442 12.002 21.8442C12.743 21.8442 13.3438 22.0394 13.3438 22.28Z" fill="#263238"/>
<path d="M13.3438 21.5537H10.6602V22.28H13.3438V21.5537Z" fill="#263238"/>
<path d="M11.5279 21.9611L11.5247 22.6876C11.3996 22.6723 11.2836 22.6511 11.1797 22.625V21.8992L11.2671 21.9147L11.5279 21.9611Z" fill="#37474F"/>
<path d="M11.027 21.8526V22.5797C10.9909 22.5673 10.9571 22.5543 10.9258 22.5407V21.8142L11.027 21.8526Z" fill="#37474F"/>
<path d="M13.3438 21.5537C13.3438 21.7943 12.743 21.9894 12.002 21.9894C11.2609 21.9894 10.6602 21.7943 10.6602 21.5536C10.6602 21.313 11.2609 21.1179 12.002 21.1179C12.743 21.1179 13.3438 21.313 13.3438 21.5537Z" fill="#37474F"/>
<path d="M12.8779 21.224L11.5278 21.961C11.4015 21.9464 11.2841 21.9251 11.1797 21.899L12.3048 21.1294C12.5209 21.1457 12.7165 21.1783 12.8779 21.224Z" fill="#455A64"/>
<path d="M11.9913 21.1182L11.0269 21.8527C10.991 21.8405 10.9568 21.8275 10.9258 21.8144L11.715 21.128C11.8038 21.1214 11.8968 21.1182 11.9913 21.1182Z" fill="#455A64"/>
</svg>
