<svg width="24" height="24" viewBox="0 0 24 24" fill="none" xmlns="http://www.w3.org/2000/svg">
    <g clip-path="url(#clip0_1237_891)">
        <path d="M8.99985 19.9998V11.9998H5.41385C5.2161 11.9998 5.0228 11.9411 4.85839 11.8313C4.69398 11.7214 4.56584 11.5652 4.49017 11.3825C4.4145 11.1998 4.3947 10.9988 4.43327 10.8048C4.47183 10.6109 4.56704 10.4327 4.70685 10.2928L11.2928 3.70685C11.4804 3.51938 11.7347 3.41406 11.9998 3.41406C12.265 3.41406 12.5193 3.51938 12.7068 3.70685L19.2928 10.2928C19.4327 10.4327 19.5279 10.6109 19.5664 10.8048C19.605 10.9988 19.5852 11.1998 19.5095 11.3825C19.4339 11.5652 19.3057 11.7214 19.1413 11.8313C18.9769 11.9411 18.7836 11.9998 18.5858 11.9998H14.9998V19.9998C14.9998 20.2651 14.8945 20.5194 14.707 20.707C14.5194 20.8945 14.2651 20.9998 13.9998 20.9998H9.99985C9.73463 20.9998 9.48028 20.8945 9.29274 20.707C9.10521 20.5194 8.99985 20.2651 8.99985 19.9998Z" stroke="#121212" stroke-width="2" stroke-linecap="round" stroke-linejoin="round"/>
    </g>
    <defs>
        <clipPath id="clip0_1237_891">
            <rect width="24" height="24" fill="white"/>
        </clipPath>
    </defs>
</svg>
