<svg width="24" height="24" viewBox="0 0 24 24" fill="none" xmlns="http://www.w3.org/2000/svg">
    <g clip-path="url(#clip0_1242_964)">
        <path d="M12.857 14.6751C12.5476 14.4819 12.2603 14.2556 12 14.0001C11.0654 13.084 9.80876 12.5708 8.5 12.5708C7.19124 12.5708 5.93464 13.084 5 14.0001V5.00009C5.93464 4.08395 7.19124 3.5708 8.5 3.5708C9.80876 3.5708 11.0654 4.08395 12 5.00009C12.9346 5.91622 14.1912 6.42937 15.5 6.42937C16.8088 6.42937 18.0654 5.91622 19 5.00009V11.0001" stroke="#121212" stroke-width="2" stroke-linecap="round" stroke-linejoin="round"/>
        <path d="M5 21V14" stroke="#121212" stroke-width="2" stroke-linecap="round" stroke-linejoin="round"/>
        <path d="M21.121 20.1212C21.5406 19.7016 21.8265 19.1671 21.9423 18.5851C22.0581 18.0031 21.9988 17.3999 21.7717 16.8517C21.5447 16.3034 21.1602 15.8349 20.6668 15.5052C20.1734 15.1755 19.5934 14.9995 19 14.9995C18.4066 14.9995 17.8266 15.1755 17.3332 15.5052C16.8398 15.8349 16.4553 16.3034 16.2283 16.8517C16.0012 17.3999 15.9419 18.0031 16.0577 18.5851C16.1735 19.1671 16.4594 19.7016 16.879 20.1212C17.297 20.5402 18.004 21.1662 19 22.0002C20.051 21.1102 20.759 20.4842 21.121 20.1212Z" stroke="#121212" stroke-width="2" stroke-linecap="round" stroke-linejoin="round"/>
        <path d="M19 18V18.01" stroke="#121212" stroke-width="2" stroke-linecap="round" stroke-linejoin="round"/>
    </g>
    <defs>
        <clipPath id="clip0_1242_964">
            <rect width="24" height="24" fill="white"/>
        </clipPath>
    </defs>
</svg>
