<svg width="63" height="63" viewBox="0 0 63 63" fill="none" xmlns="http://www.w3.org/2000/svg">
<g clip-path="url(#clip0_151_475)">
<path d="M23.8254 34.602L28.2248 33.4505L29.2054 33.1944L34.3346 33.1811L39.5744 33.9675C39.5744 33.9675 48.0154 73.4726 47.4763 73.7712C42.5275 76.5138 22.4056 76.1594 19.5681 74.457C18.0776 73.5627 23.8254 34.602 23.8254 34.602Z" fill="#3633E0"/>
<path d="M26.2218 34.3189C25.7913 34.2813 25.4103 33.9208 25.3495 33.493C25.2883 33.0652 25.5531 32.6124 25.9558 32.4558C25.397 32.3069 24.9677 31.7993 24.8541 31.2321C24.7405 30.6653 24.9213 30.0597 25.2796 29.6057C25.6378 29.1517 26.1591 28.8424 26.7141 28.6802C27.2692 28.518 27.8577 28.4956 28.4336 28.5461C29.4157 28.632 30.3784 28.9287 31.2386 29.41C32.6993 28.2209 34.7463 27.6537 36.5881 28.0473C37.0148 28.1385 37.4498 28.2847 37.7545 28.597C37.9908 28.839 38.1287 29.1627 38.2032 29.4925C38.3331 30.07 38.2784 30.6877 38.0489 31.2333C37.8194 31.7788 37.416 32.2499 36.9122 32.5607C37.3126 32.4858 37.729 32.797 37.8316 33.1913C37.9342 33.5857 37.7761 34.015 37.5018 34.3163C37.2275 34.6175 36.8518 34.8071 36.4688 34.9458C34.162 34.8527 31.8533 34.7555 29.5464 34.6624C28.434 34.6179 27.33 34.4158 26.2218 34.3189Z" fill="#3633E0"/>
<path d="M26.9395 33.2579C26.9193 33.9239 26.9057 34.6149 27.1097 35.2574C27.3023 35.8641 27.6947 36.3458 28.2266 36.69C29.4063 37.4533 31.0182 37.3845 32.0584 38.3822C32.5862 38.8886 32.8399 39.7214 32.373 40.3528C32.2287 40.5481 32.5558 40.7361 32.6986 40.5431C33.0588 40.0565 33.0713 39.4015 32.8426 38.8552C32.5918 38.2564 32.0626 37.8279 31.4939 37.5445C30.2641 36.9313 28.458 36.9313 27.6818 35.627C27.2624 34.9219 27.2924 34.0489 27.3163 33.2575C27.3236 33.0155 26.9467 33.0155 26.9395 33.2579Z" fill="white"/>
<path d="M36.2995 33.3054C36.3876 33.9672 36.2493 34.6328 35.8964 35.2011C35.5093 35.8242 34.8968 36.2087 34.2206 36.4575C32.927 36.9335 31.3427 37.0646 30.4902 38.2933C30.0734 38.8939 29.9823 39.7191 30.3743 40.3535C30.5016 40.5595 30.8279 40.3703 30.6999 40.1632C30.3185 39.5458 30.5221 38.7731 30.9932 38.2663C31.4765 37.7462 32.1504 37.4761 32.816 37.2743C34.1142 36.8807 35.5161 36.592 36.2592 35.3303C36.6163 34.7236 36.7694 34.0036 36.6767 33.3057C36.6452 33.0683 36.2676 33.0653 36.2995 33.3054Z" fill="white"/>
<path d="M33.4846 64.0185C33.4846 64.0884 33.4846 64.1579 33.4808 64.2278C33.4109 67.5483 31.6793 70.4618 29.0833 72.1627C28.9746 72.2364 28.8664 72.306 28.7539 72.3721C27.2893 73.2554 25.5771 73.7629 23.7405 73.7629C23.1205 73.7629 22.5161 73.7048 21.931 73.5924C21.7878 73.5692 21.6442 73.538 21.5047 73.5034C18.9981 72.9184 16.8633 71.3607 15.5226 69.2492C15.4489 69.1367 15.3794 69.0243 15.3133 68.9084C14.4763 67.4708 13.9961 65.801 13.9961 64.0189C13.9961 63.1432 14.1123 62.2948 14.3293 61.4886C14.3642 61.3606 14.3992 61.2329 14.4379 61.1049C15.1469 58.8459 16.654 56.9399 18.6299 55.7234C18.7462 55.6497 18.8624 55.5802 18.9825 55.5183C20.3889 54.7239 22.0123 54.2744 23.7402 54.2744C24.0965 54.2744 24.4453 54.2938 24.7902 54.3325C24.9297 54.3443 25.0653 54.3637 25.2009 54.3831C27.243 54.6893 29.0715 55.6307 30.4897 56.9946C30.5828 57.0797 30.6717 57.169 30.7572 57.2621C32.4038 58.9705 33.4345 61.2801 33.4808 63.8331C33.4846 63.8946 33.4846 63.9566 33.4846 64.0185Z" fill="#FF8877"/>
<path d="M21.2804 68.0521C21.2378 69.9117 21.4198 71.8064 21.9312 73.5924C21.7879 73.5692 21.6443 73.538 21.5049 73.5035C21.4004 73.1198 21.3111 72.7284 21.2336 72.3371C20.7143 69.6485 20.8074 66.855 21.2686 64.1503V64.1465C21.2918 64.0185 21.3149 63.8947 21.3385 63.767C21.4084 63.3681 21.4897 62.9688 21.5786 62.5737C22.2256 59.6871 23.3144 56.8978 24.7904 54.3329C24.9298 54.3447 25.0655 54.3641 25.2011 54.3835C24.4378 55.693 23.7753 57.0645 23.2251 58.4786C22.555 60.2144 22.0394 62.016 21.71 63.8563C21.6869 63.9801 21.6637 64.1082 21.6443 64.2362C21.4316 65.4987 21.3111 66.7733 21.2804 68.0521Z" fill="#E57067"/>
<path d="M33.4844 64.0185C33.4844 64.0884 33.4844 64.1579 33.4806 64.2278C32.7987 64.379 32.1129 64.5029 31.4234 64.5998C29.1025 64.9291 26.7508 64.9599 24.4299 64.7004C24.3019 64.6849 24.1742 64.6693 24.0462 64.6499C23.2404 64.5492 22.4384 64.4098 21.644 64.2354C21.6402 64.2354 21.6322 64.2316 21.6284 64.2316L21.2683 64.1503V64.1465C20.8807 64.0572 20.4932 63.9566 20.1099 63.8441C19.986 63.813 19.8618 63.7784 19.738 63.7396C17.8627 63.1815 16.0456 62.4263 14.3291 61.4886C14.3641 61.3606 14.399 61.233 14.4378 61.1049C15.5072 61.6976 16.6151 62.2169 17.7544 62.6584C18.4364 62.9217 19.1259 63.1542 19.8234 63.3635C19.9473 63.4023 20.0715 63.4372 20.1954 63.468V63.4718C20.5749 63.5804 20.9548 63.6769 21.3382 63.7662C21.462 63.7974 21.5862 63.8244 21.7101 63.8551C22.4927 64.0257 23.2833 64.1651 24.0774 64.2658C24.205 64.2852 24.333 64.3008 24.4611 64.3122C25.3406 64.4166 26.2239 64.4748 27.1072 64.4865C29.2499 64.5215 31.3922 64.3004 33.4806 63.8316C33.4844 63.8946 33.4844 63.9566 33.4844 64.0185Z" fill="#E57067"/>
<path d="M24.4297 64.7005C24.3986 65.208 24.4297 65.7194 24.5266 66.2194C24.6892 67.0795 25.0224 67.8971 25.503 68.6292C25.9407 69.2917 26.5143 69.8457 27.107 70.3688C27.7696 70.9539 28.4785 71.5158 29.083 72.1628C28.9743 72.2365 28.866 72.306 28.7536 72.3721C27.9671 71.5389 27.0063 70.8532 26.1964 70.0512C24.9875 68.8579 24.2128 67.3196 24.0578 65.6229C24.027 65.2973 24.0229 64.9721 24.046 64.6503C24.0498 64.5223 24.0616 64.3946 24.0772 64.2666C24.2242 62.984 24.7398 61.7443 25.5456 60.733C26.8475 59.102 28.7805 58.1644 30.4894 56.9943C30.5825 57.0794 30.6714 57.1686 30.7569 57.2617C30.3811 57.5212 29.9974 57.7693 29.6179 58.0094C28.1845 58.9159 26.6579 59.8227 25.6504 61.225C24.9958 62.1353 24.5889 63.2085 24.4609 64.3129C24.4453 64.441 24.4335 64.5728 24.4297 64.7005Z" fill="#E57067"/>
<path d="M20.3075 62.217C20.3151 62.647 20.2805 63.0615 20.195 63.4684V63.4722C20.1718 63.5961 20.1445 63.7203 20.1099 63.8442C19.9431 64.4406 19.6722 65.0025 19.2809 65.5181C18.2308 66.8972 16.5531 67.8504 15.5228 69.2492C15.4491 69.1368 15.3796 69.0243 15.3135 68.9084C15.6972 68.4202 16.1542 67.9784 16.6154 67.5639C17.4718 66.8007 18.417 66.0879 19.0834 65.1385C19.3934 64.6967 19.6027 64.232 19.738 63.7397C19.7729 63.6158 19.7999 63.4916 19.8231 63.3639C19.9276 62.8138 19.9431 62.2402 19.8888 61.6593C19.7801 60.431 19.4625 59.2183 19.1567 58.0288C18.9629 57.2693 18.7574 56.4985 18.6298 55.7235C18.746 55.6498 18.8623 55.5802 18.9823 55.5183C19.1335 56.549 19.4394 57.5642 19.6912 58.5713C19.9899 59.7566 20.2805 60.9849 20.3075 62.217Z" fill="#E57067"/>
<path d="M23.8253 34.602C16.2931 36.7451 8.07215 46.4136 5.4458 49.557C3.2081 52.2346 3.89574 56.2123 5.92259 58.2099C7.35601 59.6224 19.016 69.5922 21.3612 69.7172C22.0758 69.7552 24.5172 67.1831 24.5768 65.5734C24.6364 63.9637 13.3081 53.5594 13.3081 53.5594L22.852 46.4641L23.8253 34.602Z" fill="#3633E0"/>
<path d="M49.1538 22.9796C48.897 23.5563 49.4855 24.8674 49.4855 24.8674C47.7744 25.1956 48.685 27.2456 50.3741 28.0552L54.1421 27.6206C54.1 26.5781 55.3609 24.0927 53.7911 22.7816C52.2209 21.4709 49.5015 22.1981 49.1538 22.9796Z" fill="#FFAD94"/>
<path d="M53.7743 23.6683C53.6463 23.7755 53.5262 23.8917 53.41 24.0118C53.4119 23.8154 53.4138 23.6193 53.4157 23.4233C53.4168 23.3279 53.2683 23.331 53.2675 23.4263C53.2645 23.75 53.2614 24.0737 53.258 24.397C53.255 24.6728 53.2458 25.0041 53.0092 25.191C52.7801 25.3719 52.4738 25.2351 52.3257 25.0185C52.1703 24.7917 52.1331 24.4958 52.1114 24.2287C52.0841 23.8879 52.1057 23.546 52.1733 23.2109C52.1919 23.1178 52.0483 23.0817 52.0293 23.176C51.9606 23.5175 51.9359 23.8674 51.9621 24.2146C51.9822 24.4825 52.0244 24.7727 52.1566 25.0132C52.1445 25.0223 52.1331 25.0326 52.1285 25.0516C52.0795 25.2663 51.9796 25.4817 51.7801 25.5945C51.6107 25.6902 51.3915 25.6728 51.2668 25.514C51.2649 25.5113 51.2619 25.5105 51.2596 25.5086C51.279 25.4045 51.2722 25.2985 51.2129 25.2028C51.1495 25.1002 51.048 25.0258 50.9352 24.9699C50.9432 24.9551 50.9473 24.9376 50.9401 24.9167C50.7904 24.4627 50.7213 23.9875 50.735 23.5095C50.7376 23.4142 50.5895 23.4172 50.5868 23.5126C50.5735 23.9852 50.6415 24.4586 50.7844 24.9095C50.7069 24.8833 50.629 24.8616 50.5564 24.848C50.2707 24.794 49.9789 24.8115 49.691 24.8301C49.596 24.8362 49.5986 24.9847 49.694 24.9783C49.9254 24.9631 50.1594 24.9467 50.3908 24.9726C50.6047 24.9965 50.8501 25.0539 51.0161 25.1998C51.1973 25.3593 51.1122 25.5937 50.9846 25.7594C50.8577 25.9246 50.6757 26.0333 50.4728 26.0751C50.4208 26.0857 50.3988 26.1651 50.4413 26.1993C50.7046 26.4125 50.904 26.7692 50.7019 27.0933C50.6514 27.1742 50.7809 27.2464 50.8315 27.1654C51.0423 26.8273 50.8968 26.4398 50.6385 26.1799C50.8246 26.115 50.9899 25.9983 51.1088 25.8388C51.1472 25.7875 51.1802 25.7282 51.2083 25.6671C51.3728 25.8236 51.6312 25.8361 51.8306 25.7354C52.0552 25.6222 52.1828 25.3958 52.2497 25.1606C52.4104 25.3521 52.6718 25.4798 52.921 25.4034C53.2227 25.3107 53.3594 24.9919 53.3913 24.7028C53.4103 24.5292 53.4084 24.3529 53.4088 24.1778C53.4312 24.1805 53.4536 24.1767 53.4696 24.1596C53.5988 24.0224 53.7355 23.8932 53.8799 23.7724C53.9107 23.7466 53.9057 23.6938 53.8791 23.6676C53.848 23.6372 53.8051 23.6425 53.7743 23.6683Z" fill="#FF7661"/>
<path d="M46.7988 24.3131L46.9375 23.8162L49.2231 23.592C49.7439 23.5411 50.2074 23.9218 50.2583 24.4423C50.3093 24.9628 49.9286 25.4263 49.4081 25.4775C48.8929 25.5281 48.4344 25.1554 48.3751 24.6433L46.7988 24.3131Z" fill="#E57067"/>
<path d="M47.124 24.5802L47.2627 24.0836L49.5483 23.8595C50.0688 23.8086 50.5326 24.1893 50.5835 24.7097C50.6344 25.2302 50.2538 25.6937 49.7333 25.745C49.2181 25.7955 48.7596 25.4228 48.7003 24.9107L47.124 24.5802Z" fill="#FF8877"/>
<path d="M47.1237 24.5802L46.7988 24.3131L46.9375 23.8165L47.2623 24.0836L47.1237 24.5802Z" fill="#E57067"/>
<path d="M39.5742 33.9676C44.3053 34.8668 51.4394 44.4931 51.4394 44.4931C51.4394 44.4931 49.0007 29.5902 49.4478 28.4823C49.7658 27.6948 54.1432 27.131 54.9482 27.6674C55.7533 28.2039 58.4362 43.3188 58.7941 47.4325C59.152 51.5466 56.2453 55.2132 52.176 54.5875C48.1067 53.9614 41.9802 47.7011 41.9802 47.7011L39.5742 33.9676Z" fill="#3633E0"/>
<path d="M21.6722 47.3399C22.592 46.5728 23.5118 45.8058 24.4316 45.0383C24.6933 44.8199 24.9551 44.6014 25.2169 44.3833C25.2685 44.3404 25.1944 44.2671 25.1431 44.3096C24.2234 45.0767 23.3036 45.8437 22.3838 46.6112C22.1221 46.8296 21.8603 47.0481 21.5982 47.2661C21.5473 47.3091 21.6213 47.3824 21.6722 47.3399Z" fill="#362549"/>
<path d="M25.4965 44.9767C25.0022 45.0588 24.5076 45.1409 24.0133 45.2229C23.9472 45.2339 23.9753 45.3342 24.041 45.3232C24.5353 45.2412 25.03 45.1591 25.5242 45.077C25.5903 45.066 25.5622 44.9657 25.4965 44.9767Z" fill="#362549"/>
<path d="M41.0693 41.9309C41.244 42.951 41.4382 43.9677 41.6517 44.9801C41.8652 45.9926 42.0981 47.0013 42.3503 48.0046C42.492 48.5688 42.6398 49.1311 42.7937 49.6922C42.8116 49.7568 42.9119 49.7295 42.894 49.6645C42.6205 48.6665 42.3659 47.6631 42.1307 46.6556C41.8956 45.6476 41.6794 44.6356 41.483 43.6197C41.3724 43.0486 41.2683 42.4765 41.1703 41.9032C41.1582 41.8371 41.0579 41.8652 41.0693 41.9309Z" fill="#362549"/>
<path d="M25.2093 22.6248C24.6452 21.0177 24.8792 19.1516 25.8233 17.7341C25.5771 17.5935 25.4331 17.2926 25.4779 17.0126C25.5228 16.7326 25.7534 16.4918 26.0315 16.4352C26.3969 14.7521 27.3156 13.1941 28.6111 12.0593C29.9066 10.9245 31.5722 10.2194 33.289 10.0784C34.1305 10.0093 35.1551 10.1875 35.4796 10.967C36.1167 10.3854 37.0019 10.1552 37.8609 10.0765C39.0572 9.96673 40.2996 10.1214 41.3652 10.6757C42.4313 11.2299 43.3013 12.2139 43.5691 13.3852C43.837 14.5565 43.4305 15.8938 42.4624 16.605C43.3951 18.66 42.8249 21.1974 41.3903 22.9393C39.9557 24.6816 37.7864 25.6979 35.5715 26.131C33.7844 26.4805 31.9521 26.4828 30.1399 26.3901C28.7406 26.3187 27.4641 25.6557 26.4764 24.6459C25.916 24.0734 25.4749 23.3815 25.2093 22.6248Z" fill="#331E0F"/>
<path d="M27.8125 24.2884C27.8125 24.2884 29.456 28.4724 29.1084 33.8588C30.0487 36.3818 33.3703 36.2599 34.3425 34.132C34.4515 32.0823 34.8816 31.1496 35.584 30.4931C35.6426 30.4381 35.6999 30.3902 35.7603 30.3378C35.8017 30.3005 35.8428 30.2682 35.8887 30.234C35.9704 30.1691 36.0639 30.1106 36.1535 30.0445C36.2797 29.9601 36.4107 29.8762 36.5471 29.7907L36.5498 29.7911C37.0862 29.4548 37.7112 29.1038 38.4178 28.5643C39.4466 27.7851 40.2543 26.6682 40.6776 24.8579C40.6852 24.8366 40.6901 24.8146 40.6954 24.7906C40.7034 24.7644 40.7091 24.7378 40.7144 24.7112C40.7251 24.663 40.7327 24.6193 40.7403 24.5729C40.7479 24.5517 40.7501 24.5319 40.7547 24.5125C41.1042 22.736 41.1213 20.3293 40.6715 16.972C40.2038 13.4916 31.9638 11.5794 29.3683 15.7938C28.2992 17.5342 27.8125 24.2884 27.8125 24.2884Z" fill="#F0B799"/>
<path d="M40.9985 16.3038C39.6779 17.2281 37.9812 17.5035 36.3787 17.328C34.7762 17.1529 33.2486 16.5606 31.7901 15.8737C31.7384 17.1016 30.9668 18.2159 29.832 18.6885C29.7059 19.5232 29.5224 20.3373 29.2416 21.1332C28.9605 21.9292 28.5133 22.6867 27.8484 23.2064C27.127 20.8133 27.3044 18.1513 28.3644 15.8877C28.8362 14.8802 29.4973 13.9262 30.4345 13.3271C31.4527 12.6759 32.7019 12.4989 33.91 12.4651C35.1637 12.4298 36.4209 12.5316 37.6525 12.7679C38.5362 12.9373 39.4435 13.1957 40.1064 13.8035C40.7922 14.4319 41.1386 15.3847 40.9985 16.3038Z" fill="#331E0F"/>
<path d="M36.8424 23.6239C36.9674 23.5726 37.0981 23.5464 37.2334 23.5491C37.3542 23.5517 37.4853 23.5783 37.5791 23.6589C37.6798 23.7455 37.7238 23.8701 37.7235 24.0008C37.7235 24.1254 37.6729 24.2447 37.6175 24.3541C37.5878 24.4126 37.5255 24.459 37.4564 24.4312C37.3994 24.4084 37.3473 24.3332 37.3793 24.2702C37.4195 24.19 37.464 24.1034 37.4704 24.0126C37.4739 23.9658 37.4655 23.9176 37.4408 23.8781C37.4419 23.8807 37.4435 23.883 37.4446 23.8857C37.4222 23.8435 37.3743 23.8249 37.331 23.8135C37.3276 23.8127 37.3242 23.8116 37.3192 23.8108C37.3097 23.8097 37.3002 23.8078 37.2907 23.8067C37.2657 23.8036 37.2406 23.8017 37.2151 23.8013C37.2022 23.801 37.1893 23.8013 37.1764 23.8013C37.1695 23.8013 37.1692 23.8013 37.1669 23.8013C37.165 23.8017 37.1646 23.8017 37.1589 23.8025C37.0795 23.8101 37.01 23.8367 36.934 23.8568C36.8766 23.872 36.8094 23.85 36.7843 23.7934C36.7592 23.7341 36.7771 23.6509 36.8424 23.6239Z" fill="#C16B5B"/>
<path d="M39.8842 20.6913C39.2527 20.2795 38.4538 20.1796 37.7509 20.4729C37.5788 20.5447 37.4694 20.7559 37.5488 20.9349C37.6518 21.167 37.8687 21.1848 38.0803 21.1092C38.2688 21.042 38.469 21.0074 38.6692 21.0082C38.6692 20.9972 38.651 21.0146 38.662 21.015C38.918 21.0222 39.1657 21.0944 39.3891 21.2183C39.4024 21.2255 39.4154 21.2331 39.4366 21.2456C39.5924 21.3452 39.812 21.3573 39.9347 21.1932C40.0399 21.0522 40.0509 20.8 39.8842 20.6913Z" fill="#421F09"/>
<path d="M35.5961 20.368C34.9183 20.0375 34.1133 20.0371 33.4522 20.4155C33.2904 20.5082 33.2079 20.7312 33.3086 20.8991C33.4063 21.0617 33.619 21.1419 33.7923 21.0427C33.8587 21.0047 33.9271 20.9724 33.9966 20.9405C34.0035 20.9379 34.002 20.9383 34.0065 20.9364C34.0191 20.9318 34.0312 20.9272 34.0441 20.9231C34.0711 20.9139 34.0985 20.9056 34.1258 20.8976C34.1991 20.8767 34.2736 20.8604 34.3488 20.8482C34.3678 20.8452 34.489 20.8193 34.3956 20.8406C34.4267 20.8334 34.4636 20.8357 34.4955 20.8349C34.5669 20.8326 34.6387 20.8342 34.7097 20.8395C34.7477 20.8425 34.7854 20.8475 34.8233 20.8516C34.8275 20.852 34.8287 20.852 34.8317 20.8524C34.837 20.8535 34.8446 20.8551 34.8556 20.8577C34.9255 20.8722 34.9947 20.8904 35.0627 20.9128C35.0988 20.9246 35.1345 20.9379 35.1702 20.9519C35.1843 20.9576 35.1983 20.9637 35.212 20.9694C35.2147 20.9706 35.2135 20.9702 35.2166 20.9717C35.2177 20.9721 35.2188 20.9721 35.2196 20.9728C35.2207 20.9732 35.2215 20.974 35.2226 20.9744C35.2211 20.9736 35.2219 20.974 35.2204 20.9732C35.3871 21.0526 35.6063 21.0378 35.7082 20.8596C35.7952 20.7069 35.775 20.4554 35.5961 20.368Z" fill="#421F09"/>
<path d="M35.4237 25.242C35.8476 25.6238 36.4088 25.8293 36.9779 25.824C37.1352 25.8225 37.1283 26.0668 36.9714 26.0683C36.3355 26.0747 35.7177 25.8346 35.2462 25.4103C35.1292 25.3046 35.3074 25.1371 35.4237 25.242Z" fill="#C16B5B"/>
<path d="M34.0108 22.6646C33.9739 22.9811 34.2007 23.2676 34.5172 23.304C34.8337 23.3409 35.1201 23.1141 35.1566 22.7976C35.1934 22.4811 34.9666 22.1947 34.6502 22.1582C34.3337 22.1214 34.0472 22.3482 34.0108 22.6646Z" fill="black"/>
<path d="M34.6388 22.5519C34.6282 22.6442 34.6943 22.7274 34.7866 22.7384C34.8789 22.749 34.9621 22.6829 34.9731 22.5906C34.9838 22.4983 34.9177 22.4151 34.8257 22.4041C34.733 22.3934 34.6495 22.4595 34.6388 22.5519Z" fill="white"/>
<path d="M38.2139 22.8944C38.177 23.2109 38.4038 23.4974 38.7203 23.5338C39.0368 23.5707 39.3229 23.3439 39.3597 23.0274C39.3966 22.7109 39.1697 22.4245 38.8533 22.388C38.5372 22.3512 38.2507 22.578 38.2139 22.8944Z" fill="black"/>
<path d="M38.8419 22.7816C38.8313 22.8739 38.8974 22.9571 38.9897 22.9681C39.0821 22.9788 39.1653 22.9127 39.1759 22.8204C39.1865 22.728 39.1204 22.6448 39.0281 22.6342C38.9362 22.6232 38.853 22.6893 38.8419 22.7816Z" fill="white"/>
<path d="M25.9816 24.3477C26.6506 25.2352 27.7641 25.5243 28.4685 24.9932C29.1728 24.462 29.2017 23.312 28.5327 22.4245C27.8637 21.5371 26.7501 21.2479 26.0458 21.7791C25.3414 22.3098 25.3125 23.4598 25.9816 24.3477Z" fill="#F0B799"/>
<path d="M26.4895 22.2194C26.8011 22.0746 27.2053 22.1031 27.5696 22.2965C27.7512 22.3926 27.8808 22.5047 27.9663 22.6396C28.0795 22.8177 28.1019 23.0358 28.0251 23.2079C27.9568 23.3625 27.8257 23.4583 27.7102 23.543C27.6266 23.6042 27.5472 23.6619 27.5005 23.7333C27.4287 23.8431 27.437 24.0027 27.5202 24.1045C27.6031 24.206 27.7577 24.2455 27.88 24.1965C27.9518 24.1676 28.0327 24.2029 28.0616 24.274C28.0901 24.3454 28.0555 24.4267 27.9841 24.4556C27.9059 24.4871 27.8219 24.4996 27.7387 24.4951C27.573 24.4863 27.4108 24.4107 27.3045 24.2808C27.1449 24.0855 27.1293 23.7911 27.2672 23.5802C27.3417 23.4666 27.45 23.3872 27.5457 23.3173C27.6414 23.247 27.7322 23.1809 27.7706 23.0943C27.8094 23.0077 27.7938 22.888 27.7307 22.7889C27.7056 22.749 27.6699 22.7125 27.6304 22.6764C27.4921 22.6681 27.3166 22.7019 27.2239 22.7927C27.1198 22.8956 27.0651 23.0495 27.0814 23.1946C27.0902 23.271 27.0347 23.3401 26.9583 23.3489C26.9507 23.3496 26.9431 23.35 26.9355 23.3496C26.8687 23.3462 26.8121 23.2945 26.8045 23.2258C26.7783 22.9944 26.8622 22.7581 27.0283 22.594C27.0902 22.5332 27.1658 22.4937 27.2444 22.4625C27.0169 22.3884 26.7889 22.3888 26.6077 22.4728C26.3835 22.5765 26.2035 22.8656 26.303 23.1137C26.3315 23.1851 26.2965 23.2664 26.2255 23.2953C26.1537 23.3238 26.0731 23.2892 26.0439 23.2178C25.8988 22.8561 26.1032 22.3991 26.4895 22.2194Z" fill="#C16B5B"/>
</g>
<rect x="0.5" y="0.5" width="62" height="62" rx="31" stroke="#F6F6F6"/>
<defs>
<clipPath id="clip0_151_475">
<rect width="63" height="63" rx="31.5" fill="white"/>
</clipPath>
</defs>
</svg>
