<svg width="63" height="63" viewBox="0 0 63 63" fill="none" xmlns="http://www.w3.org/2000/svg">
<g clip-path="url(#clip0_577_1174)">
<path opacity="0.49" d="M14.7545 12.1546C25.7857 13.0853 32.8887 28.0127 55.012 27.1808C77.1353 26.3489 79.1259 47.4138 61.3165 59.5098C43.5071 71.6063 7.42933 61.7387 1.09582 41.8999C-5.23721 22.0615 7.77231 11.5654 14.7545 12.1546Z" fill="#F7D8BA"/>
<path d="M35.6703 50.9036C35.6703 50.9036 26.7913 53.4937 20.2632 59.9215C13.7351 66.3494 15.3724 72.9424 18.9532 75.5551C22.5339 78.1673 44.7649 74.6509 44.7649 74.6509L44.0308 67.6796C44.0308 67.6796 36.6516 66.3848 29.747 67.7548L37.3081 61.7249L35.6703 50.9036Z" fill="#203C5B"/>
<path d="M48.9772 46.8997C48.9772 46.8997 51.868 50.9807 50.8528 57.2061C49.8376 63.4315 46.1281 65.5175 46.1281 65.5175L30.5078 62.208L36.3096 47.742L48.9772 46.8997Z" fill="#28466D"/>
<path d="M53.2183 16.043C53.1731 18.2056 51.6168 19.9264 49.7427 19.8876C47.868 19.8483 46.3855 18.0636 46.4307 15.9009C46.4759 13.7383 48.0321 12.0175 49.9063 12.0568C51.7804 12.0956 53.2635 13.8808 53.2183 16.043Z" fill="#3F1E14"/>
<path d="M36.3945 11.0863C36.3945 11.0863 44.7167 10.2033 46.865 14.0858C48.5697 17.1663 46.84 22.1367 42.8371 23.5602C39.0239 24.916 40.5266 12.7025 40.5266 12.7025L36.3945 11.0863Z" fill="#562F21"/>
<path d="M40.384 11.3694C40.384 11.3694 33.0952 9.76551 32.3665 13.7762C31.8146 16.813 37.4032 17.7737 37.4032 17.7737L40.384 11.3694Z" fill="#562F21"/>
<path d="M37.2544 18.8552C37.3036 19.8699 36.5213 20.7323 35.5066 20.7815C34.4918 20.8306 33.6295 20.0483 33.5803 19.0336C33.5312 18.0189 34.3135 17.1565 35.3282 17.1074C36.3429 17.0582 37.2053 17.841 37.2544 18.8552Z" fill="#D69C79"/>
<path d="M37.8945 24.0207L38.0518 28.6613C38.1088 30.0677 39.0061 30.7846 40.3898 30.7173C41.5711 30.6598 42.6512 29.9964 42.7411 28.8171L42.1829 21.892L37.8945 24.0207Z" fill="#EDB994"/>
<path d="M37.9625 26.3297L42.7693 22.8796L37.8672 23.6103L37.9625 26.3297Z" fill="#D69C79"/>
<path d="M39.0959 24.6924C36.7329 24.6502 34.8209 22.7485 34.7904 20.8173L34.7467 16.2612C34.7088 13.8411 36.5972 11.8274 39.0149 11.7099C41.4895 11.5895 44.0275 13.4774 44.1474 15.9526L44.1425 19.6174C44.1391 22.4517 41.9268 24.5553 39.0959 24.6924Z" fill="#EDB994"/>
<path d="M41.2718 14.6317C40.436 17.8371 43.1774 19.0419 43.1774 19.0419L45.7277 16.1894C45.7277 16.1894 41.5514 13.5595 41.2718 14.6317Z" fill="#562F21"/>
<path d="M46.3599 19.1422C46.4091 20.1569 45.6268 21.0193 44.612 21.0685C43.5973 21.1176 42.7349 20.3353 42.6858 19.3206C42.6366 18.3059 43.4189 17.4435 44.4337 17.3943C45.4484 17.3452 46.3108 18.1275 46.3599 19.1422Z" fill="#EDB994"/>
<path d="M43.9068 19.809C43.9068 19.809 43.8419 18.4774 45.1259 18.6248" stroke="#3E2216" stroke-width="1.0491" stroke-miterlimit="10" stroke-linecap="round" stroke-linejoin="round"/>
<path d="M42.0821 15.0057C42.0821 15.0057 38.5224 12.2927 34.5117 14.4902C34.5117 14.4902 35.4198 10.1095 42.4039 11.8991C49.388 13.6893 44.798 16.4912 44.798 16.4912L42.0821 15.0057Z" fill="#562F21"/>
<path d="M36.182 19.2163C36.1393 19.4325 35.929 19.5735 35.7128 19.5308C35.4965 19.488 35.3555 19.2777 35.3983 19.0615C35.441 18.8453 35.6513 18.7043 35.8675 18.747C36.0843 18.7898 36.2248 18.9996 36.182 19.2163Z" fill="#221914"/>
<path d="M39.3158 19.3499C39.2677 19.5922 39.0328 19.7499 38.7905 19.7022C38.5483 19.6546 38.3905 19.4192 38.4382 19.177C38.4863 18.9347 38.7212 18.777 38.9635 18.8251C39.2057 18.8723 39.3635 19.1077 39.3158 19.3499Z" fill="#221914"/>
<path d="M36.7379 19.4119L36.5851 20.1661C36.5537 20.289 36.6313 20.4128 36.7552 20.4379L37.1763 20.5239" stroke="black" stroke-width="0.777" stroke-miterlimit="10" stroke-linecap="round" stroke-linejoin="round"/>
<path d="M39.3855 16.1677C39.3855 16.1677 38.1197 16.0129 38.1094 16.6891C38.1094 16.6891 38.1118 17.1471 39.2165 17.2542C40.3206 17.3613 40.753 17.2925 40.8523 16.8635C40.9516 16.4346 39.9791 16.1805 39.3855 16.1677Z" fill="#221914"/>
<path d="M34.9639 16.4503C34.9639 16.4503 36.1196 16.1702 36.2405 16.8277C36.2405 16.8277 36.3147 17.2773 35.301 17.491C34.5629 17.6468 34.301 17.5023 34.246 17.2011C34.1816 16.8439 34.53 16.5151 34.9639 16.4503Z" fill="#221914"/>
<path d="M37.2578 21.7209L39.2863 21.4133C39.2863 21.4133 39.0352 22.8295 38.1698 22.6983C37.304 22.5676 37.2578 21.7209 37.2578 21.7209Z" fill="white"/>
<path d="M38.5087 29.4192C38.5087 29.4192 37.8463 35.5365 34.4052 41.6636C33.4288 43.4021 32.4072 43.4626 30.6966 42.438C29.1271 41.4975 29.4667 40.526 30.1876 38.8445L32.9841 30.3793C33.6332 28.4148 34.102 27.715 36.1683 27.8192L38.5087 29.4192Z" fill="#AD2D46"/>
<path d="M16.7662 49.0816C18.3858 48.6502 19.3484 46.9873 18.917 45.3677C18.4856 43.7481 16.8227 42.7854 15.2031 43.2169C13.5835 43.6483 12.6208 45.3112 13.0523 46.9308C13.4837 48.5504 15.1466 49.5135 16.7662 49.0816Z" fill="#EDB994"/>
<path d="M13.4022 44.5643C13.4022 44.5643 12.6676 43.3918 14.1703 42.8646C15.6729 42.3378 17.9048 42.4877 18.9195 45.3682L13.4022 44.5643Z" fill="#EDB994"/>
<path d="M22.6127 43.2291C22.4206 43.2748 16.6758 44.0547 16.6758 44.0547L18.062 47.1406L25.2087 46.1951L22.6127 43.2291Z" fill="#EDB994"/>
<path d="M18.7578 43.2945L21.1917 47.2418L32.983 43.0478C32.983 43.0478 35.6572 40.1712 34.7059 38.3192L35.3476 39.185C34.5073 37.5492 32.5015 36.9015 30.8632 37.7374L18.7578 43.2945Z" fill="#AD2D46"/>
<path d="M35.2406 27.7282L46.2182 27.9582C48.1793 28.0324 50.2304 29.3896 51.0648 31.1665C51.0648 31.1665 47.5042 42.2163 48.9793 46.9002L36.3118 47.7425L35.6863 40.3638C35.6863 40.3638 33.9885 38.7992 33.0397 35.7246C33.0397 35.7246 31.7684 31.3193 35.2406 27.7282Z" fill="#D3415E"/>
<path d="M35.2422 27.7283L39.7355 27.3646L45.4759 27.8909C45.4759 27.8909 44.5589 31.7483 39.9418 31.9242C35.3243 32.1001 35.2422 27.7283 35.2422 27.7283Z" fill="#EDB994"/>
<path d="M32.9655 34.8736C32.9655 34.8736 32.5596 32.6211 33.5905 30.7552" stroke="black" stroke-width="0.4245" stroke-miterlimit="10" stroke-linecap="round" stroke-linejoin="round"/>
<path d="M44.4867 54.696C44.4867 54.696 35.6077 57.2862 29.0796 63.714C22.5515 70.1419 24.1889 76.7353 27.7696 79.3476C31.3504 81.9598 53.5813 78.4434 53.5813 78.4434L52.8472 71.4721C52.8472 71.4721 45.468 70.1773 38.5635 71.5472L46.1245 65.5174L44.4867 54.696Z" fill="#28466D"/>
<path d="M38.1595 43.2015L41.7845 51.1213C41.9938 51.6583 42.1968 52.6033 42.1835 53.1797L41.8504 59.7206L39.2313 61.7284L38.4504 52.4288L34.3203 44.9293L38.1595 43.2015Z" fill="#EDB994"/>
<path d="M37.9874 65.1676L37.8419 62.4787L37.265 62.4812C37.0552 62.4822 36.8704 62.3421 36.8139 62.1397C36.756 61.9308 36.8493 61.7092 37.04 61.6055L39.551 60.2346L41.8521 59.5859C42.5568 60.4999 41.9878 61.9903 41.5937 62.35C41.5878 62.41 41.5843 62.4699 41.576 62.5294L41.2924 64.5853C41.2905 64.7863 41.1327 64.9509 40.9323 64.9617C40.7863 64.9691 40.5863 64.9057 40.5632 64.4758L40.5863 64.9057C40.5844 65.1185 40.4148 65.2915 40.2021 65.2969C40.0119 65.3067 39.8497 65.12 39.8065 64.8541L39.7932 65.1696C39.7913 65.4015 39.5942 65.5883 39.3554 65.5701C39.149 65.5543 38.9932 65.3725 38.9824 65.1657L38.9579 64.691L38.8655 65.201C38.8468 65.4462 38.6286 65.633 38.3756 65.604C38.1589 65.5784 37.9992 65.3853 37.9874 65.1676Z" fill="#EDB994"/>
<path d="M34.043 40.2429C34.043 40.2429 36.8405 40.661 37.8031 42.458C39.0217 44.7332 41.5765 48.4682 41.5765 48.4682L34.1968 51.65L34.043 40.2429Z" fill="#A0BFFF"/>
<path d="M26.8071 42.7294L24.3914 51.0973C24.1998 51.6407 23.7374 52.4899 23.3517 52.9184L17.4511 59.5438L15.5391 57.4745L21.0107 49.915L22.7694 41.5363L26.8071 42.7294Z" fill="#EDB994"/>
<path d="M16.0016 57.0686L13.2144 58.4396C12.9368 58.5762 12.7 58.784 12.529 59.0425L11.1875 61.067C11.0469 61.2788 11.1123 61.5653 11.331 61.695C11.531 61.8139 11.7884 61.7589 11.9221 61.5687L13.0002 60.0351C13.0002 60.0351 14.4252 59.1157 14.6498 59.4877C14.8916 59.8887 13.5619 60.3162 13.2366 60.6872C12.7024 61.2975 13.5968 61.2459 13.5968 61.2459L16.5588 60.158L17.4517 59.5437L16.0016 57.0686Z" fill="#EDB994"/>
<path d="M29.5646 40.4798C28.7228 42.9196 26.886 50.6059 26.886 50.6059L20.9766 48.5789L21.5677 42.2095C21.6566 41.2538 22.3574 40.4671 23.2984 40.2759C25.7273 39.7835 30.0456 39.0863 29.5646 40.4798Z" fill="#A0BFFF"/>
<path d="M27.4249 58.8553C27.4249 58.8553 27.9487 63.1412 25.1723 65.7814C22.396 68.4216 14.5745 68.7754 14.5745 68.7754L9.50391 62.7746L22.7031 57.533L27.4249 58.8553Z" fill="black"/>
<path d="M34.5066 40.3323L28.5112 38.7913L22.6243 40.7166C22.6243 40.7166 21.8981 55.2396 22.985 59.0076C22.985 59.0076 29.1912 62.0266 35.7822 59.5378L35.1395 41.0999C35.1479 40.723 34.8786 40.3967 34.5066 40.3323Z" fill="#A0BFFF"/>
<path d="M22.4297 49.9862L22.5452 45.2723" stroke="black" stroke-width="0.6251" stroke-miterlimit="10" stroke-linecap="round" stroke-linejoin="round"/>
<path d="M35.4876 51.05L32.9648 45.9199" stroke="black" stroke-width="0.6251" stroke-miterlimit="10" stroke-linecap="round" stroke-linejoin="round"/>
<path d="M30.3516 27.9828C30.3516 27.9828 34.4434 29.2354 31.5452 31.2152L30.3516 27.9828Z" fill="#65361A"/>
<path d="M30.1708 33.137C30.3669 33.9896 31.1963 34.5296 32.0228 34.3434C32.8498 34.1571 33.3609 33.3149 33.1643 32.4623C32.9683 31.6098 32.1388 31.0697 31.3123 31.2565C30.4858 31.4422 29.9747 32.2844 30.1708 33.137Z" fill="#D69C79"/>
<path d="M30.1593 36.1325L31.402 40.2902C31.8138 41.6464 31.145 42.3211 29.8467 42.698C28.7387 43.0193 27.4036 42.9771 27.0915 41.7663L25.0508 35.6465L30.1593 36.1325Z" fill="#EDB994"/>
<path d="M31.26 39.8061C31.26 39.8061 29.0606 39.955 26.0056 37.7394C25.0877 37.0735 30.1593 36.1301 30.1593 36.1301L31.26 39.8061Z" fill="#D69C79"/>
<path d="M29.6966 38.3324C31.7673 37.7138 32.9673 35.5153 32.5019 33.7517L31.5083 30.0687C30.925 27.859 28.7482 26.4914 26.5885 26.9784C24.3778 27.4767 22.6235 29.8167 23.1483 32.0962L23.9571 34.9571C24.6829 37.5334 27.1679 38.9029 29.6966 38.3324Z" fill="#EDB994"/>
<path d="M30.1653 33.6362L30.5525 34.5723L30.0469 34.7467" stroke="black" stroke-width="0.4245" stroke-miterlimit="10" stroke-linecap="round" stroke-linejoin="round"/>
<path d="M27.1815 32.0677C27.1815 32.0677 28.007 31.7399 28.1235 32.0933C28.1235 32.0933 28.1957 32.3345 27.4709 32.6058C26.7461 32.877 26.5368 32.879 26.4012 32.6731C26.2646 32.4672 26.7849 32.1901 27.1815 32.0677Z" fill="black"/>
<path d="M30.8128 31.5046C30.8128 31.5046 30.091 31.6417 30.1347 31.993C30.1347 31.993 30.1701 32.2294 30.7976 32.0957C31.4256 31.9616 31.6005 31.821 31.603 31.621C31.6064 31.394 31.147 31.4092 30.8128 31.5046Z" fill="black"/>
<path d="M30.7636 32.9517C30.8187 33.1566 31.0236 33.2795 31.2221 33.2269C31.4206 33.1743 31.5371 32.9655 31.4821 32.7611C31.427 32.5562 31.2221 32.4328 31.0236 32.4859C30.8251 32.5385 30.7086 32.7468 30.7636 32.9517Z" fill="black"/>
<path d="M27.6152 33.7866C27.6702 33.9915 27.8751 34.1148 28.0737 34.0617C28.2722 34.0092 28.3882 33.8003 28.3336 33.5959C28.2786 33.391 28.0737 33.2677 27.8751 33.3207C27.6766 33.3733 27.5602 33.5817 27.6152 33.7866Z" fill="black"/>
<path d="M30.7096 35.1841L28.7578 35.8027C28.7578 35.8027 29.0163 36.4823 29.9553 36.242C30.8845 36.0047 30.7096 35.1841 30.7096 35.1841Z" fill="white"/>
<path d="M25.1136 34.7335C25.1136 34.7335 25.9244 34.3827 24.9416 32.825C23.9588 31.2673 24.6212 30.6093 25.349 30.6353C26.0762 30.6614 30.2132 31.0034 32.3164 28.8418C34.8804 26.2069 31.565 26.5485 31.1228 26.6674C31.1228 26.6674 32.6535 25.4792 32.1714 25.0689C31.6894 24.6586 28.8825 25.6084 28.8825 25.6084C28.8825 25.6084 29.2211 24.7971 28.0634 24.9067C26.9057 25.0158 22.606 26.119 21.5043 29.4678C20.4026 32.8171 23.9662 35.959 23.9662 35.959L25.1136 34.7335Z" fill="#65361A"/>
<path d="M22.0299 35.4578C22.2245 36.3021 23.0456 36.8367 23.8643 36.6524C24.6829 36.4676 25.1891 35.6338 24.995 34.7896C24.8004 33.9454 23.9797 33.4107 23.1606 33.595C22.3415 33.7798 21.8353 34.6136 22.0299 35.4578Z" fill="#EDB994"/>
<path d="M24.1333 35.4613C24.1333 35.4613 23.8783 34.3532 22.8906 34.7591" stroke="black" stroke-width="0.4245" stroke-miterlimit="10" stroke-linecap="round" stroke-linejoin="round"/>
<path d="M21.0742 28.801L22.7268 28.8374L21.94 27.1794" stroke="#65361A" stroke-width="1.8536" stroke-miterlimit="10" stroke-linecap="round" stroke-linejoin="round"/>
<path d="M35.7837 59.5383C35.7837 59.5383 36.3453 64.1352 33.3675 66.9666C30.3897 69.798 22.0012 70.1778 22.0012 70.1778L16.5625 63.7416L24.7525 59.3624L35.7837 59.5383Z" fill="black"/>
<path d="M12.1367 39.9073L15.4742 51.2304L20.2014 53.3428L29.5019 50.8427L27.5545 40.1805L18.201 43.089L12.1367 39.9073Z" fill="white"/>
<path d="M50.9062 32.2887C50.1087 36.3604 50.4453 42.9873 49.2768 47.4604C48.9077 48.8741 47.4527 49.6932 46.0503 49.2834L45.8626 49.2284C44.1064 48.7149 44.1894 47.6889 44.4626 45.8796L44.5201 31.2838C44.7275 29.5537 46.2675 28.2987 48.0041 28.4456C49.9225 28.6077 51.2762 30.3993 50.9062 32.2887Z" fill="#D3415E"/>
<path d="M44.4904 38.7009L44.3086 33.615" stroke="black" stroke-width="0.4245" stroke-miterlimit="10" stroke-linecap="round" stroke-linejoin="round"/>
<path d="M31.9001 45.6553L31.5158 45.3005C30.9993 44.8234 30.3782 44.4745 29.7021 44.2819L28.5119 43.9423C28.2289 43.8617 27.9414 44.0544 27.909 44.3467C27.8815 44.5934 28.0068 44.8322 28.2255 44.9502L29.3822 45.5727L24.8565 45.6985C24.6349 45.699 24.4639 45.8941 24.4924 46.1143L24.5115 46.2617C24.5341 46.4356 24.6762 46.5693 24.8511 46.5816L27.8982 46.6061L24.3941 47.0621C24.1735 47.0774 24.0157 47.2818 24.0575 47.499L24.0781 47.6066C24.113 47.7889 24.2786 47.9172 24.4644 47.9044L27.5847 47.6754L25.254 48.3692C25.0265 48.4292 24.913 48.6842 25.0206 48.8936L25.0422 48.9358C25.116 49.0793 25.2742 49.1579 25.4334 49.1299L27.9061 48.5815L26.6997 49.1564C26.4407 49.2375 26.3552 49.5614 26.5405 49.7594C26.6289 49.8537 26.7596 49.895 26.8859 49.868L33.0996 48.4061L32.7207 47.0096C32.5797 46.4897 32.2956 46.0204 31.9001 45.6553Z" fill="#E8B499"/>
<path d="M37.1941 45.1867C36.9981 45.2118 31.2031 45.3779 31.2031 45.3779L32.2542 48.5935L39.4609 48.4117L37.1941 45.1867Z" fill="#EDB994"/>
<path d="M33.0352 44.7548L33.8302 49.3233L46.1552 49.5881C46.1552 49.5881 49.5871 49.6874 49.51 45.8368C49.337 44.0059 47.9896 43.7023 46.1582 43.8703L33.0352 44.7548Z" fill="#D3415E"/>
<path d="M44.4492 43.9858L46.1578 43.8703" stroke="black" stroke-width="0.4245" stroke-miterlimit="10" stroke-linecap="round" stroke-linejoin="round"/>
</g>
<rect x="0.5" y="0.5" width="62" height="62" rx="31" stroke="#F6F6F6"/>
<defs>
<clipPath id="clip0_577_1174">
<rect width="63" height="63" rx="31.5" fill="white"/>
</clipPath>
</defs>
</svg>
