<svg width="63" height="63" viewBox="0 0 63 63" fill="none" xmlns="http://www.w3.org/2000/svg">
<g clip-path="url(#clip0_153_564)">
<g clip-path="url(#clip1_153_564)">
<path d="M23.4921 55.778L17.4718 66.1806L16.4692 67.916L16.4542 67.9412C16.4542 67.9412 0.759346 51.7976 -0.970044 45.9405C-1.4663 44.2605 3.91235 34.8316 9.13561 29.0098C10.3587 27.6426 11.5768 26.4722 12.7047 25.6499L14.79 27.7839L15.4166 28.4195L8.96017 44.3664C8.96017 44.3664 15.3965 52.8065 16.2687 54.1233C16.2687 54.1233 20.3942 54.2393 23.4971 55.7729L23.4921 55.778Z" fill="#F3A080"/>
<path d="M13.908 23.6773L13.7827 24.7115L12.71 25.6448L14.7902 27.7788L15.4168 28.4195C15.5772 28.2682 15.7076 28.1522 15.7427 28.1168L15.7477 28.1068C15.8229 28.1471 16.7552 28.6667 17.7076 28.8282C17.8179 28.8484 17.9332 28.8584 18.0435 28.8685C18.0585 28.8685 18.0736 28.8685 18.0886 28.8685C18.4345 28.8887 18.7653 28.8433 19.046 28.697C19.2115 28.6112 19.3769 28.5255 19.5473 28.4448C19.7178 28.364 19.8832 28.2884 20.0536 28.2177C20.1388 28.1774 20.229 28.1471 20.3143 28.1168C20.4496 28.0664 20.59 28.026 20.7253 27.9907C20.7604 27.9806 20.7905 27.9756 20.8256 27.9655C20.9409 27.9403 21.0612 27.9201 21.1815 27.905C21.2065 27.905 21.2366 27.8949 21.2617 27.8949C21.3469 27.8848 21.4371 27.8797 21.5223 27.8747C21.6126 27.8696 21.7078 27.8646 21.798 27.8596C22.0336 27.8495 22.2692 27.8343 22.4998 27.7889C22.6051 27.7637 22.7003 27.7385 22.8006 27.6981C22.8457 27.683 22.9008 27.6628 22.9459 27.6376C23.0412 27.5922 23.1314 27.5367 23.2116 27.4711C23.3319 27.3803 23.4372 27.2592 23.5124 27.123C23.5324 27.0776 23.5525 27.0322 23.5525 26.9817C23.5525 26.9162 23.5124 26.8657 23.4572 26.8203C23.4472 26.8102 23.4372 26.8052 23.4272 26.7951C23.4171 26.785 23.4071 26.78 23.3921 26.7749C23.3821 26.7699 23.372 26.7598 23.362 26.7547C23.352 26.7497 23.342 26.7446 23.3319 26.7396C22.2843 26.2301 21.0561 26.0938 19.9283 26.3612C19.9283 26.3612 24.2342 20.3982 23.9284 20.0602C23.8131 19.934 23.6878 19.8533 23.5725 19.8079C23.3821 19.7221 23.2216 19.7221 23.2216 19.7221C23.2216 19.7221 19.7228 23.3797 19.4822 23.415C19.3117 23.4301 20.4396 21.4223 21.0662 20.1157C21.3218 19.5859 21.4923 19.1723 21.4672 19.0562C21.4371 18.9351 21.3168 18.8342 21.1514 18.7586C21.001 18.6879 20.8105 18.6325 20.6401 18.587C20.3494 18.5114 20.0887 18.4811 20.0887 18.4811C20.0887 18.4811 20.0436 18.4458 19.9684 18.3853C19.9183 18.3398 19.8531 18.2944 19.7829 18.239C19.7478 18.2087 19.7077 18.1835 19.6676 18.1532C19.6275 18.1229 19.5824 18.0926 19.5423 18.0674C19.427 17.9918 19.3067 17.9211 19.1964 17.8656C18.7703 17.6638 14.1035 22.9357 13.918 23.6673L13.908 23.6773Z" fill="#F3A080"/>
<path d="M20.6447 18.5972C20.5645 18.7031 20.4893 18.8141 20.4141 18.9251C19.968 19.586 19.6472 20.2368 19.4366 20.716C19.2411 21.1701 19.1409 21.4728 19.1309 21.5081C19.1559 21.4778 19.3614 21.2407 19.6672 20.8573C19.988 20.4486 20.4241 19.8786 20.8602 19.2278C20.9655 19.0714 21.0658 18.915 21.161 18.7687C21.0106 18.6981 20.8252 18.6375 20.6497 18.5972H20.6447Z" fill="#B54B57"/>
<path d="M19.532 18.0775C18.8051 19.1168 18.3991 20.0753 18.374 20.1358C18.4242 20.0955 19.2061 19.4094 19.9681 18.3903C19.8628 18.3096 19.7074 18.1935 19.532 18.0775Z" fill="#B54B57"/>
<path d="M15.3063 27.4257C15.2161 27.4509 15.1359 27.4963 15.0607 27.5468C14.9655 27.6174 14.8803 27.6931 14.8001 27.7738L14.79 27.7839L15.4166 28.4246C15.577 28.2732 15.7074 28.1572 15.7425 28.1219L15.7475 28.1118C15.8227 28.1522 16.755 28.6718 17.7074 28.8332C17.8177 28.8534 17.933 28.8635 18.0433 28.8736C18.0583 28.8736 18.0734 28.8736 18.0884 28.8736C18.4343 28.8887 18.7651 28.8433 19.0458 28.702C19.2113 28.6163 19.3767 28.5305 19.5471 28.4498C19.7175 28.3691 19.883 28.2934 20.0534 28.2228C20.1386 28.1824 20.2288 28.1522 20.3141 28.1219C20.6198 28.0109 20.9356 27.9302 21.2615 27.8999C21.3467 27.8898 21.4319 27.8848 21.5221 27.8797C21.6124 27.8747 21.7076 27.8696 21.7978 27.8646C22.0334 27.8545 22.269 27.8394 22.4996 27.7889C22.6049 27.7687 22.7001 27.7435 22.8004 27.7032C22.8455 27.688 22.9006 27.6678 22.9457 27.6426C23.041 27.5972 23.1312 27.5417 23.2114 27.4761C23.3317 27.3853 23.437 27.2643 23.5122 27.128C23.5322 27.0826 23.5523 27.0372 23.5523 26.9868C23.5523 26.9212 23.5122 26.8708 23.457 26.8253C23.447 26.8153 23.437 26.8102 23.427 26.8001C23.4169 26.79 23.4069 26.785 23.3919 26.7799C23.3818 26.7749 23.3718 26.7648 23.3618 26.7598C23.2866 26.8102 23.2164 26.8607 23.1462 26.901C22.5447 27.2542 21.8028 27.234 21.1261 27.3752C20.1887 27.577 19.3215 28.1168 18.3691 28.1421C17.5571 28.1622 16.7901 27.8041 16.0332 27.5215C15.7976 27.4307 15.5419 27.35 15.3013 27.4206L15.3063 27.4257Z" fill="#EA7C6F"/>
<path d="M15.0361 25.7911C15.0361 25.7911 15.0712 25.7508 15.1314 25.6802C15.1915 25.6095 15.2918 25.5137 15.4271 25.4077C15.6928 25.2009 16.1389 24.9789 16.6703 24.9386C17.2016 24.8982 17.6728 25.0546 17.9686 25.2211C18.119 25.3068 18.2292 25.3825 18.2994 25.4481C18.3696 25.5086 18.4097 25.5439 18.4097 25.5439C18.4097 25.5439 18.3596 25.5339 18.2693 25.5187C18.1791 25.4985 18.0488 25.4834 17.8934 25.4632C17.5776 25.4279 17.1615 25.4178 16.7104 25.4481C16.2592 25.4834 15.8482 25.554 15.5424 25.6347C15.392 25.6751 15.2617 25.7104 15.1765 25.7457C15.0913 25.776 15.0411 25.7911 15.0411 25.7911H15.0361Z" fill="#EA7C6F"/>
<path d="M23.4921 55.778C21.4269 54.7791 14.5544 55.3593 14.5544 55.3593C14.5544 55.3593 6.34359 45.1837 6.25837 44.6843C6.17817 44.1848 14.79 27.7889 14.79 27.7889L15.4166 28.4246L8.96023 44.3715C8.96023 44.3715 15.3966 52.8116 16.2688 54.1283C16.2688 54.1283 20.3943 54.2443 23.4971 55.778H23.4921Z" fill="#EA7C6F"/>
<path d="M45.4427 68.9955C45.4427 68.9955 45.4427 68.9955 45.4427 69.0006C45.4377 69.0258 45.4176 69.1318 45.3825 69.3033C44.9514 71.5583 42.3298 85.3763 42.1293 93.1807C42.1293 93.1807 41.3924 93.5238 40.2796 93.9829C40.1292 94.0434 39.9688 94.109 39.8084 94.1746C38.1041 94.8556 35.7431 95.7032 33.6979 96.0916C33.0412 96.2178 32.4146 96.2934 31.8532 96.3035C29.9083 96.3338 27.1513 95.8142 24.9607 95.3097C24.8354 95.2794 24.7101 95.2542 24.5898 95.2239C22.7752 94.7951 21.4368 94.4016 21.4368 94.4016C21.4468 94.2654 21.4568 94.1241 21.4618 93.9829C22.1185 83.7972 18.8803 73.1122 18.7098 72.0376C18.7098 72.0124 17.4567 69.722 16.4742 67.9109C15.8275 66.7304 15.2962 65.7567 15.2962 65.7567C15.2511 65.2875 15.3363 64.6822 15.5017 64.0061C16.2285 61.1053 18.4893 56.9231 18.4893 56.9231C19.0958 56.6557 21.3415 56.1815 23.497 55.7729C25.7928 55.334 27.9834 54.9556 27.9834 54.9556L31.5023 55.2482L34.946 54.6428C34.946 54.6428 37.693 54.996 39.7583 55.3895C40.6255 55.5509 41.3673 55.7224 41.7433 55.8738C41.7433 55.8738 44.5203 59.7382 45.2622 66.1855C45.3625 67.0734 45.4277 68.0067 45.4427 68.9905V68.9955Z" fill="#F3A080"/>
<path d="M21.4519 93.988C22.1085 83.8023 18.8703 73.1173 18.6999 72.0427C18.6999 72.0175 17.4467 69.7271 16.4642 67.916L16.4492 67.9412C16.4492 67.9412 0.759346 51.7975 -0.970044 45.9404C-1.4663 44.2605 3.91235 34.8316 9.13561 29.0098C9.13561 29.0098 0.428507 44.4724 0.944817 45.9152C1.36087 47.0654 10.7447 58.6081 15.4917 64.0112C16.3138 64.9445 16.9956 65.7013 17.4668 66.1805C17.6873 66.3975 17.8527 66.5639 17.9781 66.6648C17.9781 66.6648 22.0584 73.6167 22.0835 75.3168C22.1085 76.8 24.4946 89.16 24.5848 95.224C22.7702 94.7952 21.4318 94.4016 21.4318 94.4016C21.4419 94.2654 21.4519 94.1242 21.4569 93.9829L21.4519 93.988Z" fill="#F8BF92"/>
<path d="M63.9801 44.8205C62.4312 50.6776 45.6436 69.0208 45.3829 69.3084L44.4957 67.1139L39.7637 55.3996C42.8214 53.7701 46.997 53.5128 46.997 53.5128C47.8342 52.1709 54.0199 43.5441 54.0199 43.5441L44.9318 27.3299L45.5383 26.669L47.5484 24.4644C47.9946 24.8478 48.4758 25.2867 48.9821 25.7609C54.9773 31.4263 64.5015 42.8984 63.9902 44.8205H63.9801Z" fill="#F3A080"/>
<path d="M46.2753 22.5321L46.4357 23.5613L47.5385 24.4593L45.5284 26.6639L44.9269 27.3248C44.7614 27.1785 44.6311 27.0675 44.591 27.0322L44.586 27.0221C44.5108 27.0624 43.5985 27.6123 42.6511 27.8091C42.5408 27.8292 42.4255 27.8444 42.3152 27.8595C42.3002 27.8595 42.2851 27.8595 42.2701 27.8646C41.9242 27.8948 41.5934 27.8646 41.3077 27.7283C41.1422 27.6476 40.9718 27.5669 40.8014 27.4912C40.6309 27.4156 40.4605 27.3449 40.2851 27.2794C40.1999 27.244 40.1096 27.2138 40.0244 27.1885C39.8891 27.1431 39.7487 27.1078 39.6084 27.0776C39.5733 27.0725 39.5432 27.0624 39.5081 27.0574C39.3928 27.0372 39.2725 27.0221 39.1522 27.012C39.1271 27.012 39.0971 27.0069 39.072 27.0069C38.9868 27.0019 38.8965 26.9968 38.8113 26.9918C38.7211 26.9918 38.6259 26.9918 38.5356 26.9918C38.3 26.9918 38.0644 26.9817 37.8338 26.9464C37.7286 26.9262 37.6283 26.901 37.5281 26.8657C37.4779 26.8505 37.4278 26.8304 37.3827 26.8102C37.2875 26.7698 37.1922 26.7143 37.112 26.6538C36.9867 26.563 36.8814 26.452 36.8012 26.3158C36.7812 26.2754 36.7561 26.23 36.7561 26.1796C36.7561 26.114 36.7962 26.0585 36.8463 26.0181C36.8514 26.008 36.8664 25.998 36.8764 25.9929C36.8864 25.9828 36.8965 25.9727 36.9065 25.9677C36.9165 25.9626 36.9265 25.9525 36.9366 25.9475C36.9466 25.9425 36.9566 25.9374 36.9666 25.9324C37.9993 25.3875 39.2174 25.2109 40.3603 25.438C40.3603 25.438 35.8588 19.6212 36.1546 19.2731C36.2649 19.1419 36.3852 19.0612 36.5005 19.0108C36.6859 18.92 36.8463 18.9149 36.8463 18.9149C36.8463 18.9149 40.4655 22.4514 40.7112 22.4766C40.8816 22.4817 39.6886 20.5192 39.0169 19.2328C38.7462 18.7131 38.5607 18.3045 38.5807 18.1885C38.6058 18.0674 38.7261 17.9614 38.8865 17.8807C39.0369 17.805 39.2224 17.7395 39.3928 17.6941C39.6835 17.6083 39.9392 17.5679 39.9392 17.5679C39.9392 17.5679 39.9843 17.5276 40.0545 17.467C40.0996 17.4216 40.1648 17.3712 40.24 17.3157C40.275 17.2854 40.3151 17.2552 40.3552 17.2299C40.3953 17.1997 40.4355 17.1694 40.4806 17.1391C40.5959 17.0584 40.7112 16.9878 40.8214 16.9272C41.2375 16.7103 46.0798 21.8258 46.2903 22.5472L46.2753 22.5321Z" fill="#F3A080"/>
<path d="M39.3725 17.679C39.4527 17.7849 39.5379 17.8908 39.6131 18.0018C40.0793 18.6476 40.4252 19.2883 40.6507 19.7625C40.8613 20.2064 40.9716 20.5091 40.9816 20.5445C40.9565 20.5192 40.741 20.2821 40.4252 19.9088C40.0893 19.5103 39.6382 18.9553 39.182 18.3197C39.0717 18.1683 38.9665 18.017 38.8662 17.8707C39.0166 17.795 39.2021 17.7294 39.3725 17.684V17.679Z" fill="#B54B57"/>
<path d="M40.4651 17.124C41.2271 18.138 41.6632 19.0814 41.6882 19.142C41.6381 19.1016 40.8311 18.4458 40.0391 17.4519C40.1393 17.3662 40.2947 17.2451 40.4651 17.124Z" fill="#B54B57"/>
<path d="M45.0019 26.3259C45.0921 26.3461 45.1724 26.3915 45.2526 26.4369C45.3478 26.5025 45.438 26.5782 45.5182 26.6538L45.5283 26.6639L44.9267 27.3248C44.7613 27.1785 44.631 27.0675 44.5909 27.0322L44.5859 27.0221C44.5107 27.0675 43.5984 27.6174 42.651 27.8091C42.5407 27.8293 42.4254 27.8444 42.3151 27.8596C42.3001 27.8596 42.285 27.8596 42.27 27.8646C41.9291 27.8949 41.5933 27.8646 41.3075 27.7234C41.1421 27.6426 40.9717 27.5619 40.8013 27.4913C40.6308 27.4156 40.4604 27.345 40.2849 27.2794C40.1997 27.2441 40.1095 27.2138 40.0243 27.1886C39.7135 27.0877 39.3977 27.0171 39.0669 26.9969C38.9816 26.9918 38.8964 26.9918 38.8062 26.9868C38.716 26.9868 38.6207 26.9868 38.5305 26.9868C38.2949 26.9868 38.0593 26.9767 37.8287 26.9363C37.7234 26.9212 37.6232 26.896 37.5229 26.8607C37.4728 26.8455 37.4227 26.8254 37.3776 26.8052C37.2823 26.7648 37.1871 26.7093 37.1069 26.6488C36.9816 26.558 36.8763 26.447 36.7961 26.3108C36.776 26.2704 36.751 26.225 36.751 26.1746C36.751 26.109 36.7911 26.0535 36.8412 26.0131C36.8462 26.003 36.8613 25.993 36.8713 25.9879C36.8813 25.9778 36.8913 25.9677 36.9014 25.9627C36.9114 25.9576 36.9214 25.9475 36.9314 25.9425C37.0066 25.9879 37.0818 26.0384 37.152 26.0787C37.7635 26.4117 38.5054 26.3663 39.1872 26.4823C40.1296 26.6488 41.0168 27.1634 41.9692 27.1533C42.7813 27.1432 43.5332 26.7648 44.2851 26.4571C44.5157 26.3612 44.7713 26.2704 45.0119 26.331L45.0019 26.3259Z" fill="#EA7C6F"/>
<path d="M45.2174 24.6812C45.2174 24.6812 45.1824 24.6408 45.1222 24.5702C45.057 24.4996 44.9568 24.4088 44.8164 24.3079C44.5407 24.1061 44.0896 23.9043 43.5582 23.8791C43.0269 23.8589 42.5607 24.0304 42.27 24.207C42.1246 24.2978 42.0143 24.3785 41.9441 24.4441C41.879 24.5097 41.8389 24.545 41.8389 24.545C41.8389 24.545 41.889 24.5349 41.9792 24.5147C42.0695 24.4945 42.1998 24.4693 42.3552 24.4491C42.666 24.4037 43.082 24.3785 43.5382 24.3936C43.9893 24.4138 44.4054 24.4693 44.7112 24.5399C44.8666 24.5753 44.9919 24.6055 45.0771 24.6358C45.1673 24.661 45.2174 24.6762 45.2174 24.6762V24.6812Z" fill="#EA7C6F"/>
<path d="M56.3651 42.6662C56.4303 43.7862 47.5778 54.8042 47.5778 54.8042C46.1291 54.5772 39.7529 55.3945 39.7529 55.3945C42.8107 53.77 46.9863 53.5077 46.9863 53.5077C47.8234 52.1657 54.0091 43.539 54.0091 43.539L44.921 27.3247L45.5276 26.6638C45.5276 26.6638 56.2999 41.5462 56.3651 42.6662Z" fill="#EA7C6F"/>
<path d="M63.9799 44.8205C62.431 50.6776 45.6433 69.0208 45.3827 69.3084C44.9516 71.5634 42.3299 85.3814 42.1294 93.1858C42.1294 93.1858 41.3926 93.5289 40.2797 93.988C40.1243 86.794 42.9014 74.0405 42.7861 73.2131C42.6608 72.3151 44.4954 67.1138 44.4954 67.1138C44.4954 67.1138 44.7761 66.7809 45.2674 66.1957C48.7111 62.0891 62.456 45.557 62.04 43.872C61.5638 41.9499 48.9768 25.7609 48.9768 25.7609C54.972 31.4263 64.4962 42.8984 63.9849 44.8205H63.9799Z" fill="#F8BF92"/>
<path d="M45.919 75.6549C46.9416 84.216 49.2374 103.669 49.1472 104.653C49.1472 104.653 48.3301 104.708 46.9566 104.794C41.5729 105.137 27.6526 105.98 21.1561 105.995C20.5496 105.995 20.0032 105.995 19.537 105.98C18.9355 105.96 18.4693 105.929 18.1585 105.884C18.1585 105.884 18.1084 103.906 18.0282 100.879C17.7825 91.4403 17.2813 71.8409 17.3114 70.8521C17.3515 69.5556 7.82227 59.8744 7.82227 59.8744L9.85743 57.2713L14.8802 50.8491C14.8802 50.8491 17.3464 52.7662 18.2838 53.3312C18.9104 53.7096 21.7576 53.7802 24.0033 54.0526C25.0761 54.1838 26.0185 54.3705 26.5147 54.6479C26.5147 54.6479 29.3469 58.5628 31.5425 58.5628C33.7381 58.5628 36.475 54.6479 36.475 54.6479L39.0415 54.4209L42.0141 54.1636L48.1496 51.8177L52.2851 62.9316L52.3002 62.9821L53.428 66.0191L45.4578 71.6593C45.4578 71.6593 45.6483 73.2081 45.934 75.6448L45.919 75.6549Z" fill="#E05A33"/>
<path d="M21.1562 105.99C19.7677 105.995 18.715 105.96 18.1586 105.879C18.1586 105.879 17.2714 72.1487 17.3065 70.8471C17.3466 69.5505 7.81738 59.8694 7.81738 59.8694L9.85255 57.2662C12.384 60.046 20.3542 68.8543 21.1011 70.0298C21.863 71.2204 21.3317 97.9281 21.1562 105.99Z" fill="#6D3521"/>
<path d="M45.4429 71.6693C45.4429 71.6693 49.2626 103.392 49.1473 104.653C49.1473 104.653 48.3303 104.708 46.9568 104.794C45.6785 94.7043 42.7461 71.3465 42.7461 70.615C42.7461 69.8835 49.5233 64.9395 52.2703 62.9366L53.4132 66.0241L45.4429 71.6643V71.6693Z" fill="#6D3521"/>
<path d="M39.0263 54.4259C37.4974 56.5851 33.8181 61.1558 30.2741 60.4394C26.6399 59.7029 24.6599 55.7073 23.9932 54.0526C25.0659 54.1838 26.0083 54.3704 26.5045 54.6479C26.5045 54.6479 29.3367 58.5627 31.5323 58.5627C33.7279 58.5627 36.4648 54.6479 36.4648 54.6479L39.0313 54.4209L39.0263 54.4259Z" fill="#FBF3D6"/>
<g style="mix-blend-mode:multiply" opacity="0.3">
<path d="M45.4429 71.6694C45.4429 71.6694 49.2626 103.392 49.1473 104.653C49.1473 104.653 48.3302 104.708 46.9568 104.794C41.5731 105.137 27.6528 105.98 21.1563 105.995C19.7677 106 18.7151 105.965 18.1587 105.884C18.1587 105.884 18.1085 103.906 18.0283 100.879C29.9887 93.3776 42.7461 70.6201 42.7461 70.6201L52.2853 62.9922L53.4131 66.0292L45.4429 71.6694Z" fill="#DE5D16"/>
</g>
<path d="M35.4689 47.2823C36.4714 47.1007 37.1431 46.2834 37.489 45.6125C37.5642 45.4611 37.6244 45.3199 37.6695 45.1887C37.9051 44.4976 37.8148 42.1769 37.0278 41.6976C36.4815 41.3596 36.1406 41.9348 35.9902 42.3131C35.925 42.4746 35.895 42.5956 35.895 42.5956L35.4639 47.2823H35.4689Z" fill="#F8BF92"/>
<path d="M35.3682 47.3328C36.3707 47.1512 37.1477 46.2784 37.4936 45.6125C37.5236 45.5469 37.5487 45.4813 37.5687 45.4208C37.8043 44.7296 37.7141 42.409 36.9271 41.9297C36.481 41.6573 36.1802 41.9802 35.9948 42.3182C35.9296 42.4796 35.8995 42.6007 35.8995 42.6007L35.3682 47.3379V47.3328Z" fill="#F3A080"/>
<path d="M37.4079 43.5189C37.4581 43.7005 37.448 43.8972 37.418 44.0839C37.2726 44.876 36.7112 45.5167 36.1748 46.112C36.3202 45.7235 36.3553 45.2896 36.2851 44.881C36.26 44.7397 36.2249 44.5985 36.2149 44.4522C36.1648 43.872 37.1072 42.4443 37.4079 43.5239V43.5189Z" fill="#EA7C6F"/>
<path d="M35.8945 46.3541C35.8945 46.3541 35.9046 46.344 35.9246 46.3289C35.9447 46.3087 35.9747 46.2885 36.0148 46.2481C36.09 46.1775 36.1853 46.0615 36.2755 45.895C36.3657 45.7285 36.4409 45.5116 36.466 45.2593C36.486 45.0071 36.456 44.7195 36.3306 44.4471C36.3156 44.4118 36.3006 44.3815 36.2805 44.3462L36.2655 44.321L36.2755 44.2958L36.2905 44.2504C36.3006 44.2201 36.3106 44.1898 36.3256 44.1595C36.3707 44.0435 36.4209 43.9325 36.476 43.8266C36.5311 43.7206 36.5863 43.6248 36.6414 43.539C36.6966 43.4533 36.7517 43.3675 36.8068 43.307C36.862 43.2464 36.9272 43.201 36.9873 43.1859C37.0475 43.1708 37.1076 43.1859 37.1477 43.2061C37.1878 43.2262 37.2129 43.2616 37.2229 43.2817C37.2329 43.307 37.2329 43.3221 37.2379 43.3221C37.2379 43.3221 37.2379 43.307 37.2379 43.2817C37.2329 43.2565 37.2129 43.2162 37.1678 43.1808C37.1277 43.1455 37.0625 43.1153 36.9773 43.1203C36.8971 43.1253 36.8119 43.1657 36.7367 43.2313C36.6615 43.2969 36.5963 43.3725 36.5261 43.4583C36.456 43.5441 36.3908 43.6399 36.3256 43.7459C36.2605 43.8518 36.2003 43.9678 36.1452 44.0889C36.1301 44.1192 36.1201 44.1495 36.1051 44.1848L36.085 44.2352L36.06 44.3008L36.0449 44.3462C36.0449 44.3462 36.06 44.3765 36.07 44.3916L36.1051 44.4572C36.1201 44.4875 36.1351 44.5127 36.1502 44.543C36.2605 44.7801 36.3006 45.0273 36.3006 45.2593C36.3006 45.4864 36.2504 45.6932 36.1903 45.8597C36.1301 46.0262 36.0549 46.1523 35.9998 46.233C35.9697 46.2734 35.9447 46.3036 35.9296 46.3289C35.9146 46.349 35.9046 46.3591 35.9046 46.3591L35.8945 46.3541Z" fill="#B54B57"/>
<path d="M25.974 48.2711C24.9564 48.3014 24.1293 47.6355 23.6581 47.0503C23.5529 46.9191 23.4626 46.7879 23.3925 46.6769C23.0215 46.0514 22.6405 43.761 23.3072 43.1304C23.7734 42.6864 24.2195 43.1808 24.4451 43.5188C24.5404 43.6601 24.5955 43.7761 24.5955 43.7761L25.969 48.2711H25.974Z" fill="#F8BF92"/>
<path d="M26.0892 48.3014C25.0716 48.3317 24.1342 47.6405 23.658 47.0553C23.6179 46.9948 23.5778 46.9393 23.5477 46.8838C23.1768 46.2582 22.7958 43.9678 23.4625 43.3372C23.8435 42.979 24.2044 43.2363 24.45 43.5239C24.5453 43.6651 24.6004 43.7812 24.6004 43.7812L26.0842 48.3064L26.0892 48.3014Z" fill="#F3A080"/>
<path d="M23.3126 44.9869C23.2976 45.1736 23.3477 45.3653 23.4179 45.5419C23.7187 46.2885 24.4004 46.798 25.047 47.2672C24.8265 46.9141 24.7062 46.5004 24.6861 46.0867C24.6811 45.9404 24.6861 45.7941 24.6661 45.6528C24.5959 45.0727 23.3828 43.872 23.3076 44.992L23.3126 44.9869Z" fill="#EA7C6F"/>
<path d="M25.3671 47.4488C25.3671 47.4488 25.3571 47.4438 25.332 47.4287C25.307 47.4135 25.2719 47.3984 25.2318 47.3681C25.1466 47.3126 25.0263 47.2218 24.906 47.0755C24.7857 46.9343 24.6654 46.7375 24.5902 46.4954C24.52 46.2532 24.4899 45.9656 24.5601 45.673C24.5651 45.6377 24.5801 45.6024 24.5902 45.5671L24.6002 45.5419L24.5902 45.5217L24.5651 45.4813C24.5501 45.4561 24.53 45.4258 24.515 45.4006C24.4448 45.2947 24.3746 45.1938 24.2994 45.103C24.2242 45.0122 24.149 44.9314 24.0789 44.8558C24.0037 44.7801 23.9335 44.7095 23.8683 44.6641C23.8032 44.6136 23.728 44.5834 23.6678 44.5834C23.6027 44.5834 23.5475 44.6086 23.5124 44.6388C23.4773 44.6691 23.4573 44.7044 23.4523 44.7296C23.4473 44.7549 23.4523 44.77 23.4473 44.77C23.4473 44.77 23.4473 44.7549 23.4473 44.7296C23.4473 44.7044 23.4573 44.659 23.4924 44.6187C23.5275 44.5783 23.5826 44.5329 23.6678 44.5228C23.748 44.5127 23.8433 44.5329 23.9285 44.5783C24.0137 44.6237 24.0939 44.6842 24.1791 44.7549C24.2643 44.8255 24.3496 44.9012 24.4348 44.992C24.52 45.0828 24.6052 45.1786 24.6804 45.2896C24.7004 45.3149 24.7205 45.3451 24.7405 45.3754L24.7706 45.4208L24.8107 45.4813L24.8358 45.5267C24.8358 45.5267 24.8258 45.557 24.8208 45.5772L24.8007 45.6478C24.7907 45.6781 24.7806 45.7084 24.7756 45.7386C24.7155 45.9909 24.7305 46.2431 24.7756 46.4701C24.8258 46.6921 24.911 46.8838 25.0062 47.0352C25.1015 47.1865 25.1967 47.2925 25.2719 47.3631C25.307 47.3984 25.3371 47.4236 25.3571 47.4388C25.3772 47.4539 25.3872 47.464 25.3872 47.464L25.3671 47.4488Z" fill="#B54B57"/>
<path d="M27.6826 55.5661C28.1187 55.9848 28.9558 57.4982 32.2442 56.908C33.5325 56.6759 34.4548 55.6871 35.3421 54.769C34.8608 54.5571 34.535 54.3704 34.4648 54.2342C34.4147 54.1333 34.2944 53.4573 34.1641 52.6501C33.9485 51.3183 33.7079 49.6383 33.7079 49.6383L28.229 50.2639C28.229 50.2639 28.4997 52.3525 28.5197 53.7146C28.5298 54.2897 28.4947 54.7387 28.3744 54.8396C28.3694 54.8446 27.9734 55.339 27.6926 55.5661H27.6826Z" fill="#F3A080"/>
<path d="M24.7857 44.8053C25.0564 45.8243 25.3922 46.8283 25.7782 47.7868C26.4349 49.4264 27.282 51.1669 29.1468 51.6058C30.9864 52.0397 33.3575 51.6865 34.5806 50.0974C35.3676 49.0733 35.4778 47.7263 35.6934 46.5004C36.4503 42.2374 36.6057 35.6841 31.5278 34.0698C29.7232 33.4946 27.4775 33.5703 25.9487 34.8114C24.6103 35.896 24.134 37.5558 24.0889 39.2307C24.0438 41.0922 24.3095 42.9841 24.7857 44.8053Z" fill="#F8BF92"/>
<path d="M24.8707 44.3462C25.1364 45.3652 25.4672 46.3692 25.8482 47.3328C26.4948 48.9723 27.327 50.7128 29.1516 51.1568C30.9512 51.5957 33.2771 51.2476 34.4651 49.6584C35.232 48.6394 35.3373 47.2873 35.5478 46.0614C36.2797 41.8036 36.42 35.2502 31.4424 33.6258C29.6729 33.0507 27.4773 33.1213 25.9836 34.3573C24.6752 35.4419 24.209 37.0967 24.174 38.7716C24.1339 40.6331 24.3945 42.525 24.8707 44.3462Z" fill="#F3A080"/>
<path d="M32.7261 45.6276C32.4654 46.2784 31.9541 46.8282 31.3225 47.1309C30.6909 47.4336 29.944 47.4891 29.2773 47.2772C29.8538 47.8271 30.8062 48.0542 31.523 47.7111C32.2399 47.368 32.7862 46.4196 32.7261 45.6276Z" fill="#DD5B67"/>
<path d="M32.6961 47.2218C32.5607 47.5598 32.295 47.8474 31.9642 48.0038C31.6334 48.1602 31.2474 48.1904 30.8965 48.0794C31.1972 48.367 31.6935 48.483 32.0644 48.3065C32.4404 48.1299 32.7211 47.6355 32.691 47.2218H32.6961Z" fill="#DD5B67"/>
<path d="M33.6993 42.1768C33.7494 42.7772 33.4888 43.2867 33.1128 43.317C32.7419 43.3472 32.401 42.8881 32.3509 42.2878C32.3008 41.6875 32.5614 41.1779 32.9374 41.1477C33.3133 41.1174 33.6492 41.5765 33.6993 42.1768Z" fill="#2A2B2B"/>
<path d="M34.4717 41.7077C34.4717 41.7077 34.2662 42.1012 33.8702 42.303C33.4742 42.5047 33.0381 42.4341 33.0381 42.4341C33.0381 42.4341 33.2436 42.0406 33.6396 41.8388C34.0356 41.637 34.4717 41.7077 34.4717 41.7077Z" fill="white"/>
<path d="M26.601 42.6056C26.6712 43.206 27.0271 43.6499 27.398 43.6096C27.769 43.5642 28.0096 43.0445 27.9394 42.4492C27.8692 41.8489 27.5133 41.4049 27.1424 41.4453C26.7715 41.4907 26.5308 42.0103 26.601 42.6056Z" fill="#2A2B2B"/>
<path d="M25.749 42.2978C25.749 42.2978 26.0297 42.6409 26.4558 42.7569C26.8819 42.873 27.298 42.7216 27.298 42.7216C27.298 42.7216 27.0172 42.3786 26.5912 42.2625C26.1651 42.1465 25.749 42.2978 25.749 42.2978Z" fill="white"/>
<path d="M34.8819 39.2407C34.8819 39.2407 31.9544 38.5445 31.3429 39.4022C30.987 39.9016 31.4532 39.9823 31.4532 39.9823L34.8869 39.2407H34.8819Z" fill="#5F1234"/>
<path d="M25.0469 39.9117C25.0469 39.9117 27.9041 38.9683 28.5909 39.7755C28.9919 40.2447 28.5307 40.3607 28.5307 40.3607L25.0519 39.9117H25.0469Z" fill="#5F1234"/>
<path d="M31.4428 45.3552C31.3175 45.1635 31.1921 44.9718 31.0618 44.7801C30.5305 44.8154 29.959 44.659 29.5179 44.3613C29.4928 44.5379 29.4728 44.7145 29.4978 44.891C29.5229 45.0676 29.5981 45.2442 29.7334 45.3552C29.8588 45.4611 30.0242 45.5065 30.1896 45.5267C30.6407 45.5973 31.0167 45.5217 31.4428 45.3501V45.3552Z" fill="#EA7C6F"/>
<path d="M29.6235 41.4807C29.2275 42.3383 29.1122 43.3019 29.1824 44.2453C29.2125 44.6338 29.2726 45.0273 29.4481 45.3703C30.0947 45.5772 30.8216 45.5923 31.4782 45.4056C30.9419 45.4258 29.6787 45.0222 29.6636 45.0172L29.6235 41.4807Z" fill="#DD5B67"/>
<path d="M33.6284 45.0475C33.7487 45.2947 34.4505 45.1938 35.1974 44.8255C35.9393 44.4522 36.4456 43.9527 36.3203 43.7005C36.1949 43.4482 35.4982 43.5542 34.7513 43.9225C34.0094 44.2958 33.5031 44.7952 33.6284 45.0475Z" fill="#EA7C6F"/>
<path d="M24.1646 44.9163C24.0844 45.1837 24.6659 45.5923 25.4629 45.8294C26.2599 46.0716 26.9667 46.0464 27.0469 45.784C27.1271 45.5166 26.5457 45.108 25.7486 44.8709C24.9516 44.6287 24.2448 44.654 24.1646 44.9163Z" fill="#EA7C6F"/>
<path d="M36.8707 41.6019L36.0837 42.409C36.0837 42.409 35.1563 37.344 33.863 36.4208C32.5698 35.4925 25.6773 36.9757 24.7649 37.5054C23.8476 38.0351 24.6095 43.7813 24.6095 43.7813L23.4666 43.1708C23.0907 42.1417 22.7097 41.1125 22.3338 40.0834C22.2084 39.7453 22.0831 39.3973 22.0029 39.0492C21.9478 38.807 21.9127 38.5648 21.9077 38.3126C21.9077 37.7173 22.0831 36.8092 22.4541 36.3451C21.5267 35.6489 21.0405 34.4129 21.241 33.2677C21.4164 32.2587 22.1232 31.3708 23.0456 30.9471C23.1709 30.8916 23.2962 30.8411 23.4316 30.8008C23.1759 31.5524 23.3814 32.4454 23.9479 33.0104C24.1183 31.5878 25.2512 30.3366 26.6447 30.039C26.2587 30.6343 26.3289 31.4869 26.8101 32.0115C27.1811 30.8209 28.2688 29.8876 29.497 29.7111C28.8854 30.1399 29.1661 31.1943 29.8027 31.5777C30.4393 31.9661 31.2364 31.9157 31.9782 31.9359C33.2064 31.9661 34.4796 32.2436 35.4521 33.0003C35.803 33.2728 36.0887 34.4785 36.3092 35.9112C36.4295 36.7134 36.5348 37.5861 36.62 38.3984C36.7955 40.1389 36.8807 41.617 36.8807 41.617L36.8707 41.6019Z" fill="#38102B"/>
<path d="M35.9536 39.3871C36.119 38.0199 35.2217 36.683 34.0337 35.9919C32.8457 35.3007 31.4221 35.1544 30.0536 35.1645C30.1489 35.3713 30.2491 35.5883 30.3444 35.7951C28.7403 36.1836 27.056 36.2693 25.4169 36.0474C25.4469 36.3198 25.477 36.5973 25.5071 36.8697C24.9757 36.7234 24.4494 36.5771 23.918 36.4308C23.5321 37.3489 23.4719 38.3932 23.7476 39.3518C23.4519 39.1399 23.2113 38.8523 23.0609 38.5194C23.0508 39.0138 23.0308 39.5132 23.0208 40.0076C22.6198 39.7604 22.2689 39.4325 21.9932 39.044C21.938 38.8019 21.9029 38.5597 21.8979 38.3075C21.8979 37.7122 22.0734 36.8041 22.4443 36.34C21.517 35.6438 21.0307 34.4078 21.2312 33.2626C21.4067 32.2536 22.1135 31.3657 23.0358 30.9419C23.1611 30.8864 23.2864 30.836 23.4218 30.7956C23.1661 31.5473 23.3717 32.4403 23.9381 33.0053C24.1085 31.5826 25.2414 30.3315 26.6349 30.0338C26.249 30.6291 26.3191 31.4817 26.8004 32.0064C27.1713 30.8158 28.2591 29.8825 29.4872 29.7059C28.8756 30.1347 29.1563 31.1891 29.793 31.5725C30.4296 31.961 31.2266 31.9105 31.9685 31.9307C33.1966 31.961 34.4698 32.2385 35.4423 32.9952C35.7932 33.2676 36.0789 34.4734 36.2995 35.9061C36.4198 36.7082 36.5251 37.581 36.6103 38.3932C36.3897 38.7262 36.1742 39.0592 35.9536 39.3972V39.3871Z" fill="#4A0F2F"/>
<path d="M35.7884 35.5176C36.024 36.0776 36.0591 36.7183 35.8837 37.2985C35.5679 36.2592 35.1819 35.1645 34.3097 34.5238C33.4274 33.8831 32.2645 33.8629 31.1817 33.7519C30.099 33.6359 28.9009 33.318 28.3596 32.3696C28.0889 33.0961 28.0588 33.9133 28.2744 34.6549C27.0763 34.438 25.9685 33.7519 25.2366 32.7782C24.8156 33.4341 24.575 34.2059 24.5449 34.9828C23.5423 34.6953 22.7503 33.767 22.62 32.7227C22.5398 32.1073 22.7002 31.4716 23.031 30.9469C23.1564 30.8914 23.2817 30.841 23.417 30.8006C23.1614 31.5523 23.3669 32.4453 23.9333 33.0103C24.1038 31.5876 25.2366 30.3365 26.6302 30.0389C26.2442 30.6342 26.3144 31.4867 26.7956 32.0114C27.1665 30.8208 28.2543 29.8875 29.4824 29.7109C28.8709 30.1398 29.1516 31.1941 29.7882 31.5775C30.4248 31.966 31.2218 31.9156 31.9637 31.9357C33.1918 31.966 34.4651 32.2435 35.4375 33.0002C35.7884 33.2726 36.0742 34.4784 36.2947 35.9111C36.1594 35.7244 36.004 35.5681 35.7784 35.5277L35.7884 35.5176Z" fill="#5F1234"/>
<path d="M40.8966 16.5944V16.7205C40.8966 19.8786 39.5432 22.7138 37.3877 24.6712C37.0568 24.9689 36.711 25.2463 36.3501 25.5036C35.8488 25.8517 35.3275 26.1595 34.7761 26.4168C34.3049 26.6438 33.8086 26.8254 33.2973 26.9767C33.1319 27.0322 32.9765 27.0776 32.8261 27.118C32.7309 27.1483 32.6406 27.1684 32.5554 27.1886C31.8135 27.3551 31.0416 27.4409 30.2546 27.4409C28.8861 27.4409 27.5828 27.1836 26.3797 26.7094C26.3797 26.7043 26.3747 26.7043 26.3747 26.7043C24.8308 26.0989 23.4674 25.1404 22.3746 23.9246C20.6502 22.0227 19.6025 19.4952 19.6025 16.7205C19.6025 16.6599 19.6025 16.5893 19.6076 16.5288C19.6426 14.4402 20.2692 12.4929 21.3369 10.8634C22.0989 9.69294 23.0713 8.68901 24.2142 7.89696C24.6203 7.6094 25.0614 7.35716 25.5075 7.13014C26.9362 6.40367 28.5452 6.00513 30.2546 6.00513C32.1043 6.00513 33.8437 6.47935 35.3575 7.31175C35.9641 7.64976 36.5355 8.04326 37.0619 8.48217C38.29 9.51637 39.2825 10.823 39.9542 12.3062C40.5507 13.6128 40.8866 15.0708 40.9016 16.5994L40.8966 16.5944Z" fill="#5D7826"/>
<path d="M40.8964 16.5942C36.3549 21.3818 30.1942 22.2899 29.8684 22.3353L29.6378 20.6402L29.4072 18.9451H29.4122C29.6679 18.9048 36.3448 17.8201 39.954 12.301C40.5505 13.6077 40.8864 15.0656 40.9014 16.5942H40.8964Z" fill="#E05A33"/>
<path d="M37.0566 8.47704C36.3298 10.0056 35.1518 11.3324 35.1518 11.3324L24.209 7.89183C24.615 7.60428 25.0561 7.35203 25.5023 7.12501C26.9309 6.39855 28.54 6 30.2493 6C32.8409 6 35.2119 6.92826 37.0616 8.47704H37.0566Z" fill="#F5E2D7"/>
<path d="M35.6383 10.722C35.6383 10.722 34.8363 11.731 34.5406 12.0438C34.2398 12.3616 33.6232 12.8863 33.6232 12.8863C33.4127 12.745 27.5729 9.44565 21.332 10.8582C22.3647 9.26403 23.7983 7.97759 25.4976 7.125C30.9314 7.48319 35.3977 10.5555 35.6383 10.722Z" fill="#E05A33"/>
<path d="M37.3828 24.6661C37.052 24.9637 36.7061 25.2412 36.3452 25.4985C35.8439 25.8466 35.3226 26.1543 34.7712 26.4116C34.0644 26.7143 33.3726 26.9665 32.8212 27.1128C32.726 27.1431 32.6358 27.1633 32.5505 27.1835C31.8087 27.35 31.0367 27.4357 30.2497 27.4357C28.8812 27.4357 27.5779 27.1784 26.3749 26.7042C26.3749 26.6992 26.3698 26.6992 26.3698 26.6992C22.4048 25.1403 19.5977 21.2557 19.5977 16.7204C19.5977 16.6598 19.5977 16.5892 19.6027 16.5287C20.1491 16.0999 20.9711 15.5399 22.0088 15.0556C23.1166 14.546 24.47 14.1323 25.9939 14.0819C27.5579 14.0214 29.3073 14.3493 31.147 15.3532C31.147 15.3532 31.3575 21.624 37.3828 24.6711V24.6661Z" fill="#F5E2D7"/>
<path d="M32.5505 27.1835C31.8087 27.35 31.0367 27.4358 30.2497 27.4358C28.8812 27.4358 27.5779 27.1785 26.3749 26.7043C26.3749 26.6992 26.3699 26.6992 26.3699 26.6992C22.7106 22.1891 22.0489 17.568 22.0088 15.0506C23.1166 14.541 24.47 14.1274 25.9939 14.0769C25.8786 15.6257 25.8736 21.952 32.5505 27.1835Z" fill="#E05A33"/>
<g style="mix-blend-mode:multiply" opacity="0.5">
<path d="M40.897 16.5942V16.7204C40.897 19.8785 39.5436 22.7137 37.3881 24.6711C37.0573 24.9688 36.7114 25.2462 36.3505 25.5035C35.8492 25.8516 35.3279 26.1594 34.7765 26.4167C34.3053 26.6437 33.809 26.8253 33.2977 26.9766C33.1323 27.0321 32.9769 27.0775 32.8265 27.1179C32.7313 27.1482 32.6411 27.1683 32.5558 27.1885C31.814 27.355 31.042 27.4408 30.255 27.4408C28.8865 27.4408 27.5832 27.1835 26.3802 26.7093C26.3802 26.7042 26.3752 26.7042 26.3752 26.7042C24.8312 26.0988 23.4678 25.1403 22.375 23.9245C25.1671 24.1313 27.9592 24.0254 30.4906 22.9054C33.9644 21.3566 36.5009 17.8504 36.8868 14.0415C37.1325 11.6906 36.541 9.33465 35.358 7.31165C35.9645 7.64965 36.5359 8.04315 37.0623 8.48206C38.2904 9.51626 39.2829 10.8229 39.9546 12.3061C40.5511 13.6127 40.887 15.0707 40.902 16.5993L40.897 16.5942Z" fill="#5D7826"/>
</g>
<g style="mix-blend-mode:soft-light">
<path d="M24.9766 8.8957C25.6182 8.0078 26.4202 7.10981 27.498 6.93829C28.6709 6.75163 29.864 7.55881 30.3402 8.65355C30.8164 9.74829 30.671 11.0448 30.1798 12.1345C29.6885 13.2242 28.8865 14.1424 28.0444 14.9849C27.0368 15.9939 25.9591 16.9272 24.8162 17.7747C24.1745 18.2489 23.4828 18.708 22.6958 18.824C19.9638 19.2125 21.3223 16.3369 21.7985 14.9748C22.5554 12.8105 23.6281 10.7522 24.9766 8.90075V8.8957Z" fill="#F5E2D7"/>
</g>
</g>
</g>
<rect x="0.5" y="0.5" width="62" height="62" rx="31" stroke="#F6F6F6"/>
<defs>
<clipPath id="clip0_153_564">
<rect width="63" height="63" rx="31.5" fill="white"/>
</clipPath>
<clipPath id="clip1_153_564">
<rect width="65" height="177" fill="white" transform="translate(-1 6)"/>
</clipPath>
</defs>
</svg>
