<svg width="24" height="22" viewBox="0 0 24 22" fill="none" xmlns="http://www.w3.org/2000/svg">
<path d="M0.760535 20.3779C-0.563443 19.1764 -1.11897 9.45025 7.47291 3.35585C15.7356 -2.50506 23.1714 1.14117 23.5997 1.74731C24.0279 2.35344 25.6116 11.0721 17.1837 17.8868C9.08384 24.4361 1.77422 21.2979 0.760535 20.3779Z" fill="#3D3D3D"/>
<path d="M22.7835 6.50883C23.6686 3.83561 23.6553 1.97375 23.6544 1.89575L23.6538 1.85253C23.6345 1.80586 23.6164 1.77053 23.6 1.74722C23.5987 1.74546 23.5971 1.74356 23.5957 1.7417L23.5257 1.71732C23.4784 1.70089 22.3442 1.32003 20.1006 1.76542C18.0575 2.17103 14.6514 3.37522 10.028 6.8083C5.40194 10.2433 3.11282 13.693 2.00711 15.9821C0.802633 18.4756 0.700613 20.1353 0.696893 20.2046L0.691406 20.3059C0.714284 20.3324 0.737394 20.3566 0.760784 20.3779C0.762551 20.3795 0.76455 20.3812 0.766363 20.3828L0.843877 20.4013C0.907117 20.4163 2.05733 20.6838 3.87062 20.6838C4.47227 20.6838 5.14698 20.6543 5.87921 20.5764C7.60364 20.393 9.28678 19.9761 10.8818 19.3373C12.8754 18.5388 14.7358 17.3898 16.4113 15.9221C20.2012 12.6022 21.9684 8.97069 22.7835 6.50883ZM16.1583 15.6341C12.444 18.8878 8.50489 19.9096 5.85447 20.1939C3.44408 20.4524 1.63228 20.1651 1.096 20.0623C1.15231 19.5913 1.39327 18.1347 2.35269 16.1485C3.43971 13.8981 5.69344 10.5043 10.2569 7.1157C14.7985 3.74336 18.1334 2.55398 20.1313 2.15C21.8658 1.79932 22.9172 1.96437 23.2683 2.04451C23.2531 2.52863 23.1469 4.19117 22.4193 6.38857C21.6191 8.80526 19.8834 12.371 16.1583 15.6341Z" fill="#3D3D3D"/>
<path d="M5.52753 11.5127C5.44285 11.5127 5.35818 11.4806 5.29336 11.4163C5.16321 11.2871 5.16256 11.0771 5.29187 10.9472C5.31754 10.9214 7.88054 8.35086 9.93419 6.70336C11.9939 5.05104 15.5187 3.03299 15.6677 2.94788C15.8269 2.85693 16.0299 2.91209 16.121 3.07115C16.2121 3.23018 16.1568 3.43279 15.9975 3.52375C15.9615 3.54436 12.3689 5.60122 10.3504 7.22049C8.32535 8.84505 5.78858 11.3893 5.76319 11.4148C5.69827 11.48 5.6129 11.5127 5.52753 11.5127Z" fill="#D1D1D1"/>
<path d="M6.29812 12.2608C6.20252 12.2608 6.10766 12.2198 6.04195 12.1406L4.66999 10.4848C4.55304 10.3436 4.57285 10.1346 4.71421 10.0178C4.85552 9.90103 5.06495 9.92076 5.18195 10.0619L6.55391 11.7177C6.67086 11.8589 6.65105 12.0679 6.50969 12.1847C6.44775 12.2359 6.3727 12.2608 6.29812 12.2608Z" fill="#D1D1D1"/>
<path d="M7.65719 10.9809C7.56558 10.9809 7.4744 10.9433 7.40879 10.8696L5.84171 9.1092C5.71984 8.97228 5.7322 8.76261 5.86928 8.64091C6.00646 8.51918 6.21636 8.53157 6.33828 8.66849L7.90536 10.4289C8.02723 10.5658 8.01486 10.7755 7.87778 10.8971C7.81449 10.9533 7.73568 10.9809 7.65719 10.9809Z" fill="#D1D1D1"/>
<path d="M9.12037 9.50643C9.03328 9.50643 8.94632 9.47249 8.88113 9.40494L7.37427 7.84412C7.24695 7.71222 7.25081 7.50226 7.38287 7.37514C7.51498 7.24797 7.72529 7.25182 7.85256 7.38373L9.35942 8.94454C9.48674 9.07645 9.48288 9.2864 9.35082 9.41353C9.28642 9.4756 9.20332 9.50643 9.12037 9.50643Z" fill="#D1D1D1"/>
<path d="M10.3762 8.42175C10.2806 8.42175 10.1857 8.38076 10.12 8.3015L8.74811 6.64569C8.63117 6.50455 8.65098 6.29548 8.79233 6.17866C8.93365 6.06189 9.14308 6.08167 9.26007 6.22282L10.632 7.87862C10.749 8.01977 10.7292 8.22884 10.5878 8.34565C10.5258 8.39682 10.4508 8.42175 10.3762 8.42175Z" fill="#D1D1D1"/>
<path d="M12.0272 7.2167C11.933 7.2167 11.8395 7.17696 11.7738 7.09961L10.3367 5.40893C10.218 5.26927 10.2352 5.05992 10.3751 4.94139C10.5149 4.82281 10.7245 4.83994 10.8433 4.97965L12.2803 6.67032C12.399 6.80998 12.3818 7.01933 12.242 7.13786C12.1795 7.19084 12.1032 7.2167 12.0272 7.2167Z" fill="#D1D1D1"/>
<path d="M13.4761 6.23612C13.3854 6.23612 13.2951 6.1993 13.2295 6.12687L11.7576 4.50115C11.6346 4.36525 11.6452 4.15553 11.7813 4.03268C11.9174 3.90982 12.1275 3.92037 12.2505 4.05631L13.7224 5.68203C13.8454 5.81793 13.8348 6.02765 13.6987 6.1505C13.6352 6.20789 13.5555 6.23612 13.4761 6.23612Z" fill="#D1D1D1"/>
<path d="M14.925 5.25612C14.838 5.25612 14.751 5.22214 14.6858 5.15463L13.179 3.59386C13.0516 3.46196 13.0555 3.252 13.1876 3.12488C13.3196 2.99776 13.5299 3.00156 13.6573 3.13347L15.1641 4.69424C15.2914 4.82614 15.2876 5.0361 15.1555 5.16322C15.0911 5.2253 15.008 5.25612 14.925 5.25612Z" fill="#D1D1D1"/>
<path d="M16.4027 4.37561C16.3181 4.37561 16.2336 4.34362 16.1689 4.27955L14.6921 2.81861C14.5618 2.68967 14.5608 2.47963 14.69 2.34949C14.8191 2.2193 15.0294 2.21837 15.1598 2.3473L16.6365 3.80825C16.7669 3.93718 16.7678 4.14723 16.6387 4.27737C16.5737 4.34283 16.4882 4.37561 16.4027 4.37561Z" fill="#D1D1D1"/>
<path d="M9.16743 21.7191C8.42302 20.6364 6.29958 17.6619 5.14723 16.2485C3.93545 14.7622 1.93695 12.8032 0.974882 11.7917C0.609582 12.7501 0.448462 13.3827 0.277344 14.2687C0.852867 14.9605 1.8626 16.1604 3.08284 17.5516C4.42644 19.0835 5.77804 20.9496 6.47107 21.9358C7.30699 21.949 8.21066 21.8873 9.16743 21.7191Z" fill="#D1D1D1"/>
<path d="M15.0703 0.221298C16.0443 0.960452 17.6906 2.34767 19.3313 4.3601C21.7548 7.33259 22.8378 9.83745 22.8378 9.83745L22.9666 10.1084C23.385 8.99662 23.6489 7.93134 23.8044 6.95517C23.1774 5.97491 22.2744 4.63784 21.2751 3.39427C20.3523 2.24599 19.1871 1.05647 18.1967 0.105364C17.2427 0.0407804 16.1922 0.0630205 15.0703 0.221298Z" fill="#D1D1D1"/>
<path opacity="0.28" d="M23.5995 1.74735C23.5224 1.63815 23.2176 1.43024 22.7217 1.19702C22.485 4.51969 21.0202 9.81894 15.902 13.9574C8.67325 19.8024 2.07428 17.9315 0.0179388 16.8076C0.0127774 16.8056 0.00784829 16.8037 0.00268686 16.8017C-0.0345592 18.6378 0.320371 19.9787 0.760349 20.378C1.77404 21.2979 9.08365 24.4361 17.1835 17.8868C25.6115 11.0722 24.0278 2.35348 23.5995 1.74735Z" fill="#D1D1D1"/>
</svg>
