<svg width="24" height="24" viewBox="0 0 24 24" fill="none" xmlns="http://www.w3.org/2000/svg">
<path d="M12.0028 23.987C18.6297 23.987 24.0018 18.623 24.0018 12.0062C24.0018 5.38939 18.6297 0.0253906 12.0028 0.0253906C5.37601 0.0253906 0.00390625 5.38939 0.00390625 12.0062C0.00390625 18.623 5.37601 23.987 12.0028 23.987Z" fill="#3D3D3D"/>
<path d="M20.8494 3.91025C19.8766 2.84979 18.6954 1.94714 17.3274 1.27046C11.3893 -1.66675 4.19081 0.758695 1.24913 6.6879C-0.00559252 9.21688 -0.282512 11.9747 0.272539 14.5341C1.2453 15.5945 2.42652 16.4972 3.79449 17.1739C9.73265 20.1111 16.9311 17.6856 19.8728 11.7564C21.1276 9.22744 21.4044 6.46963 20.8494 3.91025Z" fill="#3D3D3D"/>
<path d="M23.8701 10.249C23.5435 9.88204 23.125 9.61091 22.6266 9.44991C20.2231 8.67346 17.855 10.5838 17.5938 10.764C16.0871 11.8039 14.5291 12.8791 11.4397 13.4086C7.70325 14.0488 4.69417 13.0041 2.73746 10.3871C1.17193 8.29322 1.93637 5.84232 2.3038 4.94775C1.95305 5.42941 1.63414 5.94296 1.3515 6.48715C1.16893 7.69535 1.2624 9.24873 2.33682 10.6857C4.69713 13.8426 8.21796 14.4672 11.5242 13.9006C14.7225 13.3525 16.3267 12.2454 17.8781 11.1747C18.1191 11.0083 20.3132 9.22768 22.4728 9.92488C23.1862 10.1554 23.6848 10.6349 23.955 11.3502L23.9825 11.3398C23.9618 10.974 23.924 10.61 23.8701 10.249Z" fill="#D1D1D1"/>
<path opacity="0.72" d="M23.1587 10.2991C23.4269 12.4335 23.0913 14.6678 22.0633 16.7398C19.2767 22.3564 12.4577 24.6541 6.8325 21.8717C5.47205 21.1988 4.30605 20.2903 3.35938 19.2202C3.35938 19.2202 9.27208 22.9318 15.8837 20.027C22.7275 17.0204 23.1587 10.2991 23.1587 10.2991Z" fill="#3D3D3D"/>
</svg>
