<svg width="48" height="48" viewBox="0 0 48 48" fill="none" xmlns="http://www.w3.org/2000/svg">
<g clip-path="url(#clip0_451_53650)">
<path d="M48 24C48 10.7452 37.2548 0 24 0C10.7452 0 0 10.7452 0 24C0 37.2548 10.7452 48 24 48C37.2548 48 48 37.2548 48 24Z" fill="#E4ECF7"/>
<path d="M13.5 31.5C15.5711 31.5 17.25 29.8211 17.25 27.75C17.25 25.6789 15.5711 24 13.5 24C11.4289 24 9.75 25.6789 9.75 27.75C9.75 29.8211 11.4289 31.5 13.5 31.5Z" fill="#836055"/>
<path d="M13.5 30.75H26.25V49.4025C26.25 49.4025 23.5178 51 19.875 51C16.2323 51 13.5 48.3923 13.5 48.3923V30.75Z" fill="#836055"/>
<path d="M26.25 40.4013C26.25 44.6418 23.625 45.0003 21.2873 44.2398C18.9503 43.4808 14.25 36.8658 14.25 32.6253C14.25 28.3848 14.838 28.5003 18.3098 28.5003C28.125 28.8753 26.25 36.1608 26.25 40.4013Z" fill="#553329"/>
<path d="M34.4158 27.075C34.4158 33.7665 31.4998 41.25 26.6248 42.375C19.4998 41.625 13.0723 33.7665 13.0723 27.075C11.2513 19.125 11.6263 9.75 24.0013 9.75C36.3763 9.75 34.4158 20.3827 34.4158 27.075Z" fill="#836055"/>
<path d="M28.5 30.75H27.75C27.3358 30.75 27 31.0858 27 31.5C27 31.9142 27.3358 32.25 27.75 32.25H28.5C28.9142 32.25 29.25 31.9142 29.25 31.5C29.25 31.0858 28.9142 30.75 28.5 30.75Z" fill="#68463C"/>
<path d="M28.5 45H12C8.27208 45 5.25 48.0221 5.25 51.75V55.5C5.25 59.2279 8.27208 62.25 12 62.25H28.5C32.2279 62.25 35.25 59.2279 35.25 55.5V51.75C35.25 48.0221 32.2279 45 28.5 45Z" fill="#E05A33"/>
<path d="M0.000586748 7.49848C5.99834 1.50148 9.75134 9.74923 9.75134 9.74923L8.24984 15.7492C8.24984 15.7492 6.74984 17.6242 8.24984 23.2492C9.74984 28.8742 6.37484 31.8742 6.37484 31.8742C6.37484 31.8742 3.74984 33.75 1.49984 32.25C-0.750163 30.75 -1.04791 29.3085 -0.750163 26.625C-0.375163 23.25 0.749836 24.3735 0.749836 20.9985C0.749836 17.6235 -5.99791 13.4955 -0.000163317 7.49848H0.000586748Z" fill="#1B0B47"/>
<path d="M9.77236 9.8855L13.9034 11.672L11.2244 17.867L7.09411 16.082C7.09411 16.082 6.37411 14.6247 7.49911 12.3755C8.62186 10.1255 9.77311 9.8855 9.77311 9.8855H9.77236Z" fill="#FF6C98"/>
<path fill-rule="evenodd" clip-rule="evenodd" d="M13.5003 30.7499L12.508 24.1326C11.6318 24.3722 10.8723 24.9217 10.3706 25.679C9.86895 26.4364 9.65927 27.3501 9.78053 28.2504C9.90178 29.1507 10.3457 29.9764 11.0299 30.574C11.714 31.1717 12.5919 31.5007 13.5003 31.4999V37.7249C12.3114 36.6702 11.2801 35.4502 10.438 34.1024C9.16304 32.0744 8.27204 29.7494 7.82654 27.2826C7.38129 24.8091 7.39146 22.275 7.85654 19.8051C8.32154 17.3429 9.23129 15.0276 10.5235 13.0139C11.815 11.0009 13.4598 9.33661 15.346 8.13436C17.2315 6.93136 19.315 6.21811 21.4563 6.04261C21.9222 6.00448 22.39 5.99196 22.8573 6.00511C24.8522 5.95235 26.8381 6.28992 28.7035 6.99886C30.4323 7.65886 32.0035 8.62561 33.3265 9.84436C34.6334 11.0403 35.6843 12.4887 36.4158 14.1021C36.9721 15.3356 37.3208 16.6526 37.4478 17.9999H37.5003V21.2144C37.5003 21.2144 37.2535 21.3284 36.7518 21.4889V27.8549C36.7518 27.8549 36.7518 28.9079 35.6268 29.6969C35.2368 29.9706 34.7133 30.1806 34.1943 30.3389C34.3414 29.2568 34.4158 28.1661 34.417 27.0741C34.417 26.2986 34.4433 25.4699 34.4703 24.6111C34.4973 23.7726 34.525 22.9049 34.5303 22.0304C33.1413 22.2846 31.255 22.4999 28.8468 22.4999C22.9608 22.4999 19.5003 21.2144 19.5003 21.2144V20.4651C18.9903 21.2631 18.4383 22.2276 18.0003 23.2499C17.4378 24.5624 17.4378 25.9079 17.4378 27.0381C17.4378 28.1691 17.4378 29.0856 16.8753 29.5394C15.7503 30.4469 13.5003 30.7499 13.5003 30.7499Z" fill="#1B0B47"/>
<path d="M24.75 28.125C24.75 27.5037 24.2463 27 23.625 27C23.0037 27 22.5 27.5037 22.5 28.125V28.875C22.5 29.4963 23.0037 30 23.625 30C24.2463 30 24.75 29.4963 24.75 28.875V28.125Z" fill="#1B0B47"/>
<path d="M32.25 28.125C32.25 27.5037 31.7463 27 31.125 27C30.5037 27 30 27.5037 30 28.125V28.875C30 29.4963 30.5037 30 31.125 30C31.7463 30 32.25 29.4963 32.25 28.875V28.125Z" fill="#1B0B47"/>
<path d="M20.625 29.25H19.125C18.5037 29.25 18 29.7537 18 30.375C18 30.9963 18.5037 31.5 19.125 31.5H20.625C21.2463 31.5 21.75 30.9963 21.75 30.375C21.75 29.7537 21.2463 29.25 20.625 29.25Z" fill="#FF859B"/>
<path d="M34.125 29.25H33.375C32.7537 29.25 32.25 29.7537 32.25 30.375C32.25 30.9963 32.7537 31.5 33.375 31.5H34.125C34.7463 31.5 35.25 30.9963 35.25 30.375C35.25 29.7537 34.7463 29.25 34.125 29.25Z" fill="#FF859B"/>
</g>
<defs>
<clipPath id="clip0_451_53650">
<rect width="48" height="48" rx="24" fill="white"/>
</clipPath>
</defs>
</svg>
