<?xml version="1.0" encoding="iso-8859-1"?>
<!-- Uploaded to: SVG Repo, www.svgrepo.com, Generator: SVG Repo Mixer Tools -->
<svg fill="#000000" version="1.1" id="Layer_1" xmlns="http://www.w3.org/2000/svg" xmlns:xlink="http://www.w3.org/1999/xlink" 
	 viewBox="0 0 512 512" xml:space="preserve">
<g>
	<g>
		<path d="M461.846,200.564c-53.642,0-60.19-50.375-60.686-55.123V0h-73.915v139.266c-0.312,1.746-1.94,9.353-7.651,16.964
			c-8.928,11.904-23.221,17.939-42.482,17.939h-42.223c-42.754,0-49.433-30.852-50.122-34.887V0h-73.925v145.431
			c-0.221,2.026-1.875,14.837-9.457,27.698c-10.732,18.204-27.968,27.434-51.23,27.434h-7.931V512h427.553V200.564H461.846z
			 M453.915,374.744h-118.74v15.862h118.74v105.532H58.085V390.606h118.75v-15.862H58.085v-68.596h118.75v-15.862H58.085V216.11
			c31.329-2.549,48.198-20.057,56.963-34.925c10.04-17.031,11.566-33.986,11.627-34.699l0.027-0.332V15.862h42.202v124.51
			l0.061,0.49c0.065,0.516,1.685,12.784,10.759,24.887c8.308,11.079,24.622,24.284,55.163,24.284h42.223
			c30.546,0,46.862-13.205,55.172-24.284c9.077-12.101,10.697-24.371,10.761-24.887l0.061-0.49V15.862h42.192V145.82l0.028,0.665
			c0.06,0.713,1.586,17.668,11.626,34.699c8.765,14.868,25.634,32.376,56.963,34.925v74.177H335.176v15.862h118.74V374.744z"/>
	</g>
</g>
<g>
	<g>
		<polygon points="263.936,422.245 263.936,237.511 219.059,237.511 219.059,253.372 248.075,253.372 248.075,422.245 
			213.782,422.245 213.782,438.106 298.229,438.106 298.229,422.245 		"/>
	</g>
</g>
<g>
	<g>
		<rect x="71.271" y="332.521" width="21.106" height="15.862"/>
	</g>
</g>
<g>
	<g>
		<rect x="113.495" y="332.521" width="21.117" height="15.862"/>
	</g>
</g>
<g>
	<g>
		<rect x="155.718" y="332.521" width="21.117" height="15.862"/>
	</g>
</g>
<g>
	<g>
		<rect x="335.176" y="332.521" width="21.106" height="15.862"/>
	</g>
</g>
<g>
	<g>
		<rect x="377.399" y="332.521" width="21.106" height="15.862"/>
	</g>
</g>
<g>
	<g>
		<rect x="419.622" y="332.521" width="21.106" height="15.862"/>
	</g>
</g>
</svg>