<svg width="26" height="26" viewBox="0 0 26 26" fill="none" xmlns="http://www.w3.org/2000/svg">
<path d="M12.9999 25.4548C19.6273 25.4548 24.9999 25.1638 24.9999 24.8048C24.9999 24.4458 19.6273 24.1548 12.9999 24.1548C6.37255 24.1548 1 24.4458 1 24.8048C1 25.1638 6.37255 25.4548 12.9999 25.4548Z" fill="#DDDDDD"/>
<path d="M12.9999 25.0048C19.6273 25.0048 24.9999 19.6322 24.9999 13.0048C24.9999 6.37744 19.6273 1.00488 12.9999 1.00488C6.37255 1.00488 1 6.37744 1 13.0048C1 19.6322 6.37255 25.0048 12.9999 25.0048Z" fill="#DFE8EF"/>
<path d="M18.9995 2.61449C18.9995 2.61449 18.0891 3.21448 16.7319 5.11792C16.3181 5.69307 15.867 6.38412 15.387 7.21586C12.9044 11.5151 12.9995 13.0048 12.9995 13.0048C12.9995 13.0048 11.9733 13.6875 8.05469 13.8117C8.36089 6.49582 12.5816 2.39104 14.2119 1.06689C15.9415 1.24069 17.5636 1.78279 18.9995 2.61449Z" fill="#3D3D3D"/>
<path d="M25.0019 13.0048C25.0019 14.1592 24.8405 15.2724 24.5343 16.3275C24.0833 13.9813 22.4571 8.78412 16.7344 5.11794C18.0916 3.2145 19.002 2.6145 19.002 2.6145C22.5895 4.68349 25.0019 8.56067 25.0019 13.0048Z" fill="#D1D1D1"/>
<path d="M10.1115 1.35645C9.31746 2.04544 8.15796 3.20644 7.08197 4.86993C6.00647 6.53142 5.01448 8.69391 4.55298 11.3869C4.42648 12.1234 4.33998 12.8999 4.30198 13.7164C1.97649 13.4934 1 13.0049 1 13.0049C1 7.37341 4.87698 2.64744 10.1115 1.35645Z" fill="#D1D1D1"/>
<path d="M16.1696 16.8821C9.68136 20.2752 4.01653 18.6739 2.05514 17.9249C1.37655 16.4228 1 14.7594 1 13.0049C1 13.0049 1.97655 13.4931 4.30203 13.7166C5.00548 13.7869 5.83307 13.8324 6.79307 13.8324C7.24412 13.8324 7.66617 13.8241 8.05511 13.8117C11.9737 13.6876 12.9999 13.0049 12.9999 13.0049C12.9999 13.0049 14.1047 13.5511 16.1696 16.8821Z" fill="#3D3D3D"/>
<path d="M18.9991 23.3951C17.2363 24.4213 15.1839 25.0048 12.9991 25.0048C9.606 25.0048 6.53982 23.5937 4.36328 21.3344C6.62257 22.1165 11.9356 23.2999 17.9646 20.1799C18.9329 22.3068 18.9991 23.3951 18.9991 23.3951Z" fill="#D1D1D1"/>
<path d="M22.7328 20.0227C21.7439 21.3923 20.4694 22.551 19.0004 23.3951C19.0004 23.3951 18.9342 22.3068 17.9659 20.1799C17.6763 19.5385 17.2997 18.7978 16.8198 17.9661C16.5922 17.5771 16.377 17.213 16.1701 16.882C14.1053 13.551 13.0005 13.0048 13.0005 13.0048C13.0005 13.0048 12.9219 11.7634 14.7922 8.28345C20.9577 12.231 22.3977 17.9413 22.7328 20.0227Z" fill="#3D3D3D"/>
<path d="M14.1485 1.05938C13.9695 1.20138 13.762 1.40488 13.6115 1.55888C11.896 1.60088 10.2666 1.98788 8.78906 2.65287L10.0431 1.37238C10.9886 1.13238 11.9795 1.00488 13 1.00488C13.3875 1.00488 13.7705 1.02338 14.1485 1.05938Z" fill="white"/>
<path d="M1 13.0048C1 7.40928 4.82998 2.70781 10.0115 1.38031C10.022 1.37731 10.0325 1.37431 10.043 1.37231L8.78896 2.65281C8.78796 2.65331 8.78696 2.65381 8.78646 2.65431C4.69303 4.4975 1.7689 8.47613 1.43245 13.1713L1 13.0048Z" fill="#D1D1D1"/>
<path d="M1.43245 13.1714C1.41095 13.4714 1.4 13.7744 1.4 14.0799C1.4 15.2719 1.5665 16.4249 1.8775 17.5169C1.3115 16.1244 1 14.6009 1 13.0049L1.43245 13.1714Z" fill="#D1D1D1"/>
<path d="M19.1193 2.67882C17.5378 1.95682 15.7793 1.55482 13.9268 1.55482C13.8353 1.55482 13.7443 1.55582 13.6533 1.55782C13.6403 1.55782 13.6268 1.55832 13.6133 1.55882C13.7638 1.40482 13.9713 1.20133 14.1503 1.05933C14.1698 1.06083 14.1898 1.06283 14.2098 1.06533C15.9898 1.24283 17.6553 1.80932 19.1193 2.67882Z" fill="#D1D1D1"/>
<path d="M25.0011 13.0048C25.0011 14.1578 24.8386 15.2723 24.5351 16.3278C24.5346 16.3273 24.5341 16.3273 24.5336 16.3273C24.3496 15.3713 23.9706 13.9413 23.1986 12.3343C23.2336 11.9623 23.2511 11.5858 23.2511 11.2048C23.2511 8.40386 22.2916 5.82738 20.6836 3.78589C23.3221 5.98688 25.0011 9.29986 25.0011 13.0048Z" fill="#D1D1D1"/>
<path d="M24.535 16.3277C24.1485 17.6717 23.5335 18.9192 22.7345 20.0247C22.7345 20.0242 22.734 20.0232 22.7335 20.0227C22.619 19.3102 22.3745 18.1727 21.8555 16.8262V16.8257C22.5795 15.4632 23.048 13.9452 23.1985 12.3342C23.9705 13.9412 24.3495 15.3712 24.5335 16.3272C24.534 16.3272 24.5345 16.3272 24.535 16.3277Z" fill="#B8C8D3"/>
<path d="M22.7316 20.0247C21.7421 21.3941 20.4706 22.5471 19.0022 23.3971C19.0007 23.3966 18.9482 22.4546 18.2852 20.9262C19.7646 19.8532 20.9901 18.4502 21.8526 16.8262C22.3716 18.1727 22.6161 19.3102 22.7306 20.0227C22.7311 20.0232 22.7316 20.0242 22.7316 20.0247Z" fill="#D1D1D1"/>
<path d="M18.9957 23.4018C17.2317 24.4213 15.1837 25.0047 12.9992 25.0047C9.60975 25.0047 6.54827 23.5993 4.36578 21.3393C4.36478 21.3378 4.36428 21.3358 4.36328 21.3343C4.62928 21.4263 4.93728 21.5238 5.28478 21.6198C7.04227 22.6283 9.07826 23.2048 11.2492 23.2048C13.8782 23.2048 16.3092 22.3598 18.2862 20.9263C18.4663 21.3706 18.622 21.8246 18.7626 22.283C18.9992 23.0548 18.9972 23.3998 18.9957 23.4018Z" fill="#D1D1D1"/>
<path d="M8.21267 5.89635C7.27117 6.62385 6.35418 7.67784 5.61068 8.96483C5.14418 9.77283 4.79119 10.5948 4.55469 11.3868C5.01619 8.69384 6.00818 6.53135 7.08367 4.86986C7.39567 4.83636 7.68517 4.88636 7.93517 5.03086C8.06767 5.10736 8.18267 5.20635 8.28017 5.32535C8.42367 5.49935 8.39167 5.75835 8.21267 5.89635Z" fill="white"/>
<path d="M7.08214 4.86987C6.00665 6.53136 5.01465 8.69385 4.55316 11.3868C4.50316 11.5513 4.45916 11.7143 4.41966 11.8758C4.35766 12.1323 4.06716 12.2653 3.83816 12.1343C3.83666 12.1338 3.83516 12.1328 3.83366 12.1318C2.76967 11.5178 2.82467 9.42985 3.95666 7.46886C4.82266 5.96887 6.06815 4.97787 7.08214 4.86987Z" fill="#D1D1D1"/>
<path d="M8.78645 4.07188C8.8706 4.54773 9.5215 4.83047 9.99734 4.74632C10.4732 4.66217 10.9746 4.09953 10.8905 3.62368C10.8064 3.14783 10.1685 2.93893 9.6927 3.02308C9.2168 3.10723 8.7023 3.59603 8.78645 4.07188Z" fill="white"/>
<path d="M16.1691 16.8821C9.6809 20.2752 4.01608 18.6738 2.05469 17.9248" stroke="#1D2033" stroke-width="0.5" stroke-miterlimit="10"/>
<path d="M4.36328 21.3344C6.62257 22.1165 11.9356 23.2999 17.9646 20.1799" stroke="#1D2033" stroke-width="0.5" stroke-miterlimit="10"/>
<path d="M8.05469 13.8117C8.36089 6.49582 12.5816 2.39104 14.2119 1.06689" stroke="#1D2033" stroke-width="0.5" stroke-miterlimit="10"/>
<path d="M10.1104 1.35669C8.30626 2.92083 4.61523 6.92631 4.30078 13.7166" stroke="#1D2033" stroke-width="0.5" stroke-miterlimit="10"/>
<path d="M12.9999 25.0048C19.6273 25.0048 24.9999 19.6322 24.9999 13.0048C24.9999 6.37744 19.6273 1.00488 12.9999 1.00488C6.37255 1.00488 1 6.37744 1 13.0048C1 19.6322 6.37255 25.0048 12.9999 25.0048Z" stroke="#1D2033" stroke-width="0.5" stroke-miterlimit="10"/>
<path d="M19.0005 2.6145C19.0005 2.6145 18.0901 3.2145 16.7329 5.11794C16.3191 5.69309 15.868 6.38413 15.388 7.21588C12.9053 11.5152 13.0005 13.0048 13.0005 13.0048" stroke="#1D2033" stroke-width="0.5" stroke-miterlimit="10"/>
<path d="M24.5343 16.3275C24.0833 13.9813 22.4571 8.7841 16.7344 5.11792" stroke="#1D2033" stroke-width="0.5" stroke-miterlimit="10"/>
<path d="M14.793 8.28345C20.9584 12.231 22.3984 17.9413 22.7336 20.0227" stroke="#1D2033" stroke-width="0.5" stroke-miterlimit="10"/>
<path d="M12.9999 13.0049C12.9999 13.0049 11.9737 13.6876 8.05511 13.8118C6.80357 13.8517 5.54918 13.8364 4.30203 13.7166C1.97654 13.4931 1 13.0049 1 13.0049" stroke="#1D2033" stroke-width="0.5" stroke-miterlimit="10"/>
<path d="M19 23.3952C19 23.3952 18.9338 22.3069 17.9655 20.18C17.4466 19.0403 16.8331 17.9436 16.1696 16.8821C14.1048 13.5511 13 13.0049 13 13.0049" stroke="#1D2033" stroke-width="0.5" stroke-miterlimit="10"/>
</svg>
