<svg width="174" height="155" viewBox="0 0 174 155" fill="none" xmlns="http://www.w3.org/2000/svg">
<g opacity="0.7">
<path d="M142.433 90.7922L161.262 135.058C162.249 134.631 163.252 134.193 164.27 133.743L145.553 89.7426C144.496 90.0663 143.455 90.4175 142.433 90.7929V90.7922Z" fill="white"/>
</g>
<path d="M123.683 21.0884C123.683 21.0884 123.336 34.6258 126.36 39.9397C129.385 45.2535 136.912 57.3357 126.36 61.4086C115.809 65.4814 98.8356 80.143 95.9185 77.6993C93.0014 75.2556 92.2318 67.4658 90.5174 64.5682C88.8036 61.6698 79.1731 47.3171 73.6652 41.2169C68.1573 35.1167 66.5537 29.4161 66.5537 29.4161C66.5537 29.4161 76.1204 14.2965 103.409 6.10784C103.409 6.10784 112.223 2.38889 120.646 3.4573C124.362 9.32314 123.683 21.0884 123.683 21.0884Z" fill="#3D3D3D"/>
<path d="M95.3555 15.7994C93.5954 16.5011 90.7635 17.4003 88.0364 18.0799C90.6353 17.534 93.222 16.6771 95.3555 15.7994Z" fill="url(#paint0_linear_680_4291)"/>
<path d="M99.6822 9.52328C99.6822 9.52328 105.65 9.74153 103.515 14.6592C101.38 19.5761 93.6928 25.8483 93.6928 25.8483C93.6928 25.8483 81.6985 18.1914 83.9226 14.8432C86.1468 11.4949 99.6822 9.52396 99.6822 9.52396V9.52328Z" fill="#EAEDF3"/>
<path d="M83.6516 16.1535C83.174 14.1959 87.1992 11.5326 92.642 10.2048C98.0848 8.87694 102.884 9.38745 103.362 11.345C103.839 13.3026 99.8143 15.9659 94.3714 17.2937C88.9286 18.6216 84.1291 18.1111 83.6516 16.1535Z" fill="url(#paint1_linear_680_4291)"/>
<path d="M84.1779 15.8887C83.9684 15.0298 92.0852 7.45896 91.5849 6.36772L91.8119 4.06638C91.8898 4.38535 91.9825 4.6909 92.0959 4.99981C92.5734 6.30057 93.1348 7.68057 94.0938 8.70466C95.0111 9.68375 96.1755 10.1216 97.434 10.2861C100.366 10.0363 102.479 10.4077 102.713 11.368C103.059 12.7842 99.1893 14.9445 94.0709 16.1929C90.9436 16.9558 88.0755 17.2009 86.2368 16.9531C85.8245 16.9417 85.4229 16.8786 85.0737 16.6986C85.0415 16.6818 85.0106 16.6637 84.9824 16.6442C84.5365 16.4568 84.2545 16.205 84.1772 15.8887H84.1779Z" fill="#FCCFB2"/>
<path d="M85.9289 47.7235C96.9548 46.0662 107.339 41.6951 116.23 34.9677C115.575 32.8564 114.919 30.7451 114.264 28.6345C105.023 35.6252 94.2317 40.1681 82.7733 41.8906C83.825 43.8347 84.8766 45.7794 85.9282 47.7235H85.9289Z" fill="#D1D1D1"/>
<path d="M90.5978 56.3567C100.984 54.7954 110.765 50.6783 119.141 44.3417C118.485 42.2304 117.83 40.1191 117.174 38.0084C108.448 44.6089 98.2607 48.8973 87.4423 50.5238C88.4939 52.4686 89.5455 54.4126 90.5971 56.3567H90.5978Z" fill="#D1D1D1"/>
<path d="M125.268 101.006C125.268 101.006 127.932 102.715 131.65 105.056C132.475 105.574 133.352 106.125 134.266 106.695C141.524 111.226 150.965 116.983 153.754 118.022C158.471 119.78 160.043 113.675 160.043 113.675C160.043 113.675 152.274 107.479 149.87 101.098C149.082 99.0038 147.532 97.1725 145.8 95.6522C145.031 94.9786 144.228 94.3682 143.444 93.8249C140.588 91.8459 137.939 90.7399 137.939 90.7399L125.269 101.006H125.268Z" fill="#3D3D3D"/>
<path d="M128.54 71.8423C128.91 71.8423 146.914 89.7225 143.707 91.079C140.502 92.4355 132.052 106.986 124.13 102.424C116.208 97.8615 108.933 85.0863 108.933 85.0863L128.54 71.8423H128.54Z" fill="#3D3D3D"/>
<path d="M165.036 137.688C164.594 138.306 163.248 140.186 161.673 139.763C159.807 139.263 159.381 135.84 159.314 135.159C159.275 134.753 159.571 134.392 159.978 134.352C160.384 134.312 160.745 134.609 160.786 135.015C160.929 136.463 161.486 138.183 162.055 138.335C162.326 138.408 162.954 138.056 163.834 136.828C167.391 131.861 171.881 116.531 171.926 116.376C172.039 115.985 172.45 115.759 172.842 115.873C173.234 115.988 173.459 116.398 173.345 116.79C173.159 117.43 168.74 132.517 165.036 137.689V137.688Z" fill="#AABBCC"/>
<path d="M166.779 133.057C166.572 133.347 166.18 133.451 165.851 133.289L163.389 132.071C163.023 131.89 162.873 131.447 163.054 131.081C163.235 130.714 163.678 130.565 164.044 130.746L166.506 131.963C166.872 132.145 167.022 132.588 166.841 132.954C166.823 132.991 166.802 133.025 166.78 133.057H166.779Z" fill="#AABBCC"/>
<path d="M171.189 121.308C170.982 121.598 170.59 121.702 170.261 121.54L167.799 120.322C167.433 120.141 167.283 119.698 167.464 119.332C167.645 118.965 168.089 118.816 168.455 118.997L170.916 120.214C171.282 120.395 171.432 120.839 171.252 121.205C171.233 121.242 171.213 121.276 171.19 121.308H171.189Z" fill="#AABBCC"/>
<path d="M159.511 113.236C159.511 113.236 163.679 114.57 165.159 114.2C166.639 113.83 171.324 116.296 168.858 120.057C166.392 123.818 167.81 123.818 165.159 129.059C162.508 134.3 159.918 138.986 158.006 135.533C156.095 132.08 155.841 119.108 154.426 118.226C156.417 118.192 159.511 113.236 159.511 113.236Z" fill="#3D3D3D"/>
<path d="M158.807 121.743C158.856 121.701 158.895 121.646 158.918 121.581C158.983 121.387 158.881 121.177 158.688 121.111C158.576 121.072 155.924 120.181 154.849 121.656C154.729 121.821 154.765 122.052 154.93 122.172C155.095 122.293 155.326 122.258 155.447 122.091C156.072 121.234 157.825 121.598 158.448 121.811C158.576 121.855 158.711 121.824 158.807 121.743Z" fill="white"/>
<path d="M158.904 123.622C158.958 123.577 158.998 123.517 159.02 123.445C159.078 123.249 158.966 123.043 158.77 122.986C158.674 122.957 156.406 122.307 155.339 123.771C155.218 123.936 155.255 124.167 155.42 124.288C155.585 124.408 155.815 124.373 155.937 124.206C156.701 123.158 158.543 123.689 158.561 123.695C158.685 123.732 158.813 123.7 158.905 123.622H158.904Z" fill="white"/>
<path d="M158.901 125.727C158.94 125.694 158.973 125.651 158.996 125.602C159.083 125.418 159.004 125.199 158.82 125.112C158.181 124.809 156.742 124.554 155.867 125.753C155.747 125.918 155.783 126.149 155.949 126.269C156.114 126.39 156.344 126.355 156.466 126.188C157.195 125.187 158.451 125.756 158.504 125.78C158.639 125.844 158.794 125.817 158.901 125.727Z" fill="white"/>
<path d="M159.1 127.619C159.146 127.58 159.183 127.53 159.206 127.47C159.279 127.28 159.184 127.066 158.994 126.993C158.908 126.959 156.868 126.192 155.79 127.674C155.669 127.839 155.706 128.07 155.871 128.191C156.036 128.311 156.268 128.275 156.387 128.11C157.131 127.089 158.712 127.677 158.728 127.683C158.859 127.733 159 127.704 159.1 127.619H159.1Z" fill="white"/>
<path d="M131.65 105.057C132.475 105.575 133.352 106.126 134.266 106.696C137.984 103.4 143.81 97.6358 145.801 95.6528C145.031 94.9793 144.229 94.3688 143.444 93.8256C141.11 96.145 134.98 102.186 131.651 105.057H131.65Z" fill="#D1D1D1"/>
<path d="M100.457 95.1606C100.457 95.1606 101.038 96.7918 101.93 99.2892C102.259 100.218 102.633 101.265 103.036 102.393C105.659 109.748 109.502 120.516 110.682 123.824C112.532 129.003 114.936 138.622 120.597 136.031C124.629 114.319 121.825 107.339 121.426 105.9C121.393 105.782 121.377 105.7 121.381 105.652C121.44 105.046 120.612 104.198 121.096 102.349C121.133 102.216 121.178 102.075 121.226 101.931C121.966 99.7814 119.809 95.8933 119.809 95.8933C100.724 84.2402 100.458 95.1606 100.458 95.1606H100.457Z" fill="#3D3D3D"/>
<path d="M100.23 95.6146C100.301 95.4574 100.377 95.305 100.459 95.1613C102.215 92.0172 106.158 92.5437 110.155 94.2272C115.729 96.5728 121.409 101.164 121.409 101.164C121.409 101.164 118.819 111.431 126.405 86.6436C130.717 72.5494 130.901 63.7792 130.261 58.8347C130.065 57.3412 129.147 56.0405 127.806 55.3568C126.468 54.6725 124.876 54.6913 123.554 55.4059C120.608 57.0021 117.249 59.4512 113.953 62.142C105.658 68.9138 97.7518 77.2032 97.7518 77.2032C97.7518 77.2032 96.4376 84.0562 100.23 95.6146Z" fill="#3D3D3D"/>
<path d="M104.258 154.863C103.442 154.759 100.961 154.442 100.554 152.725C100.073 150.692 103.113 148.528 103.727 148.114C104.094 147.868 104.59 147.965 104.837 148.331C105.083 148.697 104.986 149.194 104.62 149.441C103.315 150.322 101.963 151.736 102.111 152.356C102.181 152.651 102.838 153.069 104.46 153.276C111.017 154.112 127.921 150.512 128.091 150.475C128.522 150.382 128.948 150.657 129.041 151.09C129.133 151.522 128.859 151.947 128.426 152.039C127.721 152.191 111.084 155.733 104.258 154.863Z" fill="#AABBCC"/>
<path d="M109.563 154.141C109.181 154.093 108.88 153.773 108.866 153.376L108.761 150.407C108.745 149.966 109.09 149.595 109.532 149.58C109.975 149.564 110.343 149.909 110.359 150.351L110.464 153.32C110.48 153.761 110.135 154.132 109.693 154.147C109.649 154.149 109.605 154.147 109.563 154.141Z" fill="#AABBCC"/>
<path d="M123.016 152.309C122.634 152.261 122.333 151.941 122.319 151.545L122.214 148.575C122.198 148.134 122.544 147.763 122.985 147.748C123.427 147.732 123.797 148.077 123.812 148.519L123.917 151.488C123.933 151.929 123.588 152.3 123.147 152.316C123.102 152.317 123.059 152.316 123.016 152.309Z" fill="#AABBCC"/>
<path d="M120.877 134.463C120.877 134.463 123.72 135.8 124.09 139.5C124.46 143.199 130.425 148.286 123.627 149.072C116.829 149.858 99.4427 150.552 101.199 148.239C102.957 145.927 109.616 144.17 110.957 140.979C112.298 137.789 114.832 133.85 114.832 133.85L120.876 134.463H120.877Z" fill="#3D3D3D"/>
<path d="M115.431 139.991C115.495 139.991 115.56 139.975 115.62 139.939C115.796 139.834 115.853 139.608 115.749 139.432C115.688 139.33 114.242 136.935 112.468 137.364C112.269 137.413 112.148 137.612 112.196 137.811C112.244 138.01 112.443 138.132 112.643 138.084C113.674 137.834 114.775 139.246 115.113 139.811C115.182 139.927 115.305 139.991 115.432 139.991H115.431Z" fill="white"/>
<path d="M114.291 141.488C114.36 141.488 114.43 141.469 114.493 141.428C114.664 141.316 114.712 141.087 114.599 140.916C114.544 140.832 113.235 138.869 111.474 139.296C111.275 139.344 111.154 139.544 111.202 139.742C111.251 139.941 111.449 140.063 111.649 140.015C112.909 139.709 113.97 141.306 113.981 141.322C114.052 141.43 114.17 141.489 114.291 141.489V141.488Z" fill="white"/>
<path d="M112.927 143.091C112.979 143.091 113.031 143.08 113.081 143.057C113.266 142.972 113.348 142.754 113.264 142.569C112.972 141.925 112.04 140.799 110.597 141.148C110.398 141.197 110.277 141.396 110.325 141.595C110.374 141.794 110.572 141.916 110.772 141.868C111.976 141.576 112.566 142.822 112.59 142.876C112.653 143.011 112.787 143.091 112.927 143.091V143.091Z" fill="white"/>
<path d="M111.857 144.663C111.916 144.663 111.978 144.648 112.034 144.617C112.213 144.519 112.279 144.295 112.182 144.116C112.137 144.035 111.078 142.131 109.297 142.563C109.098 142.612 108.976 142.811 109.024 143.01C109.073 143.209 109.273 143.331 109.471 143.283C110.698 142.985 111.524 144.456 111.532 144.471C111.599 144.593 111.726 144.663 111.857 144.663Z" fill="white"/>
<path d="M101.926 99.2892C102.255 100.218 102.629 101.265 103.032 102.393C105.799 98.1644 117.46 103.61 121.422 105.9C121.389 105.782 121.374 105.7 121.378 105.652C121.437 105.046 120.608 104.198 121.093 102.349C116.798 100.11 106.78 95.5971 101.926 99.2892Z" fill="#D1D1D1"/>
<path d="M113.44 3.72926C113.901 3.47139 114.41 3.32903 114.938 3.31224C116.952 3.24912 122.603 3.12354 127.547 3.4996C128.554 3.57817 129.535 3.67621 130.447 3.79843C131.633 3.95826 133.265 4.17852 135.163 4.46661C143.61 5.74521 157.286 8.38433 160.002 13.2422C163.325 19.1886 157.205 24.434 149.86 24.26C142.516 24.0834 128.405 22.8371 122.459 23.5321C116.619 24.2151 100.43 10.9946 113.44 3.72926Z" fill="#3D3D3D"/>
<path d="M63.4551 48.3789C64.359 55.3487 67.7422 61.9384 75.3963 64.7132C90.9383 70.3474 88.9398 53.5758 88.9398 53.5758C88.9398 53.5758 84.2726 52.2946 83.3003 46.465C83.2512 46.1769 83.1673 45.8734 83.0505 45.5584C80.8022 39.5469 66.5939 29.3704 66.5939 29.3704C65.0628 32.1103 63.811 36.251 63.3712 40.7744C63.1294 43.2477 63.1294 45.8384 63.4551 48.3795V48.3789Z" fill="#3D3D3D"/>
<path d="M2.52058 101.46L8.96663 104.094L10.1613 104.583L24.3696 110.39C24.7745 110.556 25.1868 110.692 25.6079 110.797C25.9745 110.895 26.3439 110.966 26.7186 111.017C29.0294 111.337 31.4455 110.829 33.5065 109.543L47.0036 100.431L47.0687 100.387L47.0822 100.379L51.1953 97.5987L48.7704 94.6803L45.8707 96.0348L45.5202 96.1187H45.5175L44.9581 96.5183L44.9501 96.582L33.8966 102.331C31.9498 103.146 29.7748 103.219 27.8958 102.391L21.4934 99.6348H21.4907L21.48 99.5811L7.58662 93.407C6.764 93.0457 5.86818 92.8926 4.97705 92.9846C4.9502 92.9846 4.92266 92.9813 4.8958 92.9846C4.39618 93.039 3.89925 93.166 3.4191 93.3647L2.7892 93.6239C1.29839 94.2458 0.242073 95.605 0.0386009 97.1717C-0.205837 99.015 0.804146 100.758 2.52058 101.461V101.46Z" fill="#455A64"/>
<path d="M171.565 16.6058C171.973 16.6878 172.325 16.9268 172.544 17.2713L173.369 18.5687C173.588 18.9132 173.656 19.3343 173.557 19.7392C173.458 20.1441 173.2 20.4994 172.842 20.727L47.0024 100.431L44.9824 96.6909L170.368 16.8335C170.726 16.6052 171.157 16.5232 171.565 16.6052V16.6058Z" fill="#455A64"/>
<g style="mix-blend-mode:soft-light" opacity="0.5">
<path d="M4.9753 92.9726L8.9642 104.094L10.1589 104.583L24.3672 110.39C24.7721 110.556 25.1844 110.692 25.6055 110.797L21.4782 99.5321L7.58487 93.3822C6.76225 93.0209 5.86643 92.8799 4.9753 92.9719V92.9726Z" fill="white"/>
</g>
<path d="M88.4825 53.4852C88.4825 53.4852 76.1786 63.906 80.6564 66.9447C80.6564 66.9447 81.4414 67.1979 81.9692 67.1556C82.4971 67.1133 91.8441 75.9963 96.655 72.7683C101.466 69.5402 111.188 65.8051 104.745 62.6402C98.3016 59.4753 96.6134 59.6015 95.9378 59.1798C95.2629 58.7581 93.4478 57.0698 91.7602 56.732C90.072 56.3943 90.6072 52.77 88.4831 53.4852H88.4825Z" fill="#3D3D3D"/>
<path d="M162.328 16.5643C162.328 16.5643 162.034 9.39299 159.472 11.4734C156.849 13.6028 148.143 20.7023 149.914 23.0896C151.662 25.446 153.409 23.5966 153.881 24.7818C154.352 25.9637 156.784 29.9345 157.248 30.3287C157.711 30.7216 155.838 31.9377 156.396 33.3331C156.951 34.7232 169.83 32.7355 169.28 24.9007C169.28 24.9007 169.918 19.4902 162.328 16.5636V16.5643Z" fill="#3D3D3D"/>
<g style="mix-blend-mode:multiply" opacity="0.3">
<path d="M158.188 31.1835C158.202 31.1822 158.216 31.1801 158.23 31.1768C160.072 30.7322 168.291 25.7535 168.627 25.5493C168.751 25.4735 168.801 25.3069 168.739 25.176C168.676 25.045 168.525 25 168.4 25.0752C168.318 25.1243 159.907 30.197 158.149 30.6167C157.998 30.653 157.893 30.8074 157.915 30.9626C157.935 31.1029 158.053 31.1949 158.188 31.1835H158.188Z" fill="url(#paint2_linear_680_4291)"/>
<path d="M160.409 32.9819C160.482 32.9752 160.554 32.9376 160.608 32.8724C161.834 31.3776 161.229 29.5987 161.203 29.5235C161.153 29.3805 160.998 29.3167 160.858 29.3805C160.717 29.4443 160.644 29.6121 160.694 29.7559C160.718 29.8237 161.212 31.3057 160.211 32.5232C160.108 32.6481 160.115 32.8274 160.224 32.9235C160.276 32.9691 160.342 32.9879 160.409 32.9819Z" fill="url(#paint3_linear_680_4291)"/>
<path d="M163.365 31.5838C163.437 31.5777 163.508 31.5408 163.559 31.477C164.752 30.0097 164.162 28.251 164.136 28.1764C164.087 28.0354 163.936 27.9716 163.8 28.0334C163.663 28.0958 163.591 28.261 163.641 28.4027C163.664 28.4699 164.146 29.9352 163.172 31.1298C163.072 31.252 163.079 31.4293 163.185 31.5254C163.236 31.571 163.301 31.5898 163.365 31.5838Z" fill="url(#paint4_linear_680_4291)"/>
<path d="M166.246 29.6679C166.315 29.6625 166.384 29.6269 166.435 29.5638C167.597 28.126 167.02 26.3861 166.995 26.3129C166.947 26.1732 166.799 26.1087 166.666 26.1692C166.533 26.2296 166.464 26.3921 166.511 26.5318C166.534 26.5983 167.006 28.0475 166.057 29.2186C165.959 29.3388 165.965 29.5134 166.07 29.6088C166.12 29.6538 166.183 29.6732 166.245 29.6679H166.246Z" fill="url(#paint5_linear_680_4291)"/>
</g>
<g style="mix-blend-mode:multiply" opacity="0.3">
<path d="M153.513 23.8818C153.583 23.8778 153.653 23.8483 153.709 23.7932L160.988 16.5668C161.097 16.4587 161.104 16.2814 161.003 16.17C160.902 16.0585 160.731 16.0565 160.622 16.1646L153.319 23.3883C153.202 23.5038 153.195 23.6884 153.303 23.8006C153.359 23.859 153.436 23.8859 153.513 23.8818Z" fill="url(#paint6_linear_680_4291)"/>
</g>
<g style="mix-blend-mode:multiply" opacity="0.3">
<path d="M82.7725 65.8891C82.888 65.8891 82.9947 65.8152 83.0317 65.6991C84.1075 62.2857 89.7846 57.5775 89.8424 57.5305C89.9585 57.4352 89.9747 57.2639 89.8793 57.1484C89.7846 57.0329 89.6134 57.0161 89.4972 57.1115C89.2581 57.3082 83.6381 61.9707 82.5139 65.5359C82.4689 65.6789 82.5482 65.8313 82.6912 65.8763C82.7188 65.8851 82.7456 65.8891 82.7731 65.8891H82.7725Z" fill="url(#paint7_linear_680_4291)"/>
<path d="M92.3172 71.6811C92.3407 71.6811 92.3648 71.6777 92.389 71.6717C95.8044 70.7436 99.9176 66.6412 101.674 64.8892C101.993 64.5709 102.294 64.2707 102.363 64.223C102.498 64.1559 102.545 63.9967 102.477 63.8631C102.41 63.7288 102.24 63.6784 102.106 63.7456C102.005 63.7959 101.871 63.9249 101.29 64.5051C99.7121 66.0785 95.5224 70.2574 92.246 71.1479C92.1016 71.1875 92.0163 71.3366 92.0553 71.4809C92.0882 71.6018 92.1976 71.6811 92.3172 71.6811Z" fill="url(#paint8_linear_680_4291)"/>
<path d="M102.997 67.6539C103.082 67.6539 103.165 67.615 103.218 67.5411C103.306 67.4196 103.279 67.2497 103.157 67.1624L100.71 65.3976C100.588 65.3096 100.418 65.3378 100.33 65.4587C100.243 65.5802 100.27 65.7501 100.392 65.8374L102.839 67.6022C102.887 67.6371 102.942 67.6532 102.997 67.6532V67.6539Z" fill="url(#paint9_linear_680_4291)"/>
<path d="M100.283 70.0976C100.367 70.0976 100.45 70.0587 100.504 69.9848C100.591 69.8633 100.564 69.6934 100.442 69.6061L97.9947 67.8413C97.8731 67.7533 97.7032 67.7815 97.6153 67.9024C97.528 68.0239 97.5548 68.1938 97.677 68.2811L100.124 70.0459C100.172 70.0808 100.228 70.0969 100.283 70.0969V70.0976Z" fill="url(#paint10_linear_680_4291)"/>
<path d="M97.0253 71.998C97.1153 71.998 97.2032 71.9531 97.2549 71.8718C97.3348 71.7449 97.2972 71.5777 97.1703 71.4971L94.9193 70.0754C94.7918 69.9955 94.6245 70.0331 94.5446 70.1601C94.4647 70.287 94.5023 70.4542 94.6292 70.5348L96.8802 71.9564C96.9252 71.9846 96.9756 71.9987 97.0253 71.9987V71.998Z" fill="#3D3D3D"/>
</g>
<path d="M126.121 13.7465L132.502 13.1247C132.524 12.9017 132.549 12.6821 132.578 12.4652C133.037 8.93566 134.343 6.01651 135.16 4.46661C133.262 4.17852 131.631 3.95893 130.444 3.79844C129.532 3.67622 128.552 3.57817 127.544 3.4996C126.062 6.63835 126.121 13.7465 126.121 13.7465Z" fill="#D1D1D1"/>
<path d="M63.4532 48.3788C67.3468 47.0781 77.2519 48.2673 76.1767 46.1359C74.9901 43.7822 75.3488 41.1343 75.3488 41.1343C67.841 39.3642 64.6835 40.0209 63.3693 40.773C63.1275 43.2463 63.1275 45.8371 63.4532 48.3782V48.3788Z" fill="#D1D1D1"/>
<path d="M100.43 7.18835C100.43 7.18835 98.4151 10.5521 98.4352 11.2955C98.4561 12.0382 98.4111 14.1152 95.8344 13.3705C93.2584 12.6251 91.321 12.1523 91.321 12.1523L96.2823 5.50549L100.43 7.18835Z" fill="url(#paint11_linear_680_4291)"/>
<path d="M98.4889 8.21248C99.7111 7.41604 100.497 5.45785 100.041 3.81864C99.648 2.40775 98.4573 1.72816 97.7442 1.32121C95.6778 0.141324 92.5868 -0.0453607 90.8448 1.67981C89.8127 2.70255 90.0564 5.83391 90.0719 6.38524C90.09 7.00842 90.4137 7.35628 90.6259 7.91096C90.9207 8.68054 91.376 9.89937 92.1066 11.924C92.3699 11.5278 92.7224 11.0504 93.1824 10.5635C93.359 10.3768 94.0608 9.65023 94.8962 9.15464C96.5717 8.16212 97.3305 8.96661 98.4889 8.21181V8.21248Z" fill="url(#paint12_linear_680_4291)"/>
<path d="M90.7442 9.90473C90.7442 9.90473 91.2405 12.9965 94.1482 13.9937C96.7517 14.8868 99.3828 8.97264 98.2419 7.00102C97.8611 6.34359 96.8444 5.70831 95.866 5.60087C95.2878 5.53707 95.0259 5.69354 94.0837 5.56998C93.2141 5.45582 93.0261 5.26913 92.7091 5.38195C92.3122 5.52365 91.8502 6.08706 91.6864 8.07077C91.3969 7.34417 90.8906 6.89827 90.4017 6.93185C90.3238 6.93722 90.1022 6.99027 89.933 7.1407C89.3199 7.68464 89.5845 8.8202 90.7449 9.90405L90.7442 9.90473Z" fill="#FCCFB2"/>
<path d="M92.7259 4.9703C92.8119 5.11938 92.2565 5.4491 91.9725 6.12668C91.4198 7.44221 92.092 9.58373 93.3364 10.266C94.0724 10.6696 94.4659 10.266 95.7854 10.6562C96.602 10.8979 97.2151 11.2794 97.5898 11.548C97.4414 13.1831 96.5221 14.4893 95.3503 14.7801C94.0878 15.0937 92.9885 14.1173 92.5285 13.709C92.2209 13.4356 91.2345 12.5633 91.0552 11.2041C90.8678 9.78855 91.7327 9.34735 91.3157 8.26753C91.1055 7.72291 90.6992 7.35424 90.5267 6.39865C90.4796 6.13944 90.4655 5.92052 90.4608 5.77614C91.3909 5.31211 92.6017 4.75407 92.7266 4.96963L92.7259 4.9703Z" fill="#3D3D3D"/>
<path d="M86.2917 5.68076C86.0378 8.18021 86.9706 11.734 89.3075 11.9569C91.6438 12.1819 92.0923 5.53571 92.0923 5.53571C92.0923 5.53571 94.5804 6.45235 100.548 7.25013C102.307 2.91472 96.8764 0.755739 96.8764 0.755739C96.4996 0.617403 96.1357 0.499212 95.7831 0.40184C94.8242 0.130541 93.9438 0.00765125 93.1386 0.000264387C88.5782 -0.0359984 86.4951 3.66683 86.2917 5.68076Z" fill="#3D3D3D"/>
<path style="mix-blend-mode:multiply" opacity="0.5" d="M93.1406 0.000305176C93.974 0.445532 95.9194 1.84904 96.5285 5.46927C97.5546 6.03269 97.9327 5.72647 97.9327 5.72647C97.9327 5.72647 98.6103 2.59309 95.7851 0.401881C94.8262 0.130581 93.9458 0.00769204 93.1406 0.000305176Z" fill="url(#paint13_linear_680_4291)"/>
<path d="M92.2002 2.51721C95.4364 2.40305 99.5233 4.21686 100.82 4.83735C101.161 5.00054 101.413 5.30676 101.506 5.67341C101.843 6.99029 100.656 7.91566 100.656 7.91566C96.9809 6.52828 91.013 6.35569 89.4919 5.83592C87.9709 5.31616 88.5411 4.04965 88.5968 3.70649C88.6525 3.36334 88.3013 2.65554 92.2002 2.51788V2.51721Z" fill="#3D3D3D"/>
<path style="mix-blend-mode:multiply" opacity="0.5" d="M88.7882 3.19676C88.7324 3.53991 88.1623 4.80642 89.6833 5.32619C91.2037 5.84595 97.1716 6.01854 100.848 7.40592C100.848 7.40592 101.242 7.09836 101.512 6.58531C101.317 7.39585 100.658 7.91495 100.658 7.91495C96.9822 6.52756 91.0143 6.35498 89.4933 5.83521C87.9723 5.31544 88.5424 4.04893 88.5981 3.70578C88.6216 3.56274 88.5746 3.35725 88.7929 3.15512C88.7915 3.16922 88.7902 3.18332 88.7882 3.19676Z" fill="url(#paint14_linear_680_4291)"/>
<path d="M93.3247 12.9097C96.0277 13.9197 97.9919 14.0769 99.1637 13.3778C101.797 11.8071 100.857 7.379 100.815 7.19164C100.798 7.11173 100.745 7.04391 100.671 7.00764C100.651 6.99757 100.162 6.75313 99.3544 6.45162C97.8119 5.87544 94.7907 4.98432 91.8897 5.49065C91.7701 5.51147 91.6795 5.60884 91.6661 5.72905C91.3692 8.50382 90.2753 11.2215 90.2646 11.249C90.2129 11.3773 90.2646 11.5237 90.3861 11.5895C90.4392 11.6184 91.7016 12.304 93.3241 12.9104L93.3247 12.9097ZM100.309 7.43608C100.439 8.15194 100.955 11.6775 98.8857 12.9124C97.8771 13.5141 96.0196 13.3375 93.5148 12.4021C92.308 11.9515 91.2833 11.4438 90.8582 11.2242C91.1248 10.5211 91.9031 8.32855 92.1838 5.99363C94.8975 5.58332 97.7099 6.41737 99.1651 6.96131C99.7184 7.16814 100.121 7.34878 100.309 7.43743V7.43608Z" fill="#D8DEE8"/>
<path d="M97.1146 13.7834C97.1938 13.813 97.2858 13.8056 97.3617 13.7546C99.3138 12.4384 99.3548 6.87604 99.3555 6.64033C99.3561 6.49058 99.2346 6.36836 99.0848 6.36769C98.9351 6.36769 98.8129 6.48856 98.8122 6.63832C98.8068 8.1674 98.4811 12.345 97.0575 13.3046C96.9332 13.3886 96.9003 13.5571 96.9843 13.6814C97.0172 13.7297 97.0629 13.7646 97.1139 13.7841L97.1146 13.7834Z" fill="#D8DEE8"/>
<path d="M93.1068 12.8668C93.186 12.8964 93.278 12.889 93.3539 12.8379C95.306 11.5217 95.347 5.95942 95.3477 5.72371C95.3477 5.57396 95.2268 5.45174 95.077 5.45107C94.9273 5.45107 94.8051 5.57194 94.8044 5.72169C94.799 7.25078 94.4733 11.4284 93.0497 12.388C92.9254 12.4719 92.8925 12.6405 92.9765 12.7647C93.0094 12.8131 93.055 12.848 93.1061 12.8675L93.1068 12.8668Z" fill="#D8DEE8"/>
<path d="M91.6619 7.46627C91.6921 7.47769 91.725 7.48373 91.7593 7.48306C94.941 7.45284 100.593 9.34052 100.65 9.36C100.792 9.40767 100.946 9.33112 100.994 9.18942C101.042 9.04706 100.963 8.89193 100.823 8.8456C100.588 8.76636 95.0276 6.90957 91.7546 6.94046C91.6048 6.9418 91.4839 7.06469 91.4853 7.21445C91.4866 7.32995 91.5598 7.42799 91.6619 7.46627Z" fill="#D8DEE8"/>
<path d="M91.3134 9.94489C91.3181 9.94691 91.3234 9.94825 91.3281 9.95026C94.3212 10.8763 100.114 11.844 100.172 11.8541C100.32 11.8789 100.46 11.7789 100.484 11.6304C100.509 11.4827 100.409 11.3424 100.262 11.3182C100.204 11.3088 94.4467 10.3465 91.4886 9.43184C91.3456 9.38752 91.1932 9.46743 91.1488 9.61114C91.1059 9.74948 91.1791 9.89587 91.3127 9.94556L91.3134 9.94489Z" fill="#D8DEE8"/>
<path style="mix-blend-mode:multiply" opacity="0.5" d="M100.159 4.97586L100.235 4.99377C100.433 5.04012 100.556 5.2381 100.51 5.43599L100.368 6.04145C100.322 6.23934 100.124 6.36219 99.9258 6.31585L99.8493 6.29793C99.6515 6.25159 99.5286 6.0536 99.5749 5.85572L99.7167 5.25026C99.7631 5.05237 99.9611 4.92952 100.159 4.97586Z" fill="url(#paint15_linear_680_4291)"/>
<path style="mix-blend-mode:multiply" opacity="0.5" d="M99.1043 4.7285L99.1808 4.74641C99.3786 4.79276 99.5015 4.99074 99.4552 5.18863L99.3134 5.79409C99.267 5.99197 99.069 6.11483 98.8712 6.06848L98.7947 6.05057C98.5968 6.00423 98.4739 5.80624 98.5203 5.60836L98.662 5.0029C98.7084 4.80501 98.9064 4.68216 99.1043 4.7285Z" fill="url(#paint16_linear_680_4291)"/>
<path style="mix-blend-mode:multiply" opacity="0.5" d="M93.1617 3.50889L93.2384 3.52594C93.4368 3.57003 93.5619 3.76661 93.5178 3.96501L93.3829 4.57204C93.3388 4.77044 93.1422 4.89553 92.9438 4.85144L92.8671 4.83439C92.6687 4.7903 92.5436 4.59372 92.5877 4.39532L92.7226 3.78829C92.7667 3.58989 92.9633 3.4648 93.1617 3.50889Z" fill="url(#paint17_linear_680_4291)"/>
<path style="mix-blend-mode:multiply" opacity="0.5" d="M92.107 3.28387L92.1837 3.30091C92.3821 3.34501 92.5072 3.54159 92.4631 3.73999L92.3282 4.34702C92.2841 4.54542 92.0876 4.67051 91.8892 4.62641L91.8125 4.60937C91.6141 4.56527 91.489 4.3687 91.5331 4.1703L91.668 3.56327C91.7121 3.36487 91.9086 3.23978 92.107 3.28387Z" fill="url(#paint18_linear_680_4291)"/>
<path d="M58.6811 137.974V129.172H93.3752V137.974C93.4249 138.24 93.4531 138.51 93.4531 138.783C93.4531 143.573 85.6512 147.456 76.0282 147.456C66.4051 147.456 58.6032 143.573 58.6032 138.783C58.6032 138.509 58.6321 138.24 58.6811 137.974Z" fill="#3D3D3D"/>
<path d="M76.0282 137.845C66.4046 137.845 58.6032 133.962 58.6032 129.172C58.6032 124.381 66.4046 120.498 76.0282 120.498C85.6517 120.498 93.4531 124.381 93.4531 129.172C93.4531 133.962 85.6517 137.845 76.0282 137.845Z" fill="#3D3D3D"/>
<g style="mix-blend-mode:soft-light">
<path d="M76.0282 137.141C85.3356 137.141 92.9381 133.509 93.4269 128.937C93.4437 129.092 93.4531 129.248 93.4531 129.405C93.4531 134.195 85.6512 138.079 76.0282 138.079C66.4051 138.079 58.6032 134.195 58.6032 129.405C58.6032 129.248 58.6127 129.092 58.6294 128.937C59.119 133.509 66.7207 137.141 76.0282 137.141Z" fill="white"/>
</g>
<g style="mix-blend-mode:soft-light">
<path d="M76.0844 142.919L76.7868 142.927C77.0205 142.932 77.2542 142.939 77.4879 142.917L78.1883 142.874C78.4213 142.858 78.6523 142.815 78.884 142.787C79.1157 142.756 79.3481 142.73 79.5764 142.676L80.2634 142.536C80.4903 142.48 80.7153 142.414 80.9416 142.356C81.1693 142.302 81.3915 142.228 81.6131 142.154C81.8341 142.078 82.0604 142.015 82.2766 141.925L82.93 141.669L83.5713 141.383L84.1999 141.071C84.2442 141.048 84.2879 141.023 84.3315 140.999C84.1435 141.051 83.9528 141.095 83.7627 141.14C83.5498 141.193 83.3336 141.236 83.118 141.277C82.9025 141.322 82.6856 141.357 82.4667 141.388C82.2491 141.424 82.0308 141.452 81.8106 141.473L81.4815 141.508L81.1505 141.529L80.8194 141.549L80.4877 141.554C80.2667 141.561 80.0451 141.555 79.8235 141.544C79.6019 141.54 79.381 141.519 79.1594 141.496C78.9378 141.48 78.7182 141.44 78.4986 141.406C78.2776 141.378 78.0621 141.314 77.8445 141.269C77.6269 141.221 77.4161 141.144 77.2018 141.083C76.9903 141.012 76.7835 140.925 76.5746 140.847L75.38 140.399L76.6646 140.325L78.0654 140.245L78.7631 140.173C78.9955 140.147 79.2299 140.135 79.4609 140.099L80.1553 140C80.3876 139.97 80.6179 139.929 80.8469 139.883L81.5366 139.75L82.2189 139.588C82.4479 139.539 82.6728 139.475 82.8978 139.41C83.1221 139.343 83.3504 139.288 83.5707 139.209C83.7916 139.133 84.0159 139.063 84.2355 138.982L84.8896 138.724C85.1024 138.628 85.32 138.538 85.5309 138.434C85.7397 138.328 85.9526 138.227 86.1554 138.11C86.3636 138 86.5637 137.878 86.7631 137.753C86.9585 137.622 87.1553 137.491 87.3346 137.338C87.1667 137.505 86.98 137.651 86.7927 137.796C86.602 137.935 86.4092 138.074 86.2084 138.2C86.011 138.332 85.8015 138.443 85.5967 138.563C85.3898 138.679 85.1756 138.781 84.9654 138.892L84.3181 139.188C84.1005 139.283 83.8776 139.366 83.6573 139.456C83.4377 139.549 83.2107 139.617 82.9864 139.697C82.7621 139.775 82.5365 139.852 82.3075 139.915L81.6212 140.111L80.9262 140.273C80.6952 140.329 80.4628 140.38 80.2278 140.42L79.526 140.55C79.2923 140.596 79.0553 140.618 78.8202 140.653L78.15 140.741C78.2971 140.771 78.4442 140.803 78.5939 140.819C78.8014 140.847 79.0076 140.881 79.2171 140.893C79.426 140.91 79.6348 140.928 79.845 140.928C80.0552 140.935 80.2647 140.937 80.4756 140.926L80.7912 140.917L81.1068 140.892L81.4218 140.867L81.736 140.828C81.9455 140.804 82.1551 140.774 82.3632 140.736C82.5721 140.703 82.7803 140.665 82.9871 140.619C83.1946 140.578 83.4021 140.535 83.6083 140.482C83.8144 140.433 84.0213 140.385 84.2254 140.325C84.4295 140.267 84.6357 140.215 84.8378 140.149C85.04 140.083 85.2448 140.026 85.4456 139.955C85.8492 139.82 86.2481 139.671 86.6463 139.518L88.6797 138.738L86.9975 140.108C86.7947 140.273 86.6033 140.417 86.4005 140.558C86.2011 140.701 85.9962 140.834 85.7908 140.967C85.5832 141.095 85.3737 141.22 85.1629 141.342C84.948 141.457 84.7371 141.579 84.5195 141.689C84.3006 141.796 84.0837 141.907 83.8634 142.011L83.1946 142.305L82.513 142.567C82.2874 142.66 82.0516 142.725 81.8206 142.802C81.589 142.878 81.3573 142.952 81.1196 143.009C80.8832 143.069 80.6475 143.131 80.4104 143.186L79.6912 143.32C79.4528 143.372 79.2097 143.394 78.9673 143.424C78.7249 143.449 78.4838 143.488 78.24 143.501L77.5094 143.534C77.4167 143.541 77.3234 143.541 77.2307 143.541L77.5651 143.651C77.8069 143.733 78.0627 143.782 78.3126 143.845C78.5684 143.886 78.8223 143.944 79.0808 143.971C79.34 143.993 79.5972 144.039 79.8591 144.046C80.1196 144.054 80.3809 144.084 80.6428 144.074C80.904 144.067 81.1666 144.076 81.4285 144.056L82.2135 143.995L82.9945 143.888C83.255 143.851 83.5109 143.788 83.7701 143.741C84.0307 143.696 84.2838 143.624 84.5383 143.554C84.7915 143.481 85.0514 143.426 85.2985 143.33L86.0479 143.069C86.2944 142.972 86.5348 142.862 86.7792 142.759L87.1459 142.604L87.5011 142.424L88.213 142.062L87.5294 142.475L87.1862 142.682L86.8289 142.863C86.5892 142.98 86.3522 143.105 86.1091 143.216L85.3663 143.522C85.1212 143.632 84.862 143.702 84.6088 143.79C84.3543 143.876 84.1005 143.963 83.8379 144.023C83.5774 144.087 83.3188 144.166 83.0549 144.217L82.2605 144.363L81.4573 144.458C81.1894 144.489 80.9188 144.491 80.6488 144.508C80.3789 144.53 80.1082 144.509 79.8369 144.512C79.5656 144.517 79.2957 144.477 79.0244 144.461C78.7538 144.44 78.4851 144.388 78.2145 144.352C77.9472 144.293 77.6773 144.249 77.412 144.168L77.0138 144.05L76.6216 143.893C76.4907 143.843 76.3638 143.761 76.2355 143.696C76.1066 143.631 75.9837 143.514 75.8601 143.422L75.1745 142.911L76.0851 142.923L76.0844 142.919Z" fill="white"/>
</g>
<defs>
<linearGradient id="paint0_linear_680_4291" x1="91.749" y1="17.1175" x2="91.6862" y2="16.9165" gradientUnits="userSpaceOnUse">
<stop stop-color="#FF9085"/>
<stop offset="1" stop-color="#FB6FBB"/>
</linearGradient>
<linearGradient id="paint1_linear_680_4291" x1="91.2934" y1="10.746" x2="100.826" y2="23.6904" gradientUnits="userSpaceOnUse">
<stop stop-color="#311944"/>
<stop offset="1" stop-color="#A03976"/>
</linearGradient>
<linearGradient id="paint2_linear_680_4291" x1="168.766" y1="28.1119" x2="157.912" y2="28.1119" gradientUnits="userSpaceOnUse">
<stop stop-color="#AA80F9"/>
<stop offset="1" stop-color="#6165D7"/>
</linearGradient>
<linearGradient id="paint3_linear_680_4291" x1="161.375" y1="31.1694" x2="160.137" y2="31.1694" gradientUnits="userSpaceOnUse">
<stop stop-color="#AA80F9"/>
<stop offset="1" stop-color="#6165D7"/>
</linearGradient>
<linearGradient id="paint4_linear_680_4291" x1="164.305" y1="29.7968" x2="163.101" y2="29.7968" gradientUnits="userSpaceOnUse">
<stop stop-color="#AA80F9"/>
<stop offset="1" stop-color="#6165D7"/>
</linearGradient>
<linearGradient id="paint5_linear_680_4291" x1="167.16" y1="27.9078" x2="165.988" y2="27.9078" gradientUnits="userSpaceOnUse">
<stop stop-color="#AA80F9"/>
<stop offset="1" stop-color="#6165D7"/>
</linearGradient>
<linearGradient id="paint6_linear_680_4291" x1="161.075" y1="19.9836" x2="153.226" y2="19.9836" gradientUnits="userSpaceOnUse">
<stop stop-color="#AA80F9"/>
<stop offset="1" stop-color="#6165D7"/>
</linearGradient>
<linearGradient id="paint7_linear_680_4291" x1="89.9404" y1="61.4691" x2="82.5005" y2="61.4691" gradientUnits="userSpaceOnUse">
<stop stop-color="#AA80F9"/>
<stop offset="1" stop-color="#6165D7"/>
</linearGradient>
<linearGradient id="paint8_linear_680_4291" x1="102.508" y1="67.6982" x2="92.0459" y2="67.6982" gradientUnits="userSpaceOnUse">
<stop stop-color="#AA80F9"/>
<stop offset="1" stop-color="#6165D7"/>
</linearGradient>
<linearGradient id="paint9_linear_680_4291" x1="103.269" y1="66.4996" x2="100.279" y2="66.4996" gradientUnits="userSpaceOnUse">
<stop stop-color="#AA80F9"/>
<stop offset="1" stop-color="#6165D7"/>
</linearGradient>
<linearGradient id="paint10_linear_680_4291" x1="100.555" y1="68.9432" x2="97.5642" y2="68.9432" gradientUnits="userSpaceOnUse">
<stop stop-color="#AA80F9"/>
<stop offset="1" stop-color="#6165D7"/>
</linearGradient>
<linearGradient id="paint11_linear_680_4291" x1="92.3211" y1="8.43777" x2="99.5605" y2="10.3938" gradientUnits="userSpaceOnUse">
<stop stop-color="#AA80F9"/>
<stop offset="1" stop-color="#6165D7"/>
</linearGradient>
<linearGradient id="paint12_linear_680_4291" x1="83.9062" y1="16.5565" x2="97.2259" y2="2.21379" gradientUnits="userSpaceOnUse">
<stop stop-color="#311944"/>
<stop offset="1" stop-color="#6B3976"/>
</linearGradient>
<linearGradient id="paint13_linear_680_4291" x1="98.6227" y1="3.87698" x2="92.5405" y2="1.60413" gradientUnits="userSpaceOnUse">
<stop stop-color="#AA80F9"/>
<stop offset="1" stop-color="#6165D7"/>
</linearGradient>
<linearGradient id="paint14_linear_680_4291" x1="100.911" y1="8.23015" x2="88.553" y2="3.61204" gradientUnits="userSpaceOnUse">
<stop stop-color="#AA80F9"/>
<stop offset="1" stop-color="#6165D7"/>
</linearGradient>
<linearGradient id="paint15_linear_680_4291" x1="100.439" y1="5.74491" x2="99.6458" y2="5.55918" gradientUnits="userSpaceOnUse">
<stop stop-color="#AA80F9"/>
<stop offset="1" stop-color="#6165D7"/>
</linearGradient>
<linearGradient id="paint16_linear_680_4291" x1="99.3842" y1="5.49755" x2="98.5911" y2="5.31182" gradientUnits="userSpaceOnUse">
<stop stop-color="#AA80F9"/>
<stop offset="1" stop-color="#6165D7"/>
</linearGradient>
<linearGradient id="paint17_linear_680_4291" x1="93.4547" y1="4.27362" x2="92.6596" y2="4.0969" gradientUnits="userSpaceOnUse">
<stop stop-color="#AA80F9"/>
<stop offset="1" stop-color="#6165D7"/>
</linearGradient>
<linearGradient id="paint18_linear_680_4291" x1="92.3979" y1="4.04263" x2="91.6028" y2="3.86591" gradientUnits="userSpaceOnUse">
<stop stop-color="#AA80F9"/>
<stop offset="1" stop-color="#6165D7"/>
</linearGradient>
</defs>
</svg>
