<svg width="244" height="182" viewBox="0 0 244 182" fill="none" xmlns="http://www.w3.org/2000/svg">
<g opacity="0.45">
<path d="M55.0162 136.627C55.0162 136.627 81.5117 117.79 62.1595 97.1539C60.5222 95.4078 52.403 122.943 52.403 122.943C52.403 122.943 22.194 128.101 11.7266 143.101L55.0162 136.627Z" fill="#FFD5C2"/>
<path d="M22.094 134.947C22.094 134.947 3.92409 142.12 1.84874 141.666C-0.226619 141.212 -0.0203125 145.009 1.61101 147.583C3.24233 150.157 2.0432 157.187 2.5091 159.172C2.97499 161.157 7.87624 162.433 7.87624 162.433C7.87624 162.433 6.46944 150.118 8.13901 146.959C9.80813 143.8 11.4531 143.445 28.7869 140.472L22.094 134.947Z" fill="#FFD5C2"/>
<path d="M75.6887 70.0814C68.4534 74.4194 62.3412 78.776 55.9489 83.984L60.8087 105.984L56.5979 106.682L46.5586 82.5371C46.5586 82.5371 56.5464 68.9853 69.1161 59.7445C72.6438 57.1512 77.6151 59.1262 78.5301 63.4665C79.0789 66.0686 77.9367 68.7336 75.6887 70.0814Z" fill="#FFD5C2"/>
<path d="M97.4925 124.799C97.4925 124.799 82.2441 86.8654 60.3948 102.951C58.4748 104.365 82.4003 126.179 82.4003 126.179C82.4003 126.179 88.416 159.291 97.4015 169.494L97.4925 124.799Z" fill="#FFD5C2"/>
<path d="M97.3771 121.156C92.8329 115.245 84.1585 102.992 84.1585 102.992C75.3001 105.602 59.4847 105.532 59.1053 105.531C57.6534 105.415 56.1797 105.248 54.6937 105.013L44.0664 122.048C44.0664 122.048 57.4558 132.268 65.586 132.821L72.2046 121.418L79.4139 130.151L97.3771 121.156Z" fill="#3D3D3D"/>
<g opacity="0.4">
<path d="M72.2031 121.421L75.8866 114.91L75.2836 125.152L72.2031 121.421Z" fill="black"/>
</g>
<path d="M81.4824 102.897L82.0262 91.5135L85.5261 74.5602C85.7201 73.6209 85.8112 72.6657 85.7706 71.7064C85.5607 66.7529 83.5587 58.0839 79.9968 56.9505L70.8324 55.09C68.3617 54.3037 64.3472 55.3654 61.4234 61.1182C60.4105 63.1114 59.8011 65.2925 59.4769 67.5136L57.8438 78.6935L58.459 99.239C58.459 99.239 77.778 104.306 81.4824 102.897Z" fill="#FFD5C2"/>
<path d="M78.7381 64.4239C81.8659 63.7297 81.4661 61.5691 80.7861 58.3738L78.4981 43.4844L71.3074 44.7843L70.6484 59.1098C71.3284 62.3052 75.6103 65.1181 78.7381 64.4239Z" fill="#FFD5C2"/>
<path d="M79.0055 46.7761L80.1463 54.2006C79.0793 53.988 75.9847 52.763 75.1007 52.0553C73.1652 50.5042 71.6919 47.5345 72.6219 46.2853C73.2745 45.4078 77.2221 46.2211 79.0055 46.7761Z" fill="#F5A28C"/>
<path d="M78.8018 33.2849C79.5332 33.5305 80.7118 33.0304 82.3974 43.0412C82.7503 45.1362 82.9985 46.0602 82.8724 48.2329C82.5977 52.9575 80.7232 53.654 75.8129 51.6483C69.8081 49.1955 68.8231 39.294 68.7338 38.0551C68.5662 35.7293 74.7508 31.9226 78.8018 33.2849Z" fill="#FFD5C2"/>
<path d="M69.0868 44.9316C69.2804 46.1869 69.9225 47.3444 71.1513 47.1467C72.38 46.9485 73.2193 45.771 73.0253 44.5152C72.8318 43.26 71.6786 42.4025 70.4499 42.6007C69.2212 42.7985 68.8933 43.6764 69.0868 44.9316Z" fill="#FFD5C2"/>
<path d="M81.5235 35.166L82.765 39.9097L80.5845 40.5006L79.5625 36.1742L81.5235 35.166Z" fill="#FFD5C2"/>
<path d="M72.2422 44.4463L73.1713 38.2384C73.1713 38.2384 79.2985 37.1832 83.7926 33.6436C83.7926 33.6436 79.9707 25.8921 69.522 35.2887C69.0543 35.7093 68.7218 36.263 68.5734 36.8808C68.0888 38.894 67.5751 43.3892 72.2422 44.4463Z" fill="#3D3D3D"/>
<path d="M91.0273 157.823C91.0273 157.823 95.3028 177.237 94.5591 179.268C93.815 181.298 97.5221 181.648 100.253 180.377C102.985 179.107 109.616 181.351 111.606 181.172C113.597 180.993 115.552 176.227 115.552 176.227C115.552 176.227 103.422 175.84 100.608 173.689C97.7949 171.538 97.6924 169.824 97.3604 151.871L91.0273 157.823Z" fill="#FFD5C2"/>
<path d="M81.7812 39.7344L84.1176 43.7662L82.2394 45.0987L81.7812 39.7344Z" fill="#FFD5C2"/>
<path d="M70.832 55.09C70.832 55.09 77.3955 61.2708 81.2375 60.7614C83.8206 60.4189 80.6081 57.2287 80.6081 57.2287C80.6081 57.2287 83.3392 57.1599 85.2024 64.2814C87.0655 71.403 85.9852 75.078 85.9365 76.8232C85.8878 78.5684 84.1563 102.994 84.1563 102.994C84.1563 102.994 60.6638 110.726 54.6914 105.015C54.6914 105.015 59.6104 72.8621 59.1003 66.664C58.5907 60.4659 64.3263 52.7735 70.832 55.09Z" fill="#3D3D3D"/>
<path d="M103.909 85.511C103.909 85.511 111.855 83.6044 111.886 84.5544C111.917 85.5044 112.344 87.2017 111.448 88.2783C110.552 89.3549 109.662 91.287 108.132 91.1484C106.602 91.0098 103.723 89.9276 103.723 89.9276L103.909 85.511Z" fill="#FFD5C2"/>
<path d="M103.91 85.5085C103.91 85.5085 109.97 82.8338 110.525 82.7435C111.081 82.6532 111.419 84.4607 108.958 85.0079C106.496 85.5545 103.91 85.5085 103.91 85.5085Z" fill="#FFD5C2"/>
<path d="M94.2131 174.303C94.2131 174.303 99.2204 177.221 98.5136 171.038C98.5136 171.038 99.7173 170.106 100.293 171.063C103.601 176.565 116.457 171.976 116.92 176.623C117.229 179.721 114.923 182.342 110.607 181.957C106.291 181.572 102.828 180.022 101.953 180.506C101.079 180.991 99.7082 182.196 96.8718 181.675C94.0355 181.153 93.8774 180.855 93.8456 179.871C93.8137 178.886 94.2131 174.303 94.2131 174.303Z" fill="#3D3D3D"/>
<path d="M116.899 177.633C115.927 178.023 115.42 179.781 113.162 180.66C110.829 181.567 108.21 180.914 106.03 180.37C104.414 179.967 103.493 179.506 101.699 179.531C100.104 179.554 100.036 179.929 98.8187 179.932C96.564 179.938 94.9855 178.657 93.9243 178.028C93.8715 178.837 93.8351 179.55 93.8455 179.873C93.8774 180.857 94.0355 181.155 96.8718 181.676C99.7082 182.198 101.079 180.992 101.953 180.508C102.828 180.023 106.294 181.546 110.607 181.958C114.919 182.371 117.047 179.795 116.899 177.633Z" fill="#3D3D3D"/>
<path d="M6.92707 140.434C6.92707 140.434 4.60123 145.822 10.5486 144.468C10.5486 144.468 11.581 145.596 10.708 146.279C5.69014 150.206 11.4808 162.798 7.00449 163.746C4.01966 164.379 1.23066 162.305 1.16143 157.88C1.09221 153.455 2.24579 149.776 1.68426 148.937C1.12272 148.098 -0.192533 146.829 0.023792 143.893C0.240117 140.957 0.513826 140.766 1.46884 140.632C2.42386 140.499 6.92707 140.434 6.92707 140.434Z" fill="#3D3D3D"/>
<path d="M6.02032 163.829C5.54031 162.881 3.77601 162.547 2.68892 160.343C1.56539 158.066 1.93201 155.337 2.23714 153.066C2.46348 151.382 2.81735 150.399 2.60876 148.579C2.42341 146.96 2.05042 146.929 1.92244 145.693C1.68517 143.402 2.76998 141.666 3.27277 140.523C2.47942 140.553 1.78217 140.589 1.46884 140.633C0.513825 140.767 0.240117 140.958 0.023792 143.894C-0.192533 146.83 1.12272 148.099 1.68426 148.938C2.24579 149.777 1.11954 153.456 1.16143 157.881C1.20333 162.304 3.9304 164.202 6.02032 163.829Z" fill="#3D3D3D"/>
<path d="M72.0519 63.0304C74.7839 71.2644 77.7647 78.3627 81.5155 85.9203L88.0768 85.7993L103.908 85.5076L103.721 89.9242L78.1791 95.1522C78.1791 95.1522 67.6798 83.6284 61.2761 68.9735C59.479 64.8607 61.7935 58.8245 66.2024 58.7873C68.8466 58.7659 71.2029 60.4724 72.0519 63.0304Z" fill="#FFD5C2"/>
<path d="M82.7724 39.9545C82.3201 40.3844 81.8374 40.6598 81.3433 40.8808C80.8509 41.1106 80.3436 41.2641 79.8276 41.3721C79.3107 41.4763 78.7847 41.5373 78.2441 41.521C77.7053 41.514 77.1557 41.4535 76.5764 41.2395L76.5586 41.1483C77.5837 40.8947 78.618 40.6905 79.6477 40.4602C80.6833 40.262 81.7144 40.0382 82.7546 39.8633L82.7724 39.9545Z" fill="#F5A28C"/>
<path d="M110.644 84.0801L108.691 84.3104C108.691 84.3104 110.208 84.4583 110.437 84.3067C110.437 84.3067 110.584 84.1629 110.644 84.0801Z" fill="#DA5D59"/>
<path d="M121.34 88.7993C123.921 85.0829 127.273 81.5321 130.801 81.8322C138.45 82.4831 140.113 97.0943 146.462 97.3539C153.043 97.6228 156.644 81.8732 163.101 82.1351C169.381 82.3901 170.991 97.3074 177.456 97.6568C184.198 98.0211 187.968 81.7889 195.4 81.8322C199.768 81.8573 201.252 85.3076 203.349 88.723" fill="#3D3D3D"/>
<path d="M147.777 77.7204H123.754C122.617 77.7204 121.695 76.7787 121.695 75.6175V68.5228C121.695 67.3616 122.617 66.4199 123.754 66.4199H147.777C148.914 66.4199 149.835 67.3616 149.835 68.5228V75.6175C149.835 76.7792 148.914 77.7204 147.777 77.7204Z" fill="#3D3D3D"/>
<path d="M127.259 74.1425L125.168 72.1698C124.67 71.7009 124.639 70.9081 125.098 70.3995C125.558 69.8915 126.333 69.8594 126.831 70.3288L127.29 70.7615L127.785 70.3125C128.291 69.8529 129.066 69.8994 129.516 70.4168C129.966 70.9337 129.92 71.7255 129.414 72.1852L127.259 74.1425Z" fill="white"/>
<path d="M158.966 71.4075C158.966 72.8535 157.818 74.0259 156.403 74.0259C154.988 74.0259 153.84 72.8535 153.84 71.4075C153.84 69.9615 154.988 68.7891 156.403 68.7891C157.818 68.7891 158.966 69.9615 158.966 71.4075Z" fill="#081A4A"/>
<path d="M155.547 71.3156L156.311 72.0255L157.383 70.7363" stroke="#F7F754" stroke-miterlimit="10" stroke-linecap="round"/>
<path d="M162.094 70.8264L164.422 74.1075V70.8264H165.328V75.748H164.547L162.031 72.2794V75.748H161.125V70.8264H162.094ZM166.902 74.0294C166.902 74.6778 167.198 75.1309 167.769 75.1309C168.347 75.1309 168.644 74.6778 168.644 74.0294C168.644 73.3731 168.347 72.92 167.769 72.92C167.198 72.92 166.902 73.3731 166.902 74.0294ZM169.589 74.0294C169.589 75.0996 168.839 75.8418 167.769 75.8418C166.706 75.8418 165.956 75.0996 165.956 74.0294C165.956 72.9591 166.706 72.2091 167.769 72.2091C168.839 72.2091 169.589 72.9591 169.589 74.0294ZM172.563 72.3497L172.492 73.2247C172.313 73.1231 172.156 73.0763 171.93 73.0763C171.446 73.0763 171.117 73.42 171.117 74.045V75.748H170.18V72.3029H171.117V72.9591C171.242 72.5685 171.602 72.2091 172.078 72.2091C172.289 72.2091 172.461 72.2638 172.563 72.3497ZM164.219 81.92C164.406 81.5138 164.82 81.2091 165.383 81.2091C166.312 81.2091 166.609 81.8497 166.609 82.5997V84.748H165.672V82.7872C165.672 82.256 165.508 81.9513 165.047 81.9513C164.594 81.9513 164.32 82.3263 164.32 82.9044V84.748H163.383V82.7872C163.383 82.256 163.211 81.9513 162.758 81.9513C162.305 81.9513 162.031 82.3263 162.031 82.9044V84.748H161.094V81.3029H162.031V81.8653C162.203 81.4747 162.594 81.2091 163.117 81.2091C163.726 81.2091 164.07 81.4982 164.219 81.92ZM169.427 83.2559V83.17L168.779 83.3106C168.373 83.3965 168.084 83.4668 168.084 83.8106C168.084 84.0449 168.263 84.1856 168.56 84.1856C169.052 84.1856 169.427 83.8106 169.427 83.2559ZM170.341 82.5372V83.9121C170.341 84.0918 170.435 84.1778 170.584 84.1778C170.677 84.1778 170.771 84.1543 170.873 84.1074V84.6074C170.724 84.7246 170.537 84.8262 170.224 84.8262C169.834 84.8262 169.584 84.5996 169.498 84.2246C169.302 84.6231 168.834 84.834 168.326 84.834C167.607 84.834 167.17 84.4746 167.17 83.8809C167.17 83.2247 167.701 82.9512 168.482 82.795L169.427 82.6075V82.5294C169.427 82.1466 169.224 81.9122 168.826 81.9122C168.435 81.9122 168.224 82.1466 168.146 82.4825L167.295 82.4044C167.412 81.7013 167.951 81.2091 168.865 81.2091C169.756 81.2091 170.341 81.631 170.341 82.5372ZM171.317 79.8264H172.254V84.748H171.317V79.8264Z" fill="#121212"/>
<path d="M147.777 122.492H123.754C122.617 122.492 121.695 121.55 121.695 120.389V113.294C121.695 112.133 122.617 111.191 123.754 111.191H147.777C148.914 111.191 149.835 112.133 149.835 113.294V120.389C149.835 121.551 148.914 122.492 147.777 122.492Z" fill="#3D3D3D"/>
<path d="M137.213 121.181C137.213 120.548 136.718 120.245 136.057 120.245C135.892 120.245 135.658 120.245 135.424 120.272V118.607C135.562 118.635 135.864 118.635 136.085 118.635C136.594 118.635 137.075 118.332 137.075 117.726C137.075 117.148 136.745 116.777 136.098 116.777C135.341 116.777 134.956 117.396 134.956 118.208L132.713 118.112C132.713 116.323 133.993 114.892 136.167 114.892C138.218 114.892 139.387 115.937 139.387 117.479C139.387 118.525 138.644 119.226 137.832 119.337C138.974 119.529 139.608 120.3 139.608 121.36C139.608 122.983 138.231 123.892 136.208 123.892C133.938 123.892 132.603 122.667 132.603 120.74L134.901 120.809C134.929 121.635 135.438 122.006 136.208 122.006C136.745 122.006 137.213 121.731 137.213 121.181ZM132.562 133.919V132.378C133.773 132.378 134.378 131.965 134.695 131.057H136.525V139.727H134.185V133.919H132.562Z" fill="white"/>
<path d="M137.99 76.2685C137.99 75.6355 137.495 75.3327 136.834 75.3327C136.669 75.3327 136.435 75.3327 136.201 75.3603V73.6951C136.339 73.7226 136.642 73.7226 136.862 73.7226C137.371 73.7226 137.853 73.4199 137.853 72.8144C137.853 72.2364 137.522 71.8648 136.876 71.8648C136.119 71.8648 135.733 72.4841 135.733 73.296L133.49 73.1997C133.49 71.4107 134.77 69.9794 136.944 69.9794C138.995 69.9794 140.165 71.0253 140.165 72.5666C140.165 73.6125 139.422 74.3144 138.61 74.4245C139.752 74.6171 140.385 75.3878 140.385 76.4474C140.385 78.0713 139.009 78.9796 136.986 78.9796C134.715 78.9796 133.38 77.7548 133.38 75.8282L135.678 75.897C135.706 76.7227 136.215 77.0942 136.986 77.0942C137.522 77.0942 137.99 76.819 137.99 76.2685ZM133.339 89.007V87.4657C134.55 87.4657 135.155 87.0529 135.472 86.1446H137.302V94.8145H134.963V89.007H133.339Z" fill="white"/>
<path d="M128.95 116.476C128.95 117.823 126.563 119.877 126.563 119.877C126.563 119.877 124.176 117.823 124.176 116.476C124.176 115.129 125.245 114.037 126.563 114.037C127.882 114.037 128.95 115.129 128.95 116.476Z" fill="#3D3D3D"/>
<path d="M126.564 117.759C127.315 117.759 127.925 117.136 127.925 116.369C127.925 115.601 127.315 114.979 126.564 114.979C125.812 114.979 125.203 115.601 125.203 116.369C125.203 117.136 125.812 117.759 126.564 117.759Z" fill="#081A4A"/>
<path d="M156.403 118.991C157.819 118.991 158.966 117.818 158.966 116.372C158.966 114.926 157.819 113.754 156.403 113.754C154.987 113.754 153.84 114.926 153.84 116.372C153.84 117.818 154.987 118.991 156.403 118.991Z" fill="#081A4A"/>
<path d="M155.547 116.28L156.311 116.99L157.383 115.701" stroke="#F7F754" stroke-miterlimit="10" stroke-linecap="round"/>
<path d="M162.734 115.795H163.82L165.828 120.717H164.789L164.297 119.498H162.203L161.727 120.717H160.742L162.734 115.795ZM163.226 116.904L162.5 118.748H164L163.258 116.904H163.226ZM166.01 118.998C166.01 117.904 166.768 117.178 167.83 117.178C168.853 117.178 169.416 117.85 169.494 118.678L168.705 118.732C168.635 118.217 168.346 117.897 167.83 117.897C167.314 117.897 166.955 118.279 166.955 118.998C166.955 119.709 167.314 120.092 167.83 120.092C168.346 120.092 168.635 119.764 168.705 119.24L169.494 119.311C169.416 120.139 168.853 120.811 167.83 120.811C166.768 120.811 166.01 120.092 166.01 118.998ZM169.901 118.998C169.901 117.904 170.658 117.178 171.721 117.178C172.744 117.178 173.307 117.85 173.385 118.678L172.596 118.732C172.525 118.217 172.236 117.897 171.721 117.897C171.205 117.897 170.846 118.279 170.846 118.998C170.846 119.709 171.205 120.092 171.721 120.092C172.236 120.092 172.525 119.764 172.596 119.24L173.385 119.311C173.307 120.139 172.744 120.811 171.721 120.811C170.658 120.811 169.901 120.092 169.901 118.998ZM174.737 118.998C174.737 119.647 175.034 120.1 175.604 120.1C176.182 120.1 176.479 119.647 176.479 118.998C176.479 118.342 176.182 117.889 175.604 117.889C175.034 117.889 174.737 118.342 174.737 118.998ZM177.424 118.998C177.424 120.068 176.674 120.811 175.604 120.811C174.541 120.811 173.791 120.068 173.791 118.998C173.791 117.928 174.541 117.178 175.604 117.178C176.674 117.178 177.424 117.928 177.424 118.998ZM181.14 117.889C181.327 117.483 181.742 117.178 182.304 117.178C183.234 117.178 183.53 117.818 183.53 118.568V120.717H182.593V118.756C182.593 118.225 182.429 117.92 181.968 117.92C181.515 117.92 181.242 118.295 181.242 118.873V120.717H180.304V118.756C180.304 118.225 180.132 117.92 179.679 117.92C179.226 117.92 178.953 118.295 178.953 118.873V120.717H178.015V117.272H178.953V117.834C179.124 117.443 179.515 117.178 180.038 117.178C180.648 117.178 180.992 117.467 181.14 117.889ZM185.208 118.928V119.061C185.208 119.693 185.583 120.076 186.114 120.076C186.708 120.076 187.013 119.647 187.013 118.998C187.013 118.342 186.708 117.912 186.114 117.912C185.583 117.912 185.208 118.303 185.208 118.928ZM185.216 120.061V121.998H184.279V117.272H185.216V117.936C185.372 117.514 185.786 117.178 186.403 117.178C187.419 117.178 187.958 117.983 187.958 118.998C187.958 120.014 187.419 120.811 186.403 120.811C185.786 120.811 185.372 120.475 185.216 120.061ZM188.551 115.795H189.488V120.717H188.551V115.795ZM190.275 117.272H191.213V120.717H190.275V117.272ZM190.259 116.709V115.795H191.22V116.709H190.259ZM191.749 119.576L192.562 119.545C192.616 119.959 192.929 120.17 193.405 120.17C193.749 120.17 194.03 120.053 194.03 119.803C194.03 119.568 193.874 119.467 193.53 119.412L192.984 119.318C192.249 119.201 191.843 118.928 191.843 118.287C191.843 117.631 192.398 117.178 193.273 117.178C194.226 117.178 194.796 117.608 194.858 118.373L194.085 118.404C194.023 118.014 193.757 117.818 193.265 117.818C192.929 117.818 192.71 117.967 192.71 118.201C192.71 118.389 192.835 118.498 193.085 118.537L193.741 118.647C194.468 118.764 194.898 119.068 194.898 119.717C194.898 120.42 194.288 120.811 193.398 120.811C192.499 120.811 191.812 120.42 191.749 119.576ZM162.031 127.873V129.717H161.094V124.795H162.031V126.834C162.203 126.443 162.641 126.178 163.156 126.178C164.078 126.178 164.414 126.803 164.414 127.568V129.717H163.476V127.756C163.476 127.225 163.266 126.92 162.805 126.92C162.328 126.92 162.031 127.295 162.031 127.873ZM167.691 128.514L168.449 128.592C168.269 129.357 167.675 129.811 166.793 129.811C165.73 129.811 164.965 129.131 164.965 128.045C164.965 126.959 165.738 126.178 166.769 126.178C167.894 126.178 168.472 126.959 168.472 127.897V128.232H165.886C165.918 128.74 166.316 129.1 166.824 129.1C167.285 129.1 167.558 128.904 167.691 128.514ZM165.902 127.647H167.558C167.527 127.248 167.285 126.865 166.761 126.865C166.246 126.865 165.988 127.217 165.902 127.647ZM171.651 128.061V127.928C171.651 127.303 171.268 126.912 170.737 126.912C170.151 126.912 169.846 127.342 169.846 127.998C169.846 128.647 170.151 129.076 170.737 129.076C171.268 129.076 171.651 128.693 171.651 128.061ZM171.643 129.717V129.061C171.487 129.475 171.065 129.811 170.456 129.811C169.432 129.811 168.901 129.014 168.901 127.998C168.901 126.983 169.432 126.178 170.456 126.178C171.065 126.178 171.487 126.514 171.643 126.936V124.795H172.581V129.717H171.643Z" fill="#121212"/>
<path d="M23.7508 15.6924V18.5806H12.5317V15.6924H23.7508ZM13.4316 6.86809V28H9.78865V6.86809H13.4316ZM26.5519 6.86809V28H22.9235V6.86809H26.5519ZM37.4662 28.2903C36.3051 28.2903 35.2553 28.1016 34.3168 27.7242C33.3879 27.3372 32.5945 26.8002 31.9365 26.1132C31.2882 25.4262 30.7899 24.6183 30.4416 23.6894C30.0933 22.7606 29.9191 21.7591 29.9191 20.6851V20.1046C29.9191 18.8757 30.0981 17.763 30.4561 16.7664C30.8141 15.7698 31.3124 14.9183 31.951 14.212C32.5896 13.496 33.3443 12.9493 34.2152 12.572C35.086 12.1946 36.0294 12.0059 37.0453 12.0059C38.1677 12.0059 39.1498 12.1946 39.9916 12.572C40.8334 12.9493 41.5301 13.4815 42.0816 14.1685C42.6428 14.8458 43.0588 15.6537 43.3297 16.5923C43.6103 17.5308 43.7506 18.5661 43.7506 19.6982V21.1931H31.6172V18.6822H40.2964V18.4065C40.277 17.7775 40.1513 17.1873 39.919 16.6358C39.6965 16.0843 39.353 15.6392 38.8886 15.3005C38.4241 14.9619 37.8049 14.7926 37.0308 14.7926C36.4503 14.7926 35.9326 14.9183 35.4778 15.1699C35.0328 15.4118 34.6602 15.765 34.3603 16.2294C34.0603 16.6938 33.8281 17.255 33.6636 17.913C33.5088 18.5613 33.4314 19.2918 33.4314 20.1046V20.6851C33.4314 21.3721 33.5233 22.0107 33.7072 22.6009C33.9007 23.1815 34.1813 23.6894 34.549 24.1248C34.9167 24.5603 35.3617 24.9037 35.8842 25.1553C36.4067 25.3972 37.0018 25.5182 37.6694 25.5182C38.5112 25.5182 39.2611 25.3488 39.919 25.0102C40.577 24.6715 41.1479 24.1926 41.6316 23.5733L43.4749 25.3585C43.1362 25.852 42.696 26.3261 42.1541 26.7809C41.6123 27.2259 40.9495 27.5888 40.1658 27.8694C39.3917 28.15 38.4919 28.2903 37.4662 28.2903ZM18.2937 59.8505V52.3615C18.2937 51.8003 18.1921 51.3165 17.9889 50.9101C17.7857 50.5037 17.4761 50.1893 17.06 49.9667C16.6536 49.7442 16.1408 49.6329 15.5215 49.6329C14.9507 49.6329 14.4572 49.7297 14.0412 49.9232C13.6251 50.1167 13.301 50.3779 13.0687 50.7069C12.8365 51.0359 12.7204 51.4084 12.7204 51.8245H9.23713C9.23713 51.2052 9.3871 50.6053 9.68705 50.0248C9.987 49.4442 10.4224 48.9266 10.9933 48.4718C11.5642 48.0171 12.2463 47.659 13.0397 47.3978C13.8331 47.1366 14.7233 47.0059 15.7102 47.0059C16.8907 47.0059 17.9357 47.2043 18.8452 47.601C19.7644 47.9977 20.4852 48.5976 21.0077 49.4007C21.5399 50.1941 21.806 51.1907 21.806 52.3905V59.3716C21.806 60.0876 21.8543 60.731 21.9511 61.3019C22.0575 61.8631 22.2075 62.3517 22.401 62.7678V63H18.8162C18.6517 62.6226 18.521 62.1437 18.4243 61.5631C18.3372 60.9729 18.2937 60.4021 18.2937 59.8505ZM18.8016 53.45L18.8307 55.6125H16.3198C15.6715 55.6125 15.1007 55.6754 14.6072 55.8012C14.1137 55.9173 13.7025 56.0915 13.3735 56.3237C13.0445 56.5559 12.7978 56.8365 12.6333 57.1655C12.4688 57.4945 12.3866 57.867 12.3866 58.2831C12.3866 58.6991 12.4834 59.0813 12.6769 59.4296C12.8704 59.7683 13.151 60.0344 13.5187 60.2279C13.896 60.4214 14.3508 60.5182 14.8829 60.5182C15.599 60.5182 16.223 60.373 16.7552 60.0828C17.2971 59.7828 17.7228 59.42 18.0324 58.9942C18.342 58.5588 18.5065 58.1476 18.5259 57.7606L19.6579 59.3135C19.5418 59.7102 19.3435 60.136 19.0629 60.5907C18.7823 61.0455 18.4146 61.4809 17.9598 61.897C17.5148 62.3033 16.9778 62.6372 16.3488 62.8984C15.7296 63.1597 15.0136 63.2903 14.2008 63.2903C13.1752 63.2903 12.2608 63.0871 11.4577 62.6807C10.6546 62.2646 10.0257 61.7083 9.57094 61.0116C9.11618 60.3053 8.8888 59.507 8.8888 58.6169C8.8888 57.7848 9.04361 57.0494 9.35324 56.4108C9.67254 55.7625 10.137 55.2207 10.7466 54.7853C11.3658 54.3499 12.1205 54.0209 13.0107 53.7983C13.9009 53.5661 14.9168 53.45 16.0586 53.45H18.8016ZM29.2079 40.707V63H25.6956V40.707H29.2079ZM40.2383 47.2962V49.8506H31.385V47.2962H40.2383ZM33.9394 43.4501H37.4372V58.6604C37.4372 59.1442 37.5049 59.5167 37.6404 59.778C37.7855 60.0295 37.9839 60.1989 38.2354 60.2859C38.487 60.373 38.7821 60.4166 39.1208 60.4166C39.3627 60.4166 39.5949 60.4021 39.8174 60.373C40.04 60.344 40.219 60.315 40.3544 60.2859L40.369 62.9565C40.0787 63.0435 39.74 63.1209 39.353 63.1887C38.9756 63.2564 38.5402 63.2903 38.0468 63.2903C37.2437 63.2903 36.5325 63.15 35.9133 62.8694C35.294 62.5791 34.8102 62.1098 34.4619 61.4616C34.1136 60.8133 33.9394 59.9521 33.9394 58.8781V43.4501ZM12.8946 75.707V98H9.41129V75.707H12.8946ZM12.285 89.5676L11.1529 89.553C11.1626 88.4694 11.3126 87.4679 11.6029 86.5487C11.9028 85.6295 12.3189 84.8313 12.851 84.154C13.3929 83.467 14.0412 82.9396 14.7959 82.572C15.5506 82.1946 16.3875 82.0059 17.3067 82.0059C18.0808 82.0059 18.7774 82.1124 19.3967 82.3252C20.0256 82.5381 20.5675 82.8816 21.0222 83.3557C21.477 83.8201 21.8205 84.4297 22.0527 85.1844C22.2946 85.9295 22.4155 86.839 22.4155 87.913V98H18.9032V87.884C18.9032 87.1293 18.792 86.5294 18.5694 86.0843C18.3566 85.6392 18.0421 85.3199 17.626 85.1264C17.21 84.9232 16.702 84.8216 16.1021 84.8216C15.4732 84.8216 14.9168 84.9474 14.433 85.1989C13.9589 85.4505 13.5622 85.794 13.2429 86.2294C12.9236 86.6648 12.6817 87.168 12.5172 87.7388C12.3624 88.3097 12.285 88.9193 12.285 89.5676Z" fill="white"/>
<path d="M132.603 48.0072C138.222 48.0072 142.777 43.354 142.777 37.6139C142.777 31.8739 138.222 27.2207 132.603 27.2207C126.985 27.2207 122.43 31.8739 122.43 37.6139C122.43 43.354 126.985 48.0072 132.603 48.0072Z" fill="#3D3D3D"/>
<path d="M141.147 37.9201C141.316 33.1003 137.627 29.0539 132.909 28.8822C128.191 28.7105 124.23 32.4785 124.062 37.2984C123.894 42.1182 127.582 46.1646 132.3 46.3363C137.018 46.5079 140.979 42.7399 141.147 37.9201Z" fill="white"/>
<path d="M136.442 42.7499C136.404 42.3739 135.365 42.7494 135.096 42.3051C135.055 42.2376 134.975 42.2869 134.956 42.3004C134.893 42.1213 134.877 41.7947 134.86 41.0489L134.856 38.5635C134.856 38.5635 134.817 38.4686 134.744 38.3197L134.845 38.2686C134.475 37.7917 133.77 36.8035 133.77 36.8035C133.77 36.8035 133.793 36.4653 133.819 36.0591L135.349 35.7399C135.349 35.7399 135.582 35.8265 135.706 35.8372C135.83 35.8479 135.901 35.6915 135.973 35.6041C136.045 35.5166 136.01 35.3794 136.007 35.3026C136.006 35.2817 135.959 35.2784 135.889 35.284L135.89 35.2835C135.89 35.2835 135.902 35.2719 135.907 35.2649H135.906C135.947 35.2105 135.925 35.1519 135.897 35.1565C135.852 35.1639 135.362 35.3822 135.362 35.3822L134.082 35.411L133.861 35.4157C133.885 35.0486 133.905 34.7382 133.906 34.6852C133.91 34.5442 133.996 34.2465 133.843 33.671C133.69 33.0954 133.469 33.102 133.469 33.102L133.43 32.8572L133.411 32.7353C133.566 32.7321 133.635 32.6218 133.649 32.3734C133.656 32.2538 133.648 32.1812 133.634 32.0938L133.748 32.0114L133.576 31.7169L133.638 31.7002L133.536 31.3168L133.535 31.3173C133.598 31.2805 133.66 31.2396 133.719 31.1926C133.719 31.1926 133.407 30.5668 132.565 31.3303C132.527 31.3642 132.5 31.4094 132.488 31.4592C132.46 31.5792 132.431 31.8081 132.568 31.9537C132.531 31.9872 132.522 32.0412 132.532 32.11C132.548 32.2115 132.601 32.305 132.7 32.2887C132.701 32.2882 132.703 32.2878 132.704 32.2878L132.676 32.9317C132.149 32.7465 131.688 33.3704 131.731 33.872C131.734 33.9068 131.735 33.9524 131.734 34.0059C131.131 34.6001 130.721 35.1602 130.721 35.1602L131.411 36.803C131.395 36.9124 131.386 36.9761 131.386 36.9761L130.531 38.3574C130.531 38.3574 130.622 38.4258 130.765 38.524C130.192 38.6668 129.178 38.9781 128.461 39.5233C128.201 39.6234 127.822 39.7662 127.53 39.8607C127.531 39.8579 127.532 39.856 127.532 39.856C127.532 39.856 127.228 39.8616 127.117 39.8709C127.115 39.8709 127.114 39.8709 127.113 39.8714C127.11 39.8718 127.107 39.8718 127.103 39.8723C127.102 39.8723 127.101 39.8723 127.1 39.8727C127.097 39.8732 127.093 39.8737 127.09 39.8741C127.085 39.8751 127.081 39.8755 127.077 39.8765C127.059 39.8797 127.045 39.8839 127.033 39.8928C127.03 39.8951 127.027 39.8974 127.024 39.9002C127 39.9253 126.987 39.9779 126.978 40.0965C126.977 40.1096 126.975 40.1235 126.975 40.1384C126.974 40.1533 126.973 40.1677 126.973 40.1812C126.971 40.3748 127.055 40.4692 127.101 40.5325C127.104 40.5371 127.107 40.5413 127.11 40.5455C127.156 40.6134 127.064 40.9112 127.071 41.269C127.075 41.6151 127.282 41.7691 127.449 41.7505C127.48 41.7514 127.512 41.7486 127.545 41.7417C127.907 41.6635 127.435 40.6465 127.839 40.3273C127.91 40.2719 127.826 40.1807 127.826 40.1807C127.824 40.1812 127.822 40.1817 127.82 40.1821C127.985 40.0928 128.299 40.0291 129.015 39.9021L131.421 39.5327C131.421 39.5327 131.63 39.3828 131.869 39.126C132.013 39.1781 132.151 39.2135 132.275 39.2214L132.807 38.2969L132.882 38.3872L133.057 38.598L133.393 39.0013L133.67 38.8613C133.757 39.2865 133.998 40.3748 134.341 41.2359C134.341 41.2359 134.524 42.0515 134.603 42.5684C134.603 42.5684 134.589 42.7359 134.581 42.8694V42.8704C134.58 42.8769 134.58 42.8829 134.58 42.889C134.58 42.8932 134.58 42.8973 134.579 42.9011C134.579 42.9085 134.578 42.9155 134.578 42.9225C134.577 42.929 134.577 42.9355 134.577 42.9415C134.577 42.9453 134.576 42.949 134.576 42.9527C134.576 42.9592 134.576 42.9657 134.575 42.9718C134.575 42.9736 134.575 42.976 134.575 42.9774C134.575 42.9848 134.575 42.9913 134.575 42.9974C134.575 42.9992 134.575 43.0006 134.575 43.002C134.575 43.0081 134.575 43.0137 134.575 43.0183C134.575 43.0332 134.576 43.0462 134.579 43.0579C134.59 43.1039 134.627 43.1262 134.78 43.156C134.793 43.1583 134.806 43.1611 134.821 43.1635C135.05 43.2049 135.161 43.1067 135.231 43.0672C135.302 43.0276 135.582 43.1518 135.932 43.1816C136.269 43.2123 136.44 43.0178 136.44 42.8471C136.445 42.8169 136.446 42.7838 136.442 42.7499ZM131.482 35.2747C131.532 35.2333 131.582 35.1933 131.632 35.1532C131.612 35.3221 131.591 35.4943 131.569 35.6622L131.482 35.2747Z" fill="#3D3D3D"/>
<path d="M177.124 28.9375H148.051V33.1294H177.124V28.9375Z" fill="#3D3D3D"/>
<path d="M181.232 33.2181H181.93C182.153 33.2181 182.337 33.1804 182.482 33.1048C182.627 33.0263 182.735 32.9175 182.804 32.7785C182.877 32.6365 182.913 32.4718 182.913 32.2845C182.913 32.1153 182.88 31.9658 182.813 31.8358C182.75 31.7029 182.652 31.6002 182.519 31.5277C182.386 31.4521 182.218 31.4144 182.016 31.4144C181.855 31.4144 181.707 31.4461 181.571 31.5095C181.436 31.573 181.327 31.6621 181.245 31.7769C181.164 31.8917 181.123 32.0307 181.123 32.1939H179.813C179.813 31.8313 179.91 31.5156 180.103 31.2467C180.299 30.9778 180.562 30.7678 180.892 30.6167C181.221 30.4656 181.584 30.3901 181.979 30.3901C182.427 30.3901 182.818 30.4626 183.153 30.6076C183.489 30.7496 183.75 30.9596 183.937 31.2376C184.125 31.5156 184.218 31.86 184.218 32.2709C184.218 32.4794 184.17 32.6818 184.073 32.8782C183.977 33.0716 183.838 33.2468 183.656 33.4039C183.478 33.558 183.26 33.6819 183.004 33.7756C182.747 33.8662 182.458 33.9115 182.138 33.9115H181.232V33.2181ZM181.232 34.2106V33.5354H182.138C182.498 33.5354 182.813 33.5762 183.085 33.6577C183.357 33.7393 183.585 33.8571 183.77 34.0112C183.954 34.1623 184.093 34.3421 184.186 34.5506C184.28 34.756 184.327 34.9841 184.327 35.2349C184.327 35.5431 184.268 35.818 184.15 36.0597C184.032 36.2984 183.866 36.5009 183.652 36.667C183.44 36.8332 183.192 36.9601 182.908 37.0477C182.624 37.1323 182.315 37.1746 181.979 37.1746C181.701 37.1746 181.428 37.1369 181.159 37.0613C180.893 36.9828 180.651 36.8664 180.434 36.7124C180.219 36.5552 180.047 36.3589 179.917 36.1232C179.79 35.8845 179.727 35.602 179.727 35.2757H181.037C181.037 35.4449 181.079 35.596 181.164 35.7289C181.248 35.8618 181.365 35.9661 181.513 36.0416C181.664 36.1171 181.831 36.1549 182.016 36.1549C182.224 36.1549 182.402 36.1171 182.55 36.0416C182.701 35.963 182.816 35.8543 182.895 35.7153C182.976 35.5733 183.017 35.4086 183.017 35.2213C183.017 34.9796 182.973 34.7862 182.886 34.6412C182.798 34.4931 182.673 34.3844 182.51 34.3149C182.346 34.2454 182.153 34.2106 181.93 34.2106H181.232ZM189.738 36.0643V37.084H185.224V36.2138L187.359 33.9251C187.573 33.6864 187.743 33.4764 187.867 33.2952C187.99 33.1109 188.08 32.9462 188.134 32.8012C188.191 32.6531 188.22 32.5126 188.22 32.3797C188.22 32.1803 188.187 32.0096 188.12 31.8676C188.054 31.7225 187.956 31.6107 187.826 31.5322C187.699 31.4536 187.542 31.4144 187.354 31.4144C187.155 31.4144 186.983 31.4627 186.838 31.5594C186.696 31.6561 186.587 31.7905 186.511 31.9627C186.439 32.135 186.403 32.3298 186.403 32.5474H185.093C185.093 32.1546 185.187 31.795 185.374 31.4687C185.561 31.1394 185.826 30.8781 186.167 30.6847C186.508 30.4883 186.913 30.3901 187.382 30.3901C187.844 30.3901 188.234 30.4656 188.551 30.6167C188.871 30.7648 189.113 30.9793 189.276 31.2603C189.442 31.5382 189.525 31.8706 189.525 32.2573C189.525 32.4749 189.491 32.6879 189.421 32.8963C189.352 33.1018 189.252 33.3073 189.122 33.5127C188.995 33.7151 188.841 33.9206 188.66 34.1291C188.478 34.3375 188.277 34.5536 188.057 34.7772L186.91 36.0643H189.738Z" fill="white"/>
<path d="M184.635 31.2973V31.0727C184.635 30.9114 184.67 30.7646 184.74 30.6324C184.81 30.5002 184.913 30.3943 185.049 30.3146C185.186 30.2349 185.353 30.195 185.551 30.195C185.755 30.195 185.925 30.2349 186.061 30.3146C186.199 30.3943 186.302 30.5002 186.37 30.6324C186.44 30.7646 186.475 30.9114 186.475 31.0727V31.2973C186.475 31.4547 186.44 31.5995 186.37 31.7317C186.302 31.8639 186.2 31.9699 186.064 32.0496C185.928 32.1293 185.759 32.1691 185.557 32.1691C185.357 32.1691 185.188 32.1293 185.049 32.0496C184.913 31.9699 184.81 31.8639 184.74 31.7317C184.67 31.5995 184.635 31.4547 184.635 31.2973ZM185.192 31.0727V31.2973C185.192 31.3653 185.205 31.4304 185.23 31.4926C185.257 31.5529 185.298 31.6025 185.353 31.6413C185.409 31.6783 185.477 31.6967 185.557 31.6967C185.64 31.6967 185.709 31.6783 185.761 31.6413C185.813 31.6025 185.852 31.5529 185.878 31.4926C185.903 31.4304 185.916 31.3653 185.916 31.2973V31.0727C185.916 31.0008 185.902 30.9347 185.875 30.8744C185.849 30.8122 185.81 30.7626 185.755 30.7257C185.703 30.6868 185.635 30.6674 185.551 30.6674C185.473 30.6674 185.407 30.6868 185.353 30.7257C185.298 30.7626 185.257 30.8122 185.23 30.8744C185.205 30.9347 185.192 31.0008 185.192 31.0727ZM186.665 33.6855V33.4609C186.665 33.3015 186.7 33.1557 186.77 33.0235C186.842 32.8913 186.946 32.7854 187.082 32.7057C187.22 32.626 187.389 32.5861 187.589 32.5861C187.792 32.5861 187.961 32.626 188.097 32.7057C188.233 32.7854 188.336 32.8913 188.406 33.0235C188.476 33.1557 188.511 33.3015 188.511 33.4609V33.6855C188.511 33.8449 188.476 33.9907 188.406 34.1229C188.338 34.2551 188.236 34.361 188.1 34.4407C187.964 34.5204 187.795 34.5603 187.595 34.5603C187.393 34.5603 187.223 34.5204 187.085 34.4407C186.947 34.361 186.842 34.2551 186.77 34.1229C186.7 33.9907 186.665 33.8449 186.665 33.6855ZM187.225 33.4609V33.6855C187.225 33.7555 187.24 33.8215 187.271 33.8838C187.303 33.946 187.345 33.9955 187.4 34.0325C187.456 34.0694 187.521 34.0879 187.595 34.0879C187.688 34.0879 187.761 34.0694 187.814 34.0325C187.866 33.9955 187.902 33.946 187.922 33.8838C187.943 33.8215 187.954 33.7555 187.954 33.6855V33.4609C187.954 33.391 187.94 33.3258 187.913 33.2656C187.886 33.2034 187.845 33.1538 187.791 33.1168C187.738 33.078 187.671 33.0585 187.589 33.0585C187.508 33.0585 187.44 33.078 187.385 33.1168C187.333 33.1538 187.293 33.2034 187.266 33.2656C187.238 33.3258 187.225 33.391 187.225 33.4609ZM187.796 30.8628L185.723 34.1812L185.315 33.9654L187.388 30.647L187.796 30.8628Z" fill="white"/>
<path d="M191.524 35.5566H148.051V39.7485H191.524V35.5566Z" fill="#3D3D3D"/>
<path d="M194.869 40.6984L193.827 40.4491L194.203 37.1044H197.91V38.1604H195.277L195.114 39.6243C195.201 39.5729 195.334 39.5185 195.512 39.4611C195.691 39.4007 195.89 39.3705 196.111 39.3705C196.431 39.3705 196.715 39.4203 196.963 39.52C197.21 39.6197 197.42 39.7647 197.593 39.9551C197.768 40.1454 197.901 40.3781 197.992 40.653C198.082 40.928 198.127 41.2392 198.127 41.5866C198.127 41.8797 198.082 42.1592 197.992 42.4251C197.901 42.6879 197.763 42.9236 197.579 43.1321C197.395 43.3375 197.164 43.4992 196.886 43.617C196.608 43.7348 196.278 43.7938 195.898 43.7938C195.614 43.7938 195.339 43.7515 195.073 43.6669C194.81 43.5823 194.573 43.4569 194.361 43.2907C194.153 43.1245 193.985 42.9236 193.858 42.6879C193.734 42.4492 193.669 42.1773 193.663 41.8722H194.96C194.978 42.0595 195.026 42.2211 195.105 42.3571C195.186 42.49 195.293 42.5928 195.426 42.6653C195.559 42.7378 195.715 42.774 195.893 42.774C196.059 42.774 196.201 42.7423 196.319 42.6789C196.437 42.6154 196.532 42.5278 196.605 42.416C196.677 42.3012 196.73 42.1683 196.763 42.0172C196.8 41.8631 196.818 41.6969 196.818 41.5187C196.818 41.3404 196.797 41.1788 196.754 41.0337C196.712 40.8887 196.647 40.7633 196.559 40.6576C196.472 40.5518 196.36 40.4702 196.224 40.4128C196.091 40.3554 195.935 40.3267 195.757 40.3267C195.515 40.3267 195.328 40.3645 195.195 40.44C195.065 40.5156 194.957 40.6017 194.869 40.6984ZM202.152 37.0908V43.7031H200.847V38.5955L199.279 39.094V38.0652L202.011 37.0908H202.152Z" fill="white"/>
<path d="M198.081 37.9164V37.6919C198.081 37.5305 198.116 37.3837 198.186 37.2515C198.256 37.1193 198.359 37.0134 198.495 36.9337C198.631 36.854 198.798 36.8141 198.996 36.8141C199.2 36.8141 199.371 36.854 199.507 36.9337C199.645 37.0134 199.748 37.1193 199.816 37.2515C199.886 37.3837 199.921 37.5305 199.921 37.6919V37.9164C199.921 38.0739 199.886 38.2187 199.816 38.3509C199.748 38.4831 199.646 38.589 199.51 38.6687C199.373 38.7484 199.204 38.7883 199.002 38.7883C198.802 38.7883 198.633 38.7484 198.495 38.6687C198.359 38.589 198.256 38.4831 198.186 38.3509C198.116 38.2187 198.081 38.0739 198.081 37.9164ZM198.638 37.6919V37.9164C198.638 37.9844 198.65 38.0496 198.676 38.1118C198.703 38.172 198.744 38.2216 198.798 38.2605C198.854 38.2974 198.922 38.3159 199.002 38.3159C199.086 38.3159 199.154 38.2974 199.206 38.2605C199.259 38.2216 199.298 38.172 199.323 38.1118C199.348 38.0496 199.361 37.9844 199.361 37.9164V37.6919C199.361 37.6199 199.347 37.5538 199.32 37.4936C199.295 37.4314 199.255 37.3818 199.2 37.3449C199.148 37.306 199.08 37.2865 198.996 37.2865C198.919 37.2865 198.852 37.306 198.798 37.3449C198.744 37.3818 198.703 37.4314 198.676 37.4936C198.65 37.5538 198.638 37.6199 198.638 37.6919ZM200.11 40.3046V40.0801C200.11 39.9207 200.145 39.7749 200.215 39.6427C200.287 39.5105 200.391 39.4045 200.527 39.3248C200.665 39.2451 200.834 39.2053 201.035 39.2053C201.237 39.2053 201.406 39.2451 201.542 39.3248C201.678 39.4045 201.781 39.5105 201.851 39.6427C201.921 39.7749 201.956 39.9207 201.956 40.0801V40.3046C201.956 40.464 201.921 40.6098 201.851 40.742C201.783 40.8742 201.681 40.9802 201.545 41.0599C201.409 41.1396 201.241 41.1794 201.04 41.1794C200.838 41.1794 200.668 41.1396 200.53 41.0599C200.392 40.9802 200.287 40.8742 200.215 40.742C200.145 40.6098 200.11 40.464 200.11 40.3046ZM200.67 40.0801V40.3046C200.67 40.3746 200.686 40.4407 200.717 40.5029C200.748 40.5651 200.791 40.6147 200.845 40.6516C200.901 40.6886 200.967 40.707 201.04 40.707C201.134 40.707 201.207 40.6886 201.259 40.6516C201.312 40.6147 201.348 40.5651 201.367 40.5029C201.388 40.4407 201.399 40.3746 201.399 40.3046V40.0801C201.399 40.0101 201.386 39.945 201.358 39.8847C201.331 39.8225 201.29 39.7729 201.236 39.736C201.183 39.6971 201.116 39.6777 201.035 39.6777C200.953 39.6777 200.885 39.6971 200.831 39.736C200.778 39.7729 200.738 39.8225 200.711 39.8847C200.684 39.945 200.67 40.0101 200.67 40.0801ZM201.242 37.4819L199.168 40.8003L198.76 40.5845L200.833 37.2661L201.242 37.4819Z" fill="white"/>
<path d="M163.41 42.1738H148.051V46.3657H163.41V42.1738Z" fill="#3D3D3D"/>
<path d="M168.572 43.71V50.3223H167.267V45.2146L165.699 45.7131V44.6844L168.432 43.71H168.572ZM175.203 43.7236V44.426L172.651 50.3223H171.273L173.825 44.7433H170.539V43.7236H175.203Z" fill="white"/>
<path d="M170.428 44.5355V44.311C170.428 44.1496 170.463 44.0029 170.533 43.8707C170.603 43.7385 170.706 43.6325 170.842 43.5528C170.979 43.4731 171.146 43.4333 171.344 43.4333C171.548 43.4333 171.718 43.4731 171.854 43.5528C171.992 43.6325 172.095 43.7385 172.163 43.8707C172.233 44.0029 172.268 44.1496 172.268 44.311V44.5355C172.268 44.693 172.233 44.8378 172.163 44.97C172.095 45.1022 171.993 45.2082 171.857 45.2879C171.721 45.3676 171.552 45.4074 171.35 45.4074C171.15 45.4074 170.98 45.3676 170.842 45.2879C170.706 45.2082 170.603 45.1022 170.533 44.97C170.463 44.8378 170.428 44.693 170.428 44.5355ZM170.985 44.311V44.5355C170.985 44.6036 170.998 44.6687 171.023 44.7309C171.05 44.7912 171.091 44.8407 171.146 44.8796C171.202 44.9166 171.27 44.935 171.35 44.935C171.433 44.935 171.501 44.9166 171.554 44.8796C171.606 44.8407 171.645 44.7912 171.671 44.7309C171.696 44.6687 171.709 44.6036 171.709 44.5355V44.311C171.709 44.2391 171.695 44.173 171.668 44.1127C171.642 44.0505 171.603 44.0009 171.548 43.964C171.496 43.9251 171.428 43.9057 171.344 43.9057C171.266 43.9057 171.2 43.9251 171.146 43.964C171.091 44.0009 171.05 44.0505 171.023 44.1127C170.998 44.173 170.985 44.2391 170.985 44.311ZM172.458 46.9237V46.6992C172.458 46.5398 172.493 46.394 172.563 46.2618C172.635 46.1296 172.739 46.0237 172.875 45.944C173.013 45.8643 173.182 45.8244 173.382 45.8244C173.584 45.8244 173.754 45.8643 173.89 45.944C174.026 46.0237 174.129 46.1296 174.199 46.2618C174.269 46.394 174.304 46.5398 174.304 46.6992V46.9237C174.304 47.0832 174.269 47.229 174.199 47.3612C174.131 47.4933 174.029 47.5993 173.893 47.679C173.757 47.7587 173.588 47.7986 173.388 47.7986C173.186 47.7986 173.016 47.7587 172.878 47.679C172.74 47.5993 172.635 47.4933 172.563 47.3612C172.493 47.229 172.458 47.0832 172.458 46.9237ZM173.018 46.6992V46.9237C173.018 46.9937 173.033 47.0598 173.064 47.122C173.096 47.1842 173.138 47.2338 173.193 47.2708C173.249 47.3077 173.314 47.3262 173.388 47.3262C173.481 47.3262 173.554 47.3077 173.607 47.2708C173.659 47.2338 173.695 47.1842 173.715 47.122C173.736 47.0598 173.747 46.9937 173.747 46.9237V46.6992C173.747 46.6292 173.733 46.5641 173.706 46.5038C173.679 46.4416 173.638 46.3921 173.584 46.3551C173.531 46.3162 173.464 46.2968 173.382 46.2968C173.301 46.2968 173.233 46.3162 173.178 46.3551C173.126 46.3921 173.086 46.4416 173.059 46.5038C173.031 46.5641 173.018 46.6292 173.018 46.6992ZM173.589 44.101L171.516 47.4195L171.108 47.2037L173.181 43.8853L173.589 44.101Z" fill="white"/>
</g>
</svg>
