<svg width="393" height="852" viewBox="0 0 393 852" fill="none" xmlns="http://www.w3.org/2000/svg">
<g clip-path="url(#clip0_2_11)">
<rect width="393" height="852" fill="white"/>
<rect width="393" height="852" fill="white"/>
<path opacity="0.24" d="M276.466 102L390 -4.49L381.456 -13L272 102H276.466Z" fill="white"/>
<path opacity="0.41" d="M91.253 351L-4 441.748L3.16785 449L95 351H91.253Z" fill="white"/>
<path opacity="0.41" d="M327.747 308L423 398.748L415.832 406L324 308H327.747Z" fill="white"/>
<path opacity="0.24" d="M138.133 99L-11 -41.752L0.222394 -53L144 99H138.133Z" fill="white"/>
<path opacity="0.79" d="M326.5 -10.5C326.5 82.2824 251.061 157.5 158 157.5C64.9386 157.5 -10.5 82.2824 -10.5 -10.5C-10.5 -103.282 64.9386 -178.5 158 -178.5C251.061 -178.5 326.5 -103.282 326.5 -10.5Z" stroke="#E7E7E7"/>
<path d="M36.5018 124.937C48.3748 124.937 57.9998 115.326 57.9998 103.471C57.9998 91.6159 48.3748 82.0055 36.5018 82.0055C24.6288 82.0055 15.0038 91.6159 15.0038 103.471C15.0038 115.326 24.6288 124.937 36.5018 124.937Z" fill="#3D3D3D"/>
<path d="M51.484 88.0698C49.6335 86.2742 47.4265 84.7826 44.909 83.7147C33.9814 79.079 21.3591 84.1663 16.7164 95.0775C14.7362 99.7314 14.5288 104.693 15.7886 109.213C17.6392 111.008 19.8462 112.5 22.3636 113.568C33.2913 118.204 45.9135 113.116 50.5562 102.205C52.5364 97.5512 52.7439 92.5898 51.484 88.0698Z" fill="#3D3D3D"/>
<path d="M25.6336 95.167C25.6336 95.167 25.0036 100.536 25.7891 103.493L34.8412 105.778C34.8412 105.778 39.3848 99.4456 39.8731 97.612C39.8731 97.612 34.2665 91.3466 33.7244 91.0194C33.7244 91.0194 27.6962 92.8352 25.6336 95.167Z" fill="#D1D1D1"/>
<path d="M15.9354 97.3702C15.9354 97.3702 18.8862 93.1801 20.1659 92.4596C20.1659 92.4596 21.8224 88.1091 22.9125 86.9195C22.9125 86.9195 17.7029 90.9289 15.9354 97.3702Z" fill="#D1D1D1"/>
<path d="M15.4336 106.779C15.4336 106.779 19.3456 109.021 20.6522 109.381C20.6522 109.381 23.8847 116.195 24.9936 117.248C24.9936 117.248 23.7758 118.967 22.3187 119.417C22.3187 119.417 16.2589 114.903 15.4336 106.779Z" fill="#D1D1D1"/>
<path d="M38.4513 113.53L33.6953 119.675C33.6953 119.675 36.1874 122.967 39.1284 123.146C42.0694 123.325 47.5862 119.737 47.5862 119.737C47.5862 119.737 48.1154 115.977 46.8971 113.809C46.8971 113.809 39.6879 114.054 38.4513 113.53Z" fill="#D1D1D1"/>
<path d="M48.3066 97.691C48.3066 97.691 51.4319 104.07 51.7907 105.971C51.7907 105.971 56.5514 105.076 56.9265 104.652C57.3015 104.228 56.9999 98.0748 56.0515 95.729C55.1032 93.3831 51.0635 91.6694 51.0635 91.6694L48.3066 97.691Z" fill="#D1D1D1"/>
<path d="M31.416 82.9464C31.416 82.9464 35.7483 84.2012 36.715 84.9027C36.715 84.9027 43.2894 84.7764 45.2557 85.4162C45.2557 85.4162 45.5812 84.1938 44.9092 83.7144C44.2374 83.235 35.6573 81.4416 31.416 82.9464Z" fill="#D1D1D1"/>
<path d="M34.9202 105.745L34.7578 105.821L38.3694 113.572L38.5318 113.497L34.9202 105.745Z" fill="#D1D1D1"/>
<path d="M39.8747 97.5176L39.873 97.6964L48.3069 97.7756L48.3086 97.5967L39.8747 97.5176Z" fill="#D1D1D1"/>
<path d="M46.9491 113.881L46.8438 113.736C50.1599 111.329 51.687 106.001 51.702 105.948L51.8744 105.996C51.8592 106.05 50.315 111.437 46.9491 113.881Z" fill="#D1D1D1"/>
<path d="M47.5895 119.826L47.584 119.648C47.6093 119.647 50.1389 119.557 51.6358 118.489L51.74 118.634C50.1983 119.734 47.6953 119.823 47.5895 119.826Z" fill="#D1D1D1"/>
<path d="M33.6826 119.764C29.7514 119.252 25.0084 117.35 24.9609 117.331L25.0281 117.165C25.0753 117.184 29.7976 119.078 33.7057 119.586L33.6826 119.764Z" fill="#D1D1D1"/>
<path d="M37.3629 124.704L37.3047 124.535C38.4009 124.159 39.0457 123.11 39.052 123.1L39.2054 123.192C39.1779 123.238 38.52 124.307 37.3629 124.704Z" fill="#D1D1D1"/>
<path d="M20.7279 109.432L20.58 109.331C20.6084 109.289 23.4478 105.156 25.7328 103.422L25.8412 103.564C23.5792 105.281 20.7561 109.39 20.7279 109.432Z" fill="#D1D1D1"/>
<path d="M25.5867 95.2444C24.2735 94.4956 20.1682 92.5597 20.127 92.5402L20.2034 92.3784C20.2447 92.3979 24.3563 94.3368 25.6756 95.0891L25.5867 95.2444Z" fill="#D1D1D1"/>
<path d="M33.8106 91.0366L33.6348 91.002C33.9696 89.3022 36.5289 85.0377 36.6377 84.8569L36.7913 84.9491C36.7647 84.993 34.1393 89.3674 33.8106 91.0366Z" fill="#D1D1D1"/>
<path d="M50.9786 91.7011C50.0379 89.2087 45.2497 85.5243 45.2014 85.4874L45.3104 85.3454C45.5091 85.4974 50.1875 89.0978 51.1463 91.638L50.9786 91.7011Z" fill="#D1D1D1"/>
<path d="M134.747 177.425C146.755 177.425 156.49 167.705 156.49 155.715C156.49 143.725 146.755 134.005 134.747 134.005C122.739 134.005 113.004 143.725 113.004 155.715C113.004 167.705 122.739 177.425 134.747 177.425Z" fill="#3D3D3D"/>
<path d="M150.781 141.045C149.018 139.123 146.878 137.487 144.399 136.261C133.638 130.939 120.594 135.334 115.264 146.078C112.99 150.661 112.488 155.658 113.494 160.296C115.257 162.217 117.397 163.853 119.876 165.079C130.636 170.402 143.681 166.007 149.011 155.262C151.285 150.68 151.787 145.682 150.781 141.045Z" fill="#3D3D3D"/>
<path d="M156.256 152.531C155.665 151.866 154.906 151.375 154.003 151.083C149.648 149.676 145.356 153.138 144.883 153.464C142.153 155.349 139.33 157.297 133.731 158.257C126.961 159.417 121.508 157.524 117.962 152.781C115.125 148.987 116.511 144.546 117.176 142.925C116.541 143.798 115.963 144.728 115.451 145.714C115.12 147.904 115.289 150.719 117.236 153.323C121.513 159.043 127.893 160.175 133.885 159.148C139.68 158.155 142.587 156.149 145.398 154.208C145.835 153.907 149.811 150.68 153.724 151.944C155.017 152.361 155.921 153.23 156.41 154.527L156.46 154.508C156.423 153.845 156.354 153.185 156.256 152.531Z" fill="#D1D1D1"/>
<path opacity="0.72" d="M154.962 152.622C155.448 156.49 154.84 160.538 152.977 164.293C147.928 174.471 135.571 178.634 125.378 173.592C122.912 172.373 120.799 170.727 119.084 168.788C119.084 168.788 129.798 175.513 141.779 170.25C154.181 164.801 154.962 152.622 154.962 152.622Z" fill="#3D3D3D"/>
<path d="M272.435 132.074C280.486 124.036 280.486 111.003 272.435 102.965C264.385 94.9262 251.332 94.9262 243.282 102.965C235.231 111.003 235.231 124.036 243.282 132.074C251.332 140.112 264.385 140.112 272.435 132.074Z" fill="#3D3D3D"/>
<path d="M273.061 103.61C271.39 101.788 269.36 100.237 267.01 99.0743C256.808 94.0281 244.44 98.1951 239.386 108.382C237.231 112.727 236.755 117.465 237.709 121.862C239.38 123.684 241.409 125.235 243.759 126.397C253.962 131.444 266.329 127.277 271.383 117.09C273.539 112.745 274.014 108.007 273.061 103.61Z" fill="#3D3D3D"/>
<path d="M276.471 126.368C276.598 126.102 276.719 125.834 276.834 125.565C273.881 124.999 260.379 122.256 250.389 117.632C251.439 115.207 254.33 109.312 262.516 107.092C270.454 104.938 276.513 110.041 277.337 110.78C277.148 110.236 276.937 109.699 276.703 109.171C275.947 108.622 274.887 107.944 273.57 107.33C271.018 106.14 266.99 104.989 262.291 106.264C253.74 108.584 250.713 114.724 249.611 117.266C247.742 116.373 246.181 115.553 244.88 114.807C246.151 111.066 248.126 107.697 250.91 104.474C254.815 99.9526 260.553 98.0403 262.584 97.4787C261.98 97.3361 261.373 97.223 260.765 97.1365C258.051 98.0666 253.579 100.07 250.26 103.914C247.483 107.128 245.456 110.585 244.135 114.372C242.972 113.677 242.041 113.054 241.299 112.504C242.461 109.302 244.725 102.018 244.748 101.945L244.474 101.86C244.19 102.101 243.912 102.35 243.641 102.608C243.014 104.606 241.505 109.374 240.584 111.953C239.5 111.077 238.944 110.429 238.662 110.021C238.536 110.341 238.419 110.663 238.31 110.986C238.715 111.468 239.33 112.076 240.266 112.809C239.389 115.06 238.095 117.541 237.297 119.004C237.333 119.498 237.387 119.99 237.459 120.478C237.968 119.584 239.793 116.312 240.978 113.344C241.751 113.904 242.698 114.526 243.858 115.209C243.318 116.909 242.916 118.675 242.65 120.515C242.131 124.109 241.93 128.681 243.345 132.142C243.959 132.749 244.615 133.321 245.313 133.854C242.714 130.613 242.882 124.914 243.5 120.638C243.753 118.893 244.12 117.234 244.609 115.643C245.915 116.384 247.463 117.192 249.295 118.066C248.471 120.668 248.341 127.743 252.726 132.35C255.99 135.779 260.91 136.932 263.515 137.313C264.119 137.141 264.715 136.941 265.301 136.714C265.225 136.711 257.631 136.259 253.348 131.759C249.32 127.527 249.358 120.879 250.078 118.434C259.936 122.985 273.125 125.719 276.471 126.368Z" fill="#D1D1D1"/>
<path opacity="0.17" d="M251.946 110.789C255.852 108.5 257.89 104.723 256.497 102.353C255.104 99.9839 250.808 99.9191 246.902 102.209C242.995 104.498 240.957 108.275 242.35 110.645C243.743 113.014 248.039 113.079 251.946 110.789Z" fill="white"/>
<path opacity="0.57" d="M277.106 114.586C277.567 118.253 276.991 122.092 275.224 125.652C270.437 135.302 258.721 139.249 249.057 134.469C246.72 133.313 244.716 131.752 243.09 129.913C243.09 129.913 253.248 136.29 264.607 131.3C276.365 126.134 277.106 114.586 277.106 114.586Z" fill="#3D3D3D"/>
<path d="M293.073 33.9435C293.863 30.8782 308.642 21.9847 325.277 30.4175C341.274 38.5271 341.696 53.1838 341.1 54.3547C340.503 55.5256 328.151 65.1988 310.523 57.617C293.581 50.3303 292.468 36.2904 293.073 33.9435Z" fill="#3D3D3D"/>
<path d="M332.967 57.003C337.885 56.1844 340.791 54.6278 340.912 54.5619L340.98 54.5253C341.037 54.4567 341.077 54.3991 341.1 54.3541C341.102 54.3507 341.104 54.3467 341.105 54.3429L341.086 54.2131C341.073 54.1256 340.734 52.0345 338.185 48.8871C335.864 46.0209 331.168 41.6783 321.976 37.2672C312.779 32.8536 305.486 32.1131 300.988 32.2692C296.088 32.4392 293.404 33.6484 293.292 33.6998L293.129 33.7748C293.106 33.8325 293.087 33.8887 293.073 33.9428C293.072 33.9469 293.071 33.9514 293.07 33.9556L293.105 34.0923C293.134 34.2038 293.664 36.2263 295.159 39.067C295.656 40.0096 296.258 41.0423 296.984 42.1251C298.694 44.6753 300.736 46.9682 303.052 48.94C305.948 51.4045 309.282 53.3711 312.964 54.7853C321.291 57.984 328.438 57.7569 332.967 57.003ZM313.206 54.1515C305.045 51.0166 300.195 45.6885 297.563 41.7708C295.17 38.2079 294.126 35.1326 293.844 34.2077C294.629 33.9073 297.109 33.0832 301.012 32.9479C305.434 32.7945 312.61 33.5256 321.683 37.8795C330.713 42.2125 335.327 46.4557 337.608 49.2524C339.588 51.6803 340.197 53.4636 340.361 54.0798C339.59 54.4553 336.898 55.6603 332.855 56.3332C328.409 57.0732 321.391 57.2954 313.206 54.1515Z" fill="#3D3D3D"/>
<path d="M310.893 34.0978C310.823 33.9652 310.804 33.806 310.851 33.6514C310.946 33.341 311.274 33.1668 311.585 33.2622C311.646 33.2811 317.788 35.1758 322.063 37.0341C326.35 38.8978 332.419 42.755 332.676 42.9183C332.949 43.0927 333.03 43.4561 332.856 43.7301C332.682 44.0039 332.319 44.0845 332.045 43.91C331.983 43.8705 325.798 39.939 321.596 38.1126C317.38 36.2804 311.302 34.405 311.241 34.3862C311.085 34.3384 310.964 34.2316 310.893 34.0978Z" fill="#D1D1D1"/>
<path d="M310.357 35.9225C310.278 35.7728 310.264 35.5904 310.334 35.422L311.796 31.9068C311.921 31.6072 312.265 31.4658 312.564 31.5909C312.864 31.716 313.005 32.0603 312.881 32.36L311.419 35.8752C311.294 36.1749 310.95 36.3163 310.65 36.1912C310.519 36.1364 310.418 36.0394 310.357 35.9225Z" fill="#D1D1D1"/>
<path d="M313.483 36.9965C313.407 36.853 313.391 36.6791 313.452 36.5155L314.917 32.6084C315.031 32.3045 315.37 32.1509 315.674 32.2653C315.977 32.3798 316.131 32.7188 316.017 33.0228L314.552 36.9299C314.438 37.2337 314.1 37.3873 313.796 37.273C313.656 37.2201 313.547 37.1194 313.483 36.9965Z" fill="#D1D1D1"/>
<path d="M317.001 38.072C316.93 37.9356 316.911 37.7714 316.963 37.6135L318.165 33.9653C318.267 33.6571 318.599 33.4899 318.907 33.592C319.215 33.694 319.383 34.0267 319.281 34.3349L318.079 37.983C317.977 38.2913 317.645 38.4584 317.337 38.3564C317.187 38.3067 317.07 38.202 317.001 38.072Z" fill="#D1D1D1"/>
<path d="M319.736 39.1412C319.657 38.9915 319.643 38.809 319.713 38.6407L321.175 35.1256C321.3 34.826 321.643 34.6845 321.943 34.8096C322.243 34.9347 322.384 35.2791 322.26 35.5788L320.797 39.094C320.673 39.3936 320.329 39.5351 320.029 39.41C319.898 39.3551 319.797 39.2581 319.736 39.1412Z" fill="#D1D1D1"/>
<path d="M322.986 40.7368C322.909 40.5893 322.894 40.4099 322.961 40.2432L324.424 36.5973C324.545 36.2961 324.887 36.1503 325.188 36.2717C325.489 36.3929 325.635 36.7354 325.514 37.0367L324.051 40.6826C323.93 40.9838 323.588 41.1296 323.287 41.0082C323.153 40.9541 323.049 40.8558 322.986 40.7368Z" fill="#D1D1D1"/>
<path d="M325.717 42.1974C325.642 42.0554 325.625 41.8835 325.684 41.7211L327.017 38.0741C327.129 37.7693 327.466 37.6129 327.771 37.7248C328.075 37.8366 328.232 38.1744 328.121 38.4793L326.788 42.1262C326.676 42.4311 326.339 42.5875 326.034 42.4756C325.892 42.4234 325.782 42.3218 325.717 42.1974Z" fill="#D1D1D1"/>
<path d="M328.449 43.6599C328.377 43.5235 328.358 43.3593 328.41 43.2014L329.613 39.5533C329.714 39.2451 330.046 39.0779 330.354 39.1799C330.662 39.2819 330.83 39.6146 330.728 39.9228L329.526 43.571C329.425 43.8792 329.093 44.0464 328.784 43.9443C328.634 43.8946 328.517 43.7898 328.449 43.6599Z" fill="#D1D1D1"/>
<path d="M331.047 45.2503C330.977 45.1179 330.958 44.9591 331.005 44.8048L332.075 41.2862C332.17 40.9757 332.498 40.8009 332.808 40.8959C333.119 40.9907 333.294 41.3195 333.199 41.6301L332.129 45.1487C332.034 45.4592 331.706 45.6339 331.395 45.539C331.239 45.4912 331.117 45.3843 331.047 45.2503Z" fill="#D1D1D1"/>
<path d="M297.908 48.223C298.99 46.1637 301.899 40.3834 303.162 37.4122C304.491 34.2879 305.911 29.541 306.702 27.1995C304.9 27.4177 303.776 27.6871 302.247 28.1499C301.638 29.6222 300.591 32.1939 299.418 35.2531C298.126 38.6216 296.318 42.2784 295.345 44.1776C296.013 45.4981 296.855 46.8629 297.908 48.223Z" fill="#D1D1D1"/>
<path d="M336.457 39.7385C336.102 41.8742 335.287 45.5975 333.488 49.828C330.83 56.0766 327.8 59.8395 327.8 59.8395L327.481 60.2647C329.568 60.0031 331.455 59.5377 333.112 58.9761C334.131 57.1853 335.481 54.6677 336.604 52.0764C337.642 49.6835 338.544 46.8769 339.217 44.5407C338.532 42.9928 337.63 41.3654 336.457 39.7385Z" fill="#D1D1D1"/>
<path opacity="0.28" d="M341.101 54.3544C341.209 54.1435 341.283 53.4945 341.239 52.5252C335.839 54.8953 326.329 56.972 315.623 52.3676C300.504 45.8646 297.991 33.9833 298.055 29.8348C298.054 29.825 298.053 29.8158 298.052 29.806C295.145 31.2623 293.337 32.9244 293.074 33.9431C292.469 36.29 293.583 50.3299 310.525 57.6166C328.153 65.1985 340.505 55.5253 341.101 54.3544Z" fill="#D1D1D1"/>
</g>
<defs>
<clipPath id="clip0_2_11">
<rect width="393" height="852" fill="white"/>
</clipPath>
</defs>
</svg>
