<svg width="393" height="852" viewBox="0 0 393 852" fill="none" xmlns="http://www.w3.org/2000/svg">
<g clip-path="url(#clip0_4_2)">
<rect width="393" height="852" fill="white"/>
<rect width="393" height="852" fill="white"/>
<path opacity="0.24" d="M276.466 102L390 -4.49L381.456 -13L272 102H276.466Z" fill="white"/>
<path opacity="0.41" d="M91.253 351L-4 441.748L3.16785 449L95 351H91.253Z" fill="white"/>
<path opacity="0.41" d="M327.747 308L423 398.748L415.832 406L324 308H327.747Z" fill="white"/>
<path opacity="0.24" d="M138.133 99L-11 -41.752L0.222394 -53L144 99H138.133Z" fill="white"/>
<g opacity="0.45">
<path opacity="0.35" d="M147.146 757.328C154.719 757.328 160.858 755.716 160.858 753.727C160.858 751.738 154.719 750.126 147.146 750.126C139.573 750.126 133.433 751.738 133.433 753.727C133.433 755.716 139.573 757.328 147.146 757.328Z" fill="#D1D1D1"/>
<path d="M161.63 640.864C166.501 645.321 160.341 647.003 160.341 647.003L173.833 658.704L195.442 657.497L174.497 635.278C174.497 635.278 170.544 637.569 169.199 633.676L161.63 640.864Z" fill="#FCCFB2"/>
<path d="M181.622 691.044C177.511 706.527 177.113 713.301 178.744 716.529C185.458 729.82 206.422 744.207 206.422 744.207C206.422 744.207 207.128 747.832 209.161 748.636C211.534 749.574 215.432 747.612 217.795 745.988C217.795 745.988 212.314 738.589 207.929 731.465C203.545 724.34 196.11 718.806 192.858 713.926C190.666 710.638 202.586 697.999 202.586 692.004L181.622 691.044Z" fill="#FCCFB2"/>
<path d="M233.893 695.703C229.453 697.948 223.831 703.017 223.831 703.017C223.831 703.017 223.805 703.031 223.761 703.057C224.3 699.975 225.433 696.076 224.644 691.044C224.644 691.044 217.519 688.304 212.861 689.263C208.202 690.222 206.832 693.236 206.832 693.236C206.832 703.239 207.791 717.524 214.231 719.014C220.671 720.503 226.288 717.078 230.262 712.967C230.262 712.967 230.234 712.976 230.185 712.989C230.234 712.975 230.262 712.967 230.262 712.967C231.724 711.407 234.622 708.05 236.747 705.198C237.609 704.041 238.344 702.967 238.804 702.13C242.047 696.225 240.651 692.286 233.893 695.703Z" fill="#FCCFB2"/>
<path d="M224.903 695.19C224.939 693.899 224.876 692.522 224.644 691.044C224.644 691.044 217.519 688.304 212.861 689.263C208.202 690.222 206.832 693.237 206.832 693.237C206.832 693.475 206.833 693.718 206.834 693.961C210.355 694.789 217.649 696.131 224.903 695.19Z" fill="#F7C0A4"/>
<path d="M180.786 694.279C185.475 695.671 196.349 696.945 200.998 697.02C201.947 695.126 202.586 693.387 202.586 692.003L181.622 691.044C181.323 692.17 181.046 693.244 180.786 694.279Z" fill="#F7C0A4"/>
<path d="M178.902 693.507C184.246 695.661 201.581 695.337 202.815 694.515L204.354 688.437L204.661 693.394C204.661 693.394 217.596 695.429 228.81 692.41C228.81 692.41 225.213 663.911 210.69 657.882C210.69 657.882 202.865 668.915 193.548 669.189C184.231 669.463 190.253 668.573 190.253 668.573C190.253 668.573 184.468 674.481 181.865 681.058C179.697 686.538 178.902 693.507 178.902 693.507Z" fill="#3D3D3D"/>
<path d="M224.311 693.357C223.022 683.856 219.556 666.076 208.869 658.129C208.743 658.294 207.442 661.639 207.255 661.87C217.055 670.454 221.501 687.397 221.924 693.677C222.716 693.589 223.512 693.483 224.311 693.357Z" fill="#D1D1D1"/>
<path d="M159.336 648.021C161.205 645.965 163.273 644.96 163.273 644.96C163.273 644.96 168.711 655.666 173.78 652.042C178.85 648.418 174.496 635.278 174.496 635.278L179.702 633.497C179.702 633.497 181.865 647.185 191.456 648.006C191.456 648.006 200.773 651.432 203.377 658.42C205.98 665.408 184.383 677.009 184.383 677.009C184.383 677.009 177.605 670.404 173.22 667.801C168.835 665.198 166.112 661.571 166.112 661.571C166.112 661.571 158.671 654.843 158.621 652.041C158.571 649.24 159.336 648.021 159.336 648.021Z" fill="#3D3D3D"/>
<path d="M169.198 633.676L161.63 640.864C162.489 641.65 163 642.349 163.267 642.968C166.244 641.74 170.049 638.789 172.254 635.941C171.122 635.998 169.852 635.568 169.198 633.676Z" fill="#F7C0A4"/>
<path d="M151.604 620.922C147.39 630.964 156.385 643.493 158.913 643.965C162.244 644.587 170.336 636.263 170.984 631.553C173.045 616.588 160.333 616.532 156.734 617.08C151.282 617.911 151.604 620.922 151.604 620.922Z" fill="#FCCFB2"/>
<path d="M188.818 616.837C190.358 606.331 181.262 602.571 176.121 604.475C170.98 606.38 170.064 612.965 170.064 612.965C170.064 612.965 167.139 610.418 161.604 611.673C159.051 612.252 157.264 614.155 157.264 614.155C157.264 614.155 147.254 615.783 150.523 626.974C150.523 626.974 150.42 621.436 153.183 619.973C157.033 620.666 161.631 621.667 165.695 628.539C165.695 628.539 165.94 628.799 167.305 628.304C167.175 629.557 166.943 631.734 166.943 631.734C167.566 631.825 168.554 631.611 169.513 631.15C170.247 632.763 170.319 633.675 170.319 633.675C170.319 633.675 174.311 631.144 174.963 624.621C175.477 619.483 172.255 615.783 172.255 615.783C175.796 612.714 178.844 615.08 179.234 621.888C179.623 628.697 185.133 630.507 185.133 630.507C184.729 628.405 185.321 626.112 185.321 626.112C186.941 630.963 192.401 631.062 192.401 631.062C192.401 631.062 187.278 627.342 188.818 616.837Z" fill="#3D3D3D"/>
<path opacity="0.47" d="M173.856 668.197C175.184 669.053 176.675 670.199 178.109 671.384C186.31 670.073 187.397 661.033 187.397 661.033C185.479 666.24 178.491 669.665 173.856 668.197Z" fill="#3D3D3D"/>
<path d="M223.831 703.016C223.8 707.797 221.652 711.555 221.652 711.555C221.652 711.555 226.543 708.116 226.615 700.517C224.958 701.908 223.831 703.016 223.831 703.016Z" fill="#F7C0A4"/>
<path opacity="0.15" d="M168.08 690.086C168.08 690.086 143.907 711.601 123.9 730.518C134.436 726.422 184.811 677.07 205.858 657.012L204.485 655.564L168.08 690.086Z" fill="white"/>
<path opacity="0.15" d="M118.342 729.933C118.439 727.899 116.976 724.307 113.877 726.277C111.68 730.357 115.891 734.394 118.434 732.95C118.187 732.125 118.297 730.854 118.342 729.933Z" fill="white"/>
<path d="M206.412 658.064L204.831 656.396C204.171 655.7 204.2 654.6 204.896 653.94L205.899 652.989C206.262 652.645 206.836 652.66 207.181 653.023L209.905 655.897C210.25 656.26 210.235 656.834 209.871 657.179L208.869 658.129C208.173 658.79 207.073 658.76 206.412 658.064Z" fill="url(#paint0_linear_4_2)"/>
<path d="M159.335 648.021C154.627 652.954 154.227 661.313 158.143 677.709C159.288 682.505 153.942 695.84 152.298 699.539C150.654 703.239 154.036 708.513 154.901 707.213C155.462 706.369 154.313 704.051 154.901 702.691C155.436 701.454 155.616 701.331 157.271 699.789C158.598 698.553 167.22 684.019 166.377 678.287C165.329 671.155 163.993 661.092 166.73 662.325C166.73 662.325 164.583 651.237 159.335 648.021Z" fill="#FCCFB2"/>
<path d="M156.713 707.112C156.104 704.375 156.671 703.472 157.442 704.037C158.212 704.602 157.955 703.986 158.572 703.113C159.189 702.239 159.471 703.524 160.011 702.13C160.393 701.142 160.884 700.871 161.375 702.472C161.773 703.774 159.909 705.013 158.907 705.938C157.904 706.863 156.835 707.663 156.713 707.112Z" fill="#FCCFB2"/>
<path d="M186.427 672.543C185.309 673.754 183.833 674.808 181.092 676.415C178.207 678.106 178.091 678.736 176.891 681.835C175.692 684.934 176.365 687.103 177.235 688.24C177.924 689.139 178.298 687.885 178.15 686.441C178.063 685.596 178.252 685.138 178.252 685.138C181.255 687.164 181.749 685.228 181.749 685.228C183.515 685.424 184.002 683.611 184.002 683.611C185.852 683.964 186.369 682.765 186.749 680.413C186.955 679.138 187.231 677.798 190.331 675.916C191.617 675.134 206.011 664.6 210.721 660.99C215.432 657.38 214.917 654.871 204.367 645.006C193.816 635.141 185.595 631.03 179.704 633.497C179.704 633.497 179.562 635.514 182.496 642.266C185.827 649.931 192.172 648.705 192.172 648.705C192.172 648.705 201.989 653.152 200.893 656.303C199.796 659.455 190.254 668.573 190.254 668.573" fill="#FCCFB2"/>
<path d="M192.171 648.706C188.835 646.51 188.302 643.427 188.302 643.427C188.302 643.427 187.778 645.628 187.943 648.122C190.236 649.077 192.171 648.706 192.171 648.706Z" fill="#F7C0A4"/>
<path d="M170.063 612.965C170.063 612.965 171.909 613.625 172.254 615.784C172.254 615.784 173.142 614.859 172.254 613.318C171.366 611.775 170.063 612.965 170.063 612.965Z" fill="url(#paint1_linear_4_2)"/>
<path opacity="0.15" d="M188.818 616.837C190.357 606.331 181.261 602.571 176.12 604.475C170.979 606.38 170.063 612.965 170.063 612.965L171.2 613.722C175.066 606.775 185.031 607.442 188.818 616.837Z" fill="white"/>
<path opacity="0.5" d="M157.264 614.155C157.264 614.155 147.254 615.783 150.523 626.974C150.523 626.974 150.42 621.436 153.183 619.973C153.566 616.874 155.727 615.311 157.264 614.155Z" fill="#3D3D3D"/>
<path d="M168.893 629.562C168.138 631.275 166.652 632.278 165.575 631.804C164.497 631.329 164.236 629.555 164.991 627.842C165.746 626.129 167.232 625.126 168.309 625.601C169.387 626.076 169.648 627.85 168.893 629.562Z" fill="#FCCFB2"/>
<g opacity="0.55">
<path opacity="0.5" d="M198.768 680.216C201.372 684.19 202.605 688.985 202.814 694.515L204.353 688.437C203.224 683.367 198.768 680.216 198.768 680.216Z" fill="#D1D1D1"/>
<path d="M204.353 688.437L204.392 689.06Z" fill="url(#paint2_linear_4_2)"/>
</g>
<path d="M217.884 744.283C216.27 742.39 211.859 747.282 208.39 746.249C207.938 746.114 207.187 745.767 206.709 744.337C206.709 744.337 205.743 743.682 203.938 745.863C202.6 747.479 201.805 750.915 195.931 752.415C192.228 753.361 189.899 755.236 193.413 757.896C196.927 760.557 202.282 758.885 207.942 756.8C213.603 754.714 216.971 756.382 219.579 754.709C221.332 753.583 219.669 746.377 217.884 744.283Z" fill="#455A64"/>
<path opacity="0.47" d="M200.594 757.066C200.216 755.616 199.481 753.708 196.74 752.184C196.48 752.265 196.212 752.343 195.929 752.415C192.226 753.361 189.897 755.236 193.411 757.896C194.86 758.993 196.624 759.346 198.591 759.245C199.881 758.273 200.684 757.409 200.594 757.066Z" fill="#455A64"/>
<path d="M220.233 750.999C216.621 751.59 211.727 752.74 208.673 754.069C204.492 755.888 196.38 759.578 191.991 756.432C192.265 756.89 192.726 757.378 193.41 757.896C196.925 760.557 202.28 758.885 207.94 756.8C209.355 756.278 210.627 755.991 211.779 755.828C212.068 755.788 212.348 755.755 212.622 755.728C213.443 755.647 214.199 755.62 214.903 755.6C216.779 755.547 218.273 755.546 219.576 754.709C220.299 754.245 220.441 752.746 220.233 750.999Z" fill="#F9F9F9"/>
<path d="M238.248 703.213C238.804 702.129 240.245 700.489 239.206 698.063C238.026 695.307 236.609 695.178 234.878 695.512C232.112 696.044 237.053 686.805 239.849 687.309C242.644 687.812 244.143 691.238 245.397 694.839C246.651 698.441 252.545 703.197 251.315 708.647C250.636 711.655 248.829 711.317 247.152 709.221C245.965 707.737 243.51 705.673 239.95 704.712C238.81 704.404 237.568 704.538 238.248 703.213Z" fill="#455A64"/>
<path opacity="0.47" d="M247.153 709.221C248.83 711.316 250.637 711.655 251.316 708.647C251.622 707.291 251.487 705.979 251.092 704.716C247.985 705.446 246.097 706.305 244.912 707.173C245.879 707.816 246.587 708.514 247.153 709.221Z" fill="#455A64"/>
<path d="M239.558 687.292C239.446 687.297 239.331 687.318 239.215 687.349C239.191 687.355 239.167 687.363 239.143 687.37C239.041 687.401 238.939 687.439 238.835 687.486C238.817 687.495 238.798 687.502 238.779 687.511C238.531 687.632 238.276 687.798 238.02 688.001C238.002 688.015 237.985 688.029 237.967 688.044C237.85 688.139 237.733 688.24 237.615 688.35C237.605 688.36 237.594 688.369 237.583 688.38C237.319 688.628 237.056 688.909 236.801 689.214C236.797 689.219 236.793 689.224 236.789 689.229C236.661 689.382 236.535 689.54 236.411 689.702C240.074 690.709 240.023 690.805 241.374 691.998C242.893 693.339 246.314 698.296 248.583 701.283C249.963 703.1 251.434 706.469 251.452 706.513V706.511C251.44 706.487 251.434 706.421 251.432 706.317C250.926 701.839 246.469 697.918 245.396 694.84C244.142 691.239 242.644 687.813 239.848 687.31C239.766 687.295 239.681 687.29 239.595 687.292C239.583 687.291 239.57 687.292 239.558 687.292Z" fill="#F9F9F9"/>
<path d="M113.919 739.064C118.241 742.464 122.044 740.688 126.908 736.076C135.171 728.24 144.012 719.613 151.579 712.148L147.91 708.28C140.055 715.44 130.97 723.81 122.707 731.646C117.747 736.349 118.234 732.138 118.34 729.934C118.445 727.73 116.722 723.694 113.069 726.883C109.417 730.072 109.694 735.74 113.919 739.064Z" fill="#455A64"/>
<path d="M204.483 655.564L168.077 690.086C168.077 690.086 159.281 697.915 147.91 708.279L151.579 712.148C162.532 701.343 170.817 692.975 170.817 692.975L207.223 658.453L204.483 655.564Z" fill="#D1D1D1"/>
<path d="M143.041 755.106C146.616 755.106 149.515 752.207 149.515 748.631C149.515 745.056 146.616 742.157 143.041 742.157C139.465 742.157 136.566 745.056 136.566 748.631C136.566 752.207 139.465 755.106 143.041 755.106Z" fill="#455A64"/>
<path opacity="0.39" d="M136.599 747.981C136.904 744.925 139.334 742.494 142.39 742.19C142.801 742.839 143.041 743.608 143.041 744.433C143.041 746.752 141.161 748.631 138.842 748.631C138.017 748.631 137.248 748.392 136.599 747.981Z" fill="#D1D1D1"/>
</g>
<path opacity="0.41" d="M13.0797 521L-112 401.546L-102.588 392L18 521H13.0797Z" fill="#E7E7E7"/>
<path opacity="0.41" d="M323.92 577L449 458.472L439.588 449L319 577H323.92Z" fill="#E7E7E7"/>
<path opacity="0.24" d="M90.3167 734L-105 919.2L-90.3023 934L98 734H90.3167Z" fill="#E7E7E7"/>
<path opacity="0.24" d="M272.867 730L422 869.826L410.778 881L267 730H272.867Z" fill="#E7E7E7"/>
</g>
<defs>
<linearGradient id="paint0_linear_4_2" x1="207.336" y1="652.761" x2="207.182" y2="658.594" gradientUnits="userSpaceOnUse">
<stop stop-color="#FBC02D"/>
<stop offset="1" stop-color="#FFEE58"/>
</linearGradient>
<linearGradient id="paint1_linear_4_2" x1="170.063" y1="614.155" x2="172.649" y2="614.155" gradientUnits="userSpaceOnUse">
<stop stop-color="#FFEE58"/>
<stop offset="1" stop-color="#FBC02D"/>
</linearGradient>
<linearGradient id="paint2_linear_4_2" x1="204.353" y1="688.748" x2="204.392" y2="688.748" gradientUnits="userSpaceOnUse">
<stop stop-color="#9C178D"/>
<stop offset="1" stop-color="#7A096E"/>
</linearGradient>
<clipPath id="clip0_4_2">
<rect width="393" height="852" fill="white"/>
</clipPath>
</defs>
</svg>
