<svg width="173" height="218" viewBox="0 0 173 218" fill="none" xmlns="http://www.w3.org/2000/svg">
<path d="M79.624 24.0526C86.2659 24.0526 91.6503 18.6683 91.6503 12.0263C91.6503 5.38437 86.2659 0 79.624 0C72.982 0 67.5977 5.38437 67.5977 12.0263C67.5977 18.6683 72.982 24.0526 79.624 24.0526Z" fill="#3D3D3D"/>
<path d="M172.241 213.718C172.241 216.083 133.683 218 86.1206 218C38.5578 218 0 216.083 0 213.718C0 211.354 38.5578 209.436 86.1206 209.436C133.683 209.436 172.241 211.353 172.241 213.718Z" fill="#F7D8BA"/>
<path d="M78.5195 208.061L81.5862 188.326L90.9459 187.848L86.8499 208.599L78.5195 208.061Z" fill="#FCCFB2"/>
<path d="M88.6503 204.215C88.6503 204.215 81.5028 207.309 78.1432 202.439L62.0977 211.847L90.8695 211.646L88.6503 204.215Z" fill="black"/>
<path d="M62.11 214.491L90.8828 214.289L90.8642 211.633L62.0914 211.834L62.11 214.491Z" fill="white"/>
<path d="M157.664 201.564L147.863 184.162L154.921 177.996L164.542 196.831L157.664 201.564Z" fill="#FCCFB2"/>
<path d="M163.239 192.274C163.239 192.274 159.539 199.127 153.885 197.38L147.102 214.699L169.58 196.738L163.239 192.274Z" fill="black"/>
<path d="M148.792 216.787L171.27 198.827L169.611 196.752L147.134 214.712L148.792 216.787Z" fill="white"/>
<path d="M104.06 103.23C104.06 103.23 92.8872 133.267 89.7791 142.592C86.671 151.916 76.5234 198.851 76.5234 198.851L91.1053 201.923L106.31 154.459L116.905 132.137C116.905 132.137 125.996 154.459 129.222 162.089C132.447 169.718 149.189 197.127 149.189 197.127L162.964 190.63L148.356 153.047L134.02 103.23H104.06Z" fill="#3D3D3D"/>
<path d="M115.313 49.3275L115.235 56.9103C115.202 59.573 116.774 61.0103 119.314 61.0103C121.481 61.0103 123.872 59.5417 123.802 57.1932L123.368 45.6982L115.313 49.3275Z" fill="#EDB994"/>
<path d="M115.234 54.0204L122.602 49.8699C122.41 47.6052 115.305 48.5497 115.305 48.5497L115.234 54.0204Z" fill="#FCCFB2"/>
<path d="M103.869 25.3769C103.83 25.3688 103.796 25.3688 103.757 25.3799C103.437 25.4718 101.868 26.0213 102.274 27.8849C102.726 29.9597 109.46 34.1769 114.069 31.5556L112.383 27.0213L103.869 25.3769Z" fill="#D1D1D1"/>
<path d="M112.327 42.6355C111.945 44.3244 110.267 45.384 108.578 45.0032C106.889 44.6214 105.829 42.9436 106.21 41.2547C106.592 39.5658 108.27 38.5062 109.959 38.887C111.648 39.2678 112.708 40.9466 112.327 42.6355Z" fill="#FCCFB2"/>
<path d="M108.534 32.0981C108.534 32.0981 106.857 42.7214 108.523 46.7911C110.189 50.8608 113.728 53.2477 119.079 51.7962C119.079 51.7962 125.345 51.0326 126.25 41.5861C127.615 27.3658 114.541 24.1466 108.534 32.0981Z" fill="#FCCFB2"/>
<path d="M123.154 39.6375C123.154 39.6375 122.06 37.9062 123.165 33.2102C124.27 28.5142 111.553 28.6385 108.539 32.0981C108.539 32.0981 110.566 26.8567 118.162 26.5809C125.758 26.3051 131.904 31.1486 129.281 39.6375L127.417 42.6062L123.154 39.6375Z" fill="#171717"/>
<path d="M122.665 37.0961C122.665 37.0961 123.249 43.2861 117.971 44.381C114.604 45.08 111.193 42.6063 108.016 44.8204C108.016 44.8204 109.264 54.175 118.858 51.9194C120.142 51.6174 121.326 50.9992 122.323 50.1346C124.27 48.4436 127.065 44.9982 125.406 40.0345L122.665 37.0961Z" fill="#3D3D3D"/>
<path d="M131.122 42.783C130.659 44.8325 128.622 46.1184 126.572 45.6557C124.523 45.1931 123.237 43.1557 123.7 41.1062C124.162 39.0567 126.2 37.7708 128.249 38.2335C130.299 38.6961 131.586 40.7335 131.122 42.783Z" fill="#FCCFB2"/>
<path d="M129.042 40.7122C129.042 40.7122 126.203 40.1143 125.684 43.2294" stroke="#1C0E0E" stroke-width="0.4142" stroke-miterlimit="10" stroke-linecap="round" stroke-linejoin="round"/>
<path d="M109.974 40.085C109.901 40.4739 109.527 40.7315 109.137 40.6588C108.747 40.5861 108.49 40.2113 108.563 39.8214C108.636 39.4325 109.011 39.1749 109.4 39.2477C109.79 39.3214 110.047 39.6961 109.974 40.085Z" fill="#171717"/>
<path d="M116.033 39.7689C115.96 40.1588 115.585 40.4153 115.195 40.3426C114.806 40.2699 114.549 39.8951 114.622 39.5052C114.694 39.1164 115.069 38.8598 115.459 38.9315C115.849 39.0052 116.106 39.38 116.033 39.7689Z" fill="#171717"/>
<path d="M111.575 40.6709L110.406 42.6063L111.575 43.2184" stroke="#1C0E0E" stroke-width="0.4142" stroke-miterlimit="10" stroke-linecap="round" stroke-linejoin="round"/>
<path d="M113.791 35.278C113.751 35.8628 114.221 36.3527 114.806 36.3356C115.689 36.3103 116.98 36.3558 118.185 36.7063C118.634 36.8366 119.106 36.6053 119.254 36.1618C119.396 35.7376 119.166 35.3214 118.776 35.1012C117.978 34.6507 116.72 33.9931 114.651 34.3628C114.187 34.4467 113.824 34.8073 113.791 35.278Z" fill="#171717"/>
<path d="M110.99 35.4992C110.97 36.0699 110.621 36.5729 110.237 36.583C109.659 36.5982 108.806 36.7012 107.986 37.1002C107.681 37.2487 107.389 37.0436 107.327 36.6153C107.269 36.2052 107.453 35.7871 107.726 35.5537C108.287 35.0749 109.167 34.3739 110.497 34.6416C110.797 34.7022 111.007 35.0396 110.99 35.4992Z" fill="#171717"/>
<path d="M110.941 45.2376L114.826 45.3023C114.826 45.3023 114.787 47.4811 113.096 47.4639C111.404 47.4467 110.941 45.2376 110.941 45.2376Z" fill="white"/>
<path d="M127.198 25.2748C127.067 26.1112 126.283 26.6819 125.448 26.5506C124.611 26.4193 124.041 25.6354 124.171 24.8001C124.302 23.9637 125.086 23.393 125.921 23.5243C126.758 23.6556 127.329 24.4384 127.198 25.2748Z" fill="#D1D1D1"/>
<path d="M123.464 23.8899C129.015 26.1212 131.843 32.098 129.808 37.2637L111.031 26.7869C113.816 23.3485 118.855 22.0374 123.464 23.8899Z" fill="#3D3D3D"/>
<path d="M123.104 33.5203C123.104 33.5203 118.281 27.1364 111.332 26.4294L103.855 25.3738C103.855 25.3738 109.637 27.5081 111.924 29.9607C114.21 32.4142 120.321 34.2294 123.104 33.5203Z" fill="#D1D1D1"/>
<path d="M104.583 72.5206C104.583 72.5206 97.8307 66.4821 84.3054 50.2811C81.9781 47.4932 83.5801 45.0002 86.0003 42.2931C88.2215 39.8083 89.8428 40.7497 92.6034 42.6164L109.961 55.8689L104.583 72.5206Z" fill="#3D3D3D"/>
<path d="M90.0586 27.7355L89.8849 21.8749L91.799 15.1274C92.0566 14.4365 92.2314 13.7183 92.3182 12.986L93.0546 6.8627C93.1223 6.29805 92.7486 5.77581 92.193 5.65561C91.5981 5.52733 91.0132 5.90612 90.8849 6.50006L89.3738 12.7829L86.8768 17.0567L86.2697 12.1445C86.1293 11.5829 85.6051 11.2031 85.0263 11.2445C84.4233 11.288 84.2122 11.7304 84.0899 12.4243L83.4293 16.3991C83.2808 17.6153 83.3172 18.8476 83.5384 20.0527L84.9303 27.6456L90.0586 27.7355Z" fill="#EDB994"/>
<path d="M91.7062 24.0527L82.6606 24.1173L82.4688 46.5346C82.8657 50.3053 86.5809 52.7962 90.2193 51.7306C93.4344 50.7892 95.2819 47.4245 94.3496 44.2073L91.7062 24.0527Z" fill="#3D3D3D"/>
<path d="M129.223 58.2963C129.223 58.2963 133.231 59.9235 137.209 62.4407C137.917 62.8882 138.31 63.7003 138.233 64.5347L134.979 112.395C134.979 112.395 118.747 117.688 101.297 111.965L102.496 61.0912C102.496 60.6488 101.706 59.8316 102.405 59.3104C103.85 58.2326 105.769 57.1306 109.966 55.9073L129.223 58.2963Z" fill="#3D3D3D"/>
<path d="M102.273 70.5428L102.456 62.7731" stroke="#1C0E0E" stroke-width="0.4142" stroke-miterlimit="10" stroke-linecap="round" stroke-linejoin="round"/>
<path d="M121.268 55.6235L129.223 58.2963C129.223 58.2963 127.548 62.0589 120.75 62.3165C114.427 62.5569 110.195 57.7175 109.965 55.9064L116.637 55.6235H121.268Z" fill="#EDB994"/>
<path d="M137.056 62.3467C137.056 62.3467 146.894 69.1801 159.664 87.959C161.707 90.962 159.214 92.7873 156.369 95.0459C153.759 97.1176 152.321 95.9156 149.917 93.6075L129.805 75.9226L137.056 62.3467Z" fill="#3D3D3D"/>
<path d="M137.044 82.0266L129.805 75.9216" stroke="#1C0E0E" stroke-width="0.4142" stroke-miterlimit="10" stroke-linecap="round" stroke-linejoin="round"/>
<path d="M124.393 104.686L129.794 100.969L129.056 99.7732C128.788 99.3378 128.843 98.7772 129.193 98.4025C129.553 98.0166 130.132 97.9297 130.59 98.1934L136.626 101.669L140.896 105.626C139.892 108.25 136.074 108.961 134.825 108.598C134.694 108.662 134.564 108.731 134.43 108.789L129.799 110.811C129.379 111.062 128.836 110.944 128.559 110.54C128.358 110.247 128.236 109.751 129.1 109.157L128.236 109.751C127.793 110.017 127.217 109.884 126.936 109.45C126.674 109.068 126.856 108.492 127.353 108.066L126.681 108.439C126.197 108.73 125.558 108.557 125.293 108.038C125.063 107.588 125.244 107.035 125.659 106.75L126.614 106.095L125.437 106.552C124.904 106.825 124.239 106.609 123.979 106.046C123.756 105.565 123.954 104.988 124.393 104.686Z" fill="#EDB994"/>
<path d="M140.897 105.627L144.004 103.616L140.897 98.0428L134.027 103.23L140.897 105.627Z" fill="#EDB994"/>
<path d="M136.551 98.9469L140.156 107.147L157.443 97.4247C160.916 95.9024 162.162 91.6075 160.043 88.463C158.171 85.6852 154.404 84.9458 151.621 86.8095L136.551 98.9469Z" fill="#3D3D3D"/>
<path d="M146.492 90.7186L150.225 87.8741" stroke="#1C0E0E" stroke-width="0.4142" stroke-miterlimit="10" stroke-linecap="round" stroke-linejoin="round"/>
<path d="M126.613 106.097C126.613 106.097 127.915 105.188 128.512 104.824" stroke="#1C0E0E" stroke-width="0.4142" stroke-miterlimit="10" stroke-linecap="round" stroke-linejoin="round"/>
<path d="M127.355 108.068L130 106.2" stroke="#1C0E0E" stroke-width="0.4142" stroke-miterlimit="10" stroke-linecap="round" stroke-linejoin="round"/>
<path d="M128.949 109.262L130.779 107.948" stroke="#1C0E0E" stroke-width="0.4142" stroke-miterlimit="10" stroke-linecap="round" stroke-linejoin="round"/>
<path d="M129.793 100.97C129.793 100.97 130.809 100.566 132.866 100.97" stroke="#1C0E0E" stroke-width="0.4142" stroke-miterlimit="10" stroke-linecap="round" stroke-linejoin="round"/>
<path d="M38.9303 153.532L26.1373 149.844L21.5373 172.686L20.406 174.506C16.7524 180.385 13.6615 186.596 11.1756 193.055L7.26953 203.203L14.313 206.358C14.313 206.358 33.1252 171.98 35.3858 166.863C37.6454 161.746 38.9303 153.532 38.9303 153.532Z" fill="#FCCFB2"/>
<path d="M4.38506 201.176L17.4477 203.844C17.4477 203.844 17.0871 206.718 21.1336 207.998C25.1801 209.278 27.0205 211.921 26.7468 214.926L0.847656 209.635C0.847656 209.635 1.77293 206.197 4.38506 201.176Z" fill="white"/>
<path d="M26.7471 214.953L0.847656 209.661L0.469697 211.511L26.3692 216.803L26.7471 214.953Z" fill="#070924"/>
<path d="M2.46484 205.225C2.46484 205.225 7.26892 206.726 6.44164 210.778" stroke="#070924" stroke-width="0.3907" stroke-miterlimit="10"/>
<path d="M18.1995 206.291C18.1995 206.291 17.3843 206.116 15.5156 207.007" stroke="#070924" stroke-width="0.3907" stroke-miterlimit="10" stroke-linecap="round" stroke-linejoin="round"/>
<path d="M19.6789 207.454C19.6789 207.454 18.1607 207.229 17.0273 208.202" stroke="#070924" stroke-width="0.3907" stroke-miterlimit="10" stroke-linecap="round" stroke-linejoin="round"/>
<path d="M23.134 119.945C23.134 119.945 25.5997 139.946 21.5391 148.908L41.3068 154.164C45.5846 142.004 43.0775 130.005 43.0775 130.005L23.134 119.945Z" fill="#E9DACB"/>
<path d="M70.7691 158.184L56.3912 137.931L45.168 148.852L63.4761 165.127C66.4721 172.542 70.9034 179.292 76.5166 184.989L87.1631 195.795L92.0914 191.231L70.7691 158.184Z" fill="#FCCFB2"/>
<path d="M82.0938 196.277L91.8766 187.218C91.8766 187.218 94.0019 189.186 97.3999 186.644C100.799 184.103 104.019 184.148 106.301 186.122L86.9059 204.082C86.9059 204.082 84.6513 201.326 82.0938 196.277Z" fill="white"/>
<path d="M106.269 186.115L86.875 204.074L88.1576 205.459L107.552 187.5L106.269 186.115Z" fill="#070924"/>
<path d="M84.2656 200.197C84.2656 200.197 88.2858 197.168 91.096 200.203" stroke="#070924" stroke-width="0.3907" stroke-miterlimit="10"/>
<path d="M94.2993 188.032C94.2993 188.032 93.6821 188.592 93.3164 190.631" stroke="#070924" stroke-width="0.3907" stroke-miterlimit="10" stroke-linecap="round" stroke-linejoin="round"/>
<path d="M96.1094 187.507C96.1094 187.507 95.0417 188.609 95.171 190.097" stroke="#070924" stroke-width="0.3907" stroke-miterlimit="10" stroke-linecap="round" stroke-linejoin="round"/>
<path d="M38.6261 105.38C38.6261 105.38 44.6625 109.562 52.1706 123.401C59.6787 137.239 58.2818 136.094 58.2818 136.094L44.1514 149.844L37.3928 140.827C37.3928 140.827 18.0281 128.817 24.1796 109.258L38.6261 105.38Z" fill="#3D3D3D"/>
<path d="M35.2193 76.7963L48.1669 65.0255C50.8012 62.6346 54.9204 63.0215 57.0629 65.8629C58.979 68.4044 58.5982 71.9963 56.1911 74.0791L43.1234 85.7135C40.5416 87.9479 36.6123 87.56 34.5183 84.862C32.6082 82.4024 32.9143 78.8883 35.2193 76.7963Z" fill="#3D3D3D"/>
<path d="M60.8138 36.4749L62.0169 34.0688C62.1997 33.7042 62.6361 33.5456 63.0098 33.7092C63.3684 33.8658 63.5512 34.2688 63.433 34.6426L62.4239 37.3406L63.7876 35.7072C64.0876 35.3476 64.627 35.3123 64.9714 35.6305C65.2654 35.9012 65.3209 36.3436 65.1027 36.679L63.8088 38.6709L64.9967 37.7042C65.3199 37.4406 65.7936 37.481 66.0694 37.7941C66.3401 38.1022 66.3239 38.5668 66.033 38.8557L64.2906 40.587L62.9381 43.185L61.5583 42.8335C61.5583 42.8335 59.631 39.2275 60.8138 36.4749Z" fill="#FCCFB2"/>
<path d="M57.1797 48.9315L58.6565 44.9093L58.8918 39.789C58.8726 39.2506 58.9181 38.7123 59.0272 38.184L59.9343 33.7688C60.0181 33.3617 60.3979 33.086 60.811 33.1315C61.2524 33.1799 61.5706 33.5779 61.5221 34.0193L61.1161 38.7244L61.8585 42.2648L63.4161 39.0002C63.6434 38.6436 64.0949 38.5012 64.4858 38.6638C64.8939 38.8335 64.9373 39.189 64.8616 39.6981L64.3989 42.6062C64.2201 43.484 63.91 44.3295 63.4777 45.1133L60.7555 50.0548L57.1797 48.9315Z" fill="#FCCFB2"/>
<path d="M56.5156 45.478L47.8913 66.7346C46.6893 69.7821 48.3893 73.1993 51.5448 74.0791C54.4701 74.8943 57.5034 73.1943 58.3358 70.274L65.2823 48.5426L56.5156 45.478Z" fill="#3D3D3D"/>
<path d="M34.581 73.7407C34.581 73.7407 24.5396 72.1711 20.1476 79.5085C15.7557 86.8459 18.6315 105.494 24.184 109.258L38.6306 105.38C38.6306 105.38 46.2094 90.3863 42.5488 80.9751C40.1083 74.6993 34.581 73.7407 34.581 73.7407Z" fill="#3D3D3D"/>
<path d="M72.2188 78.358L72.8612 76.4236C73.1965 75.4135 73.7682 74.4994 74.5299 73.7529L75.8703 72.4397C76.1885 72.1276 76.7177 72.1771 76.9794 72.5438C77.2006 72.8529 77.2107 73.262 77.0056 73.5771L75.9208 75.2438L82.8976 71.6852C83.1945 71.5256 83.5693 71.662 83.6956 71.9761L83.7804 72.1872C83.8794 72.4357 83.7895 72.7165 83.5643 72.8589L79.5016 75.0953L84.535 73.169C84.841 73.0297 85.2057 73.1882 85.3117 73.5084L85.3642 73.667C85.4531 73.9357 85.3269 74.2266 85.0693 74.3438L79.8935 76.5014L84.3582 75.5347C84.7077 75.4509 85.0501 75.7085 85.0622 76.065L85.0642 76.1367C85.0723 76.3812 84.9188 76.6014 84.6855 76.6782L80.144 78.1883L83.0097 77.6287C83.4168 77.5489 83.7733 77.9196 83.6733 78.3175C83.6259 78.5074 83.4804 78.657 83.2915 78.7125L73.0571 81.7095L72.2188 78.358Z" fill="#FCCFB2"/>
<path d="M72.7577 73.7913L50.5496 79.0893C47.3849 79.8761 45.599 83.2297 46.7101 86.2943C47.7404 89.1358 50.8718 90.6105 53.7183 89.5974L75.3426 82.6661L72.7577 73.7913Z" fill="#3D3D3D"/>
<path d="M35.7689 76.8994L52.0155 78.6226C55.3185 78.9762 57.6054 82.0893 56.9539 85.3469C56.3711 88.2611 53.6296 90.2247 50.6832 89.8388C50.6832 89.8388 42.2993 90.0005 34.4568 87.9459C31.372 87.1378 29.1275 84.5509 29.7093 81.4156C30.2386 78.558 32.879 76.5903 35.7689 76.8994Z" fill="#3D3D3D"/>
<path d="M38.7264 65.8074L36.8385 76.4842L27.8203 73.9852L30.5415 58.677L38.7264 65.8074Z" fill="#FCCFB2"/>
<path d="M37.7132 71.5589C37.7435 71.3872 34.6445 65.5104 34.6445 65.5104L39.0183 67.066L37.7132 71.5589Z" fill="#FCCFB2"/>
<path d="M38.3406 46.0073C38.3406 46.0073 42.8891 46.078 43.9709 51.6225C43.9709 51.6225 44.5649 54.5376 45.5831 60.3407C46.1215 63.4073 44.6619 66.869 40.7467 67.2245C38.8477 67.3973 36.677 66.6407 34.6446 65.5094L31.7133 63.4932C24.7143 57.6942 28.5891 46.1467 37.677 46.0042C37.8941 46.0012 38.1153 46.0022 38.3406 46.0073Z" fill="#FCCFB2"/>
<path d="M44.4883 56.6851L46.5125 59.4518C46.8297 59.674 46.7418 60.1659 46.3671 60.2639L44.5458 60.4417L44.4883 56.6851Z" fill="#FCCFB2"/>
<path d="M42.4141 53.5993C42.4141 53.5993 43.8505 53.1336 44.0555 53.7659C44.0555 53.7659 44.1838 54.1972 42.9232 54.577C41.6626 54.9568 41.2979 54.9336 41.0585 54.5558C40.8202 54.179 41.7242 53.7619 42.4141 53.5993Z" fill="black"/>
<path d="M42.9322 57.6952C43.1029 57.9851 43.4766 58.0811 43.7665 57.9093C44.0554 57.7386 44.1524 57.3649 43.9807 57.075C43.81 56.7851 43.4363 56.6891 43.1464 56.8608C42.8575 57.0326 42.7615 57.4053 42.9322 57.6952Z" fill="black"/>
<path d="M44.2893 61.4599L41.3933 61.2478C41.3933 61.2478 40.8277 63.4023 42.3822 63.8266C43.9358 64.2508 44.2893 61.4599 44.2893 61.4599Z" fill="white"/>
<path d="M33.9413 56.9023C33.9413 56.9023 29.2696 43.7436 41.805 47.4932C41.805 47.4932 36.1494 40.7659 26.5271 46.7982C24.512 48.0619 22.6735 51.0326 22.623 53.4104C22.5402 57.2578 25.1069 60.1437 29.3261 65.5336L32.5625 60.3872C32.6544 59.4114 33.9413 56.9023 33.9413 56.9023Z" fill="black"/>
<path d="M36.9937 50.278L36.4483 58.6861L34.8099 58.4609L30.125 52.4538L36.9937 50.278Z" fill="black"/>
<path d="M28.9798 58.9195C29.0929 60.571 30.5232 61.8185 32.1747 61.7063C33.8263 61.5932 35.0737 60.1639 34.9616 58.5113C34.8485 56.8598 33.4192 55.6123 31.7667 55.7255C30.1141 55.8376 28.8666 57.2679 28.9798 58.9195Z" fill="#FCCFB2"/>
<path d="M33.3347 59.2235C33.3347 59.2235 33.1872 57.0548 31.1367 57.5376" stroke="#070924" stroke-width="0.4331" stroke-miterlimit="10" stroke-linecap="round" stroke-linejoin="round"/>
<path d="M35.5848 44.3658C35.5848 44.3658 46.3515 44.5265 46.501 51.4901C46.501 51.4901 36.6161 55.6417 31.71 52.8619C31.71 52.8619 25.4756 48.0446 35.5848 44.3658Z" fill="black"/>
<path d="M10.8875 55.075C12.6127 58.6053 16.8724 60.069 20.4027 58.3437C23.933 56.6184 25.3966 52.3588 23.6714 48.8285C21.9461 45.2982 17.6865 43.8345 14.1562 45.5598C10.6269 47.2841 9.16321 51.5447 10.8875 55.075Z" fill="black"/>
</svg>
